%TF.GenerationSoftware,KiCad,Pcbnew,9.0.3*%
%TF.CreationDate,2025-09-25T11:10:51+01:00*%
%TF.ProjectId,DMGC-IPS-01_2-4,444d4743-2d49-4505-932d-30315f322d34,rev?*%
%TF.SameCoordinates,Original*%
%TF.FileFunction,Copper,L1,Top*%
%TF.FilePolarity,Positive*%
%FSLAX46Y46*%
G04 Gerber Fmt 4.6, Leading zero omitted, Abs format (unit mm)*
G04 Created by KiCad (PCBNEW 9.0.3) date 2025-09-25 11:10:51*
%MOMM*%
%LPD*%
G01*
G04 APERTURE LIST*
G04 Aperture macros list*
%AMRoundRect*
0 Rectangle with rounded corners*
0 $1 Rounding radius*
0 $2 $3 $4 $5 $6 $7 $8 $9 X,Y pos of 4 corners*
0 Add a 4 corners polygon primitive as box body*
4,1,4,$2,$3,$4,$5,$6,$7,$8,$9,$2,$3,0*
0 Add four circle primitives for the rounded corners*
1,1,$1+$1,$2,$3*
1,1,$1+$1,$4,$5*
1,1,$1+$1,$6,$7*
1,1,$1+$1,$8,$9*
0 Add four rect primitives between the rounded corners*
20,1,$1+$1,$2,$3,$4,$5,0*
20,1,$1+$1,$4,$5,$6,$7,0*
20,1,$1+$1,$6,$7,$8,$9,0*
20,1,$1+$1,$8,$9,$2,$3,0*%
%AMRotRect*
0 Rectangle, with rotation*
0 The origin of the aperture is its center*
0 $1 length*
0 $2 width*
0 $3 Rotation angle, in degrees counterclockwise*
0 Add horizontal line*
21,1,$1,$2,0,0,$3*%
%AMFreePoly0*
4,1,160,1.704732,9.549820,1.331734,9.549820,1.331733,9.276820,4.404731,9.276820,4.429507,9.274380,4.475288,9.255417,4.510327,9.220377,4.529291,9.174596,4.531731,9.149820,4.531728,7.449820,4.529288,7.425044,4.510325,7.379263,4.475285,7.344223,4.429504,7.325260,4.379952,7.325260,4.334171,7.344223,4.299131,7.379263,4.280168,7.425044,4.277728,7.449820,4.277731,9.022820,
3.731731,9.022820,3.731728,7.449820,3.729288,7.425044,3.710325,7.379264,3.675285,7.344223,3.629505,7.325260,3.579952,7.325260,3.534171,7.344223,3.499131,7.379263,3.480168,7.425044,3.477728,7.449820,3.477731,9.022820,2.931729,9.022820,2.931732,7.449820,2.929292,7.425044,2.910329,7.379263,2.875289,7.344222,2.829508,7.325260,2.779956,7.325260,2.734174,7.344223,
2.699136,7.379263,2.680172,7.425044,2.677732,7.449820,2.677729,9.022820,2.131729,9.022819,2.131732,7.449823,2.129292,7.425047,2.110329,7.379267,2.075289,7.344226,2.029509,7.325263,1.979956,7.325263,1.934175,7.344226,1.899135,7.379266,1.880172,7.425047,1.877732,7.449823,1.877729,9.022820,1.333886,9.022820,1.333892,6.649823,1.704735,6.649823,1.704735,5.977379,
1.716045,5.971365,2.045470,6.590923,3.723070,5.698928,3.042336,4.418654,3.040088,4.419848,3.038356,4.416587,1.713936,5.120794,1.715670,5.124055,1.364737,5.310650,1.596799,5.747096,1.497637,5.799823,1.331735,5.799823,1.331735,4.299824,1.704735,4.299824,1.704734,3.449824,1.331735,3.449824,1.331738,1.076827,1.877732,1.076828,1.877732,2.649827,1.880172,2.674604,
1.899135,2.720384,1.934175,2.755424,1.979956,2.774386,2.029508,2.774388,2.075289,2.755424,2.110329,2.720384,2.129292,2.674603,2.131732,2.649827,2.131732,1.076827,2.677732,1.076827,2.677732,2.649826,2.680172,2.674603,2.699135,2.720384,2.734175,2.755424,2.779956,2.774387,2.829508,2.774387,2.875289,2.755424,2.910329,2.720384,2.929292,2.674604,2.931732,2.649827,
2.931732,1.076827,3.477732,1.076827,3.477731,2.649827,3.480172,2.674603,3.499134,2.720384,3.534174,2.755424,3.579955,2.774387,3.629507,2.774387,3.675287,2.755424,3.710328,2.720384,3.729290,2.674603,3.731731,2.649827,3.731731,1.076826,4.277731,1.076824,4.277731,2.649827,4.280171,2.674603,4.299134,2.720384,4.334174,2.755424,4.379955,2.774387,4.429507,2.774387,
4.475288,2.755423,4.510328,2.720384,4.529292,2.674603,4.531731,2.649827,4.531731,0.949824,4.529291,0.925048,4.510327,0.879267,4.475288,0.844227,4.429507,0.825263,4.404731,0.822824,3.604731,0.822827,1.331737,0.822827,1.331736,0.549827,1.704735,0.549827,1.704735,-0.300172,0.704735,-0.300173,0.704735,-0.064342,0.666588,-0.044060,0.221529,-0.881097,-1.102892,-0.176890,
-0.516053,0.926795,0.704736,0.277690,0.704735,0.549827,1.077736,0.549827,1.077738,0.949828,1.077735,3.449824,0.704735,3.449824,0.704735,4.299824,1.077735,4.299824,1.077736,5.799823,0.704735,5.799823,0.704735,6.649823,1.079892,6.649823,1.079886,9.127947,1.077732,9.149821,1.077734,9.549820,0.704732,9.549820,0.704732,10.399820,1.704732,10.399820,1.704732,9.549820,
1.704732,9.549820,$1*%
%AMFreePoly1*
4,1,166,0.875000,-1.000000,0.378690,-1.000000,0.378690,-1.002542,-0.871310,-1.002542,-0.871310,-1.000000,-0.875000,-1.000000,-0.875000,-0.859543,-2.216262,-0.859543,-2.051182,-1.170015,-2.801688,-1.569066,-2.976800,-1.239726,-5.072032,-2.353780,-4.815700,-2.835869,-3.426827,-2.097393,-3.403806,-2.087916,-3.354481,-2.083166,-3.307092,-2.097654,-3.268856,-2.129174,-3.245593,-2.172926,-3.240843,-2.222251,
-3.255331,-2.269639,-3.286851,-2.307876,-3.307581,-2.321662,-4.696454,-3.060137,-4.440122,-3.542227,-3.051249,-2.803750,-3.028228,-2.794273,-2.978903,-2.789524,-2.931514,-2.804012,-2.893278,-2.835531,-2.870015,-2.879283,-2.865265,-2.928608,-2.879754,-2.975997,-2.911273,-3.014233,-2.932004,-3.028019,-4.320876,-3.766495,-4.064544,-4.248584,-2.675673,-3.510108,-2.652652,-3.500631,-2.603327,-3.495881,
-2.555938,-3.510369,-2.517702,-3.541889,-2.494439,-3.585641,-2.489689,-3.634966,-2.504177,-3.682354,-2.535697,-3.720591,-2.556427,-3.734377,-3.945299,-4.472852,-3.688970,-4.954940,-2.300095,-4.216462,-2.277074,-4.206985,-2.227749,-4.202235,-2.180360,-4.216723,-2.142124,-4.248243,-2.118861,-4.291995,-2.114111,-4.341319,-2.128599,-4.388708,-2.160119,-4.426944,-2.180849,-4.440730,-3.681860,-5.238832,
-3.704882,-5.248310,-3.754206,-5.253059,-3.754206,-5.253058,-3.754207,-5.253059,-3.801596,-5.238571,-3.839832,-5.207051,-3.853618,-5.186320,-4.229191,-4.479963,-4.229192,-4.479959,-5.296301,-2.473025,-5.537346,-2.601191,-5.362233,-2.930532,-6.112738,-3.329583,-6.287851,-3.000243,-7.612271,-3.704451,-7.437159,-4.033789,-8.187664,-4.432840,-8.362775,-4.103503,-8.603819,-4.231666,-8.287864,-4.825890,
-7.912291,-5.532248,-7.161137,-6.944961,-7.151660,-6.967983,-7.146911,-7.017308,-7.161399,-7.064696,-7.192919,-7.102933,-7.213649,-7.116718,-8.714657,-7.914818,-8.737679,-7.924296,-8.787003,-7.929045,-8.834392,-7.914557,-8.872628,-7.883037,-8.895892,-7.839285,-8.900641,-7.789961,-8.886153,-7.742572,-8.854633,-7.704336,-8.833903,-7.690550,-7.445029,-6.952071,-7.701359,-6.469985,-9.090232,-7.208465,
-9.113253,-7.217943,-9.162578,-7.222692,-9.209967,-7.208204,-9.248203,-7.176684,-9.271467,-7.132933,-9.276216,-7.083608,-9.261728,-7.036219,-9.230208,-6.997983,-9.209478,-6.984197,-7.820604,-6.245716,-8.076936,-5.763627,-9.465810,-6.502105,-9.488832,-6.511583,-9.538156,-6.516332,-9.585545,-6.501844,-9.623781,-6.470324,-9.647045,-6.426572,-9.651794,-6.377248,-9.637306,-6.329859,-9.605786,-6.291623,
-9.585056,-6.277837,-8.196182,-5.539358,-8.452511,-5.057269,-9.841387,-5.795747,-9.864409,-5.805225,-9.913733,-5.809974,-9.961122,-5.795486,-9.999358,-5.763966,-10.022622,-5.720214,-10.027371,-5.670890,-10.012883,-5.623501,-9.981363,-5.585265,-9.960633,-5.571479,-8.571756,-4.833000,-8.828088,-4.350910,-10.923321,-5.464968,-10.748210,-5.794306,-11.498715,-6.193357,-11.968187,-5.310410,-11.217681,-4.911359,
-11.042567,-5.240700,-8.835199,-4.067019,-8.482021,-3.879234,-8.657136,-3.549893,-7.906631,-3.150842,-7.731516,-3.480183,-6.407096,-2.775974,-6.582210,-2.446635,-6.373305,-2.335558,-6.373306,-1.002541,-6.871306,-1.002542,-6.871306,0.497458,-5.621306,0.497458,-5.621306,-1.002541,-6.119306,-1.002541,-6.119305,-2.200504,-5.831705,-2.047584,-5.656591,-2.376923,-3.096046,-1.015457,-3.271159,-0.686118,
-2.520654,-0.287067,-2.351316,-0.605543,-0.875000,-0.605543,-0.875000,1.000000,0.875000,1.000000,0.875000,-1.000000,0.875000,-1.000000,$1*%
G04 Aperture macros list end*
%TA.AperFunction,SMDPad,CuDef*%
%ADD10R,1.750000X2.000000*%
%TD*%
%TA.AperFunction,SMDPad,CuDef*%
%ADD11FreePoly0,118.000000*%
%TD*%
%TA.AperFunction,SMDPad,CuDef*%
%ADD12FreePoly1,0.000000*%
%TD*%
%TA.AperFunction,SMDPad,CuDef*%
%ADD13RotRect,0.200000X0.800000X118.000000*%
%TD*%
%TA.AperFunction,SMDPad,CuDef*%
%ADD14RoundRect,1.000000X-0.000010X-0.000010X0.000010X-0.000010X0.000010X0.000010X-0.000010X0.000010X0*%
%TD*%
%TA.AperFunction,ViaPad*%
%ADD15C,0.600000*%
%TD*%
%TA.AperFunction,Conductor*%
%ADD16C,0.200000*%
%TD*%
%TA.AperFunction,Conductor*%
%ADD17C,0.254000*%
%TD*%
G04 APERTURE END LIST*
D10*
%TO.P,SELECT0,P$2,P$2*%
%TO.N,/P12*%
X143530901Y-121060656D03*
D11*
X143235633Y-120672449D03*
D12*
%TO.P,SELECT0,P$1,P$1*%
%TO.N,GND*%
X143530903Y-115560659D03*
D10*
X137030904Y-115560661D03*
D13*
X137030904Y-115560661D03*
%TD*%
D14*
%TO.P,SP_ST0,TP,TP*%
%TO.N,/P13*%
X156910854Y-123890854D03*
%TD*%
%TO.P,TP_SEL0,TP,TP*%
%TO.N,/P12*%
X154502021Y-123815578D03*
%TD*%
D10*
%TO.P,START0,P$2,P$2*%
%TO.N,/P13*%
X158730901Y-121060656D03*
D11*
X158435633Y-120672449D03*
D12*
%TO.P,START0,P$1,P$1*%
%TO.N,GND*%
X158730903Y-115560659D03*
D10*
X152230904Y-115560661D03*
D13*
X152230904Y-115560661D03*
%TD*%
D14*
%TO.P,GND0,TP,TP*%
%TO.N,GND*%
X159253168Y-123525888D03*
%TD*%
%TO.P,,TP,TP*%
%TO.N,/P12*%
X134620000Y-115761043D03*
%TD*%
%TO.P,,TP,TP*%
%TO.N,/P13*%
X133639148Y-117780950D03*
%TD*%
%TO.P,,TP,TP*%
%TO.N,GND*%
X131794885Y-119173556D03*
%TD*%
D15*
%TO.N,GND*%
X138487088Y-114645712D03*
X148954424Y-116563987D03*
X159969815Y-115627613D03*
X158308036Y-124761104D03*
%TO.N,/P12*%
X152400000Y-124460000D03*
%TO.N,/P13*%
X160020000Y-119380000D03*
%TO.N,GND*%
X132080000Y-124460000D03*
X137160000Y-124460000D03*
X131757247Y-116946075D03*
%TO.N,/P12*%
X132560192Y-114913622D03*
%TO.N,/P13*%
X132560192Y-115892210D03*
%TO.N,/P12*%
X145793963Y-122709832D03*
%TD*%
D16*
%TO.N,GND*%
X138487088Y-114645712D02*
X138951034Y-115109658D01*
X138951034Y-115109658D02*
X143530903Y-115109658D01*
X138487088Y-114645712D02*
X138023142Y-115109658D01*
%TO.N,/P12*%
X154502021Y-123815578D02*
X153044422Y-123815578D01*
%TO.N,/P13*%
X160020000Y-120781708D02*
X156910854Y-123890854D01*
%TO.N,/P12*%
X153044422Y-123815578D02*
X152400000Y-124460000D01*
%TO.N,/P13*%
X160020000Y-119380000D02*
X160020000Y-120781708D01*
X159302507Y-121060656D02*
X159081901Y-121060656D01*
%TO.N,/P12*%
X145793963Y-122709832D02*
X144144787Y-121060656D01*
X144144787Y-121060656D02*
X143881901Y-121060656D01*
D17*
%TO.N,GND*%
X152378878Y-115883088D02*
X152201100Y-115705310D01*
D16*
X138023142Y-115109658D02*
X137030904Y-115109658D01*
%TO.N,/P13*%
X132560192Y-116701994D02*
X133639148Y-117780950D01*
%TO.N,/P12*%
X133772579Y-114913622D02*
X134620000Y-115761043D01*
%TO.N,/P13*%
X132560192Y-115892210D02*
X132560192Y-116701994D01*
%TO.N,/P12*%
X132560192Y-114913622D02*
X133772579Y-114913622D01*
%TD*%
%TA.AperFunction,Conductor*%
%TO.N,GND*%
G36*
X130686350Y-119865514D02*
G01*
X130693353Y-119873860D01*
X130792147Y-120014954D01*
X130953486Y-120176293D01*
X131140395Y-120307167D01*
X131140397Y-120307169D01*
X131347181Y-120403593D01*
X131347197Y-120403599D01*
X131484185Y-120440305D01*
X131522136Y-120469425D01*
X131528379Y-120516851D01*
X131499259Y-120554802D01*
X131497352Y-120555859D01*
X131417634Y-120598246D01*
X131393097Y-120612784D01*
X131311244Y-120691504D01*
X131311244Y-120691505D01*
X131270348Y-120779442D01*
X131267128Y-120801721D01*
X131248085Y-120811847D01*
X131261908Y-120837844D01*
X131259333Y-120855666D01*
X131255905Y-120907782D01*
X131255904Y-120907782D01*
X131289884Y-121016136D01*
X131759360Y-121899088D01*
X131773903Y-121923634D01*
X131852622Y-122005486D01*
X131873656Y-122015267D01*
X131902486Y-122042597D01*
X133006764Y-124119444D01*
X133011428Y-124130772D01*
X133023690Y-124171511D01*
X133493157Y-125054450D01*
X133493160Y-125054456D01*
X133517210Y-125083892D01*
X133530995Y-125129698D01*
X133508353Y-125171835D01*
X133468810Y-125185935D01*
X130642156Y-125185935D01*
X130597962Y-125167629D01*
X130579656Y-125123435D01*
X130579656Y-119909708D01*
X130597962Y-119865514D01*
X130642156Y-119847208D01*
X130686350Y-119865514D01*
G37*
%TD.AperFunction*%
%TA.AperFunction,Conductor*%
G36*
X151040524Y-114337553D02*
G01*
X151053645Y-114337856D01*
X151061751Y-114346345D01*
X151072594Y-114350837D01*
X151077616Y-114362961D01*
X151086679Y-114372453D01*
X151086408Y-114384186D01*
X151090900Y-114395031D01*
X151085575Y-114420276D01*
X151054853Y-114489855D01*
X151051904Y-114515272D01*
X151051904Y-115408661D01*
X151918404Y-115408661D01*
X151962598Y-115426967D01*
X151980904Y-115471161D01*
X151980904Y-115650161D01*
X151962598Y-115694355D01*
X151918404Y-115712661D01*
X151051905Y-115712661D01*
X151051905Y-116606049D01*
X151054853Y-116631468D01*
X151054853Y-116631469D01*
X151100761Y-116735439D01*
X151181125Y-116815803D01*
X151285098Y-116861712D01*
X151310515Y-116864660D01*
X151418401Y-116864660D01*
X151462596Y-116882965D01*
X151480902Y-116927159D01*
X151480902Y-118098296D01*
X151462596Y-118142490D01*
X151447744Y-118153480D01*
X150960565Y-118412517D01*
X150912950Y-118417102D01*
X150904867Y-118414004D01*
X150900873Y-118412146D01*
X150900868Y-118412145D01*
X150787558Y-118404690D01*
X150679204Y-118438669D01*
X149928696Y-118837722D01*
X149904147Y-118852268D01*
X149882069Y-118873501D01*
X149897839Y-118912648D01*
X149896037Y-118913373D01*
X149905410Y-118936001D01*
X149887104Y-118980195D01*
X149872253Y-118991183D01*
X149449887Y-119215760D01*
X147649515Y-120173034D01*
X147601900Y-120177619D01*
X147593817Y-120174521D01*
X147589823Y-120172663D01*
X147589818Y-120172662D01*
X147476508Y-120165207D01*
X147368154Y-120199186D01*
X146617643Y-120598241D01*
X146593097Y-120612784D01*
X146511244Y-120691504D01*
X146511244Y-120691505D01*
X146470348Y-120779442D01*
X146467128Y-120801721D01*
X146448085Y-120811847D01*
X146461908Y-120837844D01*
X146459333Y-120855666D01*
X146455905Y-120907782D01*
X146455904Y-120907782D01*
X146489884Y-121016136D01*
X146959360Y-121899088D01*
X146973903Y-121923634D01*
X147052622Y-122005486D01*
X147073656Y-122015267D01*
X147102486Y-122042597D01*
X148206764Y-124119444D01*
X148211428Y-124130772D01*
X148223690Y-124171511D01*
X148693157Y-125054450D01*
X148693160Y-125054456D01*
X148717210Y-125083892D01*
X148730995Y-125129698D01*
X148708353Y-125171835D01*
X148668810Y-125185935D01*
X134049306Y-125185935D01*
X134005112Y-125167629D01*
X133986806Y-125123435D01*
X134005112Y-125079241D01*
X134019964Y-125068251D01*
X134415835Y-124857762D01*
X134594619Y-124762701D01*
X134673028Y-124698638D01*
X134697919Y-124652311D01*
X134723632Y-124626711D01*
X134730969Y-124622810D01*
X136970284Y-123432145D01*
X137005885Y-123425144D01*
X137058207Y-123430413D01*
X137155163Y-123401233D01*
X137905668Y-123002182D01*
X137984077Y-122938119D01*
X138008965Y-122891798D01*
X138034679Y-122866197D01*
X138067633Y-122848675D01*
X139045210Y-122328887D01*
X139080811Y-122321886D01*
X139133133Y-122327155D01*
X139230089Y-122297975D01*
X139980594Y-121898924D01*
X140059003Y-121834861D01*
X140083891Y-121788539D01*
X140109601Y-121762940D01*
X140663306Y-121468532D01*
X140758394Y-121417973D01*
X140787736Y-121410657D01*
X142337594Y-121410657D01*
X142359325Y-121419658D01*
X142381223Y-121428404D01*
X142381389Y-121428797D01*
X142381788Y-121428963D01*
X142400089Y-121472362D01*
X142400094Y-121472755D01*
X142400094Y-121563201D01*
X142401322Y-121569381D01*
X142401396Y-121575133D01*
X142401337Y-121575280D01*
X142401401Y-121575928D01*
X142401401Y-122085720D01*
X142401402Y-122085724D01*
X142416166Y-122159955D01*
X142416168Y-122159959D01*
X142472416Y-122244140D01*
X142556598Y-122300389D01*
X142556600Y-122300390D01*
X142630834Y-122315156D01*
X144430967Y-122315155D01*
X144505202Y-122300390D01*
X144589385Y-122244140D01*
X144642223Y-122165062D01*
X144681997Y-122138487D01*
X144728913Y-122147819D01*
X144738384Y-122155592D01*
X145221157Y-122638365D01*
X145239463Y-122682559D01*
X145239463Y-122782831D01*
X145239464Y-122782839D01*
X145277249Y-122923857D01*
X145277250Y-122923860D01*
X145313751Y-122987082D01*
X145322469Y-123002182D01*
X145350253Y-123050304D01*
X145350256Y-123050308D01*
X145453486Y-123153538D01*
X145453490Y-123153541D01*
X145453492Y-123153543D01*
X145579934Y-123226544D01*
X145579937Y-123226545D01*
X145666237Y-123249668D01*
X145720962Y-123264332D01*
X145720963Y-123264332D01*
X145866963Y-123264332D01*
X145866964Y-123264332D01*
X146007992Y-123226544D01*
X146134434Y-123153543D01*
X146237674Y-123050303D01*
X146310675Y-122923861D01*
X146348463Y-122782833D01*
X146348463Y-122636831D01*
X146330961Y-122571513D01*
X146310676Y-122495806D01*
X146310675Y-122495803D01*
X146237674Y-122369361D01*
X146237672Y-122369359D01*
X146237669Y-122369355D01*
X146134439Y-122266125D01*
X146134435Y-122266122D01*
X146134434Y-122266121D01*
X146071213Y-122229620D01*
X146007991Y-122193119D01*
X146007988Y-122193118D01*
X145866970Y-122155333D01*
X145866965Y-122155332D01*
X145866964Y-122155332D01*
X145866963Y-122155332D01*
X145766690Y-122155332D01*
X145722496Y-122137026D01*
X144678706Y-121093236D01*
X144660400Y-121049042D01*
X144660400Y-120035591D01*
X144660399Y-120035587D01*
X144656295Y-120014954D01*
X144645635Y-119961355D01*
X144645633Y-119961352D01*
X144589385Y-119877171D01*
X144505203Y-119820922D01*
X144505201Y-119820921D01*
X144430968Y-119806156D01*
X144347091Y-119806156D01*
X144302897Y-119787850D01*
X144284591Y-119743656D01*
X144284591Y-118313199D01*
X144284594Y-116932159D01*
X144302900Y-116887965D01*
X144347094Y-116869659D01*
X144405896Y-116869659D01*
X144405934Y-116869658D01*
X144434415Y-116868340D01*
X144543635Y-116837263D01*
X144543638Y-116837262D01*
X144634253Y-116768834D01*
X144634258Y-116768828D01*
X144694037Y-116672280D01*
X144714902Y-116560663D01*
X144714903Y-116560655D01*
X144714903Y-114560666D01*
X144714902Y-114560627D01*
X144713584Y-114532146D01*
X144682509Y-114422930D01*
X144682490Y-114422892D01*
X144682487Y-114422853D01*
X144680923Y-114417356D01*
X144682082Y-114417026D01*
X144679176Y-114375171D01*
X144710576Y-114339084D01*
X144738437Y-114332531D01*
X151028400Y-114332531D01*
X151040524Y-114337553D01*
G37*
%TD.AperFunction*%
%TA.AperFunction,Conductor*%
G36*
X159386862Y-123544194D02*
G01*
X159405168Y-123588388D01*
X159405168Y-124821570D01*
X159480470Y-124814982D01*
X159480479Y-124814981D01*
X159700855Y-124755931D01*
X159700871Y-124755925D01*
X159907655Y-124659501D01*
X159907657Y-124659499D01*
X160094566Y-124528625D01*
X160239159Y-124384033D01*
X160283353Y-124365727D01*
X160327547Y-124384033D01*
X160345853Y-124428227D01*
X160345853Y-125123435D01*
X160327547Y-125167629D01*
X160283353Y-125185935D01*
X157381799Y-125185935D01*
X157337605Y-125167629D01*
X157319299Y-125123435D01*
X157337605Y-125079241D01*
X157355952Y-125066530D01*
X157396565Y-125048082D01*
X157532463Y-124986355D01*
X157718082Y-124857757D01*
X157877757Y-124698082D01*
X158006355Y-124512463D01*
X158097096Y-124312688D01*
X158132040Y-124280021D01*
X158179848Y-124281631D01*
X158205198Y-124302687D01*
X158250432Y-124367288D01*
X158411769Y-124528625D01*
X158598678Y-124659499D01*
X158598680Y-124659501D01*
X158805464Y-124755925D01*
X158805480Y-124755931D01*
X159025856Y-124814981D01*
X159025865Y-124814982D01*
X159101167Y-124821570D01*
X159101168Y-124821570D01*
X159101168Y-123588388D01*
X159119474Y-123544194D01*
X159163668Y-123525888D01*
X159342668Y-123525888D01*
X159386862Y-123544194D01*
G37*
%TD.AperFunction*%
%TA.AperFunction,Conductor*%
G36*
X132268611Y-114350837D02*
G01*
X132286917Y-114395031D01*
X132268611Y-114439225D01*
X132255668Y-114449156D01*
X132230936Y-114463435D01*
X132219719Y-114469912D01*
X132219715Y-114469915D01*
X132116485Y-114573145D01*
X132116482Y-114573149D01*
X132043479Y-114699593D01*
X132043478Y-114699596D01*
X132005693Y-114840614D01*
X132005692Y-114840622D01*
X132005692Y-114986621D01*
X132005693Y-114986629D01*
X132043478Y-115127647D01*
X132043479Y-115127650D01*
X132071889Y-115176857D01*
X132091404Y-115210659D01*
X132116482Y-115254094D01*
X132116485Y-115254098D01*
X132221109Y-115358722D01*
X132239415Y-115402916D01*
X132221109Y-115447110D01*
X132116485Y-115551733D01*
X132116482Y-115551737D01*
X132043479Y-115678181D01*
X132043478Y-115678184D01*
X132005693Y-115819202D01*
X132005692Y-115819210D01*
X132005692Y-115965209D01*
X132005693Y-115965217D01*
X132043478Y-116106235D01*
X132043479Y-116106238D01*
X132043480Y-116106239D01*
X132084365Y-116177055D01*
X132116482Y-116232682D01*
X132187386Y-116303586D01*
X132205692Y-116347780D01*
X132205692Y-116748670D01*
X132229432Y-116837262D01*
X132229851Y-116838826D01*
X132258221Y-116887965D01*
X132276521Y-116919662D01*
X132504456Y-117147597D01*
X132522762Y-117191791D01*
X132517167Y-117217638D01*
X132450260Y-117364937D01*
X132395083Y-117583911D01*
X132384648Y-117716506D01*
X132384648Y-117845392D01*
X132384649Y-117845396D01*
X132389668Y-117909185D01*
X132374885Y-117954679D01*
X132332263Y-117976394D01*
X132300948Y-117970731D01*
X132242585Y-117943516D01*
X132022199Y-117884463D01*
X132022183Y-117884460D01*
X131946885Y-117877872D01*
X131946885Y-119021556D01*
X133090568Y-119021556D01*
X133089697Y-119011599D01*
X133104081Y-118965978D01*
X133146512Y-118943890D01*
X133177804Y-118949246D01*
X133223138Y-118969838D01*
X133442108Y-119025014D01*
X133574713Y-119035450D01*
X133703582Y-119035449D01*
X133703590Y-119035449D01*
X133703591Y-119035448D01*
X133836188Y-119025014D01*
X134055158Y-118969838D01*
X134260757Y-118876451D01*
X134446376Y-118747853D01*
X134606051Y-118588178D01*
X134734649Y-118402559D01*
X134828036Y-118196960D01*
X134883212Y-117977990D01*
X134893648Y-117845385D01*
X134893647Y-117716516D01*
X134893647Y-117716515D01*
X134893647Y-117716507D01*
X134893646Y-117716505D01*
X134883212Y-117583915D01*
X134883212Y-117583911D01*
X134883212Y-117583910D01*
X134828036Y-117364940D01*
X134734649Y-117159341D01*
X134699494Y-117108598D01*
X134689374Y-117061848D01*
X134715276Y-117021632D01*
X134745967Y-117010700D01*
X134764646Y-117009229D01*
X134817040Y-117005107D01*
X135036010Y-116949931D01*
X135241609Y-116856544D01*
X135427228Y-116727946D01*
X135586903Y-116568271D01*
X135715501Y-116382652D01*
X135732499Y-116345228D01*
X135767442Y-116312561D01*
X135815250Y-116314170D01*
X135847918Y-116349113D01*
X135851904Y-116371075D01*
X135851904Y-116606049D01*
X135854853Y-116631468D01*
X135854853Y-116631469D01*
X135900761Y-116735439D01*
X135981125Y-116815803D01*
X136085098Y-116861712D01*
X136110515Y-116864660D01*
X136218401Y-116864660D01*
X136262596Y-116882965D01*
X136280902Y-116927159D01*
X136280902Y-118098296D01*
X136262596Y-118142490D01*
X136247744Y-118153480D01*
X135760565Y-118412517D01*
X135712950Y-118417102D01*
X135704867Y-118414004D01*
X135700873Y-118412146D01*
X135700868Y-118412145D01*
X135587558Y-118404690D01*
X135479204Y-118438669D01*
X134728696Y-118837722D01*
X134704147Y-118852268D01*
X134622296Y-118930987D01*
X134577527Y-119027252D01*
X134550198Y-119056080D01*
X133037428Y-119860435D01*
X132989813Y-119865020D01*
X132952902Y-119834593D01*
X132948317Y-119786978D01*
X132951442Y-119778837D01*
X133024924Y-119621254D01*
X133024928Y-119621243D01*
X133083977Y-119400870D01*
X133083980Y-119400854D01*
X133090568Y-119325556D01*
X131857385Y-119325556D01*
X131813191Y-119307250D01*
X131794885Y-119263056D01*
X131794885Y-119173556D01*
X131705385Y-119173556D01*
X131661191Y-119155250D01*
X131642885Y-119111056D01*
X131642885Y-117877872D01*
X131567586Y-117884460D01*
X131567570Y-117884463D01*
X131347197Y-117943512D01*
X131347181Y-117943518D01*
X131140397Y-118039942D01*
X131140395Y-118039944D01*
X130953486Y-118170818D01*
X130792147Y-118332157D01*
X130693353Y-118473251D01*
X130653009Y-118498953D01*
X130606308Y-118488600D01*
X130580606Y-118448256D01*
X130579656Y-118437403D01*
X130579656Y-114395031D01*
X130597962Y-114350837D01*
X130642156Y-114332531D01*
X132224417Y-114332531D01*
X132268611Y-114350837D01*
G37*
%TD.AperFunction*%
%TA.AperFunction,Conductor*%
G36*
X160327547Y-114350837D02*
G01*
X160345853Y-114395031D01*
X160345853Y-118819596D01*
X160327547Y-118863790D01*
X160283353Y-118882096D01*
X160252104Y-118873723D01*
X160234032Y-118863289D01*
X160234025Y-118863286D01*
X160093007Y-118825501D01*
X160093002Y-118825500D01*
X160093001Y-118825500D01*
X159946999Y-118825500D01*
X159946998Y-118825500D01*
X159946992Y-118825501D01*
X159805974Y-118863286D01*
X159805971Y-118863287D01*
X159679527Y-118936290D01*
X159679523Y-118936293D01*
X159591285Y-119024532D01*
X159547091Y-119042838D01*
X159502897Y-119024532D01*
X159484591Y-118980338D01*
X159484591Y-118313199D01*
X159484594Y-116932159D01*
X159502900Y-116887965D01*
X159547094Y-116869659D01*
X159605896Y-116869659D01*
X159605934Y-116869658D01*
X159634415Y-116868340D01*
X159743635Y-116837263D01*
X159743638Y-116837262D01*
X159834253Y-116768834D01*
X159834258Y-116768828D01*
X159894037Y-116672280D01*
X159914902Y-116560663D01*
X159914903Y-116560655D01*
X159914903Y-114560666D01*
X159914902Y-114560627D01*
X159913584Y-114532146D01*
X159882509Y-114422930D01*
X159882490Y-114422892D01*
X159882487Y-114422853D01*
X159880923Y-114417356D01*
X159882082Y-114417026D01*
X159879176Y-114375171D01*
X159910576Y-114339084D01*
X159938437Y-114332531D01*
X160283353Y-114332531D01*
X160327547Y-114350837D01*
G37*
%TD.AperFunction*%
%TA.AperFunction,Conductor*%
G36*
X142343602Y-114339119D02*
G01*
X142360597Y-114341892D01*
X142364971Y-114347971D01*
X142371890Y-114350837D01*
X142378478Y-114366743D01*
X142388536Y-114380721D01*
X142387330Y-114388112D01*
X142390196Y-114395031D01*
X142380835Y-114427932D01*
X142367768Y-114449035D01*
X142346903Y-114560654D01*
X142346903Y-115148158D01*
X142328597Y-115192352D01*
X142284403Y-115210658D01*
X138281097Y-115210659D01*
X138236903Y-115192353D01*
X138218597Y-115148159D01*
X138218597Y-115063208D01*
X138218596Y-115063169D01*
X138217278Y-115034688D01*
X138212289Y-115017151D01*
X138209903Y-115000047D01*
X138209903Y-114515272D01*
X138206954Y-114489853D01*
X138206954Y-114489852D01*
X138176233Y-114420276D01*
X138175128Y-114372454D01*
X138208163Y-114337856D01*
X138233408Y-114332531D01*
X142327696Y-114332531D01*
X142343602Y-114339119D01*
G37*
%TD.AperFunction*%
%TD*%
M02*
