%TF.GenerationSoftware,KiCad,Pcbnew,9.0.3*%
%TF.CreationDate,2025-09-25T01:27:24+01:00*%
%TF.ProjectId,DMGC-IPS-01_2-4,444d4743-2d49-4505-932d-30315f322d34,rev?*%
%TF.SameCoordinates,Original*%
%TF.FileFunction,Legend,Top*%
%TF.FilePolarity,Positive*%
%FSLAX46Y46*%
G04 Gerber Fmt 4.6, Leading zero omitted, Abs format (unit mm)*
G04 Created by KiCad (PCBNEW 9.0.3) date 2025-09-25 01:27:24*
%MOMM*%
%LPD*%
G01*
G04 APERTURE LIST*
%ADD10C,0.190500*%
%ADD11C,0.101600*%
%ADD12C,0.250000*%
G04 APERTURE END LIST*
D10*
X164779210Y-46888555D02*
X165293257Y-46888555D01*
X164676400Y-47196983D02*
X165036233Y-46117483D01*
X165036233Y-46117483D02*
X165396067Y-47196983D01*
X167319210Y-53619555D02*
X167833257Y-53619555D01*
X167216400Y-53927983D02*
X167576233Y-52848483D01*
X167576233Y-52848483D02*
X167936067Y-53927983D01*
X160715210Y-55905555D02*
X161229257Y-55905555D01*
X160612400Y-56213983D02*
X160972233Y-55134483D01*
X160972233Y-55134483D02*
X161332067Y-56213983D01*
X158302210Y-49301555D02*
X158816257Y-49301555D01*
X158199400Y-49609983D02*
X158559233Y-48530483D01*
X158559233Y-48530483D02*
X158919067Y-49609983D01*
D11*
X162038382Y-62083646D02*
X162706039Y-62083646D01*
X162372210Y-63252046D02*
X162372210Y-62083646D01*
X163095506Y-63252046D02*
X163095506Y-62083646D01*
X163095506Y-62083646D02*
X163540611Y-62083646D01*
X163540611Y-62083646D02*
X163651887Y-62139284D01*
X163651887Y-62139284D02*
X163707525Y-62194922D01*
X163707525Y-62194922D02*
X163763163Y-62306198D01*
X163763163Y-62306198D02*
X163763163Y-62473112D01*
X163763163Y-62473112D02*
X163707525Y-62584388D01*
X163707525Y-62584388D02*
X163651887Y-62640027D01*
X163651887Y-62640027D02*
X163540611Y-62695665D01*
X163540611Y-62695665D02*
X163095506Y-62695665D01*
X163985716Y-63363322D02*
X164875925Y-63363322D01*
X165154116Y-63252046D02*
X165154116Y-62083646D01*
X165154116Y-62083646D02*
X165432306Y-62083646D01*
X165432306Y-62083646D02*
X165599221Y-62139284D01*
X165599221Y-62139284D02*
X165710497Y-62250560D01*
X165710497Y-62250560D02*
X165766135Y-62361836D01*
X165766135Y-62361836D02*
X165821773Y-62584388D01*
X165821773Y-62584388D02*
X165821773Y-62751303D01*
X165821773Y-62751303D02*
X165766135Y-62973855D01*
X165766135Y-62973855D02*
X165710497Y-63085131D01*
X165710497Y-63085131D02*
X165599221Y-63196408D01*
X165599221Y-63196408D02*
X165432306Y-63252046D01*
X165432306Y-63252046D02*
X165154116Y-63252046D01*
X166545068Y-62083646D02*
X166656345Y-62083646D01*
X166656345Y-62083646D02*
X166767621Y-62139284D01*
X166767621Y-62139284D02*
X166823259Y-62194922D01*
X166823259Y-62194922D02*
X166878897Y-62306198D01*
X166878897Y-62306198D02*
X166934535Y-62528750D01*
X166934535Y-62528750D02*
X166934535Y-62806941D01*
X166934535Y-62806941D02*
X166878897Y-63029493D01*
X166878897Y-63029493D02*
X166823259Y-63140769D01*
X166823259Y-63140769D02*
X166767621Y-63196408D01*
X166767621Y-63196408D02*
X166656345Y-63252046D01*
X166656345Y-63252046D02*
X166545068Y-63252046D01*
X166545068Y-63252046D02*
X166433792Y-63196408D01*
X166433792Y-63196408D02*
X166378154Y-63140769D01*
X166378154Y-63140769D02*
X166322516Y-63029493D01*
X166322516Y-63029493D02*
X166266878Y-62806941D01*
X166266878Y-62806941D02*
X166266878Y-62528750D01*
X166266878Y-62528750D02*
X166322516Y-62306198D01*
X166322516Y-62306198D02*
X166378154Y-62194922D01*
X166378154Y-62194922D02*
X166433792Y-62139284D01*
X166433792Y-62139284D02*
X166545068Y-62083646D01*
X165555810Y-62011634D02*
X166279105Y-62011634D01*
X166279105Y-62011634D02*
X165889638Y-62456738D01*
X165889638Y-62456738D02*
X166056553Y-62456738D01*
X166056553Y-62456738D02*
X166167829Y-62512376D01*
X166167829Y-62512376D02*
X166223467Y-62568015D01*
X166223467Y-62568015D02*
X166279105Y-62679291D01*
X166279105Y-62679291D02*
X166279105Y-62957481D01*
X166279105Y-62957481D02*
X166223467Y-63068757D01*
X166223467Y-63068757D02*
X166167829Y-63124396D01*
X166167829Y-63124396D02*
X166056553Y-63180034D01*
X166056553Y-63180034D02*
X165722724Y-63180034D01*
X165722724Y-63180034D02*
X165611448Y-63124396D01*
X165611448Y-63124396D02*
X165555810Y-63068757D01*
X166612934Y-62011634D02*
X167002400Y-63180034D01*
X167002400Y-63180034D02*
X167391867Y-62011634D01*
X167670058Y-62011634D02*
X168393353Y-62011634D01*
X168393353Y-62011634D02*
X168003886Y-62456738D01*
X168003886Y-62456738D02*
X168170801Y-62456738D01*
X168170801Y-62456738D02*
X168282077Y-62512376D01*
X168282077Y-62512376D02*
X168337715Y-62568015D01*
X168337715Y-62568015D02*
X168393353Y-62679291D01*
X168393353Y-62679291D02*
X168393353Y-62957481D01*
X168393353Y-62957481D02*
X168337715Y-63068757D01*
X168337715Y-63068757D02*
X168282077Y-63124396D01*
X168282077Y-63124396D02*
X168170801Y-63180034D01*
X168170801Y-63180034D02*
X167836972Y-63180034D01*
X167836972Y-63180034D02*
X167725696Y-63124396D01*
X167725696Y-63124396D02*
X167670058Y-63068757D01*
X169116648Y-62011634D02*
X169227925Y-62011634D01*
X169227925Y-62011634D02*
X169339201Y-62067272D01*
X169339201Y-62067272D02*
X169394839Y-62122910D01*
X169394839Y-62122910D02*
X169450477Y-62234186D01*
X169450477Y-62234186D02*
X169506115Y-62456738D01*
X169506115Y-62456738D02*
X169506115Y-62734929D01*
X169506115Y-62734929D02*
X169450477Y-62957481D01*
X169450477Y-62957481D02*
X169394839Y-63068757D01*
X169394839Y-63068757D02*
X169339201Y-63124396D01*
X169339201Y-63124396D02*
X169227925Y-63180034D01*
X169227925Y-63180034D02*
X169116648Y-63180034D01*
X169116648Y-63180034D02*
X169005372Y-63124396D01*
X169005372Y-63124396D02*
X168949734Y-63068757D01*
X168949734Y-63068757D02*
X168894096Y-62957481D01*
X168894096Y-62957481D02*
X168838458Y-62734929D01*
X168838458Y-62734929D02*
X168838458Y-62456738D01*
X168838458Y-62456738D02*
X168894096Y-62234186D01*
X168894096Y-62234186D02*
X168949734Y-62122910D01*
X168949734Y-62122910D02*
X169005372Y-62067272D01*
X169005372Y-62067272D02*
X169116648Y-62011634D01*
X160622122Y-62112549D02*
X161289779Y-62112549D01*
X160955950Y-63280949D02*
X160955950Y-62112549D01*
X161679246Y-63280949D02*
X161679246Y-62112549D01*
X161679246Y-62112549D02*
X162124351Y-62112549D01*
X162124351Y-62112549D02*
X162235627Y-62168187D01*
X162235627Y-62168187D02*
X162291265Y-62223825D01*
X162291265Y-62223825D02*
X162346903Y-62335101D01*
X162346903Y-62335101D02*
X162346903Y-62502015D01*
X162346903Y-62502015D02*
X162291265Y-62613291D01*
X162291265Y-62613291D02*
X162235627Y-62668930D01*
X162235627Y-62668930D02*
X162124351Y-62724568D01*
X162124351Y-62724568D02*
X161679246Y-62724568D01*
X162569456Y-63392225D02*
X163459665Y-63392225D01*
X164294237Y-63280949D02*
X163737856Y-63280949D01*
X163737856Y-63280949D02*
X163737856Y-62112549D01*
X164906256Y-62112549D02*
X165017533Y-62112549D01*
X165017533Y-62112549D02*
X165128809Y-62168187D01*
X165128809Y-62168187D02*
X165184447Y-62223825D01*
X165184447Y-62223825D02*
X165240085Y-62335101D01*
X165240085Y-62335101D02*
X165295723Y-62557653D01*
X165295723Y-62557653D02*
X165295723Y-62835844D01*
X165295723Y-62835844D02*
X165240085Y-63058396D01*
X165240085Y-63058396D02*
X165184447Y-63169672D01*
X165184447Y-63169672D02*
X165128809Y-63225311D01*
X165128809Y-63225311D02*
X165017533Y-63280949D01*
X165017533Y-63280949D02*
X164906256Y-63280949D01*
X164906256Y-63280949D02*
X164794980Y-63225311D01*
X164794980Y-63225311D02*
X164739342Y-63169672D01*
X164739342Y-63169672D02*
X164683704Y-63058396D01*
X164683704Y-63058396D02*
X164628066Y-62835844D01*
X164628066Y-62835844D02*
X164628066Y-62557653D01*
X164628066Y-62557653D02*
X164683704Y-62335101D01*
X164683704Y-62335101D02*
X164739342Y-62223825D01*
X164739342Y-62223825D02*
X164794980Y-62168187D01*
X164794980Y-62168187D02*
X164906256Y-62112549D01*
X163570255Y-62054742D02*
X164237912Y-62054742D01*
X163904083Y-63223142D02*
X163904083Y-62054742D01*
X164627379Y-63223142D02*
X164627379Y-62054742D01*
X164627379Y-62054742D02*
X165072484Y-62054742D01*
X165072484Y-62054742D02*
X165183760Y-62110380D01*
X165183760Y-62110380D02*
X165239398Y-62166018D01*
X165239398Y-62166018D02*
X165295036Y-62277294D01*
X165295036Y-62277294D02*
X165295036Y-62444208D01*
X165295036Y-62444208D02*
X165239398Y-62555484D01*
X165239398Y-62555484D02*
X165183760Y-62611123D01*
X165183760Y-62611123D02*
X165072484Y-62666761D01*
X165072484Y-62666761D02*
X164627379Y-62666761D01*
X165517589Y-63334418D02*
X166407798Y-63334418D01*
X167353646Y-63223142D02*
X166964179Y-62666761D01*
X166685989Y-63223142D02*
X166685989Y-62054742D01*
X166685989Y-62054742D02*
X167131094Y-62054742D01*
X167131094Y-62054742D02*
X167242370Y-62110380D01*
X167242370Y-62110380D02*
X167298008Y-62166018D01*
X167298008Y-62166018D02*
X167353646Y-62277294D01*
X167353646Y-62277294D02*
X167353646Y-62444208D01*
X167353646Y-62444208D02*
X167298008Y-62555484D01*
X167298008Y-62555484D02*
X167242370Y-62611123D01*
X167242370Y-62611123D02*
X167131094Y-62666761D01*
X167131094Y-62666761D02*
X166685989Y-62666761D01*
X168076941Y-62054742D02*
X168188218Y-62054742D01*
X168188218Y-62054742D02*
X168299494Y-62110380D01*
X168299494Y-62110380D02*
X168355132Y-62166018D01*
X168355132Y-62166018D02*
X168410770Y-62277294D01*
X168410770Y-62277294D02*
X168466408Y-62499846D01*
X168466408Y-62499846D02*
X168466408Y-62778037D01*
X168466408Y-62778037D02*
X168410770Y-63000589D01*
X168410770Y-63000589D02*
X168355132Y-63111865D01*
X168355132Y-63111865D02*
X168299494Y-63167504D01*
X168299494Y-63167504D02*
X168188218Y-63223142D01*
X168188218Y-63223142D02*
X168076941Y-63223142D01*
X168076941Y-63223142D02*
X167965665Y-63167504D01*
X167965665Y-63167504D02*
X167910027Y-63111865D01*
X167910027Y-63111865D02*
X167854389Y-63000589D01*
X167854389Y-63000589D02*
X167798751Y-62778037D01*
X167798751Y-62778037D02*
X167798751Y-62499846D01*
X167798751Y-62499846D02*
X167854389Y-62277294D01*
X167854389Y-62277294D02*
X167910027Y-62166018D01*
X167910027Y-62166018D02*
X167965665Y-62110380D01*
X167965665Y-62110380D02*
X168076941Y-62054742D01*
X159119151Y-62112549D02*
X159786808Y-62112549D01*
X159452979Y-63280949D02*
X159452979Y-62112549D01*
X160176275Y-63280949D02*
X160176275Y-62112549D01*
X160176275Y-62112549D02*
X160621380Y-62112549D01*
X160621380Y-62112549D02*
X160732656Y-62168187D01*
X160732656Y-62168187D02*
X160788294Y-62223825D01*
X160788294Y-62223825D02*
X160843932Y-62335101D01*
X160843932Y-62335101D02*
X160843932Y-62502015D01*
X160843932Y-62502015D02*
X160788294Y-62613291D01*
X160788294Y-62613291D02*
X160732656Y-62668930D01*
X160732656Y-62668930D02*
X160621380Y-62724568D01*
X160621380Y-62724568D02*
X160176275Y-62724568D01*
X161066485Y-63392225D02*
X161956694Y-63392225D01*
X162234885Y-62112549D02*
X162234885Y-63058396D01*
X162234885Y-63058396D02*
X162290523Y-63169672D01*
X162290523Y-63169672D02*
X162346161Y-63225311D01*
X162346161Y-63225311D02*
X162457437Y-63280949D01*
X162457437Y-63280949D02*
X162679990Y-63280949D01*
X162679990Y-63280949D02*
X162791266Y-63225311D01*
X162791266Y-63225311D02*
X162846904Y-63169672D01*
X162846904Y-63169672D02*
X162902542Y-63058396D01*
X162902542Y-63058396D02*
X162902542Y-62112549D01*
X163681475Y-62112549D02*
X163792752Y-62112549D01*
X163792752Y-62112549D02*
X163904028Y-62168187D01*
X163904028Y-62168187D02*
X163959666Y-62223825D01*
X163959666Y-62223825D02*
X164015304Y-62335101D01*
X164015304Y-62335101D02*
X164070942Y-62557653D01*
X164070942Y-62557653D02*
X164070942Y-62835844D01*
X164070942Y-62835844D02*
X164015304Y-63058396D01*
X164015304Y-63058396D02*
X163959666Y-63169672D01*
X163959666Y-63169672D02*
X163904028Y-63225311D01*
X163904028Y-63225311D02*
X163792752Y-63280949D01*
X163792752Y-63280949D02*
X163681475Y-63280949D01*
X163681475Y-63280949D02*
X163570199Y-63225311D01*
X163570199Y-63225311D02*
X163514561Y-63169672D01*
X163514561Y-63169672D02*
X163458923Y-63058396D01*
X163458923Y-63058396D02*
X163403285Y-62835844D01*
X163403285Y-62835844D02*
X163403285Y-62557653D01*
X163403285Y-62557653D02*
X163458923Y-62335101D01*
X163458923Y-62335101D02*
X163514561Y-62223825D01*
X163514561Y-62223825D02*
X163570199Y-62168187D01*
X163570199Y-62168187D02*
X163681475Y-62112549D01*
D12*
%TO.C,DOWN0*%
X165924263Y-60840000D02*
X165924263Y-56840000D01*
X159924263Y-60840000D02*
X159924263Y-56840000D01*
%TO.C,LEFT0*%
X152924263Y-53840000D02*
X156924263Y-53840000D01*
X152924263Y-47840000D02*
X156924263Y-47840000D01*
%TO.C,RIGHT0*%
X172924263Y-47840000D02*
X168924263Y-47840000D01*
X172924263Y-53840000D02*
X168924263Y-53840000D01*
%TO.C,UP0*%
X159924263Y-40840000D02*
X159924263Y-44840000D01*
X165924263Y-40840000D02*
X165924263Y-44840000D01*
%TD*%
M02*
