%TF.GenerationSoftware,KiCad,Pcbnew,9.0.3*%
%TF.CreationDate,2025-09-25T01:27:23+01:00*%
%TF.ProjectId,DMGC-IPS-01_2-4,444d4743-2d49-4505-932d-30315f322d34,rev?*%
%TF.SameCoordinates,Original*%
%TF.FileFunction,Copper,L1,Top*%
%TF.FilePolarity,Positive*%
%FSLAX46Y46*%
G04 Gerber Fmt 4.6, Leading zero omitted, Abs format (unit mm)*
G04 Created by KiCad (PCBNEW 9.0.3) date 2025-09-25 01:27:23*
%MOMM*%
%LPD*%
G01*
G04 APERTURE LIST*
G04 Aperture macros list*
%AMRoundRect*
0 Rectangle with rounded corners*
0 $1 Rounding radius*
0 $2 $3 $4 $5 $6 $7 $8 $9 X,Y pos of 4 corners*
0 Add a 4 corners polygon primitive as box body*
4,1,4,$2,$3,$4,$5,$6,$7,$8,$9,$2,$3,0*
0 Add four circle primitives for the rounded corners*
1,1,$1+$1,$2,$3*
1,1,$1+$1,$4,$5*
1,1,$1+$1,$6,$7*
1,1,$1+$1,$8,$9*
0 Add four rect primitives between the rounded corners*
20,1,$1+$1,$2,$3,$4,$5,0*
20,1,$1+$1,$4,$5,$6,$7,0*
20,1,$1+$1,$6,$7,$8,$9,0*
20,1,$1+$1,$8,$9,$2,$3,0*%
%AMFreePoly0*
4,1,69,-1.702775,6.045507,-1.654493,5.997225,-1.628363,5.934141,-1.625000,5.900000,-1.625000,0.675000,-0.775000,0.675000,-0.775000,5.900000,-0.771637,5.934141,-0.745507,5.997225,-0.697225,6.045507,-0.634141,6.071637,-0.565859,6.071637,-0.502775,6.045507,-0.454493,5.997225,-0.428363,5.934141,-0.425000,5.900000,-0.425000,0.675000,0.425000,0.675000,0.425000,5.900000,0.428363,5.934141,
0.454493,5.997225,0.502775,6.045507,0.565859,6.071637,0.634141,6.071637,0.697225,6.045507,0.745507,5.997225,0.771637,5.934141,0.775000,5.900000,0.775000,0.675000,1.625000,0.675000,1.625000,5.900000,1.628363,5.934141,1.654493,5.997225,1.702775,6.045507,1.765859,6.071637,1.834141,6.071637,1.897225,6.045507,1.945507,5.997225,1.971637,5.934141,1.975000,5.900000,
1.975000,0.675000,2.500000,0.675000,2.500000,1.750000,4.000000,1.750000,4.000000,-0.250000,2.500000,-0.250000,2.500000,0.325000,0.100000,0.325000,0.100000,0.125000,0.125000,0.125000,0.125000,-0.125000,-0.125000,-0.125000,-0.125000,0.125000,-0.100000,0.125000,-0.100000,0.325000,-2.500000,0.325000,-2.500000,-0.250000,-4.000000,-0.250000,-4.000000,1.750000,-2.500000,1.750000,
-2.500000,0.675000,-1.975000,0.675000,-1.975000,5.900000,-1.971637,5.934141,-1.945507,5.997225,-1.897225,6.045507,-1.834141,6.071637,-1.765859,6.071637,-1.702775,6.045507,-1.702775,6.045507,$1*%
%AMFreePoly1*
4,1,97,3.928576,0.249753,3.964624,0.234821,3.992214,0.207231,4.007146,0.171183,4.009067,0.151674,4.009067,-1.637195,4.007146,-1.656704,3.992214,-1.692752,3.964624,-1.720342,3.928576,-1.735274,3.909067,-1.737195,2.544978,-1.737195,2.525469,-1.735274,2.489421,-1.720342,2.461831,-1.692752,2.446899,-1.656704,2.444978,-1.637195,2.444978,-0.675000,1.375000,-0.675000,1.375000,-5.900000,
1.371637,-5.934141,1.345507,-5.997225,1.297225,-6.045507,1.234141,-6.071637,1.165859,-6.071637,1.102775,-6.045507,1.054493,-5.997225,1.028363,-5.934141,1.025000,-5.900000,1.025000,-0.675000,0.175000,-0.675000,0.175000,-5.900000,0.171637,-5.934141,0.145507,-5.997225,0.097225,-6.045507,0.034141,-6.071637,-0.034141,-6.071637,-0.097225,-6.045507,-0.145507,-5.997225,-0.171637,-5.934141,
-0.175000,-5.900000,-0.175000,-0.675000,-1.025000,-0.675000,-1.025000,-5.900000,-1.028363,-5.934141,-1.054493,-5.997225,-1.102775,-6.045507,-1.165859,-6.071637,-1.234141,-6.071637,-1.297225,-6.045507,-1.345507,-5.997225,-1.371637,-5.934141,-1.375000,-5.900000,-1.375000,-0.675000,-2.438842,-0.675000,-2.438842,-1.652531,-2.440763,-1.672040,-2.455695,-1.708088,-2.483285,-1.735678,-2.519333,-1.750610,
-2.538842,-1.752531,-3.902931,-1.752531,-3.922440,-1.750610,-3.958488,-1.735678,-3.986078,-1.708088,-4.001010,-1.672040,-4.002931,-1.652531,-4.002931,0.136338,-4.001010,0.155847,-3.986078,0.191895,-3.958488,0.219485,-3.922440,0.234417,-3.902931,0.236338,-2.538842,0.236338,-2.519333,0.234417,-2.483285,0.219485,-2.455695,0.191895,-2.440763,0.155847,-2.438842,0.136338,-2.438842,-0.325000,
-0.100000,-0.325000,-0.100000,-0.125000,-0.125000,-0.125000,-0.125000,0.125000,0.125000,0.125000,0.125000,-0.125000,0.100000,-0.125000,0.100000,-0.325000,2.444978,-0.325000,2.444978,0.151674,2.446899,0.171183,2.461831,0.207231,2.489421,0.234821,2.525469,0.249753,2.544978,0.251674,3.909067,0.251674,3.928576,0.249753,3.928576,0.249753,$1*%
G04 Aperture macros list end*
%TA.AperFunction,SMDPad,CuDef*%
%ADD10RoundRect,0.500000X-0.000010X-0.500000X0.000010X-0.500000X0.000010X0.500000X-0.000010X0.500000X0*%
%TD*%
%TA.AperFunction,SMDPad,CuDef*%
%ADD11FreePoly0,180.000000*%
%TD*%
%TA.AperFunction,SMDPad,CuDef*%
%ADD12FreePoly1,180.000000*%
%TD*%
%TA.AperFunction,SMDPad,CuDef*%
%ADD13FreePoly0,90.000000*%
%TD*%
%TA.AperFunction,SMDPad,CuDef*%
%ADD14FreePoly1,90.000000*%
%TD*%
%TA.AperFunction,SMDPad,CuDef*%
%ADD15FreePoly0,270.000000*%
%TD*%
%TA.AperFunction,SMDPad,CuDef*%
%ADD16FreePoly1,270.000000*%
%TD*%
%TA.AperFunction,SMDPad,CuDef*%
%ADD17FreePoly0,0.000000*%
%TD*%
%TA.AperFunction,SMDPad,CuDef*%
%ADD18FreePoly1,0.000000*%
%TD*%
%TA.AperFunction,ViaPad*%
%ADD19C,0.600000*%
%TD*%
%TA.AperFunction,Conductor*%
%ADD20C,0.200000*%
%TD*%
G04 APERTURE END LIST*
D10*
%TO.P,TP_D0,TP,TP*%
%TO.N,/P03*%
X162860264Y-64450320D03*
%TD*%
%TO.P,3V30,TP,TP*%
%TO.N,/3V3*%
X166322054Y-64378308D03*
%TD*%
D11*
%TO.P,DOWN0,P$1,P$1*%
%TO.N,/P03*%
X162924263Y-55340000D03*
D12*
%TO.P,DOWN0,P$2,P$2*%
%TO.N,/3V3*%
X162924263Y-62340000D03*
%TD*%
D13*
%TO.P,LEFT0,P$1,P$1*%
%TO.N,/P01*%
X158424263Y-50840000D03*
D14*
%TO.P,LEFT0,P$2,P$2*%
%TO.N,/3V3*%
X151424263Y-50840000D03*
%TD*%
D10*
%TO.P,TP_L0,TP,TP*%
%TO.N,/P01*%
X161444004Y-64479223D03*
%TD*%
%TO.P,TP_R0,TP,TP*%
%TO.N,/P00*%
X164392137Y-64421416D03*
%TD*%
%TO.P,TP_U0,TP,TP*%
%TO.N,/P02*%
X159941033Y-64479223D03*
%TD*%
D15*
%TO.P,RIGHT0,P$1,P$1*%
%TO.N,/P00*%
X167424263Y-50840000D03*
D16*
%TO.P,RIGHT0,P$2,P$2*%
%TO.N,/3V3*%
X174424263Y-50840000D03*
%TD*%
D17*
%TO.P,UP0,P$1,P$1*%
%TO.N,/P02*%
X162924263Y-46340000D03*
D18*
%TO.P,UP0,P$2,P$2*%
%TO.N,/3V3*%
X162924263Y-39340000D03*
%TD*%
D19*
%TO.N,/P02*%
X158908745Y-63376803D03*
%TO.N,/3V3*%
X150879302Y-49802026D03*
X162924263Y-39340000D03*
%TO.N,/P02*%
X162924263Y-46340000D03*
%TO.N,/P03*%
X162245982Y-55015585D03*
%TO.N,/P00*%
X163651134Y-62917800D03*
%TO.N,/P01*%
X161267393Y-63000423D03*
X158424263Y-50840000D03*
%TO.N,/P03*%
X162360307Y-62665265D03*
%TO.N,/3V3*%
X166989168Y-63168036D03*
X174664263Y-50800000D03*
%TO.N,/P00*%
X167244999Y-52286135D03*
%TD*%
D20*
%TO.N,/P02*%
X159941033Y-64479223D02*
X159941033Y-64409091D01*
%TO.N,/3V3*%
X151424263Y-50346987D02*
X150879302Y-49802026D01*
X151424263Y-50840000D02*
X151424263Y-50346987D01*
%TO.N,/P02*%
X159941033Y-64409091D02*
X158908745Y-63376803D01*
%TO.N,/P03*%
X162245982Y-55015585D02*
X162599848Y-55015585D01*
X162599848Y-55015585D02*
X162924263Y-55340000D01*
X162860264Y-63165222D02*
X162360307Y-62665265D01*
%TO.N,/P00*%
X163651134Y-63680413D02*
X164392137Y-64421416D01*
%TO.N,/P01*%
X161444004Y-63177034D02*
X161267393Y-63000423D01*
X161444004Y-64479223D02*
X161444004Y-63177034D01*
%TO.N,/P03*%
X162860264Y-64450320D02*
X162860264Y-63165222D01*
%TO.N,/P00*%
X163651134Y-62917800D02*
X163651134Y-63680413D01*
X167424263Y-50840000D02*
X167424263Y-52106871D01*
%TO.N,/3V3*%
X164283746Y-62340000D02*
X162924263Y-62340000D01*
X166322054Y-63835150D02*
X166989168Y-63168036D01*
%TO.N,/P00*%
X167424263Y-52106871D02*
X167244999Y-52286135D01*
%TO.N,/3V3*%
X166322054Y-64378308D02*
X164283746Y-62340000D01*
X166322054Y-64378308D02*
X166322054Y-63835150D01*
%TD*%
M02*
