%TF.GenerationSoftware,KiCad,Pcbnew,9.0.3*%
%TF.CreationDate,2025-09-25T01:27:23+01:00*%
%TF.ProjectId,DMGC-IPS-01_2-4,444d4743-2d49-4505-932d-30315f322d34,rev?*%
%TF.SameCoordinates,Original*%
%TF.FileFunction,Copper,L2,Bot*%
%TF.FilePolarity,Positive*%
%FSLAX46Y46*%
G04 Gerber Fmt 4.6, Leading zero omitted, Abs format (unit mm)*
G04 Created by KiCad (PCBNEW 9.0.3) date 2025-09-25 01:27:23*
%MOMM*%
%LPD*%
G01*
G04 APERTURE LIST*
%TA.AperFunction,ViaPad*%
%ADD10C,0.600000*%
%TD*%
%TA.AperFunction,Conductor*%
%ADD11C,0.200000*%
%TD*%
G04 APERTURE END LIST*
D10*
%TO.N,/P02*%
X158908745Y-63376803D03*
%TO.N,/3V3*%
X150879302Y-49802026D03*
X162924263Y-39340000D03*
%TO.N,/P02*%
X162924263Y-46340000D03*
%TO.N,/P03*%
X162245982Y-55015585D03*
%TO.N,/P00*%
X163651134Y-62917800D03*
%TO.N,/P01*%
X161267393Y-63000423D03*
X158424263Y-50840000D03*
%TO.N,/P03*%
X162360307Y-62665265D03*
%TO.N,/3V3*%
X166989168Y-63168036D03*
X174664263Y-50800000D03*
%TO.N,/P00*%
X167244999Y-52286135D03*
%TD*%
D11*
%TO.N,/P02*%
X158621318Y-55077055D02*
X156884263Y-53340000D01*
X159009113Y-63276435D02*
X159009113Y-55498306D01*
X158621318Y-55110511D02*
X158621318Y-55077055D01*
X156884263Y-53340000D02*
X156884263Y-48866164D01*
X159165904Y-46340000D02*
X162924263Y-46340000D01*
X158908745Y-63376803D02*
X159009113Y-63276435D01*
X158472625Y-47033279D02*
X159165904Y-46340000D01*
X159009113Y-55498306D02*
X158621318Y-55110511D01*
X158472625Y-47277802D02*
X158472625Y-47033279D01*
X156884263Y-48866164D02*
X158472625Y-47277802D01*
%TO.N,/3V3*%
X161964263Y-40300000D02*
X162924263Y-39340000D01*
X161964263Y-43180000D02*
X161964263Y-40300000D01*
X170775737Y-50800000D02*
X174664263Y-50800000D01*
X168645240Y-52930497D02*
X170775737Y-50800000D01*
X168343340Y-54218220D02*
X168343340Y-53340000D01*
%TO.N,/P00*%
X167044263Y-54780857D02*
X167025548Y-54780857D01*
%TO.N,/3V3*%
X167164015Y-62993189D02*
X167164015Y-55278054D01*
%TO.N,/P00*%
X167025548Y-54780857D02*
X166517462Y-55288943D01*
X166517462Y-55508394D02*
X163651134Y-58374722D01*
X167244999Y-54580121D02*
X167044263Y-54780857D01*
%TO.N,/3V3*%
X167729849Y-54831711D02*
X168343340Y-54218220D01*
X167164015Y-55278054D02*
X167610358Y-54831711D01*
X167610358Y-54831711D02*
X167729849Y-54831711D01*
%TO.N,/P00*%
X166517462Y-55288943D02*
X166517462Y-55508394D01*
%TO.N,/3V3*%
X166989168Y-63168036D02*
X167164015Y-62993189D01*
%TO.N,/P00*%
X167244999Y-52286135D02*
X167244999Y-54580121D01*
X163651134Y-58374722D02*
X163651134Y-62917800D01*
%TO.N,/P03*%
X162360307Y-55129910D02*
X162245982Y-55015585D01*
X162360307Y-62665265D02*
X162360307Y-55129910D01*
%TO.N,/3V3*%
X168645240Y-52930497D02*
X168645240Y-53038100D01*
X168645240Y-53038100D02*
X168343340Y-53340000D01*
X156651130Y-48260000D02*
X161731130Y-43180000D01*
X152421328Y-48260000D02*
X156651130Y-48260000D01*
X150879302Y-49802026D02*
X152421328Y-48260000D01*
X161731130Y-43180000D02*
X161964263Y-43180000D01*
%TO.N,/P01*%
X160665185Y-55046256D02*
X159179956Y-55046256D01*
X161267393Y-55648464D02*
X160665185Y-55046256D01*
X159000118Y-54920151D02*
X158632733Y-54552766D01*
X161267393Y-63000423D02*
X161267393Y-55648464D01*
X158632733Y-51048470D02*
X158424263Y-50840000D01*
X159112414Y-55065903D02*
X159000118Y-54953607D01*
X159160309Y-55065903D02*
X159112414Y-55065903D01*
X159179956Y-55046256D02*
X159160309Y-55065903D01*
X158632733Y-54552766D02*
X158632733Y-51048470D01*
X159000118Y-54953607D02*
X159000118Y-54920151D01*
%TO.N,/3V3*%
X161964263Y-43180000D02*
X163604668Y-43180000D01*
X163604668Y-43180000D02*
X168343340Y-47918672D01*
X168343340Y-47918672D02*
X168343340Y-53340000D01*
%TD*%
M02*
