%TF.GenerationSoftware,KiCad,Pcbnew,9.0.3*%
%TF.CreationDate,2026-01-07T23:24:55+00:00*%
%TF.ProjectId,lego_gameboy_main,6c65676f-5f67-4616-9d65-626f795f6d61,rev?*%
%TF.SameCoordinates,Original*%
%TF.FileFunction,Copper,L2,Inr*%
%TF.FilePolarity,Positive*%
%FSLAX46Y46*%
G04 Gerber Fmt 4.6, Leading zero omitted, Abs format (unit mm)*
G04 Created by KiCad (PCBNEW 9.0.3) date 2026-01-07 23:24:55*
%MOMM*%
%LPD*%
G01*
G04 APERTURE LIST*
G04 Aperture macros list*
%AMRoundRect*
0 Rectangle with rounded corners*
0 $1 Rounding radius*
0 $2 $3 $4 $5 $6 $7 $8 $9 X,Y pos of 4 corners*
0 Add a 4 corners polygon primitive as box body*
4,1,4,$2,$3,$4,$5,$6,$7,$8,$9,$2,$3,0*
0 Add four circle primitives for the rounded corners*
1,1,$1+$1,$2,$3*
1,1,$1+$1,$4,$5*
1,1,$1+$1,$6,$7*
1,1,$1+$1,$8,$9*
0 Add four rect primitives between the rounded corners*
20,1,$1+$1,$2,$3,$4,$5,0*
20,1,$1+$1,$4,$5,$6,$7,0*
20,1,$1+$1,$6,$7,$8,$9,0*
20,1,$1+$1,$8,$9,$2,$3,0*%
G04 Aperture macros list end*
%TA.AperFunction,HeatsinkPad*%
%ADD10C,0.850000*%
%TD*%
%TA.AperFunction,HeatsinkPad*%
%ADD11O,0.600000X2.050000*%
%TD*%
%TA.AperFunction,ComponentPad*%
%ADD12C,1.800000*%
%TD*%
%TA.AperFunction,ComponentPad*%
%ADD13RoundRect,0.250000X0.350000X0.625000X-0.350000X0.625000X-0.350000X-0.625000X0.350000X-0.625000X0*%
%TD*%
%TA.AperFunction,ComponentPad*%
%ADD14O,1.200000X1.750000*%
%TD*%
%TA.AperFunction,ViaPad*%
%ADD15C,0.600000*%
%TD*%
G04 APERTURE END LIST*
D10*
%TO.N,GND*%
%TO.C,J1*%
X63057113Y-29027016D03*
D11*
X63057113Y-26047016D03*
D10*
X53867113Y-29027016D03*
D11*
X53867113Y-26047016D03*
%TD*%
D12*
%TO.N,unconnected-(SW2-Pad3)_1*%
%TO.C,SW2*%
X91415179Y-40671382D03*
%TD*%
D13*
%TO.N,GND*%
%TO.C,J3*%
X91009300Y-79380966D03*
D14*
%TO.N,Net-(U1-OUT)*%
X89009300Y-79380966D03*
%TD*%
D15*
%TO.N,GND*%
X84643391Y-42915804D03*
X91999101Y-34792438D03*
X70923472Y-26437965D03*
X68790565Y-28648079D03*
X69373130Y-33462187D03*
X70852003Y-34995514D03*
X78880377Y-24830647D03*
X71814041Y-29785958D03*
X74661545Y-26968669D03*
X70182951Y-38196893D03*
X68313282Y-36436531D03*
%TO.N,/3V3*%
X71545810Y-34020531D03*
X67545890Y-32256606D03*
%TO.N,GPIO14{slash}CS{slash}CD*%
X73976514Y-26824668D03*
X72241049Y-30403413D03*
%TO.N,GPIO12{slash}CLK*%
X72327293Y-29306455D03*
%TO.N,GPIO11{slash}DataIN{slash}MOSI*%
X69489839Y-28755973D03*
X70061907Y-32685728D03*
%TO.N,GPIO7*%
X46245758Y-46596793D03*
X84740486Y-65576793D03*
X87007951Y-74512587D03*
X87524000Y-71105362D03*
%TO.N,LCD_CS*%
X61070202Y-60060375D03*
X60428160Y-57020760D03*
%TO.N,Net-(U$10-LEDA@1)*%
X57628398Y-60911701D03*
X68580000Y-55880000D03*
%TO.N,LCD_SCK*%
X73660000Y-55880000D03*
X55880000Y-53340000D03*
%TO.N,GPIO18*%
X62215832Y-34304168D03*
X53340000Y-35560000D03*
X84678054Y-42216661D03*
X46269046Y-50800000D03*
X49503791Y-43752779D03*
X49364181Y-45821533D03*
%TO.N,GPIO17*%
X61978331Y-51836233D03*
X81280000Y-63500000D03*
X82921651Y-77889950D03*
X83820000Y-63500000D03*
X86245629Y-77329689D03*
%TO.N,GPIO11{slash}DataIN{slash}MOSI*%
X71617618Y-26563479D03*
X60277851Y-49665640D03*
X63532880Y-47465303D03*
X63500000Y-38100000D03*
%TO.N,LCD_DC*%
X62845166Y-57012890D03*
X62774682Y-59987319D03*
%TO.N,/5VIN*%
X71120000Y-27940000D03*
X83820000Y-35560000D03*
X83383076Y-42743076D03*
X79508873Y-48601034D03*
X76200000Y-48260000D03*
%TO.N,GND*%
X62859554Y-38382548D03*
X49001823Y-45222617D03*
X46728993Y-57917025D03*
X80309978Y-54524095D03*
X60561213Y-52527760D03*
X56198704Y-37808283D03*
X46532811Y-40142425D03*
X53585555Y-48203177D03*
X83820000Y-58420000D03*
X82134984Y-44914924D03*
X90179567Y-81388533D03*
X46267395Y-49920967D03*
X52498714Y-41627495D03*
X86188271Y-85408490D03*
X53999252Y-51055829D03*
X90522794Y-52286977D03*
X84210724Y-62919192D03*
X55754503Y-48260000D03*
X56344616Y-52816421D03*
X58068019Y-50914517D03*
X63686952Y-46725023D03*
X86122158Y-39535818D03*
X74283706Y-56518561D03*
X59040259Y-59866826D03*
X66526782Y-59977388D03*
X73869911Y-46790620D03*
X51432476Y-50952603D03*
X45158056Y-38589373D03*
X84556121Y-45172604D03*
X63705247Y-40491021D03*
X91445079Y-85725867D03*
X80944687Y-51740314D03*
X78740000Y-60960000D03*
X85526776Y-64423660D03*
X48260000Y-83820000D03*
X45758075Y-43827279D03*
X84430854Y-48970737D03*
X82811876Y-75209258D03*
X61880027Y-59656050D03*
X72240520Y-46908138D03*
X84430166Y-47979958D03*
X48260000Y-76200000D03*
X67737084Y-46964303D03*
X92154814Y-79416176D03*
X60260004Y-40758075D03*
X68580000Y-40640000D03*
X55382653Y-52638264D03*
X90295330Y-67497627D03*
X90494435Y-72838814D03*
X57766002Y-33269578D03*
X59690283Y-36541286D03*
X48960003Y-60960000D03*
X83854762Y-75348309D03*
X86281799Y-72576361D03*
X61674324Y-28567387D03*
X68580000Y-83820000D03*
X51610620Y-71497708D03*
X55880000Y-83820000D03*
X90131868Y-63184340D03*
X55281280Y-34829434D03*
X76689422Y-44670317D03*
X90259667Y-39345441D03*
X46810951Y-60326559D03*
X91171782Y-75480129D03*
X91236656Y-74036726D03*
X67964650Y-42438425D03*
X90165749Y-69442389D03*
X48260000Y-71120000D03*
X77121452Y-26853776D03*
X83609855Y-34767983D03*
X45720000Y-30480000D03*
X83820000Y-32682741D03*
X61554230Y-38469992D03*
X92289375Y-31387756D03*
X52026413Y-38026203D03*
X61015854Y-51163836D03*
X69773481Y-49064951D03*
X71120000Y-52460026D03*
X59699311Y-49271566D03*
X90485069Y-65228348D03*
X87499349Y-52393353D03*
X74260000Y-51400000D03*
X89737852Y-76530113D03*
X51447231Y-47852458D03*
X46271908Y-45897279D03*
X63539267Y-57103597D03*
X45720000Y-66040000D03*
X49790951Y-57594099D03*
X57653895Y-39754436D03*
X78050854Y-84990299D03*
X88357946Y-53497076D03*
X46999425Y-34626772D03*
X56545615Y-48495067D03*
X86212487Y-74427488D03*
X74619292Y-48356307D03*
X68139457Y-38690455D03*
X83820000Y-40640000D03*
X71952296Y-54442615D03*
X58420000Y-63500000D03*
X61128062Y-57008902D03*
X63500000Y-83820000D03*
X89549121Y-36081621D03*
X85875168Y-61208631D03*
X80614396Y-83140395D03*
X71610825Y-48914350D03*
X66748079Y-37920035D03*
X60876181Y-48959311D03*
X82871720Y-48260000D03*
X52008336Y-52484149D03*
X67655077Y-55643849D03*
X53340000Y-58420000D03*
X61046936Y-31677797D03*
X77485634Y-53557236D03*
X75333865Y-85295228D03*
X85710064Y-58679974D03*
X90628588Y-44956886D03*
X77947633Y-56063160D03*
X48170953Y-65098157D03*
X46717277Y-62103935D03*
X50095701Y-50830903D03*
X53340000Y-33020000D03*
X58292085Y-45729839D03*
X81736300Y-64030842D03*
X49306995Y-62614571D03*
X62748963Y-33804168D03*
X78616096Y-26974063D03*
X60428342Y-36106590D03*
X52044388Y-46082566D03*
X55880000Y-63500000D03*
X55378180Y-50268661D03*
X90181866Y-48464718D03*
X85022834Y-36053839D03*
X71453110Y-42280600D03*
X59148130Y-44863955D03*
X89276597Y-80775938D03*
X58871098Y-53974356D03*
X68548443Y-44647370D03*
X80056877Y-27032314D03*
X86987387Y-71569174D03*
X84355405Y-66161358D03*
X76620420Y-59612821D03*
X80310531Y-44848192D03*
X82880619Y-84202308D03*
X89727536Y-75415980D03*
X62684749Y-51460762D03*
X87725568Y-59093450D03*
X83784499Y-69341584D03*
X52397685Y-44050996D03*
X57085768Y-60469484D03*
X64707947Y-28625835D03*
X70105247Y-59992054D03*
X83983723Y-39056306D03*
%TO.N,/3V3*%
X88390679Y-50486936D03*
X75786096Y-55466097D03*
X72689060Y-41610940D03*
X86749353Y-78885229D03*
X91440000Y-81280000D03*
X89875000Y-56562980D03*
X52992538Y-39316363D03*
X77280305Y-84688184D03*
X84477304Y-49945119D03*
%TO.N,Net-(D1-K)*%
X86360000Y-58420000D03*
X82722457Y-52859592D03*
%TO.N,/USB_N*%
X43180000Y-53340000D03*
X48260000Y-60960000D03*
X72644299Y-46282186D03*
X55880000Y-50800000D03*
%TO.N,/USB_P*%
X47906446Y-63853554D03*
X43680000Y-52845024D03*
X60845064Y-48260000D03*
X71900607Y-48260000D03*
%TO.N,Net-(SW3-B)*%
X71120000Y-35642183D03*
X87350000Y-59970000D03*
%TO.N,Net-(SW1-B)*%
X79613019Y-44907188D03*
X77190000Y-44036253D03*
%TO.N,GPIO16*%
X78797242Y-84688184D03*
X53905687Y-48825687D03*
X83474681Y-81983948D03*
%TO.N,GPIO15*%
X83467001Y-83820000D03*
X89100133Y-83984702D03*
X89923457Y-63852598D03*
X52345509Y-46714491D03*
X87053427Y-66019367D03*
X86894267Y-85699476D03*
X83820000Y-68580000D03*
%TO.N,GPIO5*%
X60960000Y-38100000D03*
X90392417Y-68319189D03*
X87407582Y-67754099D03*
X88428360Y-80828964D03*
X83199295Y-72544335D03*
%TO.N,Net-(U4-OUTP)*%
X58420000Y-33020000D03*
X56680003Y-37299997D03*
%TO.N,Net-(U4-OUTN)*%
X67895064Y-38034501D03*
X50356333Y-69531693D03*
X68643169Y-33587965D03*
X68257132Y-29118342D03*
%TO.N,Net-(U1-OUT)*%
X87895311Y-51804690D03*
X88900000Y-53940000D03*
X91317893Y-34953555D03*
%TO.N,GPIO14{slash}CS{slash}CD*%
X52708114Y-52466427D03*
X59935297Y-44913153D03*
X60960000Y-40640000D03*
X58243908Y-54285221D03*
X53340000Y-50800000D03*
X60947545Y-36576092D03*
%TO.N,GPIO12{slash}CLK*%
X77817370Y-26929293D03*
X59024163Y-36756426D03*
X51434587Y-50252604D03*
%TO.N,GPIO13{slash}DataOUT{slash}MISO*%
X58582577Y-46372890D03*
X55705924Y-35385924D03*
X79366445Y-26916955D03*
X51849301Y-38705135D03*
%TO.N,GPIO6*%
X84265536Y-78559805D03*
X77301771Y-82381771D03*
%TO.N,GPIO8*%
X46234023Y-57422042D03*
X75398267Y-62756930D03*
X77931790Y-59669769D03*
X76200000Y-60960000D03*
%TO.N,Net-(U2-EN)*%
X84692686Y-38850463D03*
X88900000Y-45720000D03*
%TO.N,Net-(J2-Pin_5)*%
X74921574Y-84729526D03*
X84206389Y-83433611D03*
%TO.N,GND*%
X70219832Y-37328751D03*
%TD*%
%TA.AperFunction,Conductor*%
%TO.N,GND*%
G36*
X52923411Y-29218362D02*
G01*
X52969166Y-29271166D01*
X52975599Y-29291085D01*
X52975891Y-29290997D01*
X52977661Y-29296833D01*
X53047384Y-29465161D01*
X53058611Y-29481963D01*
X53341898Y-29198677D01*
X53649865Y-29198677D01*
X53711338Y-29260150D01*
X53812412Y-29302016D01*
X53921814Y-29302016D01*
X54022888Y-29260150D01*
X54084361Y-29198677D01*
X54392327Y-29198677D01*
X54675613Y-29481964D01*
X54675613Y-29481963D01*
X54686836Y-29465170D01*
X54686837Y-29465167D01*
X54756565Y-29296829D01*
X54758335Y-29290997D01*
X54759904Y-29291473D01*
X54788624Y-29236573D01*
X54849340Y-29202000D01*
X54877854Y-29198677D01*
X62046372Y-29198677D01*
X62113411Y-29218362D01*
X62159166Y-29271166D01*
X62165599Y-29291085D01*
X62165891Y-29290997D01*
X62167661Y-29296833D01*
X62237384Y-29465161D01*
X62248611Y-29481963D01*
X62531898Y-29198677D01*
X62839865Y-29198677D01*
X62901338Y-29260150D01*
X63002412Y-29302016D01*
X63111814Y-29302016D01*
X63212888Y-29260150D01*
X63274361Y-29198677D01*
X63582327Y-29198677D01*
X63865613Y-29481964D01*
X63865613Y-29481963D01*
X63876836Y-29465170D01*
X63876837Y-29465167D01*
X63946565Y-29296829D01*
X63948335Y-29290997D01*
X63949904Y-29291473D01*
X63978624Y-29236573D01*
X64039340Y-29202000D01*
X64067854Y-29198677D01*
X67355165Y-29198677D01*
X67422204Y-29218362D01*
X67467959Y-29271166D01*
X67476782Y-29298486D01*
X67487393Y-29351831D01*
X67487396Y-29351843D01*
X67547734Y-29497514D01*
X67547741Y-29497527D01*
X67635342Y-29628630D01*
X67635345Y-29628634D01*
X67746839Y-29740128D01*
X67746843Y-29740131D01*
X67877946Y-29827732D01*
X67877959Y-29827739D01*
X67956507Y-29860274D01*
X68023635Y-29888079D01*
X68166350Y-29916467D01*
X68178285Y-29918841D01*
X68178288Y-29918842D01*
X68178290Y-29918842D01*
X68335976Y-29918842D01*
X68335977Y-29918841D01*
X68490629Y-29888079D01*
X68636311Y-29827736D01*
X68767421Y-29740131D01*
X68878921Y-29628631D01*
X68958061Y-29510188D01*
X69011671Y-29465385D01*
X69080996Y-29456678D01*
X69108614Y-29464520D01*
X69256337Y-29525708D01*
X69256342Y-29525710D01*
X69410992Y-29556472D01*
X69410995Y-29556473D01*
X69410997Y-29556473D01*
X69568683Y-29556473D01*
X69568684Y-29556472D01*
X69723336Y-29525710D01*
X69869018Y-29465367D01*
X70000128Y-29377762D01*
X70111628Y-29266262D01*
X70119963Y-29253786D01*
X70173574Y-29208982D01*
X70223066Y-29198677D01*
X71402793Y-29198677D01*
X71469832Y-29218362D01*
X71515587Y-29271166D01*
X71526793Y-29322677D01*
X71526793Y-29385301D01*
X71557554Y-29539944D01*
X71557557Y-29539956D01*
X71617896Y-29685629D01*
X71645016Y-29726217D01*
X71665893Y-29792894D01*
X71647408Y-29860274D01*
X71629600Y-29882782D01*
X71619263Y-29893119D01*
X71619257Y-29893127D01*
X71531658Y-30024227D01*
X71531651Y-30024240D01*
X71471313Y-30169911D01*
X71471310Y-30169923D01*
X71440549Y-30324566D01*
X71440549Y-30482259D01*
X71471310Y-30636902D01*
X71471313Y-30636914D01*
X71531651Y-30782585D01*
X71531658Y-30782598D01*
X71619259Y-30913701D01*
X71619262Y-30913705D01*
X71730756Y-31025199D01*
X71730760Y-31025202D01*
X71861863Y-31112803D01*
X71861876Y-31112810D01*
X72007547Y-31173148D01*
X72007552Y-31173150D01*
X72162202Y-31203912D01*
X72162205Y-31203913D01*
X72162207Y-31203913D01*
X72319893Y-31203913D01*
X72319894Y-31203912D01*
X72474546Y-31173150D01*
X72620228Y-31112807D01*
X72751338Y-31025202D01*
X72862838Y-30913702D01*
X72950443Y-30782592D01*
X73010786Y-30636910D01*
X73041549Y-30482255D01*
X73041549Y-30324571D01*
X73041549Y-30324568D01*
X73041548Y-30324566D01*
X73010787Y-30169923D01*
X73010786Y-30169916D01*
X73010784Y-30169911D01*
X72950445Y-30024238D01*
X72950443Y-30024235D01*
X72950443Y-30024234D01*
X72923325Y-29983650D01*
X72902447Y-29916975D01*
X72920931Y-29849595D01*
X72938745Y-29827080D01*
X72949082Y-29816744D01*
X73036687Y-29685634D01*
X73097030Y-29539952D01*
X73127793Y-29385297D01*
X73127793Y-29322677D01*
X73147478Y-29255638D01*
X73200282Y-29209883D01*
X73251793Y-29198677D01*
X92598889Y-29198677D01*
X92665928Y-29218362D01*
X92711683Y-29271166D01*
X92722889Y-29322700D01*
X92721004Y-39704411D01*
X92701307Y-39771446D01*
X92648495Y-39817192D01*
X92579335Y-39827123D01*
X92515784Y-39798086D01*
X92496686Y-39777274D01*
X92483422Y-39759018D01*
X92327542Y-39603138D01*
X92327537Y-39603134D01*
X92149204Y-39473569D01*
X92149203Y-39473568D01*
X92149201Y-39473567D01*
X92033334Y-39414529D01*
X91952785Y-39373486D01*
X91952782Y-39373485D01*
X91743131Y-39305367D01*
X91634265Y-39288124D01*
X91525401Y-39270882D01*
X91304957Y-39270882D01*
X91232380Y-39282377D01*
X91087226Y-39305367D01*
X90877575Y-39373485D01*
X90877572Y-39373486D01*
X90681153Y-39473569D01*
X90502820Y-39603134D01*
X90502815Y-39603138D01*
X90346935Y-39759018D01*
X90346931Y-39759023D01*
X90217366Y-39937356D01*
X90117283Y-40133775D01*
X90117282Y-40133778D01*
X90049164Y-40343429D01*
X90014679Y-40561160D01*
X90014679Y-40781603D01*
X90049164Y-40999334D01*
X90117282Y-41208985D01*
X90117283Y-41208988D01*
X90185301Y-41342478D01*
X90203114Y-41377438D01*
X90217366Y-41405407D01*
X90346931Y-41583740D01*
X90346935Y-41583745D01*
X90502815Y-41739625D01*
X90502820Y-41739629D01*
X90637495Y-41837475D01*
X90681157Y-41869197D01*
X90809554Y-41934619D01*
X90877572Y-41969277D01*
X90877575Y-41969278D01*
X90982400Y-42003337D01*
X91087228Y-42037397D01*
X91304957Y-42071882D01*
X91304958Y-42071882D01*
X91525400Y-42071882D01*
X91525401Y-42071882D01*
X91743130Y-42037397D01*
X91952785Y-41969277D01*
X92149201Y-41869197D01*
X92327544Y-41739624D01*
X92483421Y-41583747D01*
X92496332Y-41565975D01*
X92551661Y-41523309D01*
X92621274Y-41517328D01*
X92683070Y-41549932D01*
X92717429Y-41610770D01*
X92720652Y-41638882D01*
X92716043Y-67032785D01*
X92712526Y-86408870D01*
X92712518Y-86451369D01*
X92692821Y-86518404D01*
X92640009Y-86564150D01*
X92588518Y-86575346D01*
X87433071Y-86575346D01*
X87366032Y-86555661D01*
X87320277Y-86502857D01*
X87310333Y-86433699D01*
X87339358Y-86370143D01*
X87364180Y-86348244D01*
X87383094Y-86335605D01*
X87404556Y-86321265D01*
X87516056Y-86209765D01*
X87603661Y-86078655D01*
X87664004Y-85932973D01*
X87694767Y-85778318D01*
X87694767Y-85620634D01*
X87694767Y-85620631D01*
X87694766Y-85620629D01*
X87676744Y-85530026D01*
X87664004Y-85465979D01*
X87660666Y-85457921D01*
X87603664Y-85320303D01*
X87603657Y-85320290D01*
X87516056Y-85189187D01*
X87516053Y-85189183D01*
X87404559Y-85077689D01*
X87404555Y-85077686D01*
X87273452Y-84990085D01*
X87273439Y-84990078D01*
X87127768Y-84929740D01*
X87127756Y-84929737D01*
X86973112Y-84898976D01*
X86973109Y-84898976D01*
X86815425Y-84898976D01*
X86815422Y-84898976D01*
X86660777Y-84929737D01*
X86660765Y-84929740D01*
X86515094Y-84990078D01*
X86515081Y-84990085D01*
X86383978Y-85077686D01*
X86383974Y-85077689D01*
X86272480Y-85189183D01*
X86272477Y-85189187D01*
X86184876Y-85320290D01*
X86184869Y-85320303D01*
X86124531Y-85465974D01*
X86124528Y-85465986D01*
X86093767Y-85620629D01*
X86093767Y-85778322D01*
X86124528Y-85932965D01*
X86124531Y-85932977D01*
X86184869Y-86078648D01*
X86184876Y-86078661D01*
X86272477Y-86209764D01*
X86272480Y-86209768D01*
X86383974Y-86321262D01*
X86383978Y-86321265D01*
X86424354Y-86348244D01*
X86469159Y-86401857D01*
X86477866Y-86471182D01*
X86447711Y-86534209D01*
X86388268Y-86570928D01*
X86355463Y-86575346D01*
X44233336Y-86575346D01*
X44166297Y-86555661D01*
X44120542Y-86502857D01*
X44109336Y-86451346D01*
X44109336Y-84650679D01*
X74121074Y-84650679D01*
X74121074Y-84808372D01*
X74151835Y-84963015D01*
X74151838Y-84963027D01*
X74212176Y-85108698D01*
X74212183Y-85108711D01*
X74299784Y-85239814D01*
X74299787Y-85239818D01*
X74411281Y-85351312D01*
X74411285Y-85351315D01*
X74542388Y-85438916D01*
X74542401Y-85438923D01*
X74688072Y-85499261D01*
X74688077Y-85499263D01*
X74842727Y-85530025D01*
X74842730Y-85530026D01*
X74842732Y-85530026D01*
X75000418Y-85530026D01*
X75000419Y-85530025D01*
X75155071Y-85499263D01*
X75300753Y-85438920D01*
X75431863Y-85351315D01*
X75543363Y-85239815D01*
X75630968Y-85108705D01*
X75691311Y-84963023D01*
X75722074Y-84808368D01*
X75722074Y-84650684D01*
X75713849Y-84609337D01*
X76479805Y-84609337D01*
X76479805Y-84767030D01*
X76510566Y-84921673D01*
X76510569Y-84921685D01*
X76570907Y-85067356D01*
X76570914Y-85067369D01*
X76658515Y-85198472D01*
X76658518Y-85198476D01*
X76770012Y-85309970D01*
X76770016Y-85309973D01*
X76901119Y-85397574D01*
X76901132Y-85397581D01*
X77000935Y-85438920D01*
X77046808Y-85457921D01*
X77201458Y-85488683D01*
X77201461Y-85488684D01*
X77201463Y-85488684D01*
X77359149Y-85488684D01*
X77359150Y-85488683D01*
X77513802Y-85457921D01*
X77659484Y-85397578D01*
X77790594Y-85309973D01*
X77902094Y-85198473D01*
X77935671Y-85148220D01*
X77989282Y-85103417D01*
X78058607Y-85094709D01*
X78121635Y-85124863D01*
X78141875Y-85148221D01*
X78175452Y-85198472D01*
X78175455Y-85198476D01*
X78286949Y-85309970D01*
X78286953Y-85309973D01*
X78418056Y-85397574D01*
X78418069Y-85397581D01*
X78517872Y-85438920D01*
X78563745Y-85457921D01*
X78718395Y-85488683D01*
X78718398Y-85488684D01*
X78718400Y-85488684D01*
X78876086Y-85488684D01*
X78876087Y-85488683D01*
X79030739Y-85457921D01*
X79176421Y-85397578D01*
X79307531Y-85309973D01*
X79419031Y-85198473D01*
X79506636Y-85067363D01*
X79566979Y-84921681D01*
X79597742Y-84767026D01*
X79597742Y-84609342D01*
X79597742Y-84609339D01*
X79597741Y-84609337D01*
X79575201Y-84496024D01*
X79566979Y-84454687D01*
X79561635Y-84441786D01*
X79506639Y-84309011D01*
X79506632Y-84308998D01*
X79419031Y-84177895D01*
X79419028Y-84177891D01*
X79307534Y-84066397D01*
X79307530Y-84066394D01*
X79176427Y-83978793D01*
X79176414Y-83978786D01*
X79030743Y-83918448D01*
X79030731Y-83918445D01*
X78876087Y-83887684D01*
X78876084Y-83887684D01*
X78718400Y-83887684D01*
X78718397Y-83887684D01*
X78563752Y-83918445D01*
X78563740Y-83918448D01*
X78418069Y-83978786D01*
X78418056Y-83978793D01*
X78286953Y-84066394D01*
X78286949Y-84066397D01*
X78175455Y-84177891D01*
X78175450Y-84177897D01*
X78141874Y-84228147D01*
X78088262Y-84272951D01*
X78018936Y-84281658D01*
X77955909Y-84251503D01*
X77935671Y-84228146D01*
X77902094Y-84177895D01*
X77902091Y-84177891D01*
X77790597Y-84066397D01*
X77790593Y-84066394D01*
X77659490Y-83978793D01*
X77659477Y-83978786D01*
X77513806Y-83918448D01*
X77513794Y-83918445D01*
X77359150Y-83887684D01*
X77359147Y-83887684D01*
X77201463Y-83887684D01*
X77201460Y-83887684D01*
X77046815Y-83918445D01*
X77046803Y-83918448D01*
X76901132Y-83978786D01*
X76901119Y-83978793D01*
X76770016Y-84066394D01*
X76770012Y-84066397D01*
X76658518Y-84177891D01*
X76658515Y-84177895D01*
X76570914Y-84308998D01*
X76570907Y-84309011D01*
X76510569Y-84454682D01*
X76510566Y-84454694D01*
X76479805Y-84609337D01*
X75713849Y-84609337D01*
X75713283Y-84606491D01*
X75691312Y-84496036D01*
X75691311Y-84496029D01*
X75662918Y-84427482D01*
X75630971Y-84350353D01*
X75630964Y-84350340D01*
X75543363Y-84219237D01*
X75543360Y-84219233D01*
X75431866Y-84107739D01*
X75431862Y-84107736D01*
X75300759Y-84020135D01*
X75300746Y-84020128D01*
X75155075Y-83959790D01*
X75155063Y-83959787D01*
X75000419Y-83929026D01*
X75000416Y-83929026D01*
X74842732Y-83929026D01*
X74842729Y-83929026D01*
X74688084Y-83959787D01*
X74688072Y-83959790D01*
X74542401Y-84020128D01*
X74542388Y-84020135D01*
X74411285Y-84107736D01*
X74411281Y-84107739D01*
X74299787Y-84219233D01*
X74299784Y-84219237D01*
X74212183Y-84350340D01*
X74212176Y-84350353D01*
X74151838Y-84496024D01*
X74151835Y-84496036D01*
X74121074Y-84650679D01*
X44109336Y-84650679D01*
X44109336Y-83741153D01*
X82666501Y-83741153D01*
X82666501Y-83898846D01*
X82697262Y-84053489D01*
X82697265Y-84053501D01*
X82757603Y-84199172D01*
X82757610Y-84199185D01*
X82845211Y-84330288D01*
X82845214Y-84330292D01*
X82956708Y-84441786D01*
X82956712Y-84441789D01*
X83087815Y-84529390D01*
X83087828Y-84529397D01*
X83233499Y-84589735D01*
X83233504Y-84589737D01*
X83388154Y-84620499D01*
X83388157Y-84620500D01*
X83388159Y-84620500D01*
X83545845Y-84620500D01*
X83545846Y-84620499D01*
X83700498Y-84589737D01*
X83846180Y-84529394D01*
X83977290Y-84441789D01*
X84088790Y-84330289D01*
X84103159Y-84308782D01*
X84116232Y-84289220D01*
X84169844Y-84244415D01*
X84219334Y-84234111D01*
X84285233Y-84234111D01*
X84285234Y-84234110D01*
X84439886Y-84203348D01*
X84585568Y-84143005D01*
X84716678Y-84055400D01*
X84828178Y-83943900D01*
X84853599Y-83905855D01*
X88299633Y-83905855D01*
X88299633Y-84063548D01*
X88330394Y-84218191D01*
X88330397Y-84218203D01*
X88390735Y-84363874D01*
X88390742Y-84363887D01*
X88478343Y-84494990D01*
X88478346Y-84494994D01*
X88589840Y-84606488D01*
X88589844Y-84606491D01*
X88720947Y-84694092D01*
X88720960Y-84694099D01*
X88866631Y-84754437D01*
X88866636Y-84754439D01*
X89021286Y-84785201D01*
X89021289Y-84785202D01*
X89021291Y-84785202D01*
X89178977Y-84785202D01*
X89178978Y-84785201D01*
X89333630Y-84754439D01*
X89479312Y-84694096D01*
X89610422Y-84606491D01*
X89721922Y-84494991D01*
X89809527Y-84363881D01*
X89869870Y-84218199D01*
X89900633Y-84063544D01*
X89900633Y-83905860D01*
X89900633Y-83905857D01*
X89900632Y-83905855D01*
X89899237Y-83898842D01*
X89869870Y-83751205D01*
X89869868Y-83751200D01*
X89809530Y-83605529D01*
X89809523Y-83605516D01*
X89721922Y-83474413D01*
X89721919Y-83474409D01*
X89610425Y-83362915D01*
X89610421Y-83362912D01*
X89479318Y-83275311D01*
X89479305Y-83275304D01*
X89333634Y-83214966D01*
X89333622Y-83214963D01*
X89178978Y-83184202D01*
X89178975Y-83184202D01*
X89021291Y-83184202D01*
X89021288Y-83184202D01*
X88866643Y-83214963D01*
X88866631Y-83214966D01*
X88720960Y-83275304D01*
X88720947Y-83275311D01*
X88589844Y-83362912D01*
X88589840Y-83362915D01*
X88478346Y-83474409D01*
X88478343Y-83474413D01*
X88390742Y-83605516D01*
X88390735Y-83605529D01*
X88330397Y-83751200D01*
X88330394Y-83751212D01*
X88299633Y-83905855D01*
X84853599Y-83905855D01*
X84915783Y-83812790D01*
X84976126Y-83667108D01*
X85006889Y-83512453D01*
X85006889Y-83354769D01*
X85006889Y-83354766D01*
X85006888Y-83354764D01*
X84997926Y-83309711D01*
X84976126Y-83200114D01*
X84968735Y-83182270D01*
X84915786Y-83054438D01*
X84915779Y-83054425D01*
X84828178Y-82923322D01*
X84828175Y-82923318D01*
X84716681Y-82811824D01*
X84716677Y-82811821D01*
X84585574Y-82724220D01*
X84585561Y-82724213D01*
X84439890Y-82663875D01*
X84439878Y-82663872D01*
X84285234Y-82633111D01*
X84285231Y-82633111D01*
X84235666Y-82633111D01*
X84168627Y-82613426D01*
X84122872Y-82560622D01*
X84112928Y-82491464D01*
X84132564Y-82440220D01*
X84184071Y-82363133D01*
X84184071Y-82363132D01*
X84184075Y-82363127D01*
X84244418Y-82217445D01*
X84275181Y-82062790D01*
X84275181Y-81905106D01*
X84275181Y-81905103D01*
X84275180Y-81905101D01*
X84254311Y-81800185D01*
X84244418Y-81750451D01*
X84242706Y-81746317D01*
X84184078Y-81604775D01*
X84184071Y-81604762D01*
X84096470Y-81473659D01*
X84096467Y-81473655D01*
X83984973Y-81362161D01*
X83984969Y-81362158D01*
X83853866Y-81274557D01*
X83853853Y-81274550D01*
X83708182Y-81214212D01*
X83708170Y-81214209D01*
X83553526Y-81183448D01*
X83553523Y-81183448D01*
X83395839Y-81183448D01*
X83395836Y-81183448D01*
X83241191Y-81214209D01*
X83241179Y-81214212D01*
X83095508Y-81274550D01*
X83095495Y-81274557D01*
X82964392Y-81362158D01*
X82964388Y-81362161D01*
X82852894Y-81473655D01*
X82852891Y-81473659D01*
X82765290Y-81604762D01*
X82765283Y-81604775D01*
X82704945Y-81750446D01*
X82704942Y-81750458D01*
X82674181Y-81905101D01*
X82674181Y-82062794D01*
X82704942Y-82217437D01*
X82704945Y-82217449D01*
X82765283Y-82363120D01*
X82765290Y-82363133D01*
X82852891Y-82494236D01*
X82852894Y-82494240D01*
X82964388Y-82605734D01*
X82964392Y-82605737D01*
X83095495Y-82693338D01*
X83095508Y-82693345D01*
X83241179Y-82753683D01*
X83241184Y-82753685D01*
X83241188Y-82753685D01*
X83241189Y-82753686D01*
X83371429Y-82779593D01*
X83433339Y-82811978D01*
X83467914Y-82872694D01*
X83464174Y-82942463D01*
X83423307Y-82999135D01*
X83371429Y-83022827D01*
X83233509Y-83050261D01*
X83233499Y-83050264D01*
X83087828Y-83110602D01*
X83087815Y-83110609D01*
X82956712Y-83198210D01*
X82956708Y-83198213D01*
X82845214Y-83309707D01*
X82845211Y-83309711D01*
X82757610Y-83440814D01*
X82757603Y-83440827D01*
X82697265Y-83586498D01*
X82697262Y-83586510D01*
X82666501Y-83741153D01*
X44109336Y-83741153D01*
X44109336Y-69452846D01*
X49555833Y-69452846D01*
X49555833Y-69610539D01*
X49586594Y-69765182D01*
X49586597Y-69765194D01*
X49646935Y-69910865D01*
X49646942Y-69910878D01*
X49734543Y-70041981D01*
X49734546Y-70041985D01*
X49846040Y-70153479D01*
X49846044Y-70153482D01*
X49977147Y-70241083D01*
X49977160Y-70241090D01*
X50122831Y-70301428D01*
X50122836Y-70301430D01*
X50277486Y-70332192D01*
X50277489Y-70332193D01*
X50277491Y-70332193D01*
X50435177Y-70332193D01*
X50435178Y-70332192D01*
X50589830Y-70301430D01*
X50735512Y-70241087D01*
X50866622Y-70153482D01*
X50978122Y-70041982D01*
X51065727Y-69910872D01*
X51126070Y-69765190D01*
X51156833Y-69610535D01*
X51156833Y-69452851D01*
X51156833Y-69452848D01*
X51156832Y-69452846D01*
X51126071Y-69298203D01*
X51126070Y-69298196D01*
X51122424Y-69289394D01*
X51065730Y-69152520D01*
X51065723Y-69152507D01*
X50978122Y-69021404D01*
X50978119Y-69021400D01*
X50866625Y-68909906D01*
X50866621Y-68909903D01*
X50735518Y-68822302D01*
X50735505Y-68822295D01*
X50589834Y-68761957D01*
X50589822Y-68761954D01*
X50435178Y-68731193D01*
X50435175Y-68731193D01*
X50277491Y-68731193D01*
X50277488Y-68731193D01*
X50122843Y-68761954D01*
X50122831Y-68761957D01*
X49977160Y-68822295D01*
X49977147Y-68822302D01*
X49846044Y-68909903D01*
X49846040Y-68909906D01*
X49734546Y-69021400D01*
X49734543Y-69021404D01*
X49646942Y-69152507D01*
X49646935Y-69152520D01*
X49586597Y-69298191D01*
X49586594Y-69298203D01*
X49555833Y-69452846D01*
X44109336Y-69452846D01*
X44109336Y-64856719D01*
X52333305Y-64856719D01*
X52333305Y-65974108D01*
X52333305Y-68514108D01*
X52333305Y-68967838D01*
X52333305Y-81345892D01*
X52337664Y-81362159D01*
X52367413Y-81473187D01*
X52390689Y-81513501D01*
X52433305Y-81587314D01*
X52526491Y-81680500D01*
X52640619Y-81746392D01*
X52767913Y-81780500D01*
X52899697Y-81780500D01*
X76508786Y-81780500D01*
X76575825Y-81800185D01*
X76621580Y-81852989D01*
X76631524Y-81922147D01*
X76611888Y-81973391D01*
X76592380Y-82002585D01*
X76592373Y-82002598D01*
X76532035Y-82148269D01*
X76532032Y-82148281D01*
X76501271Y-82302924D01*
X76501271Y-82460617D01*
X76532032Y-82615260D01*
X76532035Y-82615272D01*
X76592373Y-82760943D01*
X76592380Y-82760956D01*
X76679981Y-82892059D01*
X76679984Y-82892063D01*
X76791478Y-83003557D01*
X76791482Y-83003560D01*
X76922585Y-83091161D01*
X76922598Y-83091168D01*
X77068269Y-83151506D01*
X77068274Y-83151508D01*
X77222924Y-83182270D01*
X77222927Y-83182271D01*
X77222929Y-83182271D01*
X77380615Y-83182271D01*
X77380616Y-83182270D01*
X77535268Y-83151508D01*
X77680950Y-83091165D01*
X77812060Y-83003560D01*
X77923560Y-82892060D01*
X78011165Y-82760950D01*
X78071508Y-82615268D01*
X78102271Y-82460613D01*
X78102271Y-82302929D01*
X78102271Y-82302926D01*
X78102270Y-82302924D01*
X78071509Y-82148281D01*
X78071508Y-82148274D01*
X78071506Y-82148269D01*
X78011168Y-82002598D01*
X78011161Y-82002585D01*
X77991654Y-81973391D01*
X77970776Y-81906714D01*
X77989260Y-81839334D01*
X78041239Y-81792643D01*
X78094756Y-81780500D01*
X81559514Y-81780500D01*
X81559607Y-81780525D01*
X81624207Y-81780500D01*
X81691197Y-81780500D01*
X81691200Y-81780499D01*
X81691385Y-81780474D01*
X81691391Y-81780474D01*
X81754399Y-81763564D01*
X81754400Y-81763569D01*
X81754435Y-81763554D01*
X81818491Y-81746392D01*
X81818498Y-81746387D01*
X81818501Y-81746387D01*
X81818663Y-81746320D01*
X81818665Y-81746318D01*
X81818672Y-81746317D01*
X81875671Y-81713377D01*
X81875718Y-81713366D01*
X81875712Y-81713355D01*
X81887094Y-81706783D01*
X81932619Y-81680500D01*
X81932623Y-81680496D01*
X81932774Y-81680381D01*
X81979315Y-81633804D01*
X81979349Y-81633770D01*
X81983656Y-81629463D01*
X82025805Y-81587314D01*
X82025808Y-81587307D01*
X82025915Y-81587167D01*
X82025924Y-81587159D01*
X82058853Y-81530072D01*
X82058854Y-81530070D01*
X82058856Y-81530071D01*
X82058869Y-81530043D01*
X82091697Y-81473186D01*
X82091698Y-81473179D01*
X82091702Y-81473174D01*
X82091772Y-81473005D01*
X82108649Y-81409922D01*
X82108658Y-81409924D01*
X82108659Y-81409878D01*
X82125805Y-81345892D01*
X82125805Y-81345791D01*
X82125830Y-81345698D01*
X82125805Y-81281135D01*
X82125805Y-81214108D01*
X82125805Y-81206329D01*
X82125775Y-81205893D01*
X82125598Y-80750117D01*
X87627860Y-80750117D01*
X87627860Y-80907810D01*
X87658621Y-81062453D01*
X87658624Y-81062465D01*
X87718962Y-81208136D01*
X87718969Y-81208149D01*
X87806570Y-81339252D01*
X87806573Y-81339256D01*
X87918067Y-81450750D01*
X87918071Y-81450753D01*
X88049174Y-81538354D01*
X88049187Y-81538361D01*
X88167377Y-81587316D01*
X88194863Y-81598701D01*
X88349513Y-81629463D01*
X88349516Y-81629464D01*
X88349518Y-81629464D01*
X88507204Y-81629464D01*
X88507205Y-81629463D01*
X88661857Y-81598701D01*
X88807539Y-81538358D01*
X88938649Y-81450753D01*
X89050149Y-81339253D01*
X89137754Y-81208143D01*
X89198097Y-81062461D01*
X89228860Y-80907806D01*
X89228860Y-80831851D01*
X89248545Y-80764812D01*
X89301349Y-80719057D01*
X89314528Y-80713925D01*
X89431745Y-80675839D01*
X89586088Y-80597198D01*
X89726228Y-80495380D01*
X89834136Y-80387471D01*
X89895455Y-80353989D01*
X89965147Y-80358973D01*
X90021081Y-80400844D01*
X90027353Y-80410059D01*
X90066982Y-80474309D01*
X90190954Y-80598281D01*
X90340175Y-80690322D01*
X90340180Y-80690324D01*
X90506602Y-80745471D01*
X90506609Y-80745472D01*
X90609317Y-80755965D01*
X90611348Y-80756069D01*
X90611768Y-80756216D01*
X90612462Y-80756287D01*
X90612445Y-80756452D01*
X90677301Y-80779133D01*
X90720316Y-80834192D01*
X90726734Y-80903766D01*
X90719612Y-80927361D01*
X90670264Y-81046498D01*
X90670261Y-81046510D01*
X90639500Y-81201153D01*
X90639500Y-81358846D01*
X90670261Y-81513489D01*
X90670264Y-81513501D01*
X90730602Y-81659172D01*
X90730609Y-81659185D01*
X90818210Y-81790288D01*
X90818213Y-81790292D01*
X90929707Y-81901786D01*
X90929711Y-81901789D01*
X91060814Y-81989390D01*
X91060827Y-81989397D01*
X91206498Y-82049735D01*
X91206503Y-82049737D01*
X91361153Y-82080499D01*
X91361156Y-82080500D01*
X91361158Y-82080500D01*
X91518844Y-82080500D01*
X91518845Y-82080499D01*
X91673497Y-82049737D01*
X91819179Y-81989394D01*
X91950289Y-81901789D01*
X92061789Y-81790289D01*
X92149394Y-81659179D01*
X92209737Y-81513497D01*
X92240500Y-81358842D01*
X92240500Y-81201158D01*
X92240500Y-81201155D01*
X92240499Y-81201153D01*
X92212911Y-81062461D01*
X92209737Y-81046503D01*
X92209735Y-81046498D01*
X92149397Y-80900827D01*
X92149390Y-80900814D01*
X92061789Y-80769711D01*
X92061786Y-80769707D01*
X91946684Y-80654605D01*
X91913199Y-80593282D01*
X91918183Y-80523590D01*
X91946688Y-80479238D01*
X91951616Y-80474309D01*
X92043656Y-80325090D01*
X92043658Y-80325085D01*
X92098805Y-80158663D01*
X92098806Y-80158656D01*
X92109299Y-80055952D01*
X92109300Y-80055939D01*
X92109300Y-79630966D01*
X91289630Y-79630966D01*
X91309375Y-79611221D01*
X91358744Y-79525711D01*
X91384300Y-79430336D01*
X91384300Y-79331596D01*
X91358744Y-79236221D01*
X91309375Y-79150711D01*
X91289630Y-79130966D01*
X92109299Y-79130966D01*
X92109299Y-78705994D01*
X92109298Y-78705979D01*
X92098805Y-78603268D01*
X92043658Y-78436846D01*
X92043656Y-78436841D01*
X91951615Y-78287620D01*
X91827645Y-78163650D01*
X91678424Y-78071609D01*
X91678419Y-78071607D01*
X91511997Y-78016460D01*
X91511990Y-78016459D01*
X91409286Y-78005966D01*
X91259300Y-78005966D01*
X91259300Y-79100636D01*
X91239555Y-79080891D01*
X91154045Y-79031522D01*
X91058670Y-79005966D01*
X90959930Y-79005966D01*
X90864555Y-79031522D01*
X90779045Y-79080891D01*
X90759300Y-79100636D01*
X90759300Y-78005966D01*
X90609327Y-78005966D01*
X90609312Y-78005967D01*
X90506602Y-78016460D01*
X90340180Y-78071607D01*
X90340175Y-78071609D01*
X90190954Y-78163650D01*
X90066984Y-78287620D01*
X90027353Y-78351873D01*
X89975405Y-78398597D01*
X89906442Y-78409819D01*
X89842360Y-78381976D01*
X89834133Y-78374457D01*
X89726230Y-78266554D01*
X89726228Y-78266552D01*
X89586088Y-78164734D01*
X89431745Y-78086093D01*
X89267001Y-78032564D01*
X89266999Y-78032563D01*
X89266998Y-78032563D01*
X89135571Y-78011747D01*
X89095911Y-78005466D01*
X88922689Y-78005466D01*
X88883028Y-78011747D01*
X88751602Y-78032563D01*
X88586852Y-78086094D01*
X88432511Y-78164734D01*
X88410630Y-78180632D01*
X88292372Y-78266552D01*
X88292370Y-78266554D01*
X88292369Y-78266554D01*
X88169888Y-78389035D01*
X88169888Y-78389036D01*
X88169886Y-78389038D01*
X88135155Y-78436841D01*
X88068068Y-78529177D01*
X87989428Y-78683518D01*
X87935897Y-78848268D01*
X87908800Y-79019355D01*
X87908800Y-79742576D01*
X87935897Y-79913664D01*
X87982067Y-80055760D01*
X87984062Y-80125601D01*
X87947982Y-80185434D01*
X87933032Y-80197177D01*
X87918071Y-80207174D01*
X87918067Y-80207177D01*
X87806573Y-80318671D01*
X87806570Y-80318675D01*
X87718969Y-80449778D01*
X87718962Y-80449791D01*
X87658624Y-80595462D01*
X87658621Y-80595474D01*
X87627860Y-80750117D01*
X82125598Y-80750117D01*
X82124736Y-78524521D01*
X82144395Y-78457477D01*
X82197181Y-78411702D01*
X82266335Y-78401731D01*
X82329902Y-78430732D01*
X82336417Y-78436795D01*
X82411358Y-78511736D01*
X82411362Y-78511739D01*
X82542465Y-78599340D01*
X82542478Y-78599347D01*
X82688149Y-78659685D01*
X82688154Y-78659687D01*
X82796372Y-78681213D01*
X82842804Y-78690449D01*
X82842807Y-78690450D01*
X82842809Y-78690450D01*
X83000495Y-78690450D01*
X83000496Y-78690449D01*
X83155148Y-78659687D01*
X83300830Y-78599344D01*
X83300832Y-78599342D01*
X83305720Y-78597318D01*
X83375190Y-78589849D01*
X83437669Y-78621124D01*
X83473321Y-78681213D01*
X83474790Y-78687687D01*
X83495797Y-78793296D01*
X83495800Y-78793306D01*
X83556138Y-78938977D01*
X83556145Y-78938990D01*
X83643746Y-79070093D01*
X83643749Y-79070097D01*
X83755243Y-79181591D01*
X83755247Y-79181594D01*
X83886350Y-79269195D01*
X83886363Y-79269202D01*
X83981183Y-79308477D01*
X84032039Y-79329542D01*
X84186689Y-79360304D01*
X84186692Y-79360305D01*
X84186694Y-79360305D01*
X84344380Y-79360305D01*
X84344381Y-79360304D01*
X84499033Y-79329542D01*
X84644715Y-79269199D01*
X84775825Y-79181594D01*
X84887325Y-79070094D01*
X84974930Y-78938984D01*
X85035273Y-78793302D01*
X85066036Y-78638647D01*
X85066036Y-78480963D01*
X85066036Y-78480960D01*
X85066035Y-78480958D01*
X85061364Y-78457477D01*
X85035273Y-78326308D01*
X85011589Y-78269129D01*
X84974933Y-78180632D01*
X84974926Y-78180619D01*
X84887325Y-78049516D01*
X84887322Y-78049512D01*
X84775828Y-77938018D01*
X84775824Y-77938015D01*
X84644721Y-77850414D01*
X84644708Y-77850407D01*
X84499037Y-77790069D01*
X84499025Y-77790066D01*
X84344381Y-77759305D01*
X84344378Y-77759305D01*
X84186694Y-77759305D01*
X84186691Y-77759305D01*
X84032046Y-77790066D01*
X84032034Y-77790069D01*
X83881465Y-77852436D01*
X83811995Y-77859905D01*
X83749516Y-77828629D01*
X83713865Y-77768540D01*
X83712396Y-77762066D01*
X83691389Y-77656460D01*
X83691388Y-77656453D01*
X83691386Y-77656448D01*
X83631048Y-77510777D01*
X83631041Y-77510764D01*
X83543440Y-77379661D01*
X83543437Y-77379657D01*
X83431943Y-77268163D01*
X83431939Y-77268160D01*
X83406021Y-77250842D01*
X85445129Y-77250842D01*
X85445129Y-77408535D01*
X85475890Y-77563178D01*
X85475893Y-77563190D01*
X85536231Y-77708861D01*
X85536238Y-77708874D01*
X85623839Y-77839977D01*
X85623842Y-77839981D01*
X85735336Y-77951475D01*
X85735340Y-77951478D01*
X85866443Y-78039079D01*
X85866456Y-78039086D01*
X85944970Y-78071607D01*
X86012132Y-78099426D01*
X86012136Y-78099426D01*
X86012137Y-78099427D01*
X86110685Y-78119030D01*
X86172595Y-78151415D01*
X86207170Y-78212131D01*
X86203430Y-78281900D01*
X86174175Y-78328327D01*
X86127567Y-78374935D01*
X86127563Y-78374940D01*
X86039962Y-78506043D01*
X86039955Y-78506056D01*
X85979617Y-78651727D01*
X85979614Y-78651739D01*
X85948853Y-78806382D01*
X85948853Y-78964075D01*
X85979614Y-79118718D01*
X85979617Y-79118730D01*
X86039955Y-79264401D01*
X86039962Y-79264414D01*
X86127563Y-79395517D01*
X86127566Y-79395521D01*
X86239060Y-79507015D01*
X86239064Y-79507018D01*
X86370167Y-79594619D01*
X86370180Y-79594626D01*
X86457914Y-79630966D01*
X86515856Y-79654966D01*
X86646943Y-79681041D01*
X86670506Y-79685728D01*
X86670509Y-79685729D01*
X86670511Y-79685729D01*
X86828197Y-79685729D01*
X86828198Y-79685728D01*
X86982850Y-79654966D01*
X87128532Y-79594623D01*
X87259642Y-79507018D01*
X87371142Y-79395518D01*
X87458747Y-79264408D01*
X87519090Y-79118726D01*
X87549853Y-78964071D01*
X87549853Y-78806387D01*
X87549853Y-78806384D01*
X87549852Y-78806382D01*
X87529880Y-78705979D01*
X87519090Y-78651732D01*
X87497392Y-78599347D01*
X87458750Y-78506056D01*
X87458743Y-78506043D01*
X87371142Y-78374940D01*
X87371139Y-78374936D01*
X87259645Y-78263442D01*
X87259641Y-78263439D01*
X87128538Y-78175838D01*
X87128525Y-78175831D01*
X86982854Y-78115493D01*
X86982844Y-78115490D01*
X86884296Y-78095887D01*
X86822385Y-78063501D01*
X86787811Y-78002785D01*
X86791552Y-77933016D01*
X86820808Y-77886588D01*
X86867415Y-77839981D01*
X86867418Y-77839978D01*
X86955023Y-77708868D01*
X87015366Y-77563186D01*
X87046129Y-77408531D01*
X87046129Y-77250847D01*
X87046129Y-77250844D01*
X87046128Y-77250842D01*
X87020144Y-77120213D01*
X87015366Y-77096192D01*
X87012573Y-77089450D01*
X86955026Y-76950516D01*
X86955019Y-76950503D01*
X86867418Y-76819400D01*
X86867415Y-76819396D01*
X86755921Y-76707902D01*
X86755917Y-76707899D01*
X86624814Y-76620298D01*
X86624801Y-76620291D01*
X86479130Y-76559953D01*
X86479118Y-76559950D01*
X86324474Y-76529189D01*
X86324471Y-76529189D01*
X86166787Y-76529189D01*
X86166784Y-76529189D01*
X86012139Y-76559950D01*
X86012127Y-76559953D01*
X85866456Y-76620291D01*
X85866443Y-76620298D01*
X85735340Y-76707899D01*
X85735336Y-76707902D01*
X85623842Y-76819396D01*
X85623839Y-76819400D01*
X85536238Y-76950503D01*
X85536231Y-76950516D01*
X85475893Y-77096187D01*
X85475890Y-77096199D01*
X85445129Y-77250842D01*
X83406021Y-77250842D01*
X83300836Y-77180559D01*
X83300823Y-77180552D01*
X83155152Y-77120214D01*
X83155140Y-77120211D01*
X83000496Y-77089450D01*
X83000493Y-77089450D01*
X82842809Y-77089450D01*
X82842806Y-77089450D01*
X82688161Y-77120211D01*
X82688149Y-77120214D01*
X82542478Y-77180552D01*
X82542465Y-77180559D01*
X82411362Y-77268160D01*
X82335926Y-77343596D01*
X82274602Y-77377080D01*
X82204911Y-77372095D01*
X82148977Y-77330224D01*
X82124561Y-77264759D01*
X82124245Y-77255976D01*
X82123153Y-74433740D01*
X86207451Y-74433740D01*
X86207451Y-74591433D01*
X86238212Y-74746076D01*
X86238215Y-74746088D01*
X86298553Y-74891759D01*
X86298560Y-74891772D01*
X86386161Y-75022875D01*
X86386164Y-75022879D01*
X86497658Y-75134373D01*
X86497662Y-75134376D01*
X86628765Y-75221977D01*
X86628778Y-75221984D01*
X86774449Y-75282322D01*
X86774454Y-75282324D01*
X86929104Y-75313086D01*
X86929107Y-75313087D01*
X86929109Y-75313087D01*
X87086795Y-75313087D01*
X87086796Y-75313086D01*
X87241448Y-75282324D01*
X87387130Y-75221981D01*
X87518240Y-75134376D01*
X87629740Y-75022876D01*
X87717345Y-74891766D01*
X87777688Y-74746084D01*
X87808451Y-74591429D01*
X87808451Y-74433745D01*
X87808451Y-74433742D01*
X87808450Y-74433740D01*
X87777689Y-74279097D01*
X87777688Y-74279090D01*
X87777686Y-74279085D01*
X87717348Y-74133414D01*
X87717341Y-74133401D01*
X87629740Y-74002298D01*
X87629737Y-74002294D01*
X87518243Y-73890800D01*
X87518239Y-73890797D01*
X87387136Y-73803196D01*
X87387123Y-73803189D01*
X87241452Y-73742851D01*
X87241440Y-73742848D01*
X87086796Y-73712087D01*
X87086793Y-73712087D01*
X86929109Y-73712087D01*
X86929106Y-73712087D01*
X86774461Y-73742848D01*
X86774449Y-73742851D01*
X86628778Y-73803189D01*
X86628765Y-73803196D01*
X86497662Y-73890797D01*
X86497658Y-73890800D01*
X86386164Y-74002294D01*
X86386161Y-74002298D01*
X86298560Y-74133401D01*
X86298553Y-74133414D01*
X86238215Y-74279085D01*
X86238212Y-74279097D01*
X86207451Y-74433740D01*
X82123153Y-74433740D01*
X82122391Y-72465488D01*
X82398795Y-72465488D01*
X82398795Y-72623181D01*
X82429556Y-72777824D01*
X82429559Y-72777836D01*
X82489897Y-72923507D01*
X82489904Y-72923520D01*
X82577505Y-73054623D01*
X82577508Y-73054627D01*
X82689002Y-73166121D01*
X82689006Y-73166124D01*
X82820109Y-73253725D01*
X82820122Y-73253732D01*
X82965793Y-73314070D01*
X82965798Y-73314072D01*
X83120448Y-73344834D01*
X83120451Y-73344835D01*
X83120453Y-73344835D01*
X83278139Y-73344835D01*
X83278140Y-73344834D01*
X83432792Y-73314072D01*
X83578474Y-73253729D01*
X83709584Y-73166124D01*
X83821084Y-73054624D01*
X83908689Y-72923514D01*
X83969032Y-72777832D01*
X83999795Y-72623177D01*
X83999795Y-72465493D01*
X83999795Y-72465490D01*
X83999794Y-72465488D01*
X83969033Y-72310845D01*
X83969032Y-72310838D01*
X83969030Y-72310833D01*
X83908692Y-72165162D01*
X83908685Y-72165149D01*
X83821084Y-72034046D01*
X83821081Y-72034042D01*
X83709587Y-71922548D01*
X83709583Y-71922545D01*
X83578480Y-71834944D01*
X83578467Y-71834937D01*
X83432796Y-71774599D01*
X83432784Y-71774596D01*
X83278140Y-71743835D01*
X83278137Y-71743835D01*
X83120453Y-71743835D01*
X83120450Y-71743835D01*
X82965805Y-71774596D01*
X82965793Y-71774599D01*
X82820122Y-71834937D01*
X82820109Y-71834944D01*
X82689006Y-71922545D01*
X82689002Y-71922548D01*
X82577508Y-72034042D01*
X82577505Y-72034046D01*
X82489904Y-72165149D01*
X82489897Y-72165162D01*
X82429559Y-72310833D01*
X82429556Y-72310845D01*
X82398795Y-72465488D01*
X82122391Y-72465488D01*
X82121834Y-71026515D01*
X86723500Y-71026515D01*
X86723500Y-71184208D01*
X86754261Y-71338851D01*
X86754264Y-71338863D01*
X86814602Y-71484534D01*
X86814609Y-71484547D01*
X86902210Y-71615650D01*
X86902213Y-71615654D01*
X87013707Y-71727148D01*
X87013711Y-71727151D01*
X87144814Y-71814752D01*
X87144827Y-71814759D01*
X87290498Y-71875097D01*
X87290503Y-71875099D01*
X87445153Y-71905861D01*
X87445156Y-71905862D01*
X87445158Y-71905862D01*
X87602844Y-71905862D01*
X87602845Y-71905861D01*
X87757497Y-71875099D01*
X87903179Y-71814756D01*
X88034289Y-71727151D01*
X88145789Y-71615651D01*
X88233394Y-71484541D01*
X88293737Y-71338859D01*
X88324500Y-71184204D01*
X88324500Y-71026520D01*
X88324500Y-71026517D01*
X88324499Y-71026515D01*
X88293738Y-70871872D01*
X88293737Y-70871865D01*
X88293735Y-70871860D01*
X88233397Y-70726189D01*
X88233390Y-70726176D01*
X88145789Y-70595073D01*
X88145786Y-70595069D01*
X88034292Y-70483575D01*
X88034288Y-70483572D01*
X87903185Y-70395971D01*
X87903172Y-70395964D01*
X87757501Y-70335626D01*
X87757489Y-70335623D01*
X87602845Y-70304862D01*
X87602842Y-70304862D01*
X87445158Y-70304862D01*
X87445155Y-70304862D01*
X87290510Y-70335623D01*
X87290498Y-70335626D01*
X87144827Y-70395964D01*
X87144814Y-70395971D01*
X87013711Y-70483572D01*
X87013707Y-70483575D01*
X86902213Y-70595069D01*
X86902210Y-70595073D01*
X86814609Y-70726176D01*
X86814602Y-70726189D01*
X86754264Y-70871860D01*
X86754261Y-70871872D01*
X86723500Y-71026515D01*
X82121834Y-71026515D01*
X82120856Y-68501153D01*
X83019500Y-68501153D01*
X83019500Y-68658846D01*
X83050261Y-68813489D01*
X83050264Y-68813501D01*
X83110602Y-68959172D01*
X83110609Y-68959185D01*
X83198210Y-69090288D01*
X83198213Y-69090292D01*
X83309707Y-69201786D01*
X83309711Y-69201789D01*
X83440814Y-69289390D01*
X83440827Y-69289397D01*
X83586498Y-69349735D01*
X83586503Y-69349737D01*
X83741153Y-69380499D01*
X83741156Y-69380500D01*
X83741158Y-69380500D01*
X83898844Y-69380500D01*
X83898845Y-69380499D01*
X84053497Y-69349737D01*
X84199179Y-69289394D01*
X84330289Y-69201789D01*
X84441789Y-69090289D01*
X84529394Y-68959179D01*
X84589737Y-68813497D01*
X84620500Y-68658842D01*
X84620500Y-68501158D01*
X84620500Y-68501155D01*
X84620499Y-68501153D01*
X84619298Y-68495114D01*
X84589737Y-68346503D01*
X84589735Y-68346498D01*
X84529397Y-68200827D01*
X84529390Y-68200814D01*
X84441789Y-68069711D01*
X84441786Y-68069707D01*
X84330292Y-67958213D01*
X84330288Y-67958210D01*
X84199185Y-67870609D01*
X84199172Y-67870602D01*
X84053501Y-67810264D01*
X84053489Y-67810261D01*
X83898845Y-67779500D01*
X83898842Y-67779500D01*
X83741158Y-67779500D01*
X83741155Y-67779500D01*
X83586510Y-67810261D01*
X83586498Y-67810264D01*
X83440827Y-67870602D01*
X83440814Y-67870609D01*
X83309711Y-67958210D01*
X83309707Y-67958213D01*
X83198213Y-68069707D01*
X83198210Y-68069711D01*
X83110609Y-68200814D01*
X83110602Y-68200827D01*
X83050264Y-68346498D01*
X83050261Y-68346510D01*
X83019500Y-68501153D01*
X82120856Y-68501153D01*
X82119693Y-65497946D01*
X83939986Y-65497946D01*
X83939986Y-65655639D01*
X83970747Y-65810282D01*
X83970750Y-65810294D01*
X84031088Y-65955965D01*
X84031095Y-65955978D01*
X84118696Y-66087081D01*
X84118699Y-66087085D01*
X84230193Y-66198579D01*
X84230197Y-66198582D01*
X84361300Y-66286183D01*
X84361313Y-66286190D01*
X84506984Y-66346528D01*
X84506989Y-66346530D01*
X84661639Y-66377292D01*
X84661642Y-66377293D01*
X84661644Y-66377293D01*
X84819330Y-66377293D01*
X84819331Y-66377292D01*
X84973983Y-66346530D01*
X85119665Y-66286187D01*
X85250775Y-66198582D01*
X85362275Y-66087082D01*
X85449880Y-65955972D01*
X85456280Y-65940522D01*
X85456281Y-65940520D01*
X86252927Y-65940520D01*
X86252927Y-66098213D01*
X86283688Y-66252856D01*
X86283691Y-66252868D01*
X86344029Y-66398539D01*
X86344036Y-66398552D01*
X86431637Y-66529655D01*
X86431640Y-66529659D01*
X86543134Y-66641153D01*
X86543138Y-66641156D01*
X86674241Y-66728757D01*
X86674254Y-66728764D01*
X86819925Y-66789102D01*
X86819930Y-66789104D01*
X86878194Y-66800693D01*
X86980559Y-66821056D01*
X86980067Y-66823527D01*
X87034633Y-66845547D01*
X87075003Y-66902574D01*
X87078134Y-66972373D01*
X87043032Y-67032785D01*
X87026602Y-67045907D01*
X86897293Y-67132309D01*
X86897289Y-67132312D01*
X86785795Y-67243806D01*
X86785792Y-67243810D01*
X86698191Y-67374913D01*
X86698184Y-67374926D01*
X86637846Y-67520597D01*
X86637843Y-67520609D01*
X86607082Y-67675252D01*
X86607082Y-67832945D01*
X86637843Y-67987588D01*
X86637846Y-67987600D01*
X86698184Y-68133271D01*
X86698191Y-68133284D01*
X86785792Y-68264387D01*
X86785795Y-68264391D01*
X86897289Y-68375885D01*
X86897293Y-68375888D01*
X87028396Y-68463489D01*
X87028409Y-68463496D01*
X87150599Y-68514108D01*
X87174085Y-68523836D01*
X87319083Y-68552678D01*
X87328735Y-68554598D01*
X87328738Y-68554599D01*
X87328740Y-68554599D01*
X87486426Y-68554599D01*
X87486427Y-68554598D01*
X87641079Y-68523836D01*
X87786761Y-68463493D01*
X87917871Y-68375888D01*
X88029371Y-68264388D01*
X88045438Y-68240342D01*
X89591917Y-68240342D01*
X89591917Y-68398035D01*
X89622678Y-68552678D01*
X89622681Y-68552690D01*
X89683019Y-68698361D01*
X89683026Y-68698374D01*
X89770627Y-68829477D01*
X89770630Y-68829481D01*
X89882124Y-68940975D01*
X89882128Y-68940978D01*
X90013231Y-69028579D01*
X90013244Y-69028586D01*
X90158915Y-69088924D01*
X90158920Y-69088926D01*
X90313570Y-69119688D01*
X90313573Y-69119689D01*
X90313575Y-69119689D01*
X90471261Y-69119689D01*
X90471262Y-69119688D01*
X90625914Y-69088926D01*
X90771596Y-69028583D01*
X90902706Y-68940978D01*
X91014206Y-68829478D01*
X91101811Y-68698368D01*
X91162154Y-68552686D01*
X91192917Y-68398031D01*
X91192917Y-68240347D01*
X91192917Y-68240344D01*
X91192916Y-68240342D01*
X91178002Y-68165364D01*
X91162154Y-68085692D01*
X91155533Y-68069707D01*
X91101814Y-67940016D01*
X91101807Y-67940003D01*
X91014206Y-67808900D01*
X91014203Y-67808896D01*
X90902709Y-67697402D01*
X90902705Y-67697399D01*
X90771602Y-67609798D01*
X90771589Y-67609791D01*
X90625918Y-67549453D01*
X90625906Y-67549450D01*
X90471262Y-67518689D01*
X90471259Y-67518689D01*
X90313575Y-67518689D01*
X90313572Y-67518689D01*
X90158927Y-67549450D01*
X90158915Y-67549453D01*
X90013244Y-67609791D01*
X90013231Y-67609798D01*
X89882128Y-67697399D01*
X89882124Y-67697402D01*
X89770630Y-67808896D01*
X89770627Y-67808900D01*
X89683026Y-67940003D01*
X89683019Y-67940016D01*
X89622681Y-68085687D01*
X89622678Y-68085699D01*
X89591917Y-68240342D01*
X88045438Y-68240342D01*
X88116976Y-68133278D01*
X88177319Y-67987596D01*
X88208082Y-67832941D01*
X88208082Y-67675257D01*
X88208082Y-67675254D01*
X88208081Y-67675252D01*
X88183058Y-67549453D01*
X88177319Y-67520602D01*
X88176527Y-67518689D01*
X88116979Y-67374926D01*
X88116972Y-67374913D01*
X88029371Y-67243810D01*
X88029368Y-67243806D01*
X87917874Y-67132312D01*
X87917870Y-67132309D01*
X87786767Y-67044708D01*
X87786754Y-67044701D01*
X87641083Y-66984363D01*
X87641071Y-66984360D01*
X87480450Y-66952410D01*
X87480938Y-66949954D01*
X87426311Y-66927867D01*
X87385978Y-66870813D01*
X87382894Y-66801012D01*
X87418036Y-66740623D01*
X87434407Y-66727558D01*
X87503491Y-66681396D01*
X87563716Y-66641156D01*
X87675216Y-66529656D01*
X87762821Y-66398546D01*
X87823164Y-66252864D01*
X87853927Y-66098209D01*
X87853927Y-65940525D01*
X87853927Y-65940522D01*
X87853926Y-65940520D01*
X87823165Y-65785877D01*
X87823164Y-65785870D01*
X87769221Y-65655639D01*
X87762824Y-65640194D01*
X87762817Y-65640181D01*
X87675216Y-65509078D01*
X87675213Y-65509074D01*
X87563719Y-65397580D01*
X87563715Y-65397577D01*
X87432612Y-65309976D01*
X87432599Y-65309969D01*
X87286928Y-65249631D01*
X87286916Y-65249628D01*
X87132272Y-65218867D01*
X87132269Y-65218867D01*
X86974585Y-65218867D01*
X86974582Y-65218867D01*
X86819937Y-65249628D01*
X86819925Y-65249631D01*
X86674254Y-65309969D01*
X86674241Y-65309976D01*
X86543138Y-65397577D01*
X86543134Y-65397580D01*
X86431640Y-65509074D01*
X86431637Y-65509078D01*
X86344036Y-65640181D01*
X86344029Y-65640194D01*
X86283691Y-65785865D01*
X86283688Y-65785877D01*
X86252927Y-65940520D01*
X85456281Y-65940520D01*
X85478457Y-65886981D01*
X85510221Y-65810294D01*
X85510223Y-65810290D01*
X85540986Y-65655635D01*
X85540986Y-65497951D01*
X85540986Y-65497948D01*
X85540985Y-65497946D01*
X85510224Y-65343303D01*
X85510223Y-65343296D01*
X85471425Y-65249628D01*
X85449883Y-65197620D01*
X85449876Y-65197607D01*
X85362275Y-65066504D01*
X85362272Y-65066500D01*
X85250778Y-64955006D01*
X85250774Y-64955003D01*
X85119671Y-64867402D01*
X85119658Y-64867395D01*
X84973987Y-64807057D01*
X84973975Y-64807054D01*
X84819331Y-64776293D01*
X84819328Y-64776293D01*
X84661644Y-64776293D01*
X84661641Y-64776293D01*
X84506996Y-64807054D01*
X84506984Y-64807057D01*
X84361313Y-64867395D01*
X84361300Y-64867402D01*
X84230197Y-64955003D01*
X84230193Y-64955006D01*
X84118699Y-65066500D01*
X84118696Y-65066504D01*
X84031095Y-65197607D01*
X84031088Y-65197620D01*
X83970750Y-65343291D01*
X83970747Y-65343303D01*
X83939986Y-65497946D01*
X82119693Y-65497946D01*
X82119471Y-64923669D01*
X82119471Y-64856719D01*
X82119447Y-64856629D01*
X82119447Y-64856548D01*
X82119445Y-64856530D01*
X82119445Y-64856525D01*
X82102535Y-64793515D01*
X82085363Y-64729425D01*
X82085360Y-64729420D01*
X82085288Y-64729244D01*
X82052598Y-64672675D01*
X82052325Y-64672202D01*
X82019471Y-64615297D01*
X82019401Y-64615227D01*
X82019352Y-64615142D01*
X81972741Y-64568567D01*
X81966162Y-64561988D01*
X81926283Y-64522108D01*
X81926184Y-64522032D01*
X81926183Y-64522031D01*
X81926140Y-64521998D01*
X81869047Y-64489064D01*
X81869046Y-64489064D01*
X81869043Y-64489062D01*
X81812157Y-64456219D01*
X81812061Y-64456193D01*
X81811976Y-64456144D01*
X81811967Y-64456141D01*
X81811966Y-64456141D01*
X81748893Y-64439267D01*
X81748845Y-64439254D01*
X81703648Y-64427143D01*
X81643988Y-64390778D01*
X81613460Y-64327931D01*
X81621755Y-64258555D01*
X81666241Y-64204678D01*
X81666852Y-64204267D01*
X81790289Y-64121789D01*
X81901786Y-64010292D01*
X81901789Y-64010289D01*
X81989394Y-63879179D01*
X82049737Y-63733497D01*
X82080500Y-63578842D01*
X82080500Y-63421158D01*
X82080500Y-63421155D01*
X82080499Y-63421153D01*
X83019500Y-63421153D01*
X83019500Y-63578846D01*
X83050261Y-63733489D01*
X83050264Y-63733501D01*
X83110602Y-63879172D01*
X83110609Y-63879185D01*
X83198210Y-64010288D01*
X83198213Y-64010292D01*
X83309707Y-64121786D01*
X83309711Y-64121789D01*
X83440814Y-64209390D01*
X83440827Y-64209397D01*
X83535524Y-64248621D01*
X83586503Y-64269737D01*
X83741153Y-64300499D01*
X83741156Y-64300500D01*
X83741158Y-64300500D01*
X83898844Y-64300500D01*
X83898845Y-64300499D01*
X84053497Y-64269737D01*
X84199179Y-64209394D01*
X84330289Y-64121789D01*
X84441789Y-64010289D01*
X84529394Y-63879179D01*
X84573063Y-63773751D01*
X89122957Y-63773751D01*
X89122957Y-63931444D01*
X89153718Y-64086087D01*
X89153721Y-64086099D01*
X89214059Y-64231770D01*
X89214066Y-64231783D01*
X89301667Y-64362886D01*
X89301670Y-64362890D01*
X89413164Y-64474384D01*
X89413168Y-64474387D01*
X89544271Y-64561988D01*
X89544284Y-64561995D01*
X89689955Y-64622333D01*
X89689960Y-64622335D01*
X89844610Y-64653097D01*
X89844613Y-64653098D01*
X89844615Y-64653098D01*
X90002301Y-64653098D01*
X90002302Y-64653097D01*
X90156954Y-64622335D01*
X90286760Y-64568568D01*
X90302629Y-64561995D01*
X90302629Y-64561994D01*
X90302636Y-64561992D01*
X90433746Y-64474387D01*
X90545246Y-64362887D01*
X90632851Y-64231777D01*
X90693194Y-64086095D01*
X90723957Y-63931440D01*
X90723957Y-63773756D01*
X90723957Y-63773753D01*
X90723956Y-63773751D01*
X90715947Y-63733487D01*
X90693194Y-63619101D01*
X90667649Y-63557429D01*
X90632854Y-63473425D01*
X90632847Y-63473412D01*
X90545246Y-63342309D01*
X90545243Y-63342305D01*
X90433749Y-63230811D01*
X90433745Y-63230808D01*
X90302642Y-63143207D01*
X90302629Y-63143200D01*
X90156958Y-63082862D01*
X90156946Y-63082859D01*
X90002302Y-63052098D01*
X90002299Y-63052098D01*
X89844615Y-63052098D01*
X89844612Y-63052098D01*
X89689967Y-63082859D01*
X89689955Y-63082862D01*
X89544284Y-63143200D01*
X89544271Y-63143207D01*
X89413168Y-63230808D01*
X89413164Y-63230811D01*
X89301670Y-63342305D01*
X89301667Y-63342309D01*
X89214066Y-63473412D01*
X89214059Y-63473425D01*
X89153721Y-63619096D01*
X89153718Y-63619108D01*
X89122957Y-63773751D01*
X84573063Y-63773751D01*
X84589737Y-63733497D01*
X84620500Y-63578842D01*
X84620500Y-63421158D01*
X84620500Y-63421155D01*
X84620499Y-63421153D01*
X84589738Y-63266510D01*
X84589737Y-63266503D01*
X84574952Y-63230808D01*
X84529397Y-63120827D01*
X84529390Y-63120814D01*
X84441789Y-62989711D01*
X84441786Y-62989707D01*
X84330292Y-62878213D01*
X84330288Y-62878210D01*
X84199185Y-62790609D01*
X84199172Y-62790602D01*
X84053501Y-62730264D01*
X84053489Y-62730261D01*
X83898845Y-62699500D01*
X83898842Y-62699500D01*
X83741158Y-62699500D01*
X83741155Y-62699500D01*
X83586510Y-62730261D01*
X83586498Y-62730264D01*
X83440827Y-62790602D01*
X83440814Y-62790609D01*
X83309711Y-62878210D01*
X83309707Y-62878213D01*
X83198213Y-62989707D01*
X83198210Y-62989711D01*
X83110609Y-63120814D01*
X83110602Y-63120827D01*
X83050264Y-63266498D01*
X83050261Y-63266510D01*
X83019500Y-63421153D01*
X82080499Y-63421153D01*
X82049738Y-63266510D01*
X82049737Y-63266503D01*
X82034952Y-63230808D01*
X81989397Y-63120827D01*
X81989390Y-63120814D01*
X81901789Y-62989711D01*
X81901786Y-62989707D01*
X81790292Y-62878213D01*
X81790288Y-62878210D01*
X81659185Y-62790609D01*
X81659172Y-62790602D01*
X81513501Y-62730264D01*
X81513489Y-62730261D01*
X81358845Y-62699500D01*
X81358842Y-62699500D01*
X81201158Y-62699500D01*
X81201155Y-62699500D01*
X81046510Y-62730261D01*
X81046498Y-62730264D01*
X80900827Y-62790602D01*
X80900814Y-62790609D01*
X80769711Y-62878210D01*
X80769707Y-62878213D01*
X80658213Y-62989707D01*
X80658210Y-62989711D01*
X80570609Y-63120814D01*
X80570602Y-63120827D01*
X80510264Y-63266498D01*
X80510261Y-63266510D01*
X80479500Y-63421153D01*
X80479500Y-63578846D01*
X80510261Y-63733489D01*
X80510264Y-63733501D01*
X80570602Y-63879172D01*
X80570609Y-63879185D01*
X80658210Y-64010288D01*
X80658213Y-64010292D01*
X80769707Y-64121786D01*
X80769711Y-64121789D01*
X80879291Y-64195009D01*
X80924096Y-64248621D01*
X80932803Y-64317946D01*
X80902648Y-64380974D01*
X80843205Y-64417693D01*
X80810400Y-64422111D01*
X52767913Y-64422111D01*
X52640617Y-64456219D01*
X52526491Y-64522111D01*
X52526488Y-64522113D01*
X52433307Y-64615294D01*
X52433305Y-64615297D01*
X52367413Y-64729423D01*
X52346612Y-64807056D01*
X52333305Y-64856719D01*
X44109336Y-64856719D01*
X44109336Y-63774707D01*
X47105946Y-63774707D01*
X47105946Y-63932400D01*
X47136707Y-64087043D01*
X47136710Y-64087055D01*
X47197048Y-64232726D01*
X47197055Y-64232739D01*
X47284656Y-64363842D01*
X47284659Y-64363846D01*
X47396153Y-64475340D01*
X47396157Y-64475343D01*
X47527260Y-64562944D01*
X47527273Y-64562951D01*
X47670636Y-64622333D01*
X47672949Y-64623291D01*
X47822793Y-64653097D01*
X47827599Y-64654053D01*
X47827602Y-64654054D01*
X47827604Y-64654054D01*
X47985290Y-64654054D01*
X47985291Y-64654053D01*
X48139943Y-64623291D01*
X48272057Y-64568568D01*
X48285618Y-64562951D01*
X48285618Y-64562950D01*
X48285625Y-64562948D01*
X48416735Y-64475343D01*
X48528235Y-64363843D01*
X48615840Y-64232733D01*
X48616234Y-64231783D01*
X48676181Y-64087055D01*
X48676183Y-64087051D01*
X48706946Y-63932396D01*
X48706946Y-63774712D01*
X48706946Y-63774709D01*
X48706945Y-63774707D01*
X48698749Y-63733503D01*
X48676183Y-63620057D01*
X48659112Y-63578844D01*
X48615843Y-63474381D01*
X48615836Y-63474368D01*
X48528235Y-63343265D01*
X48528232Y-63343261D01*
X48416738Y-63231767D01*
X48416734Y-63231764D01*
X48285631Y-63144163D01*
X48285618Y-63144156D01*
X48139947Y-63083818D01*
X48139935Y-63083815D01*
X47985291Y-63053054D01*
X47985288Y-63053054D01*
X47827604Y-63053054D01*
X47827601Y-63053054D01*
X47672956Y-63083815D01*
X47672944Y-63083818D01*
X47527273Y-63144156D01*
X47527260Y-63144163D01*
X47396157Y-63231764D01*
X47396153Y-63231767D01*
X47284659Y-63343261D01*
X47284656Y-63343265D01*
X47197055Y-63474368D01*
X47197048Y-63474381D01*
X47136710Y-63620052D01*
X47136707Y-63620064D01*
X47105946Y-63774707D01*
X44109336Y-63774707D01*
X44109336Y-62678083D01*
X74597767Y-62678083D01*
X74597767Y-62835776D01*
X74628528Y-62990419D01*
X74628531Y-62990431D01*
X74688869Y-63136102D01*
X74688876Y-63136115D01*
X74776477Y-63267218D01*
X74776480Y-63267222D01*
X74887974Y-63378716D01*
X74887978Y-63378719D01*
X75019081Y-63466320D01*
X75019094Y-63466327D01*
X75164765Y-63526665D01*
X75164770Y-63526667D01*
X75319420Y-63557429D01*
X75319423Y-63557430D01*
X75319425Y-63557430D01*
X75477111Y-63557430D01*
X75477112Y-63557429D01*
X75631764Y-63526667D01*
X75777446Y-63466324D01*
X75908556Y-63378719D01*
X76020056Y-63267219D01*
X76107661Y-63136109D01*
X76113994Y-63120821D01*
X76168002Y-62990431D01*
X76168004Y-62990427D01*
X76198767Y-62835772D01*
X76198767Y-62678088D01*
X76198767Y-62678085D01*
X76198766Y-62678083D01*
X76168005Y-62523440D01*
X76168004Y-62523433D01*
X76168002Y-62523428D01*
X76107664Y-62377757D01*
X76107657Y-62377744D01*
X76020056Y-62246641D01*
X76020053Y-62246637D01*
X75908559Y-62135143D01*
X75908555Y-62135140D01*
X75777452Y-62047539D01*
X75777439Y-62047532D01*
X75631768Y-61987194D01*
X75631756Y-61987191D01*
X75477112Y-61956430D01*
X75477109Y-61956430D01*
X75319425Y-61956430D01*
X75319422Y-61956430D01*
X75164777Y-61987191D01*
X75164765Y-61987194D01*
X75019094Y-62047532D01*
X75019081Y-62047539D01*
X74887978Y-62135140D01*
X74887974Y-62135143D01*
X74776480Y-62246637D01*
X74776477Y-62246641D01*
X74688876Y-62377744D01*
X74688869Y-62377757D01*
X74628531Y-62523428D01*
X74628528Y-62523440D01*
X74597767Y-62678083D01*
X44109336Y-62678083D01*
X44109336Y-60881153D01*
X47459500Y-60881153D01*
X47459500Y-61038846D01*
X47490261Y-61193489D01*
X47490264Y-61193501D01*
X47550602Y-61339172D01*
X47550609Y-61339185D01*
X47638210Y-61470288D01*
X47638213Y-61470292D01*
X47749707Y-61581786D01*
X47749711Y-61581789D01*
X47880814Y-61669390D01*
X47880827Y-61669397D01*
X47984167Y-61712201D01*
X48026503Y-61729737D01*
X48181153Y-61760499D01*
X48181156Y-61760500D01*
X48181158Y-61760500D01*
X48338844Y-61760500D01*
X48338845Y-61760499D01*
X48493497Y-61729737D01*
X48639179Y-61669394D01*
X48770289Y-61581789D01*
X48881789Y-61470289D01*
X48969394Y-61339179D01*
X49029737Y-61193497D01*
X49060500Y-61038842D01*
X49060500Y-60881158D01*
X49060499Y-60881155D01*
X49054493Y-60850960D01*
X49054493Y-60850958D01*
X49050892Y-60832854D01*
X56827898Y-60832854D01*
X56827898Y-60990547D01*
X56858659Y-61145190D01*
X56858662Y-61145202D01*
X56919000Y-61290873D01*
X56919007Y-61290886D01*
X57006608Y-61421989D01*
X57006611Y-61421993D01*
X57118105Y-61533487D01*
X57118109Y-61533490D01*
X57249212Y-61621091D01*
X57249225Y-61621098D01*
X57365814Y-61669390D01*
X57394901Y-61681438D01*
X57549551Y-61712200D01*
X57549554Y-61712201D01*
X57549556Y-61712201D01*
X57707242Y-61712201D01*
X57707243Y-61712200D01*
X57861895Y-61681438D01*
X58007577Y-61621095D01*
X58138687Y-61533490D01*
X58250187Y-61421990D01*
X58337792Y-61290880D01*
X58398135Y-61145198D01*
X58428898Y-60990543D01*
X58428898Y-60881153D01*
X75399500Y-60881153D01*
X75399500Y-61038846D01*
X75430261Y-61193489D01*
X75430264Y-61193501D01*
X75490602Y-61339172D01*
X75490609Y-61339185D01*
X75578210Y-61470288D01*
X75578213Y-61470292D01*
X75689707Y-61581786D01*
X75689711Y-61581789D01*
X75820814Y-61669390D01*
X75820827Y-61669397D01*
X75924167Y-61712201D01*
X75966503Y-61729737D01*
X76121153Y-61760499D01*
X76121156Y-61760500D01*
X76121158Y-61760500D01*
X76278844Y-61760500D01*
X76278845Y-61760499D01*
X76433497Y-61729737D01*
X76579179Y-61669394D01*
X76710289Y-61581789D01*
X76821789Y-61470289D01*
X76909394Y-61339179D01*
X76969737Y-61193497D01*
X77000500Y-61038842D01*
X77000500Y-60881158D01*
X77000500Y-60881156D01*
X77000500Y-60881155D01*
X77000499Y-60881153D01*
X76990346Y-60830110D01*
X76969737Y-60726503D01*
X76957396Y-60696709D01*
X76909397Y-60580827D01*
X76909390Y-60580814D01*
X76821789Y-60449711D01*
X76821786Y-60449707D01*
X76710292Y-60338213D01*
X76710288Y-60338210D01*
X76579185Y-60250609D01*
X76579172Y-60250602D01*
X76433501Y-60190264D01*
X76433489Y-60190261D01*
X76278845Y-60159500D01*
X76278842Y-60159500D01*
X76121158Y-60159500D01*
X76121155Y-60159500D01*
X75966510Y-60190261D01*
X75966498Y-60190264D01*
X75820827Y-60250602D01*
X75820814Y-60250609D01*
X75689711Y-60338210D01*
X75689707Y-60338213D01*
X75578213Y-60449707D01*
X75578210Y-60449711D01*
X75490609Y-60580814D01*
X75490602Y-60580827D01*
X75430264Y-60726498D01*
X75430261Y-60726510D01*
X75399500Y-60881153D01*
X58428898Y-60881153D01*
X58428898Y-60832859D01*
X58428898Y-60832856D01*
X58428897Y-60832854D01*
X58416349Y-60769772D01*
X58398135Y-60678204D01*
X58369515Y-60609108D01*
X58337795Y-60532528D01*
X58337788Y-60532515D01*
X58250187Y-60401412D01*
X58250184Y-60401408D01*
X58138690Y-60289914D01*
X58138686Y-60289911D01*
X58007583Y-60202310D01*
X58007570Y-60202303D01*
X57861899Y-60141965D01*
X57861887Y-60141962D01*
X57707243Y-60111201D01*
X57707240Y-60111201D01*
X57549556Y-60111201D01*
X57549553Y-60111201D01*
X57394908Y-60141962D01*
X57394896Y-60141965D01*
X57249225Y-60202303D01*
X57249212Y-60202310D01*
X57118109Y-60289911D01*
X57118105Y-60289914D01*
X57006611Y-60401408D01*
X57006608Y-60401412D01*
X56919007Y-60532515D01*
X56919000Y-60532528D01*
X56858662Y-60678199D01*
X56858659Y-60678211D01*
X56827898Y-60832854D01*
X49050892Y-60832854D01*
X49046301Y-60809775D01*
X49029737Y-60726503D01*
X49017396Y-60696709D01*
X48969397Y-60580827D01*
X48969390Y-60580814D01*
X48881789Y-60449711D01*
X48881786Y-60449707D01*
X48770292Y-60338213D01*
X48770288Y-60338210D01*
X48639185Y-60250609D01*
X48639172Y-60250602D01*
X48493501Y-60190264D01*
X48493489Y-60190261D01*
X48338845Y-60159500D01*
X48338842Y-60159500D01*
X48181158Y-60159500D01*
X48181155Y-60159500D01*
X48026510Y-60190261D01*
X48026498Y-60190264D01*
X47880827Y-60250602D01*
X47880814Y-60250609D01*
X47749711Y-60338210D01*
X47749707Y-60338213D01*
X47638213Y-60449707D01*
X47638210Y-60449711D01*
X47550609Y-60580814D01*
X47550602Y-60580827D01*
X47490264Y-60726498D01*
X47490261Y-60726510D01*
X47459500Y-60881153D01*
X44109336Y-60881153D01*
X44109336Y-59981528D01*
X60269702Y-59981528D01*
X60269702Y-60139221D01*
X60300463Y-60293864D01*
X60300466Y-60293876D01*
X60360804Y-60439547D01*
X60360811Y-60439560D01*
X60448412Y-60570663D01*
X60448415Y-60570667D01*
X60559909Y-60682161D01*
X60559913Y-60682164D01*
X60691016Y-60769765D01*
X60691029Y-60769772D01*
X60836700Y-60830110D01*
X60836705Y-60830112D01*
X60991355Y-60860874D01*
X60991358Y-60860875D01*
X60991360Y-60860875D01*
X61149046Y-60860875D01*
X61149047Y-60860874D01*
X61303699Y-60830112D01*
X61449381Y-60769769D01*
X61580491Y-60682164D01*
X61691991Y-60570664D01*
X61779596Y-60439554D01*
X61779597Y-60439551D01*
X61779599Y-60439548D01*
X61823011Y-60334740D01*
X61866851Y-60280336D01*
X61933145Y-60258271D01*
X62000845Y-60275550D01*
X62048456Y-60326687D01*
X62052133Y-60334740D01*
X62065284Y-60366491D01*
X62065291Y-60366504D01*
X62152892Y-60497607D01*
X62152895Y-60497611D01*
X62264389Y-60609105D01*
X62264393Y-60609108D01*
X62395496Y-60696709D01*
X62395509Y-60696716D01*
X62499375Y-60739738D01*
X62541185Y-60757056D01*
X62695835Y-60787818D01*
X62695838Y-60787819D01*
X62695840Y-60787819D01*
X62853526Y-60787819D01*
X62853527Y-60787818D01*
X62944287Y-60769765D01*
X63008175Y-60757057D01*
X63008176Y-60757056D01*
X63008179Y-60757056D01*
X63153861Y-60696713D01*
X63284971Y-60609108D01*
X63396471Y-60497608D01*
X63484076Y-60366498D01*
X63544419Y-60220816D01*
X63575182Y-60066161D01*
X63575182Y-59908477D01*
X63575182Y-59908474D01*
X63575181Y-59908472D01*
X63544420Y-59753829D01*
X63544419Y-59753822D01*
X63484076Y-59608140D01*
X63484072Y-59608133D01*
X63472572Y-59590922D01*
X77131290Y-59590922D01*
X77131290Y-59748615D01*
X77162051Y-59903258D01*
X77162054Y-59903270D01*
X77222392Y-60048941D01*
X77222399Y-60048954D01*
X77310000Y-60180057D01*
X77310003Y-60180061D01*
X77421497Y-60291555D01*
X77421501Y-60291558D01*
X77552604Y-60379159D01*
X77552617Y-60379166D01*
X77698288Y-60439504D01*
X77698293Y-60439506D01*
X77852943Y-60470268D01*
X77852946Y-60470269D01*
X77852948Y-60470269D01*
X78010634Y-60470269D01*
X78010635Y-60470268D01*
X78165287Y-60439506D01*
X78310969Y-60379163D01*
X78442079Y-60291558D01*
X78553579Y-60180058D01*
X78641184Y-60048948D01*
X78701527Y-59903266D01*
X78703936Y-59891153D01*
X86549500Y-59891153D01*
X86549500Y-60048846D01*
X86580261Y-60203489D01*
X86580264Y-60203501D01*
X86640602Y-60349172D01*
X86640609Y-60349185D01*
X86728210Y-60480288D01*
X86728213Y-60480292D01*
X86839707Y-60591786D01*
X86839711Y-60591789D01*
X86970814Y-60679390D01*
X86970827Y-60679397D01*
X87084541Y-60726498D01*
X87116503Y-60739737D01*
X87267463Y-60769765D01*
X87271153Y-60770499D01*
X87271156Y-60770500D01*
X87271158Y-60770500D01*
X87428844Y-60770500D01*
X87428845Y-60770499D01*
X87583497Y-60739737D01*
X87729179Y-60679394D01*
X87860289Y-60591789D01*
X87971789Y-60480289D01*
X88059394Y-60349179D01*
X88063938Y-60338210D01*
X88100224Y-60250606D01*
X88119737Y-60203497D01*
X88150500Y-60048842D01*
X88150500Y-59891158D01*
X88150500Y-59891155D01*
X88150499Y-59891153D01*
X88123182Y-59753822D01*
X88119737Y-59736503D01*
X88096831Y-59681202D01*
X88059397Y-59590827D01*
X88059390Y-59590814D01*
X87971789Y-59459711D01*
X87971786Y-59459707D01*
X87860292Y-59348213D01*
X87860288Y-59348210D01*
X87729185Y-59260609D01*
X87729172Y-59260602D01*
X87583501Y-59200264D01*
X87583489Y-59200261D01*
X87428845Y-59169500D01*
X87428842Y-59169500D01*
X87271158Y-59169500D01*
X87271155Y-59169500D01*
X87116510Y-59200261D01*
X87116498Y-59200264D01*
X87011014Y-59243956D01*
X87011006Y-59243960D01*
X86970821Y-59260606D01*
X86839711Y-59348211D01*
X86833471Y-59354450D01*
X86833466Y-59354454D01*
X86728210Y-59459711D01*
X86640609Y-59590814D01*
X86640602Y-59590827D01*
X86580264Y-59736498D01*
X86580261Y-59736510D01*
X86549500Y-59891153D01*
X78703936Y-59891153D01*
X78732290Y-59748611D01*
X78732290Y-59590927D01*
X78732290Y-59590924D01*
X78732289Y-59590922D01*
X78709634Y-59477030D01*
X78701527Y-59436272D01*
X78665052Y-59348213D01*
X78641187Y-59290596D01*
X78641180Y-59290583D01*
X78553579Y-59159480D01*
X78553576Y-59159476D01*
X78442082Y-59047982D01*
X78442078Y-59047979D01*
X78310975Y-58960378D01*
X78310962Y-58960371D01*
X78165291Y-58900033D01*
X78165279Y-58900030D01*
X78010635Y-58869269D01*
X78010632Y-58869269D01*
X77852948Y-58869269D01*
X77852945Y-58869269D01*
X77698300Y-58900030D01*
X77698288Y-58900033D01*
X77552617Y-58960371D01*
X77552604Y-58960378D01*
X77421501Y-59047979D01*
X77421497Y-59047982D01*
X77310003Y-59159476D01*
X77310000Y-59159480D01*
X77222399Y-59290583D01*
X77222392Y-59290596D01*
X77162054Y-59436267D01*
X77162051Y-59436279D01*
X77131290Y-59590922D01*
X63472572Y-59590922D01*
X63396471Y-59477030D01*
X63396468Y-59477026D01*
X63284974Y-59365532D01*
X63284970Y-59365529D01*
X63153867Y-59277928D01*
X63153854Y-59277921D01*
X63008183Y-59217583D01*
X63008171Y-59217580D01*
X62853527Y-59186819D01*
X62853524Y-59186819D01*
X62695840Y-59186819D01*
X62695837Y-59186819D01*
X62541192Y-59217580D01*
X62541180Y-59217583D01*
X62395509Y-59277921D01*
X62395496Y-59277928D01*
X62264393Y-59365529D01*
X62264389Y-59365532D01*
X62152895Y-59477026D01*
X62152892Y-59477030D01*
X62065291Y-59608133D01*
X62065286Y-59608143D01*
X62021872Y-59712954D01*
X61978031Y-59767357D01*
X61911736Y-59789422D01*
X61844037Y-59772143D01*
X61796427Y-59721005D01*
X61792750Y-59712954D01*
X61779596Y-59681196D01*
X61779592Y-59681189D01*
X61691991Y-59550086D01*
X61691988Y-59550082D01*
X61580494Y-59438588D01*
X61580490Y-59438585D01*
X61449387Y-59350984D01*
X61449374Y-59350977D01*
X61303703Y-59290639D01*
X61303691Y-59290636D01*
X61149047Y-59259875D01*
X61149044Y-59259875D01*
X60991360Y-59259875D01*
X60991357Y-59259875D01*
X60836712Y-59290636D01*
X60836700Y-59290639D01*
X60691029Y-59350977D01*
X60691016Y-59350984D01*
X60559913Y-59438585D01*
X60559909Y-59438588D01*
X60448415Y-59550082D01*
X60448412Y-59550086D01*
X60360811Y-59681189D01*
X60360804Y-59681202D01*
X60300466Y-59826873D01*
X60300463Y-59826885D01*
X60269702Y-59981528D01*
X44109336Y-59981528D01*
X44109336Y-58341153D01*
X85559500Y-58341153D01*
X85559500Y-58498846D01*
X85590261Y-58653489D01*
X85590264Y-58653501D01*
X85650602Y-58799172D01*
X85650609Y-58799185D01*
X85738210Y-58930288D01*
X85738213Y-58930292D01*
X85849707Y-59041786D01*
X85849711Y-59041789D01*
X85980814Y-59129390D01*
X85980827Y-59129397D01*
X86077646Y-59169500D01*
X86126503Y-59189737D01*
X86281153Y-59220499D01*
X86281156Y-59220500D01*
X86281158Y-59220500D01*
X86438844Y-59220500D01*
X86438845Y-59220499D01*
X86593497Y-59189737D01*
X86739179Y-59129394D01*
X86870289Y-59041789D01*
X86981789Y-58930289D01*
X87069394Y-58799179D01*
X87129737Y-58653497D01*
X87160500Y-58498842D01*
X87160500Y-58341158D01*
X87160500Y-58341155D01*
X87160499Y-58341153D01*
X87129737Y-58186503D01*
X87070640Y-58043828D01*
X87069397Y-58040827D01*
X87069390Y-58040814D01*
X86981789Y-57909711D01*
X86981786Y-57909707D01*
X86870292Y-57798213D01*
X86870288Y-57798210D01*
X86739185Y-57710609D01*
X86739172Y-57710602D01*
X86593501Y-57650264D01*
X86593489Y-57650261D01*
X86438845Y-57619500D01*
X86438842Y-57619500D01*
X86281158Y-57619500D01*
X86281155Y-57619500D01*
X86126510Y-57650261D01*
X86126498Y-57650264D01*
X85980827Y-57710602D01*
X85980814Y-57710609D01*
X85849711Y-57798210D01*
X85849707Y-57798213D01*
X85738213Y-57909707D01*
X85738210Y-57909711D01*
X85650609Y-58040814D01*
X85650602Y-58040827D01*
X85590264Y-58186498D01*
X85590261Y-58186510D01*
X85559500Y-58341153D01*
X44109336Y-58341153D01*
X44109336Y-57343195D01*
X45433523Y-57343195D01*
X45433523Y-57500888D01*
X45464284Y-57655531D01*
X45464287Y-57655543D01*
X45524625Y-57801214D01*
X45524632Y-57801227D01*
X45612233Y-57932330D01*
X45612236Y-57932334D01*
X45723730Y-58043828D01*
X45723734Y-58043831D01*
X45854837Y-58131432D01*
X45854850Y-58131439D01*
X45987805Y-58186510D01*
X46000526Y-58191779D01*
X46109463Y-58213448D01*
X46155176Y-58222541D01*
X46155179Y-58222542D01*
X46155181Y-58222542D01*
X46312867Y-58222542D01*
X46358580Y-58213449D01*
X46358580Y-58213448D01*
X46467520Y-58191779D01*
X46613202Y-58131436D01*
X46744312Y-58043831D01*
X46855812Y-57932331D01*
X46943417Y-57801221D01*
X47003760Y-57655539D01*
X47034523Y-57500884D01*
X47034523Y-57343200D01*
X47034523Y-57343197D01*
X47034522Y-57343195D01*
X47015266Y-57246391D01*
X47003760Y-57188545D01*
X46956013Y-57073272D01*
X46943420Y-57042869D01*
X46943418Y-57042865D01*
X46943417Y-57042863D01*
X46875964Y-56941913D01*
X59627660Y-56941913D01*
X59627660Y-57099606D01*
X59658421Y-57254249D01*
X59658424Y-57254261D01*
X59718762Y-57399932D01*
X59718769Y-57399945D01*
X59806370Y-57531048D01*
X59806373Y-57531052D01*
X59917867Y-57642546D01*
X59917871Y-57642549D01*
X60048974Y-57730150D01*
X60048987Y-57730157D01*
X60175658Y-57782625D01*
X60194663Y-57790497D01*
X60349313Y-57821259D01*
X60349316Y-57821260D01*
X60349318Y-57821260D01*
X60507004Y-57821260D01*
X60507005Y-57821259D01*
X60661657Y-57790497D01*
X60807339Y-57730154D01*
X60938449Y-57642549D01*
X61049949Y-57531049D01*
X61137554Y-57399939D01*
X61197897Y-57254257D01*
X61228660Y-57099602D01*
X61228660Y-56941918D01*
X61228660Y-56941915D01*
X61228659Y-56941913D01*
X61227094Y-56934043D01*
X62044666Y-56934043D01*
X62044666Y-57091736D01*
X62075427Y-57246379D01*
X62075430Y-57246391D01*
X62135768Y-57392062D01*
X62135775Y-57392075D01*
X62223376Y-57523178D01*
X62223379Y-57523182D01*
X62334873Y-57634676D01*
X62334877Y-57634679D01*
X62465980Y-57722280D01*
X62465993Y-57722287D01*
X62611664Y-57782625D01*
X62611669Y-57782627D01*
X62766319Y-57813389D01*
X62766322Y-57813390D01*
X62766324Y-57813390D01*
X62924010Y-57813390D01*
X62924011Y-57813389D01*
X63078663Y-57782627D01*
X63224345Y-57722284D01*
X63355455Y-57634679D01*
X63466955Y-57523179D01*
X63554560Y-57392069D01*
X63614903Y-57246387D01*
X63645666Y-57091732D01*
X63645666Y-56934048D01*
X63645666Y-56934045D01*
X63645665Y-56934043D01*
X63641230Y-56911749D01*
X63614903Y-56779393D01*
X63587255Y-56712644D01*
X63554563Y-56633717D01*
X63554556Y-56633704D01*
X63466955Y-56502601D01*
X63466952Y-56502597D01*
X63355458Y-56391103D01*
X63355454Y-56391100D01*
X63224351Y-56303499D01*
X63224338Y-56303492D01*
X63078667Y-56243154D01*
X63078655Y-56243151D01*
X62924011Y-56212390D01*
X62924008Y-56212390D01*
X62766324Y-56212390D01*
X62766321Y-56212390D01*
X62611676Y-56243151D01*
X62611664Y-56243154D01*
X62465993Y-56303492D01*
X62465980Y-56303499D01*
X62334877Y-56391100D01*
X62334873Y-56391103D01*
X62223379Y-56502597D01*
X62223376Y-56502601D01*
X62135775Y-56633704D01*
X62135768Y-56633717D01*
X62075430Y-56779388D01*
X62075427Y-56779400D01*
X62044666Y-56934043D01*
X61227094Y-56934043D01*
X61200481Y-56800253D01*
X61197897Y-56787263D01*
X61153675Y-56680500D01*
X61137557Y-56641587D01*
X61137550Y-56641574D01*
X61049949Y-56510471D01*
X61049946Y-56510467D01*
X60938452Y-56398973D01*
X60938448Y-56398970D01*
X60807345Y-56311369D01*
X60807332Y-56311362D01*
X60661661Y-56251024D01*
X60661649Y-56251021D01*
X60507005Y-56220260D01*
X60507002Y-56220260D01*
X60349318Y-56220260D01*
X60349315Y-56220260D01*
X60194670Y-56251021D01*
X60194658Y-56251024D01*
X60048987Y-56311362D01*
X60048974Y-56311369D01*
X59917871Y-56398970D01*
X59917867Y-56398973D01*
X59806373Y-56510467D01*
X59806370Y-56510471D01*
X59718769Y-56641574D01*
X59718762Y-56641587D01*
X59658424Y-56787258D01*
X59658421Y-56787270D01*
X59627660Y-56941913D01*
X46875964Y-56941913D01*
X46855812Y-56911753D01*
X46855809Y-56911749D01*
X46744315Y-56800255D01*
X46744311Y-56800252D01*
X46613208Y-56712651D01*
X46613195Y-56712644D01*
X46467524Y-56652306D01*
X46467512Y-56652303D01*
X46312868Y-56621542D01*
X46312865Y-56621542D01*
X46155181Y-56621542D01*
X46155178Y-56621542D01*
X46000533Y-56652303D01*
X46000521Y-56652306D01*
X45854850Y-56712644D01*
X45854837Y-56712651D01*
X45723734Y-56800252D01*
X45723730Y-56800255D01*
X45612236Y-56911749D01*
X45612233Y-56911753D01*
X45524632Y-57042856D01*
X45524625Y-57042869D01*
X45464287Y-57188540D01*
X45464284Y-57188552D01*
X45433523Y-57343195D01*
X44109336Y-57343195D01*
X44109336Y-55801153D01*
X67779500Y-55801153D01*
X67779500Y-55958846D01*
X67810261Y-56113489D01*
X67810264Y-56113501D01*
X67870602Y-56259172D01*
X67870609Y-56259185D01*
X67958210Y-56390288D01*
X67958213Y-56390292D01*
X68069707Y-56501786D01*
X68069711Y-56501789D01*
X68200814Y-56589390D01*
X68200827Y-56589397D01*
X68326827Y-56641587D01*
X68346503Y-56649737D01*
X68501153Y-56680499D01*
X68501156Y-56680500D01*
X68501158Y-56680500D01*
X68658844Y-56680500D01*
X68658845Y-56680499D01*
X68813497Y-56649737D01*
X68959179Y-56589394D01*
X69090289Y-56501789D01*
X69201789Y-56390289D01*
X69289394Y-56259179D01*
X69349737Y-56113497D01*
X69380500Y-55958842D01*
X69380500Y-55801158D01*
X69380500Y-55801155D01*
X69380499Y-55801153D01*
X72859500Y-55801153D01*
X72859500Y-55958846D01*
X72890261Y-56113489D01*
X72890264Y-56113501D01*
X72950602Y-56259172D01*
X72950609Y-56259185D01*
X73038210Y-56390288D01*
X73038213Y-56390292D01*
X73149707Y-56501786D01*
X73149711Y-56501789D01*
X73280814Y-56589390D01*
X73280827Y-56589397D01*
X73406827Y-56641587D01*
X73426503Y-56649737D01*
X73581153Y-56680499D01*
X73581156Y-56680500D01*
X73581158Y-56680500D01*
X73738844Y-56680500D01*
X73738845Y-56680499D01*
X73893497Y-56649737D01*
X74039179Y-56589394D01*
X74170289Y-56501789D01*
X74187945Y-56484133D01*
X89074500Y-56484133D01*
X89074500Y-56641826D01*
X89105261Y-56796469D01*
X89105264Y-56796481D01*
X89165602Y-56942152D01*
X89165609Y-56942165D01*
X89253210Y-57073268D01*
X89253213Y-57073272D01*
X89364707Y-57184766D01*
X89364711Y-57184769D01*
X89495814Y-57272370D01*
X89495827Y-57272377D01*
X89641498Y-57332715D01*
X89641503Y-57332717D01*
X89796153Y-57363479D01*
X89796156Y-57363480D01*
X89796158Y-57363480D01*
X89953844Y-57363480D01*
X89953845Y-57363479D01*
X90108497Y-57332717D01*
X90254179Y-57272374D01*
X90385289Y-57184769D01*
X90496789Y-57073269D01*
X90584394Y-56942159D01*
X90644737Y-56796477D01*
X90675500Y-56641822D01*
X90675500Y-56484138D01*
X90675500Y-56484135D01*
X90675499Y-56484133D01*
X90644737Y-56329483D01*
X90615619Y-56259185D01*
X90584397Y-56183807D01*
X90584390Y-56183794D01*
X90496789Y-56052691D01*
X90496786Y-56052687D01*
X90385292Y-55941193D01*
X90385288Y-55941190D01*
X90254185Y-55853589D01*
X90254172Y-55853582D01*
X90108501Y-55793244D01*
X90108489Y-55793241D01*
X89953845Y-55762480D01*
X89953842Y-55762480D01*
X89796158Y-55762480D01*
X89796155Y-55762480D01*
X89641510Y-55793241D01*
X89641498Y-55793244D01*
X89495827Y-55853582D01*
X89495814Y-55853589D01*
X89364711Y-55941190D01*
X89364707Y-55941193D01*
X89253213Y-56052687D01*
X89253210Y-56052691D01*
X89165609Y-56183794D01*
X89165602Y-56183807D01*
X89105264Y-56329478D01*
X89105261Y-56329490D01*
X89074500Y-56484133D01*
X74187945Y-56484133D01*
X74281714Y-56390365D01*
X74281786Y-56390292D01*
X74281789Y-56390289D01*
X74369394Y-56259179D01*
X74429737Y-56113497D01*
X74460500Y-55958842D01*
X74460500Y-55801158D01*
X74460500Y-55801155D01*
X74460499Y-55801153D01*
X74440298Y-55699598D01*
X74429737Y-55646503D01*
X74387669Y-55544941D01*
X74369397Y-55500827D01*
X74369390Y-55500814D01*
X74335473Y-55450054D01*
X74293508Y-55387250D01*
X74985596Y-55387250D01*
X74985596Y-55544943D01*
X75016357Y-55699586D01*
X75016360Y-55699598D01*
X75076698Y-55845269D01*
X75076705Y-55845282D01*
X75164306Y-55976385D01*
X75164309Y-55976389D01*
X75275803Y-56087883D01*
X75275807Y-56087886D01*
X75406910Y-56175487D01*
X75406923Y-56175494D01*
X75552594Y-56235832D01*
X75552599Y-56235834D01*
X75669992Y-56259185D01*
X75707249Y-56266596D01*
X75707252Y-56266597D01*
X75707254Y-56266597D01*
X75864940Y-56266597D01*
X75864941Y-56266596D01*
X76019593Y-56235834D01*
X76165275Y-56175491D01*
X76296385Y-56087886D01*
X76407885Y-55976386D01*
X76495490Y-55845276D01*
X76555833Y-55699594D01*
X76586596Y-55544939D01*
X76586596Y-55387255D01*
X76586596Y-55387252D01*
X76586595Y-55387250D01*
X76583105Y-55369707D01*
X76555833Y-55232600D01*
X76530156Y-55170609D01*
X76495493Y-55086924D01*
X76495486Y-55086911D01*
X76407885Y-54955808D01*
X76407882Y-54955804D01*
X76296388Y-54844310D01*
X76296384Y-54844307D01*
X76165281Y-54756706D01*
X76165268Y-54756699D01*
X76019597Y-54696361D01*
X76019585Y-54696358D01*
X75864941Y-54665597D01*
X75864938Y-54665597D01*
X75707254Y-54665597D01*
X75707251Y-54665597D01*
X75552606Y-54696358D01*
X75552594Y-54696361D01*
X75406923Y-54756699D01*
X75406910Y-54756706D01*
X75275807Y-54844307D01*
X75275803Y-54844310D01*
X75164309Y-54955804D01*
X75164306Y-54955808D01*
X75076705Y-55086911D01*
X75076698Y-55086924D01*
X75016360Y-55232595D01*
X75016357Y-55232607D01*
X74985596Y-55387250D01*
X74293508Y-55387250D01*
X74281789Y-55369711D01*
X74281786Y-55369707D01*
X74170292Y-55258213D01*
X74170288Y-55258210D01*
X74039185Y-55170609D01*
X74039172Y-55170602D01*
X73893501Y-55110264D01*
X73893489Y-55110261D01*
X73738845Y-55079500D01*
X73738842Y-55079500D01*
X73581158Y-55079500D01*
X73581155Y-55079500D01*
X73426510Y-55110261D01*
X73426498Y-55110264D01*
X73280827Y-55170602D01*
X73280814Y-55170609D01*
X73149711Y-55258210D01*
X73149707Y-55258213D01*
X73038213Y-55369707D01*
X73038210Y-55369711D01*
X72950609Y-55500814D01*
X72950602Y-55500827D01*
X72890264Y-55646498D01*
X72890261Y-55646510D01*
X72859500Y-55801153D01*
X69380499Y-55801153D01*
X69360298Y-55699598D01*
X69349737Y-55646503D01*
X69307669Y-55544941D01*
X69289397Y-55500827D01*
X69289390Y-55500814D01*
X69201789Y-55369711D01*
X69201786Y-55369707D01*
X69090292Y-55258213D01*
X69090288Y-55258210D01*
X68959185Y-55170609D01*
X68959172Y-55170602D01*
X68813501Y-55110264D01*
X68813489Y-55110261D01*
X68658845Y-55079500D01*
X68658842Y-55079500D01*
X68501158Y-55079500D01*
X68501155Y-55079500D01*
X68346510Y-55110261D01*
X68346498Y-55110264D01*
X68200827Y-55170602D01*
X68200814Y-55170609D01*
X68069711Y-55258210D01*
X68069707Y-55258213D01*
X67958213Y-55369707D01*
X67958210Y-55369711D01*
X67870609Y-55500814D01*
X67870602Y-55500827D01*
X67810264Y-55646498D01*
X67810261Y-55646510D01*
X67779500Y-55801153D01*
X44109336Y-55801153D01*
X44109336Y-54206374D01*
X57443408Y-54206374D01*
X57443408Y-54364067D01*
X57474169Y-54518710D01*
X57474172Y-54518722D01*
X57534510Y-54664393D01*
X57534517Y-54664406D01*
X57622118Y-54795509D01*
X57622121Y-54795513D01*
X57733615Y-54907007D01*
X57733619Y-54907010D01*
X57864722Y-54994611D01*
X57864735Y-54994618D01*
X58010406Y-55054956D01*
X58010411Y-55054958D01*
X58165061Y-55085720D01*
X58165064Y-55085721D01*
X58165066Y-55085721D01*
X58322752Y-55085721D01*
X58322753Y-55085720D01*
X58477405Y-55054958D01*
X58623087Y-54994615D01*
X58754197Y-54907010D01*
X58865697Y-54795510D01*
X58953302Y-54664400D01*
X59013645Y-54518718D01*
X59044408Y-54364063D01*
X59044408Y-54206379D01*
X59044408Y-54206376D01*
X59044407Y-54206374D01*
X59031304Y-54140500D01*
X59013645Y-54051724D01*
X58976392Y-53961786D01*
X58953305Y-53906048D01*
X58953298Y-53906035D01*
X58923309Y-53861153D01*
X88099500Y-53861153D01*
X88099500Y-54018846D01*
X88130261Y-54173489D01*
X88130264Y-54173501D01*
X88190602Y-54319172D01*
X88190609Y-54319185D01*
X88278210Y-54450288D01*
X88278213Y-54450292D01*
X88389707Y-54561786D01*
X88389711Y-54561789D01*
X88520814Y-54649390D01*
X88520827Y-54649397D01*
X88634210Y-54696361D01*
X88666503Y-54709737D01*
X88821153Y-54740499D01*
X88821156Y-54740500D01*
X88821158Y-54740500D01*
X88978844Y-54740500D01*
X88978845Y-54740499D01*
X89133497Y-54709737D01*
X89279179Y-54649394D01*
X89410289Y-54561789D01*
X89521789Y-54450289D01*
X89609394Y-54319179D01*
X89669737Y-54173497D01*
X89700500Y-54018842D01*
X89700500Y-53861158D01*
X89700500Y-53861155D01*
X89700499Y-53861153D01*
X89683348Y-53774932D01*
X89669737Y-53706503D01*
X89669735Y-53706498D01*
X89609397Y-53560827D01*
X89609390Y-53560814D01*
X89521789Y-53429711D01*
X89521786Y-53429707D01*
X89410292Y-53318213D01*
X89410288Y-53318210D01*
X89279185Y-53230609D01*
X89279172Y-53230602D01*
X89133501Y-53170264D01*
X89133489Y-53170261D01*
X88978845Y-53139500D01*
X88978842Y-53139500D01*
X88821158Y-53139500D01*
X88821155Y-53139500D01*
X88666510Y-53170261D01*
X88666498Y-53170264D01*
X88520827Y-53230602D01*
X88520814Y-53230609D01*
X88389711Y-53318210D01*
X88389707Y-53318213D01*
X88278213Y-53429707D01*
X88278210Y-53429711D01*
X88190609Y-53560814D01*
X88190602Y-53560827D01*
X88130264Y-53706498D01*
X88130261Y-53706510D01*
X88099500Y-53861153D01*
X58923309Y-53861153D01*
X58865697Y-53774932D01*
X58865694Y-53774928D01*
X58754200Y-53663434D01*
X58754196Y-53663431D01*
X58623093Y-53575830D01*
X58623080Y-53575823D01*
X58477409Y-53515485D01*
X58477397Y-53515482D01*
X58322753Y-53484721D01*
X58322750Y-53484721D01*
X58165066Y-53484721D01*
X58165063Y-53484721D01*
X58010418Y-53515482D01*
X58010406Y-53515485D01*
X57864735Y-53575823D01*
X57864722Y-53575830D01*
X57733619Y-53663431D01*
X57733615Y-53663434D01*
X57622121Y-53774928D01*
X57622118Y-53774932D01*
X57534517Y-53906035D01*
X57534510Y-53906048D01*
X57474172Y-54051719D01*
X57474169Y-54051731D01*
X57443408Y-54206374D01*
X44109336Y-54206374D01*
X44109336Y-53587183D01*
X44129021Y-53520144D01*
X44164447Y-53484080D01*
X44168491Y-53481378D01*
X44190289Y-53466813D01*
X44301789Y-53355313D01*
X44389394Y-53224203D01*
X44449737Y-53078521D01*
X44480500Y-52923866D01*
X44480500Y-52766182D01*
X44480500Y-52766179D01*
X44480499Y-52766177D01*
X44467319Y-52699916D01*
X44449737Y-52611527D01*
X44434369Y-52574425D01*
X44389397Y-52465851D01*
X44389390Y-52465838D01*
X44379064Y-52450384D01*
X44337099Y-52387580D01*
X51907614Y-52387580D01*
X51907614Y-52545273D01*
X51938375Y-52699916D01*
X51938378Y-52699928D01*
X51998716Y-52845599D01*
X51998723Y-52845612D01*
X52086324Y-52976715D01*
X52086327Y-52976719D01*
X52197821Y-53088213D01*
X52197825Y-53088216D01*
X52328928Y-53175817D01*
X52328941Y-53175824D01*
X52461206Y-53230609D01*
X52474617Y-53236164D01*
X52629267Y-53266926D01*
X52629270Y-53266927D01*
X52629272Y-53266927D01*
X52786958Y-53266927D01*
X52786959Y-53266926D01*
X52815982Y-53261153D01*
X55079500Y-53261153D01*
X55079500Y-53418846D01*
X55110261Y-53573489D01*
X55110264Y-53573501D01*
X55170602Y-53719172D01*
X55170609Y-53719185D01*
X55258210Y-53850288D01*
X55258213Y-53850292D01*
X55369707Y-53961786D01*
X55369711Y-53961789D01*
X55500814Y-54049390D01*
X55500827Y-54049397D01*
X55646498Y-54109735D01*
X55646503Y-54109737D01*
X55801153Y-54140499D01*
X55801156Y-54140500D01*
X55801158Y-54140500D01*
X55958844Y-54140500D01*
X55958845Y-54140499D01*
X56113497Y-54109737D01*
X56141673Y-54098065D01*
X56171466Y-54085726D01*
X56259172Y-54049397D01*
X56259172Y-54049396D01*
X56259179Y-54049394D01*
X56390289Y-53961789D01*
X56501789Y-53850289D01*
X56589394Y-53719179D01*
X56649737Y-53573497D01*
X56680500Y-53418842D01*
X56680500Y-53261158D01*
X56680500Y-53261155D01*
X56680499Y-53261153D01*
X56676047Y-53238771D01*
X56649737Y-53106503D01*
X56649735Y-53106498D01*
X56589397Y-52960827D01*
X56589390Y-52960814D01*
X56511036Y-52843549D01*
X56511035Y-52843548D01*
X56501791Y-52829713D01*
X56501786Y-52829707D01*
X56452824Y-52780745D01*
X81921957Y-52780745D01*
X81921957Y-52938438D01*
X81952718Y-53093081D01*
X81952721Y-53093093D01*
X82013059Y-53238764D01*
X82013066Y-53238777D01*
X82100667Y-53369880D01*
X82100670Y-53369884D01*
X82212164Y-53481378D01*
X82212168Y-53481381D01*
X82343271Y-53568982D01*
X82343284Y-53568989D01*
X82453789Y-53614761D01*
X82488960Y-53629329D01*
X82643610Y-53660091D01*
X82643613Y-53660092D01*
X82643615Y-53660092D01*
X82801301Y-53660092D01*
X82801302Y-53660091D01*
X82955954Y-53629329D01*
X83090736Y-53573501D01*
X83101629Y-53568989D01*
X83101629Y-53568988D01*
X83101636Y-53568986D01*
X83232746Y-53481381D01*
X83344246Y-53369881D01*
X83431851Y-53238771D01*
X83432931Y-53236165D01*
X83457924Y-53175824D01*
X83492194Y-53093089D01*
X83522957Y-52938434D01*
X83522957Y-52780750D01*
X83522957Y-52780747D01*
X83522956Y-52780745D01*
X83520058Y-52766177D01*
X83492194Y-52626095D01*
X83486158Y-52611522D01*
X83431854Y-52480419D01*
X83431847Y-52480406D01*
X83344246Y-52349303D01*
X83344243Y-52349299D01*
X83232749Y-52237805D01*
X83232745Y-52237802D01*
X83101642Y-52150201D01*
X83101629Y-52150194D01*
X82955958Y-52089856D01*
X82955946Y-52089853D01*
X82801302Y-52059092D01*
X82801299Y-52059092D01*
X82643615Y-52059092D01*
X82643612Y-52059092D01*
X82488967Y-52089853D01*
X82488955Y-52089856D01*
X82343284Y-52150194D01*
X82343271Y-52150201D01*
X82212168Y-52237802D01*
X82212164Y-52237805D01*
X82100670Y-52349299D01*
X82100667Y-52349303D01*
X82013066Y-52480406D01*
X82013059Y-52480419D01*
X81952721Y-52626090D01*
X81952718Y-52626102D01*
X81921957Y-52780745D01*
X56452824Y-52780745D01*
X56390292Y-52718213D01*
X56390288Y-52718210D01*
X56259185Y-52630609D01*
X56259172Y-52630602D01*
X56113501Y-52570264D01*
X56113489Y-52570261D01*
X55958845Y-52539500D01*
X55958842Y-52539500D01*
X55801158Y-52539500D01*
X55801155Y-52539500D01*
X55646510Y-52570261D01*
X55646498Y-52570264D01*
X55500827Y-52630602D01*
X55500814Y-52630609D01*
X55369711Y-52718210D01*
X55369707Y-52718213D01*
X55258213Y-52829707D01*
X55258210Y-52829711D01*
X55170609Y-52960814D01*
X55170602Y-52960827D01*
X55110264Y-53106498D01*
X55110261Y-53106510D01*
X55079500Y-53261153D01*
X52815982Y-53261153D01*
X52941611Y-53236164D01*
X53087293Y-53175821D01*
X53110727Y-53160162D01*
X53122998Y-53151964D01*
X53191024Y-53106510D01*
X53218403Y-53088216D01*
X53329903Y-52976716D01*
X53417508Y-52845606D01*
X53418361Y-52843548D01*
X53450408Y-52766177D01*
X53477851Y-52699924D01*
X53508614Y-52545269D01*
X53508614Y-52387585D01*
X53508614Y-52387582D01*
X53508613Y-52387580D01*
X53500998Y-52349299D01*
X53477851Y-52232930D01*
X53470592Y-52215405D01*
X53417511Y-52087254D01*
X53417504Y-52087241D01*
X53329903Y-51956138D01*
X53329900Y-51956134D01*
X53221135Y-51847369D01*
X53221131Y-51847366D01*
X53218403Y-51844638D01*
X53191835Y-51826885D01*
X53190751Y-51826128D01*
X53169718Y-51799856D01*
X53148102Y-51773991D01*
X53147932Y-51772642D01*
X53147085Y-51771584D01*
X53145604Y-51757386D01*
X61177831Y-51757386D01*
X61177831Y-51915079D01*
X61208592Y-52069722D01*
X61208595Y-52069734D01*
X61268933Y-52215405D01*
X61268940Y-52215418D01*
X61356541Y-52346521D01*
X61356544Y-52346525D01*
X61468038Y-52458019D01*
X61468042Y-52458022D01*
X61599145Y-52545623D01*
X61599158Y-52545630D01*
X61668684Y-52574428D01*
X61744834Y-52605970D01*
X61846009Y-52626095D01*
X61899484Y-52636732D01*
X61899487Y-52636733D01*
X61899489Y-52636733D01*
X62057175Y-52636733D01*
X62057176Y-52636732D01*
X62211828Y-52605970D01*
X62357510Y-52545627D01*
X62488620Y-52458022D01*
X62600120Y-52346522D01*
X62687725Y-52215412D01*
X62691639Y-52205964D01*
X62701398Y-52182399D01*
X62748068Y-52069730D01*
X62778831Y-51915075D01*
X62778831Y-51757391D01*
X62772556Y-51725843D01*
X87094811Y-51725843D01*
X87094811Y-51883536D01*
X87125572Y-52038179D01*
X87125575Y-52038191D01*
X87185913Y-52183862D01*
X87185920Y-52183875D01*
X87273521Y-52314978D01*
X87273524Y-52314982D01*
X87385018Y-52426476D01*
X87385022Y-52426479D01*
X87516125Y-52514080D01*
X87516138Y-52514087D01*
X87661809Y-52574425D01*
X87661814Y-52574427D01*
X87816464Y-52605189D01*
X87816467Y-52605190D01*
X87816469Y-52605190D01*
X87974155Y-52605190D01*
X87974156Y-52605189D01*
X88128808Y-52574427D01*
X88274490Y-52514084D01*
X88405600Y-52426479D01*
X88517100Y-52314979D01*
X88604705Y-52183869D01*
X88665048Y-52038187D01*
X88695811Y-51883532D01*
X88695811Y-51725848D01*
X88695811Y-51725845D01*
X88695810Y-51725843D01*
X88678918Y-51640924D01*
X88665048Y-51571193D01*
X88661141Y-51561761D01*
X88604708Y-51425517D01*
X88604702Y-51425506D01*
X88604515Y-51425226D01*
X88604461Y-51425056D01*
X88601832Y-51420136D01*
X88602764Y-51419637D01*
X88583632Y-51358550D01*
X88602112Y-51291169D01*
X88654087Y-51244475D01*
X88660109Y-51241788D01*
X88769858Y-51196330D01*
X88900968Y-51108725D01*
X89012468Y-50997225D01*
X89100073Y-50866115D01*
X89160416Y-50720433D01*
X89191179Y-50565778D01*
X89191179Y-50408094D01*
X89191179Y-50408091D01*
X89191178Y-50408089D01*
X89160416Y-50253439D01*
X89129424Y-50178616D01*
X89100076Y-50107763D01*
X89100069Y-50107750D01*
X89012468Y-49976647D01*
X89012465Y-49976643D01*
X88900971Y-49865149D01*
X88900967Y-49865146D01*
X88769864Y-49777545D01*
X88769851Y-49777538D01*
X88624180Y-49717200D01*
X88624168Y-49717197D01*
X88469524Y-49686436D01*
X88469521Y-49686436D01*
X88311837Y-49686436D01*
X88311834Y-49686436D01*
X88157189Y-49717197D01*
X88157177Y-49717200D01*
X88011506Y-49777538D01*
X88011493Y-49777545D01*
X87880390Y-49865146D01*
X87880386Y-49865149D01*
X87768892Y-49976643D01*
X87768889Y-49976647D01*
X87681288Y-50107750D01*
X87681281Y-50107763D01*
X87620943Y-50253434D01*
X87620940Y-50253446D01*
X87590179Y-50408089D01*
X87590179Y-50565782D01*
X87620940Y-50720425D01*
X87620943Y-50720437D01*
X87681281Y-50866108D01*
X87681290Y-50866124D01*
X87681485Y-50866416D01*
X87681540Y-50866591D01*
X87684158Y-50871490D01*
X87683228Y-50871986D01*
X87702356Y-50933096D01*
X87683865Y-51000474D01*
X87631881Y-51047159D01*
X87625829Y-51049858D01*
X87516134Y-51095294D01*
X87516125Y-51095299D01*
X87385022Y-51182900D01*
X87385018Y-51182903D01*
X87273524Y-51294397D01*
X87273521Y-51294401D01*
X87185920Y-51425504D01*
X87185913Y-51425517D01*
X87125575Y-51571188D01*
X87125572Y-51571200D01*
X87094811Y-51725843D01*
X62772556Y-51725843D01*
X62748068Y-51602736D01*
X62747141Y-51600499D01*
X62687728Y-51457060D01*
X62687721Y-51457047D01*
X62600120Y-51325944D01*
X62600117Y-51325940D01*
X62488623Y-51214446D01*
X62488619Y-51214443D01*
X62357516Y-51126842D01*
X62357503Y-51126835D01*
X62211832Y-51066497D01*
X62211820Y-51066494D01*
X62057176Y-51035733D01*
X62057173Y-51035733D01*
X61899489Y-51035733D01*
X61899486Y-51035733D01*
X61744841Y-51066494D01*
X61744829Y-51066497D01*
X61599158Y-51126835D01*
X61599145Y-51126842D01*
X61468042Y-51214443D01*
X61468038Y-51214446D01*
X61356544Y-51325940D01*
X61356541Y-51325944D01*
X61268940Y-51457047D01*
X61268933Y-51457060D01*
X61208595Y-51602731D01*
X61208592Y-51602743D01*
X61177831Y-51757386D01*
X53145604Y-51757386D01*
X53143593Y-51738096D01*
X53139395Y-51704666D01*
X53139980Y-51703441D01*
X53139840Y-51702091D01*
X53155017Y-51672012D01*
X53169549Y-51641638D01*
X53170703Y-51640924D01*
X53171315Y-51639713D01*
X53200322Y-51622628D01*
X53228992Y-51604918D01*
X53230806Y-51604673D01*
X53231519Y-51604254D01*
X53233383Y-51604326D01*
X53261798Y-51600500D01*
X53418844Y-51600500D01*
X53418845Y-51600499D01*
X53573497Y-51569737D01*
X53719179Y-51509394D01*
X53850289Y-51421789D01*
X53961789Y-51310289D01*
X54049394Y-51179179D01*
X54109737Y-51033497D01*
X54140500Y-50878842D01*
X54140500Y-50721158D01*
X54140500Y-50721155D01*
X54140499Y-50721153D01*
X55079500Y-50721153D01*
X55079500Y-50878846D01*
X55110261Y-51033489D01*
X55110264Y-51033501D01*
X55170602Y-51179172D01*
X55170609Y-51179185D01*
X55258210Y-51310288D01*
X55258213Y-51310292D01*
X55369707Y-51421786D01*
X55369711Y-51421789D01*
X55500814Y-51509390D01*
X55500827Y-51509397D01*
X55627247Y-51561761D01*
X55646503Y-51569737D01*
X55801153Y-51600499D01*
X55801156Y-51600500D01*
X55801158Y-51600500D01*
X55958844Y-51600500D01*
X55958845Y-51600499D01*
X56113497Y-51569737D01*
X56259179Y-51509394D01*
X56390289Y-51421789D01*
X56501789Y-51310289D01*
X56589394Y-51179179D01*
X56649737Y-51033497D01*
X56680500Y-50878842D01*
X56680500Y-50721158D01*
X56680500Y-50721155D01*
X56680499Y-50721153D01*
X56667243Y-50654513D01*
X56649737Y-50566503D01*
X56649437Y-50565778D01*
X56589397Y-50420827D01*
X56589390Y-50420814D01*
X56501789Y-50289711D01*
X56501786Y-50289707D01*
X56390292Y-50178213D01*
X56390288Y-50178210D01*
X56259185Y-50090609D01*
X56259172Y-50090602D01*
X56113501Y-50030264D01*
X56113489Y-50030261D01*
X55958845Y-49999500D01*
X55958842Y-49999500D01*
X55801158Y-49999500D01*
X55801155Y-49999500D01*
X55646510Y-50030261D01*
X55646498Y-50030264D01*
X55500827Y-50090602D01*
X55500814Y-50090609D01*
X55369711Y-50178210D01*
X55369707Y-50178213D01*
X55258213Y-50289707D01*
X55258210Y-50289711D01*
X55170609Y-50420814D01*
X55170602Y-50420827D01*
X55110264Y-50566498D01*
X55110261Y-50566510D01*
X55079500Y-50721153D01*
X54140499Y-50721153D01*
X54127243Y-50654513D01*
X54109737Y-50566503D01*
X54109437Y-50565778D01*
X54049397Y-50420827D01*
X54049390Y-50420814D01*
X53961789Y-50289711D01*
X53961786Y-50289707D01*
X53850292Y-50178213D01*
X53850288Y-50178210D01*
X53719185Y-50090609D01*
X53719172Y-50090602D01*
X53573501Y-50030264D01*
X53573489Y-50030261D01*
X53418845Y-49999500D01*
X53418842Y-49999500D01*
X53261158Y-49999500D01*
X53261155Y-49999500D01*
X53106510Y-50030261D01*
X53106498Y-50030264D01*
X52960827Y-50090602D01*
X52960814Y-50090609D01*
X52829711Y-50178210D01*
X52829707Y-50178213D01*
X52718213Y-50289707D01*
X52718210Y-50289711D01*
X52630609Y-50420814D01*
X52630602Y-50420827D01*
X52570264Y-50566498D01*
X52570261Y-50566510D01*
X52539500Y-50721153D01*
X52539500Y-50878846D01*
X52570261Y-51033489D01*
X52570264Y-51033501D01*
X52630602Y-51179172D01*
X52630609Y-51179185D01*
X52718210Y-51310288D01*
X52718213Y-51310292D01*
X52829708Y-51421787D01*
X52855206Y-51438824D01*
X52900012Y-51492436D01*
X52908719Y-51561761D01*
X52878565Y-51624789D01*
X52819122Y-51661509D01*
X52786316Y-51665927D01*
X52629269Y-51665927D01*
X52474624Y-51696688D01*
X52474612Y-51696691D01*
X52328941Y-51757029D01*
X52328928Y-51757036D01*
X52197825Y-51844637D01*
X52197821Y-51844640D01*
X52086327Y-51956134D01*
X52086324Y-51956138D01*
X51998723Y-52087241D01*
X51998716Y-52087254D01*
X51938378Y-52232925D01*
X51938375Y-52232937D01*
X51907614Y-52387580D01*
X44337099Y-52387580D01*
X44301789Y-52334735D01*
X44301786Y-52334731D01*
X44190296Y-52223241D01*
X44190290Y-52223236D01*
X44164442Y-52205964D01*
X44119639Y-52152351D01*
X44109336Y-52102864D01*
X44109336Y-50721153D01*
X45468546Y-50721153D01*
X45468546Y-50878846D01*
X45499307Y-51033489D01*
X45499310Y-51033501D01*
X45559648Y-51179172D01*
X45559655Y-51179185D01*
X45647256Y-51310288D01*
X45647259Y-51310292D01*
X45758753Y-51421786D01*
X45758757Y-51421789D01*
X45889860Y-51509390D01*
X45889873Y-51509397D01*
X46016293Y-51561761D01*
X46035549Y-51569737D01*
X46190199Y-51600499D01*
X46190202Y-51600500D01*
X46190204Y-51600500D01*
X46347890Y-51600500D01*
X46347891Y-51600499D01*
X46502543Y-51569737D01*
X46648225Y-51509394D01*
X46779335Y-51421789D01*
X46890835Y-51310289D01*
X46978440Y-51179179D01*
X47038783Y-51033497D01*
X47069546Y-50878842D01*
X47069546Y-50721158D01*
X47069546Y-50721155D01*
X47069545Y-50721153D01*
X47056289Y-50654513D01*
X47038783Y-50566503D01*
X47038483Y-50565778D01*
X46978443Y-50420827D01*
X46978436Y-50420814D01*
X46890835Y-50289711D01*
X46890832Y-50289707D01*
X46779338Y-50178213D01*
X46779334Y-50178210D01*
X46772670Y-50173757D01*
X50634087Y-50173757D01*
X50634087Y-50331450D01*
X50664848Y-50486093D01*
X50664851Y-50486105D01*
X50725189Y-50631776D01*
X50725196Y-50631789D01*
X50812797Y-50762892D01*
X50812800Y-50762896D01*
X50924294Y-50874390D01*
X50924298Y-50874393D01*
X51055401Y-50961994D01*
X51055414Y-50962001D01*
X51173536Y-51010928D01*
X51201090Y-51022341D01*
X51355740Y-51053103D01*
X51355743Y-51053104D01*
X51355745Y-51053104D01*
X51513431Y-51053104D01*
X51513432Y-51053103D01*
X51668084Y-51022341D01*
X51813766Y-50961998D01*
X51944876Y-50874393D01*
X52056376Y-50762893D01*
X52143981Y-50631783D01*
X52204324Y-50486101D01*
X52235087Y-50331446D01*
X52235087Y-50173762D01*
X52235087Y-50173759D01*
X52235086Y-50173757D01*
X52218545Y-50090602D01*
X52204324Y-50019107D01*
X52154633Y-49899141D01*
X52143984Y-49873431D01*
X52143977Y-49873418D01*
X52056376Y-49742315D01*
X52056373Y-49742311D01*
X51944879Y-49630817D01*
X51944875Y-49630814D01*
X51813772Y-49543213D01*
X51813759Y-49543206D01*
X51668088Y-49482868D01*
X51668076Y-49482865D01*
X51513432Y-49452104D01*
X51513429Y-49452104D01*
X51355745Y-49452104D01*
X51355742Y-49452104D01*
X51201097Y-49482865D01*
X51201085Y-49482868D01*
X51055414Y-49543206D01*
X51055401Y-49543213D01*
X50924298Y-49630814D01*
X50924294Y-49630817D01*
X50812800Y-49742311D01*
X50812797Y-49742315D01*
X50725196Y-49873418D01*
X50725189Y-49873431D01*
X50664851Y-50019102D01*
X50664848Y-50019114D01*
X50634087Y-50173757D01*
X46772670Y-50173757D01*
X46648231Y-50090609D01*
X46648218Y-50090602D01*
X46502547Y-50030264D01*
X46502535Y-50030261D01*
X46347891Y-49999500D01*
X46347888Y-49999500D01*
X46190204Y-49999500D01*
X46190201Y-49999500D01*
X46035556Y-50030261D01*
X46035544Y-50030264D01*
X45889873Y-50090602D01*
X45889860Y-50090609D01*
X45758757Y-50178210D01*
X45758753Y-50178213D01*
X45647259Y-50289707D01*
X45647256Y-50289711D01*
X45559655Y-50420814D01*
X45559648Y-50420827D01*
X45499310Y-50566498D01*
X45499307Y-50566510D01*
X45468546Y-50721153D01*
X44109336Y-50721153D01*
X44109336Y-48746840D01*
X53105187Y-48746840D01*
X53105187Y-48904533D01*
X53135948Y-49059176D01*
X53135951Y-49059188D01*
X53196289Y-49204859D01*
X53196296Y-49204872D01*
X53283897Y-49335975D01*
X53283900Y-49335979D01*
X53395394Y-49447473D01*
X53395398Y-49447476D01*
X53526501Y-49535077D01*
X53526514Y-49535084D01*
X53651365Y-49586798D01*
X53672190Y-49595424D01*
X53826840Y-49626186D01*
X53826843Y-49626187D01*
X53826845Y-49626187D01*
X53984531Y-49626187D01*
X53984532Y-49626186D01*
X54139184Y-49595424D01*
X54160021Y-49586793D01*
X59477351Y-49586793D01*
X59477351Y-49744486D01*
X59508112Y-49899129D01*
X59508115Y-49899141D01*
X59568453Y-50044812D01*
X59568460Y-50044825D01*
X59656061Y-50175928D01*
X59656064Y-50175932D01*
X59767558Y-50287426D01*
X59767562Y-50287429D01*
X59898665Y-50375030D01*
X59898678Y-50375037D01*
X60044349Y-50435375D01*
X60044354Y-50435377D01*
X60199004Y-50466139D01*
X60199007Y-50466140D01*
X60199009Y-50466140D01*
X60356695Y-50466140D01*
X60356696Y-50466139D01*
X60511348Y-50435377D01*
X60657030Y-50375034D01*
X60788140Y-50287429D01*
X60899640Y-50175929D01*
X60987245Y-50044819D01*
X61047588Y-49899137D01*
X61052701Y-49873431D01*
X61054125Y-49866272D01*
X83676804Y-49866272D01*
X83676804Y-50023965D01*
X83707565Y-50178608D01*
X83707568Y-50178620D01*
X83767906Y-50324291D01*
X83767913Y-50324304D01*
X83855514Y-50455407D01*
X83855517Y-50455411D01*
X83967011Y-50566905D01*
X83967015Y-50566908D01*
X84098118Y-50654509D01*
X84098131Y-50654516D01*
X84243802Y-50714854D01*
X84243807Y-50714856D01*
X84398457Y-50745618D01*
X84398460Y-50745619D01*
X84398462Y-50745619D01*
X84556148Y-50745619D01*
X84556149Y-50745618D01*
X84710801Y-50714856D01*
X84856483Y-50654513D01*
X84987593Y-50566908D01*
X85099093Y-50455408D01*
X85186698Y-50324298D01*
X85247041Y-50178616D01*
X85277804Y-50023961D01*
X85277804Y-49866277D01*
X85277804Y-49866274D01*
X85277803Y-49866272D01*
X85260153Y-49777542D01*
X85247041Y-49711622D01*
X85213570Y-49630815D01*
X85186701Y-49565946D01*
X85186694Y-49565933D01*
X85099093Y-49434830D01*
X85099090Y-49434826D01*
X84987596Y-49323332D01*
X84987592Y-49323329D01*
X84856489Y-49235728D01*
X84856476Y-49235721D01*
X84710805Y-49175383D01*
X84710793Y-49175380D01*
X84556149Y-49144619D01*
X84556146Y-49144619D01*
X84398462Y-49144619D01*
X84398459Y-49144619D01*
X84243814Y-49175380D01*
X84243802Y-49175383D01*
X84098131Y-49235721D01*
X84098118Y-49235728D01*
X83967015Y-49323329D01*
X83967011Y-49323332D01*
X83855517Y-49434826D01*
X83855514Y-49434830D01*
X83767913Y-49565933D01*
X83767906Y-49565946D01*
X83707568Y-49711617D01*
X83707565Y-49711629D01*
X83676804Y-49866272D01*
X61054125Y-49866272D01*
X61060149Y-49835993D01*
X61060149Y-49835992D01*
X61078350Y-49744486D01*
X61078351Y-49744484D01*
X61078351Y-49586795D01*
X61078350Y-49586793D01*
X61057678Y-49482868D01*
X61047588Y-49432143D01*
X61047586Y-49432138D01*
X60987248Y-49286467D01*
X60987241Y-49286454D01*
X60949647Y-49230191D01*
X60928769Y-49163514D01*
X60947253Y-49096133D01*
X60999232Y-49049443D01*
X61028550Y-49039684D01*
X61078561Y-49029737D01*
X61224243Y-48969394D01*
X61355353Y-48881789D01*
X61466853Y-48770289D01*
X61554458Y-48639179D01*
X61614801Y-48493497D01*
X61645564Y-48338842D01*
X61645564Y-48181158D01*
X61645564Y-48181155D01*
X61645563Y-48181153D01*
X61632661Y-48116293D01*
X61614801Y-48026503D01*
X61595226Y-47979244D01*
X61554461Y-47880827D01*
X61554454Y-47880814D01*
X61466853Y-47749711D01*
X61466850Y-47749707D01*
X61355356Y-47638213D01*
X61355352Y-47638210D01*
X61224249Y-47550609D01*
X61224236Y-47550602D01*
X61089829Y-47494930D01*
X61078565Y-47490264D01*
X61078553Y-47490261D01*
X60923909Y-47459500D01*
X60923906Y-47459500D01*
X60766222Y-47459500D01*
X60766219Y-47459500D01*
X60611574Y-47490261D01*
X60611562Y-47490264D01*
X60465891Y-47550602D01*
X60465878Y-47550609D01*
X60334775Y-47638210D01*
X60334771Y-47638213D01*
X60223277Y-47749707D01*
X60223274Y-47749711D01*
X60135673Y-47880814D01*
X60135666Y-47880827D01*
X60075328Y-48026498D01*
X60075325Y-48026510D01*
X60044564Y-48181153D01*
X60044564Y-48338846D01*
X60075325Y-48493489D01*
X60075328Y-48493501D01*
X60135666Y-48639172D01*
X60135673Y-48639185D01*
X60173267Y-48695448D01*
X60194145Y-48762126D01*
X60175660Y-48829506D01*
X60123681Y-48876196D01*
X60094357Y-48885956D01*
X60044359Y-48895901D01*
X60044349Y-48895904D01*
X59898678Y-48956242D01*
X59898665Y-48956249D01*
X59767562Y-49043850D01*
X59767558Y-49043853D01*
X59656064Y-49155347D01*
X59656061Y-49155351D01*
X59568460Y-49286454D01*
X59568453Y-49286467D01*
X59508115Y-49432138D01*
X59508112Y-49432150D01*
X59477351Y-49586793D01*
X54160021Y-49586793D01*
X54251853Y-49548754D01*
X54284859Y-49535084D01*
X54284859Y-49535083D01*
X54284866Y-49535081D01*
X54284872Y-49535077D01*
X54370887Y-49477604D01*
X54389257Y-49465328D01*
X54415976Y-49447476D01*
X54527476Y-49335976D01*
X54615081Y-49204866D01*
X54675424Y-49059184D01*
X54706187Y-48904529D01*
X54706187Y-48746845D01*
X54706187Y-48746842D01*
X54706186Y-48746840D01*
X54684772Y-48639185D01*
X54675424Y-48592190D01*
X54634546Y-48493500D01*
X54615084Y-48446514D01*
X54615077Y-48446501D01*
X54527476Y-48315398D01*
X54527473Y-48315394D01*
X54415979Y-48203900D01*
X54415975Y-48203897D01*
X54284872Y-48116296D01*
X54284859Y-48116289D01*
X54139188Y-48055951D01*
X54139176Y-48055948D01*
X53984532Y-48025187D01*
X53984529Y-48025187D01*
X53826845Y-48025187D01*
X53826842Y-48025187D01*
X53672197Y-48055948D01*
X53672185Y-48055951D01*
X53526514Y-48116289D01*
X53526501Y-48116296D01*
X53395398Y-48203897D01*
X53395394Y-48203900D01*
X53283900Y-48315394D01*
X53283897Y-48315398D01*
X53196296Y-48446501D01*
X53196289Y-48446514D01*
X53135951Y-48592185D01*
X53135948Y-48592197D01*
X53105187Y-48746840D01*
X44109336Y-48746840D01*
X44109336Y-46517946D01*
X45445258Y-46517946D01*
X45445258Y-46675639D01*
X45476019Y-46830282D01*
X45476022Y-46830294D01*
X45536360Y-46975965D01*
X45536367Y-46975978D01*
X45623968Y-47107081D01*
X45623971Y-47107085D01*
X45735465Y-47218579D01*
X45735469Y-47218582D01*
X45866572Y-47306183D01*
X45866585Y-47306190D01*
X45939223Y-47336277D01*
X46012261Y-47366530D01*
X46166911Y-47397292D01*
X46166914Y-47397293D01*
X46166916Y-47397293D01*
X46324602Y-47397293D01*
X46324603Y-47397292D01*
X46479255Y-47366530D01*
X46624937Y-47306187D01*
X46756047Y-47218582D01*
X46867547Y-47107082D01*
X46955152Y-46975972D01*
X47015495Y-46830290D01*
X47046258Y-46675635D01*
X47046258Y-46635644D01*
X51545009Y-46635644D01*
X51545009Y-46793337D01*
X51575770Y-46947980D01*
X51575773Y-46947992D01*
X51636111Y-47093663D01*
X51636118Y-47093676D01*
X51723719Y-47224779D01*
X51723722Y-47224783D01*
X51835216Y-47336277D01*
X51835220Y-47336280D01*
X51966323Y-47423881D01*
X51966336Y-47423888D01*
X52112007Y-47484226D01*
X52112012Y-47484228D01*
X52266662Y-47514990D01*
X52266665Y-47514991D01*
X52266667Y-47514991D01*
X52424353Y-47514991D01*
X52424354Y-47514990D01*
X52579006Y-47484228D01*
X52724688Y-47423885D01*
X52780704Y-47386456D01*
X62732380Y-47386456D01*
X62732380Y-47544149D01*
X62763141Y-47698792D01*
X62763144Y-47698804D01*
X62823482Y-47844475D01*
X62823489Y-47844488D01*
X62911090Y-47975591D01*
X62911093Y-47975595D01*
X63022587Y-48087089D01*
X63022591Y-48087092D01*
X63153694Y-48174693D01*
X63153707Y-48174700D01*
X63299378Y-48235038D01*
X63299383Y-48235040D01*
X63454033Y-48265802D01*
X63454036Y-48265803D01*
X63454038Y-48265803D01*
X63611724Y-48265803D01*
X63611725Y-48265802D01*
X63766377Y-48235040D01*
X63896473Y-48181153D01*
X71100107Y-48181153D01*
X71100107Y-48338846D01*
X71130868Y-48493489D01*
X71130871Y-48493501D01*
X71191209Y-48639172D01*
X71191216Y-48639185D01*
X71278817Y-48770288D01*
X71278820Y-48770292D01*
X71390314Y-48881786D01*
X71390318Y-48881789D01*
X71521421Y-48969390D01*
X71521434Y-48969397D01*
X71667105Y-49029735D01*
X71667110Y-49029737D01*
X71815109Y-49059176D01*
X71821760Y-49060499D01*
X71821763Y-49060500D01*
X71821765Y-49060500D01*
X71979451Y-49060500D01*
X71979452Y-49060499D01*
X72134104Y-49029737D01*
X72279786Y-48969394D01*
X72410896Y-48881789D01*
X72522396Y-48770289D01*
X72610001Y-48639179D01*
X72670344Y-48493497D01*
X72701107Y-48338842D01*
X72701107Y-48181158D01*
X72701107Y-48181155D01*
X72701106Y-48181153D01*
X75399500Y-48181153D01*
X75399500Y-48338846D01*
X75430261Y-48493489D01*
X75430264Y-48493501D01*
X75490602Y-48639172D01*
X75490609Y-48639185D01*
X75578210Y-48770288D01*
X75578213Y-48770292D01*
X75689707Y-48881786D01*
X75689711Y-48881789D01*
X75820814Y-48969390D01*
X75820827Y-48969397D01*
X75966498Y-49029735D01*
X75966503Y-49029737D01*
X76114502Y-49059176D01*
X76121153Y-49060499D01*
X76121156Y-49060500D01*
X76121158Y-49060500D01*
X76278844Y-49060500D01*
X76278845Y-49060499D01*
X76433497Y-49029737D01*
X76579179Y-48969394D01*
X76710289Y-48881789D01*
X76821789Y-48770289D01*
X76909394Y-48639179D01*
X76957853Y-48522187D01*
X78708373Y-48522187D01*
X78708373Y-48679880D01*
X78739134Y-48834523D01*
X78739137Y-48834535D01*
X78799475Y-48980206D01*
X78799482Y-48980219D01*
X78887083Y-49111322D01*
X78887086Y-49111326D01*
X78998580Y-49222820D01*
X78998584Y-49222823D01*
X79129687Y-49310424D01*
X79129700Y-49310431D01*
X79275371Y-49370769D01*
X79275376Y-49370771D01*
X79430026Y-49401533D01*
X79430029Y-49401534D01*
X79430031Y-49401534D01*
X79587717Y-49401534D01*
X79587718Y-49401533D01*
X79742370Y-49370771D01*
X79888052Y-49310428D01*
X80019162Y-49222823D01*
X80130662Y-49111323D01*
X80218267Y-48980213D01*
X80278610Y-48834531D01*
X80309373Y-48679876D01*
X80309373Y-48522192D01*
X80309373Y-48522189D01*
X80309372Y-48522187D01*
X80303349Y-48491908D01*
X80278610Y-48367537D01*
X80266724Y-48338842D01*
X80218270Y-48221861D01*
X80218263Y-48221848D01*
X80130662Y-48090745D01*
X80130659Y-48090741D01*
X80019165Y-47979247D01*
X80019161Y-47979244D01*
X79888058Y-47891643D01*
X79888045Y-47891636D01*
X79742374Y-47831298D01*
X79742362Y-47831295D01*
X79587718Y-47800534D01*
X79587715Y-47800534D01*
X79430031Y-47800534D01*
X79430028Y-47800534D01*
X79275383Y-47831295D01*
X79275371Y-47831298D01*
X79129700Y-47891636D01*
X79129687Y-47891643D01*
X78998584Y-47979244D01*
X78998580Y-47979247D01*
X78887086Y-48090741D01*
X78887083Y-48090745D01*
X78799482Y-48221848D01*
X78799475Y-48221861D01*
X78739137Y-48367532D01*
X78739134Y-48367544D01*
X78708373Y-48522187D01*
X76957853Y-48522187D01*
X76969737Y-48493497D01*
X76994793Y-48367532D01*
X77000500Y-48338844D01*
X77000500Y-48181155D01*
X77000499Y-48181153D01*
X76987597Y-48116293D01*
X76969737Y-48026503D01*
X76950162Y-47979244D01*
X76909397Y-47880827D01*
X76909390Y-47880814D01*
X76821789Y-47749711D01*
X76821786Y-47749707D01*
X76710292Y-47638213D01*
X76710288Y-47638210D01*
X76579185Y-47550609D01*
X76579172Y-47550602D01*
X76433501Y-47490264D01*
X76433489Y-47490261D01*
X76278845Y-47459500D01*
X76278842Y-47459500D01*
X76121158Y-47459500D01*
X76121155Y-47459500D01*
X75966510Y-47490261D01*
X75966498Y-47490264D01*
X75820827Y-47550602D01*
X75820814Y-47550609D01*
X75689711Y-47638210D01*
X75689707Y-47638213D01*
X75578213Y-47749707D01*
X75578210Y-47749711D01*
X75490609Y-47880814D01*
X75490602Y-47880827D01*
X75430264Y-48026498D01*
X75430261Y-48026510D01*
X75399500Y-48181153D01*
X72701106Y-48181153D01*
X72688204Y-48116293D01*
X72670344Y-48026503D01*
X72650769Y-47979244D01*
X72610004Y-47880827D01*
X72609997Y-47880814D01*
X72522396Y-47749711D01*
X72522393Y-47749707D01*
X72410899Y-47638213D01*
X72410895Y-47638210D01*
X72279792Y-47550609D01*
X72279779Y-47550602D01*
X72134108Y-47490264D01*
X72134096Y-47490261D01*
X71979452Y-47459500D01*
X71979449Y-47459500D01*
X71821765Y-47459500D01*
X71821762Y-47459500D01*
X71667117Y-47490261D01*
X71667105Y-47490264D01*
X71521434Y-47550602D01*
X71521421Y-47550609D01*
X71390318Y-47638210D01*
X71390314Y-47638213D01*
X71278820Y-47749707D01*
X71278817Y-47749711D01*
X71191216Y-47880814D01*
X71191209Y-47880827D01*
X71130871Y-48026498D01*
X71130868Y-48026510D01*
X71100107Y-48181153D01*
X63896473Y-48181153D01*
X63912059Y-48174697D01*
X64043169Y-48087092D01*
X64154669Y-47975592D01*
X64242274Y-47844482D01*
X64302617Y-47698800D01*
X64333380Y-47544145D01*
X64333380Y-47386461D01*
X64333380Y-47386458D01*
X64333379Y-47386456D01*
X64317412Y-47306187D01*
X64302617Y-47231806D01*
X64299706Y-47224779D01*
X64242277Y-47086130D01*
X64242270Y-47086117D01*
X64154669Y-46955014D01*
X64154666Y-46955010D01*
X64043172Y-46843516D01*
X64043168Y-46843513D01*
X63912065Y-46755912D01*
X63912052Y-46755905D01*
X63766381Y-46695567D01*
X63766369Y-46695564D01*
X63611725Y-46664803D01*
X63611722Y-46664803D01*
X63454038Y-46664803D01*
X63454035Y-46664803D01*
X63299390Y-46695564D01*
X63299378Y-46695567D01*
X63153707Y-46755905D01*
X63153694Y-46755912D01*
X63022591Y-46843513D01*
X63022587Y-46843516D01*
X62911093Y-46955010D01*
X62911090Y-46955014D01*
X62823489Y-47086117D01*
X62823482Y-47086130D01*
X62763144Y-47231801D01*
X62763141Y-47231813D01*
X62732380Y-47386456D01*
X52780704Y-47386456D01*
X52855798Y-47336280D01*
X52967298Y-47224780D01*
X53054903Y-47093670D01*
X53115246Y-46947988D01*
X53146009Y-46793333D01*
X53146009Y-46635649D01*
X53146009Y-46635646D01*
X53146008Y-46635644D01*
X53140187Y-46606379D01*
X53115246Y-46480994D01*
X53066492Y-46363291D01*
X53054943Y-46335408D01*
X53054940Y-46335402D01*
X53054905Y-46335318D01*
X53054903Y-46335312D01*
X53054901Y-46335309D01*
X53054899Y-46335305D01*
X53027328Y-46294043D01*
X57782077Y-46294043D01*
X57782077Y-46451736D01*
X57812838Y-46606379D01*
X57812841Y-46606391D01*
X57873179Y-46752062D01*
X57873186Y-46752075D01*
X57960787Y-46883178D01*
X57960790Y-46883182D01*
X58072284Y-46994676D01*
X58072288Y-46994679D01*
X58203391Y-47082280D01*
X58203404Y-47082287D01*
X58263273Y-47107085D01*
X58349080Y-47142627D01*
X58503730Y-47173389D01*
X58503733Y-47173390D01*
X58503735Y-47173390D01*
X58661421Y-47173390D01*
X58661422Y-47173389D01*
X58816074Y-47142627D01*
X58952471Y-47086130D01*
X58961749Y-47082287D01*
X58961749Y-47082286D01*
X58961756Y-47082284D01*
X59092866Y-46994679D01*
X59204366Y-46883179D01*
X59291971Y-46752069D01*
X59352314Y-46606387D01*
X59383077Y-46451732D01*
X59383077Y-46294048D01*
X59383077Y-46294045D01*
X59368635Y-46221444D01*
X59368635Y-46221443D01*
X59365034Y-46203339D01*
X71843799Y-46203339D01*
X71843799Y-46361032D01*
X71874560Y-46515675D01*
X71874563Y-46515687D01*
X71934901Y-46661358D01*
X71934908Y-46661371D01*
X72022509Y-46792474D01*
X72022512Y-46792478D01*
X72134006Y-46903972D01*
X72134010Y-46903975D01*
X72265113Y-46991576D01*
X72265126Y-46991583D01*
X72410797Y-47051921D01*
X72410802Y-47051923D01*
X72563416Y-47082280D01*
X72565452Y-47082685D01*
X72565455Y-47082686D01*
X72565457Y-47082686D01*
X72723143Y-47082686D01*
X72723144Y-47082685D01*
X72877796Y-47051923D01*
X73023478Y-46991580D01*
X73154588Y-46903975D01*
X73266088Y-46792475D01*
X73353693Y-46661365D01*
X73414036Y-46515683D01*
X73444799Y-46361028D01*
X73444799Y-46203344D01*
X73444799Y-46203341D01*
X73444798Y-46203339D01*
X73444274Y-46200705D01*
X73414036Y-46048689D01*
X73383515Y-45975004D01*
X73353696Y-45903013D01*
X73353689Y-45903000D01*
X73266088Y-45771897D01*
X73266085Y-45771893D01*
X73154591Y-45660399D01*
X73154587Y-45660396D01*
X73023484Y-45572795D01*
X73023471Y-45572788D01*
X72877800Y-45512450D01*
X72877788Y-45512447D01*
X72723144Y-45481686D01*
X72723141Y-45481686D01*
X72565457Y-45481686D01*
X72565454Y-45481686D01*
X72410809Y-45512447D01*
X72410797Y-45512450D01*
X72265126Y-45572788D01*
X72265113Y-45572795D01*
X72134010Y-45660396D01*
X72134006Y-45660399D01*
X72022512Y-45771893D01*
X72022509Y-45771897D01*
X71934908Y-45903000D01*
X71934901Y-45903013D01*
X71874563Y-46048684D01*
X71874560Y-46048696D01*
X71843799Y-46203339D01*
X59365034Y-46203339D01*
X59352315Y-46139400D01*
X59352314Y-46139393D01*
X59352312Y-46139388D01*
X59291974Y-45993717D01*
X59291967Y-45993704D01*
X59204366Y-45862601D01*
X59204363Y-45862597D01*
X59092869Y-45751103D01*
X59092865Y-45751100D01*
X58961762Y-45663499D01*
X58961749Y-45663492D01*
X58816078Y-45603154D01*
X58816066Y-45603151D01*
X58661422Y-45572390D01*
X58661419Y-45572390D01*
X58503735Y-45572390D01*
X58503732Y-45572390D01*
X58349087Y-45603151D01*
X58349075Y-45603154D01*
X58203404Y-45663492D01*
X58203391Y-45663499D01*
X58072288Y-45751100D01*
X58072284Y-45751103D01*
X57960790Y-45862597D01*
X57960787Y-45862601D01*
X57873186Y-45993704D01*
X57873179Y-45993717D01*
X57812841Y-46139388D01*
X57812838Y-46139400D01*
X57782077Y-46294043D01*
X53027328Y-46294043D01*
X52967298Y-46204202D01*
X52967295Y-46204198D01*
X52855801Y-46092704D01*
X52855797Y-46092701D01*
X52724694Y-46005100D01*
X52724681Y-46005093D01*
X52579010Y-45944755D01*
X52578998Y-45944752D01*
X52424354Y-45913991D01*
X52424351Y-45913991D01*
X52266667Y-45913991D01*
X52266664Y-45913991D01*
X52112019Y-45944752D01*
X52112007Y-45944755D01*
X51966336Y-46005093D01*
X51966323Y-46005100D01*
X51835220Y-46092701D01*
X51835216Y-46092704D01*
X51723722Y-46204198D01*
X51723719Y-46204202D01*
X51636118Y-46335305D01*
X51636111Y-46335318D01*
X51575773Y-46480989D01*
X51575770Y-46481001D01*
X51545009Y-46635644D01*
X47046258Y-46635644D01*
X47046258Y-46517951D01*
X47046258Y-46517948D01*
X47046257Y-46517946D01*
X47033087Y-46451736D01*
X47015495Y-46363296D01*
X47003901Y-46335305D01*
X46955155Y-46217620D01*
X46955148Y-46217607D01*
X46867547Y-46086504D01*
X46867544Y-46086500D01*
X46756050Y-45975006D01*
X46756046Y-45975003D01*
X46624943Y-45887402D01*
X46624930Y-45887395D01*
X46537449Y-45851160D01*
X46479259Y-45827057D01*
X46479247Y-45827054D01*
X46324603Y-45796293D01*
X46324600Y-45796293D01*
X46166916Y-45796293D01*
X46166913Y-45796293D01*
X46012268Y-45827054D01*
X46012256Y-45827057D01*
X45866585Y-45887395D01*
X45866572Y-45887402D01*
X45735469Y-45975003D01*
X45735465Y-45975006D01*
X45623971Y-46086500D01*
X45623968Y-46086504D01*
X45536367Y-46217607D01*
X45536360Y-46217620D01*
X45476022Y-46363291D01*
X45476019Y-46363303D01*
X45445258Y-46517946D01*
X44109336Y-46517946D01*
X44109336Y-45742686D01*
X48563681Y-45742686D01*
X48563681Y-45900379D01*
X48594442Y-46055022D01*
X48594445Y-46055034D01*
X48654783Y-46200705D01*
X48654790Y-46200718D01*
X48742391Y-46331821D01*
X48742394Y-46331825D01*
X48853888Y-46443319D01*
X48853892Y-46443322D01*
X48984995Y-46530923D01*
X48985008Y-46530930D01*
X49130679Y-46591268D01*
X49130684Y-46591270D01*
X49285334Y-46622032D01*
X49285337Y-46622033D01*
X49285339Y-46622033D01*
X49443025Y-46622033D01*
X49443026Y-46622032D01*
X49597678Y-46591270D01*
X49743360Y-46530927D01*
X49746141Y-46529068D01*
X49750055Y-46526454D01*
X49750055Y-46526453D01*
X49874470Y-46443322D01*
X49985970Y-46331822D01*
X50073575Y-46200712D01*
X50133918Y-46055030D01*
X50164681Y-45900375D01*
X50164681Y-45742691D01*
X50164681Y-45742688D01*
X50164680Y-45742686D01*
X50151599Y-45676923D01*
X50133918Y-45588036D01*
X50111925Y-45534939D01*
X50073578Y-45442360D01*
X50073571Y-45442347D01*
X49985970Y-45311244D01*
X49985967Y-45311240D01*
X49874473Y-45199746D01*
X49874469Y-45199743D01*
X49743366Y-45112142D01*
X49743353Y-45112135D01*
X49597682Y-45051797D01*
X49597670Y-45051794D01*
X49443026Y-45021033D01*
X49443023Y-45021033D01*
X49285339Y-45021033D01*
X49285336Y-45021033D01*
X49130691Y-45051794D01*
X49130679Y-45051797D01*
X48985008Y-45112135D01*
X48984995Y-45112142D01*
X48853892Y-45199743D01*
X48853888Y-45199746D01*
X48742394Y-45311240D01*
X48742391Y-45311244D01*
X48654790Y-45442347D01*
X48654783Y-45442360D01*
X48594445Y-45588031D01*
X48594442Y-45588043D01*
X48563681Y-45742686D01*
X44109336Y-45742686D01*
X44109336Y-44834306D01*
X59134797Y-44834306D01*
X59134797Y-44991999D01*
X59165558Y-45146642D01*
X59165561Y-45146654D01*
X59225899Y-45292325D01*
X59225906Y-45292338D01*
X59313507Y-45423441D01*
X59313510Y-45423445D01*
X59425004Y-45534939D01*
X59425008Y-45534942D01*
X59556111Y-45622543D01*
X59556124Y-45622550D01*
X59701795Y-45682888D01*
X59701800Y-45682890D01*
X59856450Y-45713652D01*
X59856453Y-45713653D01*
X59856455Y-45713653D01*
X60014141Y-45713653D01*
X60014142Y-45713652D01*
X60168794Y-45682890D01*
X60314476Y-45622547D01*
X60445586Y-45534942D01*
X60557086Y-45423442D01*
X60644691Y-45292332D01*
X60705034Y-45146650D01*
X60735797Y-44991995D01*
X60735797Y-44834311D01*
X60735797Y-44834308D01*
X60735796Y-44834306D01*
X60730164Y-44805991D01*
X60705034Y-44679656D01*
X60696080Y-44658039D01*
X60644694Y-44533980D01*
X60644687Y-44533967D01*
X60557086Y-44402864D01*
X60557083Y-44402860D01*
X60445589Y-44291366D01*
X60445585Y-44291363D01*
X60314482Y-44203762D01*
X60314469Y-44203755D01*
X60168798Y-44143417D01*
X60168786Y-44143414D01*
X60014142Y-44112653D01*
X60014139Y-44112653D01*
X59856455Y-44112653D01*
X59856452Y-44112653D01*
X59701807Y-44143414D01*
X59701795Y-44143417D01*
X59556124Y-44203755D01*
X59556111Y-44203762D01*
X59425008Y-44291363D01*
X59425004Y-44291366D01*
X59313510Y-44402860D01*
X59313507Y-44402864D01*
X59225906Y-44533967D01*
X59225899Y-44533980D01*
X59165561Y-44679651D01*
X59165558Y-44679663D01*
X59134797Y-44834306D01*
X44109336Y-44834306D01*
X44109336Y-43673932D01*
X48703291Y-43673932D01*
X48703291Y-43831625D01*
X48734052Y-43986268D01*
X48734055Y-43986280D01*
X48794393Y-44131951D01*
X48794400Y-44131964D01*
X48882001Y-44263067D01*
X48882004Y-44263071D01*
X48993498Y-44374565D01*
X48993502Y-44374568D01*
X49124605Y-44462169D01*
X49124618Y-44462176D01*
X49270289Y-44522514D01*
X49270294Y-44522516D01*
X49424944Y-44553278D01*
X49424947Y-44553279D01*
X49424949Y-44553279D01*
X49582635Y-44553279D01*
X49582636Y-44553278D01*
X49737288Y-44522516D01*
X49882970Y-44462173D01*
X50014080Y-44374568D01*
X50125580Y-44263068D01*
X50213185Y-44131958D01*
X50273528Y-43986276D01*
X50279271Y-43957406D01*
X76389500Y-43957406D01*
X76389500Y-44115099D01*
X76420261Y-44269742D01*
X76420264Y-44269754D01*
X76480602Y-44415425D01*
X76480609Y-44415438D01*
X76568210Y-44546541D01*
X76568213Y-44546545D01*
X76679707Y-44658039D01*
X76679711Y-44658042D01*
X76810814Y-44745643D01*
X76810827Y-44745650D01*
X76956498Y-44805988D01*
X76956503Y-44805990D01*
X77111153Y-44836752D01*
X77111156Y-44836753D01*
X77111158Y-44836753D01*
X77268844Y-44836753D01*
X77268845Y-44836752D01*
X77311130Y-44828341D01*
X78812519Y-44828341D01*
X78812519Y-44986034D01*
X78843280Y-45140677D01*
X78843283Y-45140689D01*
X78903621Y-45286360D01*
X78903628Y-45286373D01*
X78991229Y-45417476D01*
X78991232Y-45417480D01*
X79102726Y-45528974D01*
X79102730Y-45528977D01*
X79233833Y-45616578D01*
X79233846Y-45616585D01*
X79379517Y-45676923D01*
X79379522Y-45676925D01*
X79534172Y-45707687D01*
X79534175Y-45707688D01*
X79534177Y-45707688D01*
X79691863Y-45707688D01*
X79691864Y-45707687D01*
X79846516Y-45676925D01*
X79932878Y-45641153D01*
X88099500Y-45641153D01*
X88099500Y-45798846D01*
X88130261Y-45953489D01*
X88130264Y-45953501D01*
X88190602Y-46099172D01*
X88190609Y-46099185D01*
X88278210Y-46230288D01*
X88278213Y-46230292D01*
X88389707Y-46341786D01*
X88389711Y-46341789D01*
X88520814Y-46429390D01*
X88520827Y-46429397D01*
X88645383Y-46480989D01*
X88666503Y-46489737D01*
X88821153Y-46520499D01*
X88821156Y-46520500D01*
X88821158Y-46520500D01*
X88978844Y-46520500D01*
X88978845Y-46520499D01*
X89133497Y-46489737D01*
X89279179Y-46429394D01*
X89410289Y-46341789D01*
X89521789Y-46230289D01*
X89609394Y-46099179D01*
X89669737Y-45953497D01*
X89700500Y-45798842D01*
X89700500Y-45641158D01*
X89700500Y-45641155D01*
X89700499Y-45641153D01*
X89689932Y-45588031D01*
X89669737Y-45486503D01*
X89643618Y-45423445D01*
X89609397Y-45340827D01*
X89609390Y-45340814D01*
X89521789Y-45209711D01*
X89521786Y-45209707D01*
X89410292Y-45098213D01*
X89410288Y-45098210D01*
X89279185Y-45010609D01*
X89279172Y-45010602D01*
X89133501Y-44950264D01*
X89133489Y-44950261D01*
X88978845Y-44919500D01*
X88978842Y-44919500D01*
X88821158Y-44919500D01*
X88821155Y-44919500D01*
X88666510Y-44950261D01*
X88666498Y-44950264D01*
X88520827Y-45010602D01*
X88520814Y-45010609D01*
X88389711Y-45098210D01*
X88389707Y-45098213D01*
X88278213Y-45209707D01*
X88278210Y-45209711D01*
X88190609Y-45340814D01*
X88190602Y-45340827D01*
X88130264Y-45486498D01*
X88130261Y-45486510D01*
X88099500Y-45641153D01*
X79932878Y-45641153D01*
X79992198Y-45616582D01*
X80114381Y-45534942D01*
X80118838Y-45531964D01*
X80118839Y-45531963D01*
X80123308Y-45528977D01*
X80234808Y-45417477D01*
X80322413Y-45286367D01*
X80382756Y-45140685D01*
X80413519Y-44986030D01*
X80413519Y-44828346D01*
X80413519Y-44828343D01*
X80413518Y-44828341D01*
X80409072Y-44805988D01*
X80382756Y-44673691D01*
X80376273Y-44658039D01*
X80322416Y-44528015D01*
X80322409Y-44528002D01*
X80234808Y-44396899D01*
X80234805Y-44396895D01*
X80123311Y-44285401D01*
X80123307Y-44285398D01*
X79992204Y-44197797D01*
X79992191Y-44197790D01*
X79846520Y-44137452D01*
X79846508Y-44137449D01*
X79691864Y-44106688D01*
X79691861Y-44106688D01*
X79534177Y-44106688D01*
X79534174Y-44106688D01*
X79379529Y-44137449D01*
X79379517Y-44137452D01*
X79233846Y-44197790D01*
X79233833Y-44197797D01*
X79102730Y-44285398D01*
X79102726Y-44285401D01*
X78991232Y-44396895D01*
X78991229Y-44396899D01*
X78903628Y-44528002D01*
X78903621Y-44528015D01*
X78843283Y-44673686D01*
X78843280Y-44673698D01*
X78812519Y-44828341D01*
X77311130Y-44828341D01*
X77423497Y-44805990D01*
X77569179Y-44745647D01*
X77700289Y-44658042D01*
X77811789Y-44546542D01*
X77899394Y-44415432D01*
X77904602Y-44402860D01*
X77950784Y-44291364D01*
X77959737Y-44269750D01*
X77990500Y-44115095D01*
X77990500Y-43957411D01*
X77990500Y-43957408D01*
X77990499Y-43957406D01*
X77965479Y-43831623D01*
X77959737Y-43802756D01*
X77906377Y-43673932D01*
X77899397Y-43657080D01*
X77899390Y-43657067D01*
X77811789Y-43525964D01*
X77811786Y-43525960D01*
X77700292Y-43414466D01*
X77700288Y-43414463D01*
X77569185Y-43326862D01*
X77569172Y-43326855D01*
X77423501Y-43266517D01*
X77423489Y-43266514D01*
X77268845Y-43235753D01*
X77268842Y-43235753D01*
X77111158Y-43235753D01*
X77111155Y-43235753D01*
X76956510Y-43266514D01*
X76956498Y-43266517D01*
X76810827Y-43326855D01*
X76810814Y-43326862D01*
X76679711Y-43414463D01*
X76679707Y-43414466D01*
X76568213Y-43525960D01*
X76568210Y-43525964D01*
X76480609Y-43657067D01*
X76480602Y-43657080D01*
X76420264Y-43802751D01*
X76420261Y-43802763D01*
X76389500Y-43957406D01*
X50279271Y-43957406D01*
X50304291Y-43831621D01*
X50304291Y-43673937D01*
X50304291Y-43673934D01*
X50304290Y-43673932D01*
X50273529Y-43519289D01*
X50273528Y-43519282D01*
X50270849Y-43512814D01*
X50213188Y-43373606D01*
X50213181Y-43373593D01*
X50125580Y-43242490D01*
X50125577Y-43242486D01*
X50014083Y-43130992D01*
X50014079Y-43130989D01*
X49882976Y-43043388D01*
X49882963Y-43043381D01*
X49737292Y-42983043D01*
X49737280Y-42983040D01*
X49582636Y-42952279D01*
X49582633Y-42952279D01*
X49424949Y-42952279D01*
X49424946Y-42952279D01*
X49270301Y-42983040D01*
X49270289Y-42983043D01*
X49124618Y-43043381D01*
X49124605Y-43043388D01*
X48993502Y-43130989D01*
X48993498Y-43130992D01*
X48882004Y-43242486D01*
X48882001Y-43242490D01*
X48794400Y-43373593D01*
X48794393Y-43373606D01*
X48734055Y-43519277D01*
X48734052Y-43519289D01*
X48703291Y-43673932D01*
X44109336Y-43673932D01*
X44109336Y-42664229D01*
X82582576Y-42664229D01*
X82582576Y-42821922D01*
X82613337Y-42976565D01*
X82613340Y-42976577D01*
X82673678Y-43122248D01*
X82673685Y-43122261D01*
X82761286Y-43253364D01*
X82761289Y-43253368D01*
X82872783Y-43364862D01*
X82872787Y-43364865D01*
X83003890Y-43452466D01*
X83003903Y-43452473D01*
X83149574Y-43512811D01*
X83149579Y-43512813D01*
X83304229Y-43543575D01*
X83304232Y-43543576D01*
X83304234Y-43543576D01*
X83461920Y-43543576D01*
X83461921Y-43543575D01*
X83616573Y-43512813D01*
X83762255Y-43452470D01*
X83893365Y-43364865D01*
X84004865Y-43253365D01*
X84092470Y-43122255D01*
X84092471Y-43122252D01*
X84092473Y-43122249D01*
X84144611Y-42996374D01*
X84188451Y-42941970D01*
X84254745Y-42919905D01*
X84306624Y-42929265D01*
X84420818Y-42976565D01*
X84444557Y-42986398D01*
X84599207Y-43017160D01*
X84599210Y-43017161D01*
X84599212Y-43017161D01*
X84756898Y-43017161D01*
X84756899Y-43017160D01*
X84911551Y-42986398D01*
X85024220Y-42939728D01*
X85057226Y-42926058D01*
X85057226Y-42926057D01*
X85057233Y-42926055D01*
X85188343Y-42838450D01*
X85299843Y-42726950D01*
X85387448Y-42595840D01*
X85447791Y-42450158D01*
X85478554Y-42295503D01*
X85478554Y-42137819D01*
X85478554Y-42137816D01*
X85478553Y-42137814D01*
X85459063Y-42039831D01*
X85447791Y-41983164D01*
X85400585Y-41869197D01*
X85387451Y-41837488D01*
X85387444Y-41837475D01*
X85299843Y-41706372D01*
X85299840Y-41706368D01*
X85188346Y-41594874D01*
X85188342Y-41594871D01*
X85057239Y-41507270D01*
X85057226Y-41507263D01*
X84911555Y-41446925D01*
X84911543Y-41446922D01*
X84756899Y-41416161D01*
X84756896Y-41416161D01*
X84599212Y-41416161D01*
X84599209Y-41416161D01*
X84444564Y-41446922D01*
X84444552Y-41446925D01*
X84298881Y-41507263D01*
X84298868Y-41507270D01*
X84167765Y-41594871D01*
X84167761Y-41594874D01*
X84056267Y-41706368D01*
X84056264Y-41706372D01*
X83968663Y-41837475D01*
X83968658Y-41837485D01*
X83916518Y-41963363D01*
X83872677Y-42017766D01*
X83806383Y-42039831D01*
X83754505Y-42030471D01*
X83616577Y-41973340D01*
X83616565Y-41973337D01*
X83461921Y-41942576D01*
X83461918Y-41942576D01*
X83304234Y-41942576D01*
X83304231Y-41942576D01*
X83149586Y-41973337D01*
X83149574Y-41973340D01*
X83003903Y-42033678D01*
X83003890Y-42033685D01*
X82872787Y-42121286D01*
X82872783Y-42121289D01*
X82761289Y-42232783D01*
X82761286Y-42232787D01*
X82673685Y-42363890D01*
X82673678Y-42363903D01*
X82613340Y-42509574D01*
X82613337Y-42509586D01*
X82582576Y-42664229D01*
X44109336Y-42664229D01*
X44109336Y-41532093D01*
X71888560Y-41532093D01*
X71888560Y-41689786D01*
X71919321Y-41844429D01*
X71919324Y-41844441D01*
X71979662Y-41990112D01*
X71979669Y-41990125D01*
X72067270Y-42121228D01*
X72067273Y-42121232D01*
X72178767Y-42232726D01*
X72178771Y-42232729D01*
X72309874Y-42320330D01*
X72309887Y-42320337D01*
X72455558Y-42380675D01*
X72455563Y-42380677D01*
X72610213Y-42411439D01*
X72610216Y-42411440D01*
X72610218Y-42411440D01*
X72767904Y-42411440D01*
X72767905Y-42411439D01*
X72922557Y-42380677D01*
X73068239Y-42320334D01*
X73199349Y-42232729D01*
X73310849Y-42121229D01*
X73398454Y-41990119D01*
X73405405Y-41973339D01*
X73458795Y-41844441D01*
X73458797Y-41844437D01*
X73489560Y-41689782D01*
X73489560Y-41532098D01*
X73489560Y-41532095D01*
X73489559Y-41532093D01*
X73471340Y-41440500D01*
X73458797Y-41377443D01*
X73410891Y-41261786D01*
X73398457Y-41231767D01*
X73398450Y-41231754D01*
X73310849Y-41100651D01*
X73310846Y-41100647D01*
X73199352Y-40989153D01*
X73199348Y-40989150D01*
X73068245Y-40901549D01*
X73068232Y-40901542D01*
X72922561Y-40841204D01*
X72922549Y-40841201D01*
X72767905Y-40810440D01*
X72767902Y-40810440D01*
X72610218Y-40810440D01*
X72610215Y-40810440D01*
X72455570Y-40841201D01*
X72455558Y-40841204D01*
X72309887Y-40901542D01*
X72309874Y-40901549D01*
X72178771Y-40989150D01*
X72178767Y-40989153D01*
X72067273Y-41100647D01*
X72067270Y-41100651D01*
X71979669Y-41231754D01*
X71979662Y-41231767D01*
X71919324Y-41377438D01*
X71919321Y-41377450D01*
X71888560Y-41532093D01*
X44109336Y-41532093D01*
X44109336Y-40561153D01*
X60159500Y-40561153D01*
X60159500Y-40718846D01*
X60190261Y-40873489D01*
X60190264Y-40873501D01*
X60250602Y-41019172D01*
X60250609Y-41019185D01*
X60338210Y-41150288D01*
X60338213Y-41150292D01*
X60449707Y-41261786D01*
X60449711Y-41261789D01*
X60580814Y-41349390D01*
X60580827Y-41349397D01*
X60716042Y-41405404D01*
X60726503Y-41409737D01*
X60881153Y-41440499D01*
X60881156Y-41440500D01*
X60881158Y-41440500D01*
X61038844Y-41440500D01*
X61038845Y-41440499D01*
X61193497Y-41409737D01*
X61339179Y-41349394D01*
X61470289Y-41261789D01*
X61581789Y-41150289D01*
X61669394Y-41019179D01*
X61729737Y-40873497D01*
X61760500Y-40718842D01*
X61760500Y-40561158D01*
X61760500Y-40561155D01*
X61760499Y-40561153D01*
X61729738Y-40406510D01*
X61729737Y-40406503D01*
X61703611Y-40343429D01*
X61669397Y-40260827D01*
X61669390Y-40260814D01*
X61581789Y-40129711D01*
X61581786Y-40129707D01*
X61470292Y-40018213D01*
X61470288Y-40018210D01*
X61339185Y-39930609D01*
X61339172Y-39930602D01*
X61193501Y-39870264D01*
X61193489Y-39870261D01*
X61038845Y-39839500D01*
X61038842Y-39839500D01*
X60881158Y-39839500D01*
X60881155Y-39839500D01*
X60726510Y-39870261D01*
X60726498Y-39870264D01*
X60580827Y-39930602D01*
X60580814Y-39930609D01*
X60449711Y-40018210D01*
X60449707Y-40018213D01*
X60338213Y-40129707D01*
X60338210Y-40129711D01*
X60250609Y-40260814D01*
X60250602Y-40260827D01*
X60190264Y-40406498D01*
X60190261Y-40406510D01*
X60159500Y-40561153D01*
X44109336Y-40561153D01*
X44109336Y-38626288D01*
X51048801Y-38626288D01*
X51048801Y-38783981D01*
X51079562Y-38938624D01*
X51079565Y-38938636D01*
X51139903Y-39084307D01*
X51139910Y-39084320D01*
X51227511Y-39215423D01*
X51227514Y-39215427D01*
X51339008Y-39326921D01*
X51339012Y-39326924D01*
X51470115Y-39414525D01*
X51470128Y-39414532D01*
X51612653Y-39473567D01*
X51615804Y-39474872D01*
X51770454Y-39505634D01*
X51770457Y-39505635D01*
X51770459Y-39505635D01*
X51928145Y-39505635D01*
X52049622Y-39481471D01*
X52082798Y-39474872D01*
X52082798Y-39474871D01*
X52083637Y-39474705D01*
X52153229Y-39480932D01*
X52208406Y-39523795D01*
X52222390Y-39548869D01*
X52283142Y-39695539D01*
X52283147Y-39695548D01*
X52370748Y-39826651D01*
X52370751Y-39826655D01*
X52482245Y-39938149D01*
X52482249Y-39938152D01*
X52613352Y-40025753D01*
X52613365Y-40025760D01*
X52759036Y-40086098D01*
X52759041Y-40086100D01*
X52913691Y-40116862D01*
X52913694Y-40116863D01*
X52913696Y-40116863D01*
X53071382Y-40116863D01*
X53071383Y-40116862D01*
X53226035Y-40086100D01*
X53371717Y-40025757D01*
X53502827Y-39938152D01*
X53614327Y-39826652D01*
X53701932Y-39695542D01*
X53762275Y-39549860D01*
X53793038Y-39395205D01*
X53793038Y-39237521D01*
X53793038Y-39237518D01*
X53793037Y-39237516D01*
X53762563Y-39084314D01*
X53762275Y-39082866D01*
X53762273Y-39082861D01*
X53701935Y-38937190D01*
X53701928Y-38937177D01*
X53614327Y-38806074D01*
X53614324Y-38806070D01*
X53502830Y-38694576D01*
X53502826Y-38694573D01*
X53371723Y-38606972D01*
X53371710Y-38606965D01*
X53226039Y-38546627D01*
X53226027Y-38546624D01*
X53071383Y-38515863D01*
X53071380Y-38515863D01*
X52913696Y-38515863D01*
X52913691Y-38515863D01*
X52758199Y-38546792D01*
X52688607Y-38540565D01*
X52633430Y-38497701D01*
X52619446Y-38472627D01*
X52619039Y-38471645D01*
X52619038Y-38471638D01*
X52558695Y-38325956D01*
X52558693Y-38325953D01*
X52558691Y-38325949D01*
X52471090Y-38194846D01*
X52471087Y-38194842D01*
X52359593Y-38083348D01*
X52359589Y-38083345D01*
X52228486Y-37995744D01*
X52228473Y-37995737D01*
X52082802Y-37935399D01*
X52082790Y-37935396D01*
X51928146Y-37904635D01*
X51928143Y-37904635D01*
X51770459Y-37904635D01*
X51770456Y-37904635D01*
X51615811Y-37935396D01*
X51615799Y-37935399D01*
X51470128Y-37995737D01*
X51470115Y-37995744D01*
X51339012Y-38083345D01*
X51339008Y-38083348D01*
X51227514Y-38194842D01*
X51227511Y-38194846D01*
X51139910Y-38325949D01*
X51139903Y-38325962D01*
X51079565Y-38471633D01*
X51079562Y-38471645D01*
X51048801Y-38626288D01*
X44109336Y-38626288D01*
X44109336Y-37221150D01*
X55879503Y-37221150D01*
X55879503Y-37378843D01*
X55910264Y-37533486D01*
X55910267Y-37533498D01*
X55970605Y-37679169D01*
X55970612Y-37679182D01*
X56058213Y-37810285D01*
X56058216Y-37810289D01*
X56169710Y-37921783D01*
X56169714Y-37921786D01*
X56300817Y-38009387D01*
X56300830Y-38009394D01*
X56398774Y-38049963D01*
X56446506Y-38069734D01*
X56601156Y-38100496D01*
X56601159Y-38100497D01*
X56601161Y-38100497D01*
X56758847Y-38100497D01*
X56758848Y-38100496D01*
X56913500Y-38069734D01*
X57059182Y-38009391D01*
X57190292Y-37921786D01*
X57301792Y-37810286D01*
X57389397Y-37679176D01*
X57399281Y-37655315D01*
X57440034Y-37556926D01*
X57449740Y-37533494D01*
X57480503Y-37378839D01*
X57480503Y-37221155D01*
X57480503Y-37221152D01*
X57480502Y-37221150D01*
X57463486Y-37135605D01*
X57449740Y-37066500D01*
X57418018Y-36989915D01*
X57389400Y-36920824D01*
X57389393Y-36920811D01*
X57301792Y-36789708D01*
X57301789Y-36789704D01*
X57190295Y-36678210D01*
X57190291Y-36678207D01*
X57189351Y-36677579D01*
X58223663Y-36677579D01*
X58223663Y-36835272D01*
X58254424Y-36989915D01*
X58254427Y-36989927D01*
X58314765Y-37135598D01*
X58314772Y-37135611D01*
X58402373Y-37266714D01*
X58402376Y-37266718D01*
X58513870Y-37378212D01*
X58513874Y-37378215D01*
X58644977Y-37465816D01*
X58644990Y-37465823D01*
X58785946Y-37524208D01*
X58790666Y-37526163D01*
X58945316Y-37556925D01*
X58945319Y-37556926D01*
X58945321Y-37556926D01*
X59103007Y-37556926D01*
X59103008Y-37556925D01*
X59257660Y-37526163D01*
X59403342Y-37465820D01*
X59534452Y-37378215D01*
X59645952Y-37266715D01*
X59733557Y-37135605D01*
X59793900Y-36989923D01*
X59824663Y-36835268D01*
X59824663Y-36677584D01*
X59824663Y-36677581D01*
X59824662Y-36677579D01*
X59793901Y-36522934D01*
X59793899Y-36522926D01*
X59783262Y-36497245D01*
X60147045Y-36497245D01*
X60147045Y-36654938D01*
X60177806Y-36809581D01*
X60177809Y-36809593D01*
X60238147Y-36955264D01*
X60238154Y-36955277D01*
X60325755Y-37086380D01*
X60325758Y-37086384D01*
X60437252Y-37197878D01*
X60437256Y-37197881D01*
X60498951Y-37239105D01*
X60543756Y-37292717D01*
X60552463Y-37362042D01*
X60522308Y-37425070D01*
X60498951Y-37445309D01*
X60449711Y-37478210D01*
X60449707Y-37478213D01*
X60338213Y-37589707D01*
X60338210Y-37589711D01*
X60250609Y-37720814D01*
X60250602Y-37720827D01*
X60190264Y-37866498D01*
X60190261Y-37866510D01*
X60159500Y-38021153D01*
X60159500Y-38178846D01*
X60190261Y-38333489D01*
X60190264Y-38333501D01*
X60250602Y-38479172D01*
X60250609Y-38479185D01*
X60338210Y-38610288D01*
X60338213Y-38610292D01*
X60449707Y-38721786D01*
X60449711Y-38721789D01*
X60580814Y-38809390D01*
X60580827Y-38809397D01*
X60726498Y-38869735D01*
X60726503Y-38869737D01*
X60881153Y-38900499D01*
X60881156Y-38900500D01*
X60881158Y-38900500D01*
X61038844Y-38900500D01*
X61038845Y-38900499D01*
X61193497Y-38869737D01*
X61339179Y-38809394D01*
X61470289Y-38721789D01*
X61581789Y-38610289D01*
X61669394Y-38479179D01*
X61729737Y-38333497D01*
X61760500Y-38178842D01*
X61760500Y-38021158D01*
X61760500Y-38021155D01*
X61760499Y-38021153D01*
X62699500Y-38021153D01*
X62699500Y-38178846D01*
X62730261Y-38333489D01*
X62730264Y-38333501D01*
X62790602Y-38479172D01*
X62790609Y-38479185D01*
X62878210Y-38610288D01*
X62878213Y-38610292D01*
X62989707Y-38721786D01*
X62989711Y-38721789D01*
X63120814Y-38809390D01*
X63120827Y-38809397D01*
X63266498Y-38869735D01*
X63266503Y-38869737D01*
X63421153Y-38900499D01*
X63421156Y-38900500D01*
X63421158Y-38900500D01*
X63578844Y-38900500D01*
X63578845Y-38900499D01*
X63733497Y-38869737D01*
X63879179Y-38809394D01*
X64010289Y-38721789D01*
X64121789Y-38610289D01*
X64209394Y-38479179D01*
X64269737Y-38333497D01*
X64300500Y-38178842D01*
X64300500Y-38021158D01*
X64300500Y-38021155D01*
X64291072Y-37973759D01*
X64291072Y-37973758D01*
X64287471Y-37955654D01*
X67094564Y-37955654D01*
X67094564Y-38113347D01*
X67125325Y-38267990D01*
X67125328Y-38268002D01*
X67185666Y-38413673D01*
X67185673Y-38413686D01*
X67273274Y-38544789D01*
X67273277Y-38544793D01*
X67384771Y-38656287D01*
X67384775Y-38656290D01*
X67515878Y-38743891D01*
X67515891Y-38743898D01*
X67661562Y-38804236D01*
X67661567Y-38804238D01*
X67816217Y-38835000D01*
X67816220Y-38835001D01*
X67816222Y-38835001D01*
X67973908Y-38835001D01*
X67973909Y-38835000D01*
X68128561Y-38804238D01*
X68207318Y-38771616D01*
X83892186Y-38771616D01*
X83892186Y-38929309D01*
X83922947Y-39083952D01*
X83922950Y-39083964D01*
X83983288Y-39229635D01*
X83983295Y-39229648D01*
X84070896Y-39360751D01*
X84070899Y-39360755D01*
X84182393Y-39472249D01*
X84182397Y-39472252D01*
X84313500Y-39559853D01*
X84313513Y-39559860D01*
X84417997Y-39603138D01*
X84459189Y-39620200D01*
X84613839Y-39650962D01*
X84613842Y-39650963D01*
X84613844Y-39650963D01*
X84771530Y-39650963D01*
X84771531Y-39650962D01*
X84926183Y-39620200D01*
X85071865Y-39559857D01*
X85202975Y-39472252D01*
X85314475Y-39360752D01*
X85402080Y-39229642D01*
X85462423Y-39083960D01*
X85493186Y-38929305D01*
X85493186Y-38771621D01*
X85493186Y-38771618D01*
X85493185Y-38771616D01*
X85462423Y-38616966D01*
X85458282Y-38606969D01*
X85402083Y-38471290D01*
X85402076Y-38471277D01*
X85314475Y-38340174D01*
X85314472Y-38340170D01*
X85202978Y-38228676D01*
X85202974Y-38228673D01*
X85071871Y-38141072D01*
X85071858Y-38141065D01*
X84926187Y-38080727D01*
X84926175Y-38080724D01*
X84771531Y-38049963D01*
X84771528Y-38049963D01*
X84613844Y-38049963D01*
X84613841Y-38049963D01*
X84459196Y-38080724D01*
X84459184Y-38080727D01*
X84313513Y-38141065D01*
X84313500Y-38141072D01*
X84182397Y-38228673D01*
X84182393Y-38228676D01*
X84070899Y-38340170D01*
X84070896Y-38340174D01*
X83983295Y-38471277D01*
X83983288Y-38471290D01*
X83922950Y-38616961D01*
X83922947Y-38616973D01*
X83892186Y-38771616D01*
X68207318Y-38771616D01*
X68274243Y-38743895D01*
X68307327Y-38721789D01*
X68396169Y-38662427D01*
X68399817Y-38659988D01*
X68405353Y-38656290D01*
X68516853Y-38544790D01*
X68604458Y-38413680D01*
X68664801Y-38267998D01*
X68695564Y-38113343D01*
X68695564Y-37955659D01*
X68695564Y-37955656D01*
X68695563Y-37955654D01*
X68688826Y-37921783D01*
X68664801Y-37801004D01*
X68631591Y-37720827D01*
X68604461Y-37655328D01*
X68604454Y-37655315D01*
X68516853Y-37524212D01*
X68516850Y-37524208D01*
X68405356Y-37412714D01*
X68405352Y-37412711D01*
X68274249Y-37325110D01*
X68274236Y-37325103D01*
X68128565Y-37264765D01*
X68128553Y-37264762D01*
X67973909Y-37234001D01*
X67973906Y-37234001D01*
X67816222Y-37234001D01*
X67816219Y-37234001D01*
X67661574Y-37264762D01*
X67661562Y-37264765D01*
X67515891Y-37325103D01*
X67515878Y-37325110D01*
X67384775Y-37412711D01*
X67384771Y-37412714D01*
X67273277Y-37524208D01*
X67273274Y-37524212D01*
X67185673Y-37655315D01*
X67185666Y-37655328D01*
X67125328Y-37800999D01*
X67125325Y-37801011D01*
X67094564Y-37955654D01*
X64287471Y-37955654D01*
X64269738Y-37866510D01*
X64269737Y-37866503D01*
X64246453Y-37810289D01*
X64209397Y-37720827D01*
X64209390Y-37720814D01*
X64121789Y-37589711D01*
X64121786Y-37589707D01*
X64010292Y-37478213D01*
X64010288Y-37478210D01*
X63879185Y-37390609D01*
X63879172Y-37390602D01*
X63733501Y-37330264D01*
X63733489Y-37330261D01*
X63578845Y-37299500D01*
X63578842Y-37299500D01*
X63421158Y-37299500D01*
X63421155Y-37299500D01*
X63266510Y-37330261D01*
X63266498Y-37330264D01*
X63120827Y-37390602D01*
X63120814Y-37390609D01*
X62989711Y-37478210D01*
X62989707Y-37478213D01*
X62878213Y-37589707D01*
X62878210Y-37589711D01*
X62790609Y-37720814D01*
X62790602Y-37720827D01*
X62730264Y-37866498D01*
X62730261Y-37866510D01*
X62699500Y-38021153D01*
X61760499Y-38021153D01*
X61743441Y-37935396D01*
X61729737Y-37866503D01*
X61706453Y-37810289D01*
X61669397Y-37720827D01*
X61669390Y-37720814D01*
X61581789Y-37589711D01*
X61581786Y-37589707D01*
X61470292Y-37478213D01*
X61470288Y-37478210D01*
X61408593Y-37436986D01*
X61363788Y-37383373D01*
X61355081Y-37314048D01*
X61385236Y-37251021D01*
X61408592Y-37230783D01*
X61457834Y-37197881D01*
X61569334Y-37086381D01*
X61656939Y-36955271D01*
X61717282Y-36809589D01*
X61748045Y-36654934D01*
X61748045Y-36497250D01*
X61748045Y-36497247D01*
X61748044Y-36497245D01*
X61731072Y-36411921D01*
X61717282Y-36342595D01*
X61717280Y-36342590D01*
X61656942Y-36196919D01*
X61656935Y-36196906D01*
X61569334Y-36065803D01*
X61569331Y-36065799D01*
X61457837Y-35954305D01*
X61457833Y-35954302D01*
X61326730Y-35866701D01*
X61326717Y-35866694D01*
X61181046Y-35806356D01*
X61181034Y-35806353D01*
X61026390Y-35775592D01*
X61026387Y-35775592D01*
X60868703Y-35775592D01*
X60868700Y-35775592D01*
X60714055Y-35806353D01*
X60714043Y-35806356D01*
X60568372Y-35866694D01*
X60568359Y-35866701D01*
X60437256Y-35954302D01*
X60437252Y-35954305D01*
X60325758Y-36065799D01*
X60325755Y-36065803D01*
X60238154Y-36196906D01*
X60238147Y-36196919D01*
X60177809Y-36342590D01*
X60177806Y-36342602D01*
X60147045Y-36497245D01*
X59783262Y-36497245D01*
X59733560Y-36377253D01*
X59733553Y-36377240D01*
X59645952Y-36246137D01*
X59645949Y-36246133D01*
X59534455Y-36134639D01*
X59534451Y-36134636D01*
X59403348Y-36047035D01*
X59403335Y-36047028D01*
X59257664Y-35986690D01*
X59257652Y-35986687D01*
X59103008Y-35955926D01*
X59103005Y-35955926D01*
X58945321Y-35955926D01*
X58945318Y-35955926D01*
X58790673Y-35986687D01*
X58790661Y-35986690D01*
X58644990Y-36047028D01*
X58644977Y-36047035D01*
X58513874Y-36134636D01*
X58513870Y-36134639D01*
X58402376Y-36246133D01*
X58402373Y-36246137D01*
X58314772Y-36377240D01*
X58314765Y-36377253D01*
X58254427Y-36522924D01*
X58254424Y-36522936D01*
X58223663Y-36677579D01*
X57189351Y-36677579D01*
X57059188Y-36590606D01*
X57059175Y-36590599D01*
X56913504Y-36530261D01*
X56913492Y-36530258D01*
X56758848Y-36499497D01*
X56758845Y-36499497D01*
X56601161Y-36499497D01*
X56601158Y-36499497D01*
X56446513Y-36530258D01*
X56446501Y-36530261D01*
X56300830Y-36590599D01*
X56300817Y-36590606D01*
X56169714Y-36678207D01*
X56169710Y-36678210D01*
X56058216Y-36789704D01*
X56058213Y-36789708D01*
X55970612Y-36920811D01*
X55970605Y-36920824D01*
X55910267Y-37066495D01*
X55910264Y-37066507D01*
X55879503Y-37221150D01*
X44109336Y-37221150D01*
X44109336Y-35481153D01*
X52539500Y-35481153D01*
X52539500Y-35638846D01*
X52570261Y-35793489D01*
X52570264Y-35793501D01*
X52630602Y-35939172D01*
X52630609Y-35939185D01*
X52718210Y-36070288D01*
X52718213Y-36070292D01*
X52829707Y-36181786D01*
X52829711Y-36181789D01*
X52960814Y-36269390D01*
X52960827Y-36269397D01*
X53106498Y-36329735D01*
X53106503Y-36329737D01*
X53261153Y-36360499D01*
X53261156Y-36360500D01*
X53261158Y-36360500D01*
X53418844Y-36360500D01*
X53418845Y-36360499D01*
X53573497Y-36329737D01*
X53719179Y-36269394D01*
X53850289Y-36181789D01*
X53961789Y-36070289D01*
X54049394Y-35939179D01*
X54109737Y-35793497D01*
X54140500Y-35638842D01*
X54140500Y-35481158D01*
X54140500Y-35481155D01*
X54140499Y-35481153D01*
X54109740Y-35326514D01*
X54109735Y-35326498D01*
X54101691Y-35307077D01*
X54905424Y-35307077D01*
X54905424Y-35464770D01*
X54936185Y-35619413D01*
X54936188Y-35619425D01*
X54996526Y-35765096D01*
X54996533Y-35765109D01*
X55084134Y-35896212D01*
X55084137Y-35896216D01*
X55195631Y-36007710D01*
X55195635Y-36007713D01*
X55326738Y-36095314D01*
X55326751Y-36095321D01*
X55464728Y-36152472D01*
X55472427Y-36155661D01*
X55627077Y-36186423D01*
X55627080Y-36186424D01*
X55627082Y-36186424D01*
X55784768Y-36186424D01*
X55784769Y-36186423D01*
X55939421Y-36155661D01*
X56085103Y-36095318D01*
X56216213Y-36007713D01*
X56327713Y-35896213D01*
X56415318Y-35765103D01*
X56475661Y-35619421D01*
X56486817Y-35563336D01*
X70319500Y-35563336D01*
X70319500Y-35721029D01*
X70350261Y-35875672D01*
X70350264Y-35875684D01*
X70410602Y-36021355D01*
X70410609Y-36021368D01*
X70498210Y-36152471D01*
X70498213Y-36152475D01*
X70609707Y-36263969D01*
X70609711Y-36263972D01*
X70740814Y-36351573D01*
X70740827Y-36351580D01*
X70886498Y-36411918D01*
X70886503Y-36411920D01*
X71041153Y-36442682D01*
X71041156Y-36442683D01*
X71041158Y-36442683D01*
X71198844Y-36442683D01*
X71198845Y-36442682D01*
X71353497Y-36411920D01*
X71499179Y-36351577D01*
X71630289Y-36263972D01*
X71741789Y-36152472D01*
X71829394Y-36021362D01*
X71889737Y-35875680D01*
X71920500Y-35721025D01*
X71920500Y-35563341D01*
X71920500Y-35563338D01*
X71907753Y-35499258D01*
X71907753Y-35499257D01*
X71904152Y-35481153D01*
X83019500Y-35481153D01*
X83019500Y-35638846D01*
X83050261Y-35793489D01*
X83050264Y-35793501D01*
X83110602Y-35939172D01*
X83110609Y-35939185D01*
X83198210Y-36070288D01*
X83198213Y-36070292D01*
X83309707Y-36181786D01*
X83309711Y-36181789D01*
X83440814Y-36269390D01*
X83440827Y-36269397D01*
X83586498Y-36329735D01*
X83586503Y-36329737D01*
X83741153Y-36360499D01*
X83741156Y-36360500D01*
X83741158Y-36360500D01*
X83898844Y-36360500D01*
X83898845Y-36360499D01*
X84053497Y-36329737D01*
X84199179Y-36269394D01*
X84330289Y-36181789D01*
X84441789Y-36070289D01*
X84529394Y-35939179D01*
X84589737Y-35793497D01*
X84620500Y-35638842D01*
X84620500Y-35481158D01*
X84620500Y-35481155D01*
X84620499Y-35481153D01*
X84606083Y-35408681D01*
X84589737Y-35326503D01*
X84581693Y-35307082D01*
X84529397Y-35180827D01*
X84529390Y-35180814D01*
X84441789Y-35049711D01*
X84441786Y-35049707D01*
X84330292Y-34938213D01*
X84330288Y-34938210D01*
X84235251Y-34874708D01*
X90517393Y-34874708D01*
X90517393Y-35032401D01*
X90548154Y-35187044D01*
X90548157Y-35187056D01*
X90608495Y-35332727D01*
X90608502Y-35332740D01*
X90696103Y-35463843D01*
X90696106Y-35463847D01*
X90807600Y-35575341D01*
X90807604Y-35575344D01*
X90938707Y-35662945D01*
X90938720Y-35662952D01*
X91084391Y-35723290D01*
X91084396Y-35723292D01*
X91239046Y-35754054D01*
X91239049Y-35754055D01*
X91239051Y-35754055D01*
X91396737Y-35754055D01*
X91396738Y-35754054D01*
X91551390Y-35723292D01*
X91697072Y-35662949D01*
X91828182Y-35575344D01*
X91939682Y-35463844D01*
X92027287Y-35332734D01*
X92087630Y-35187052D01*
X92118393Y-35032397D01*
X92118393Y-34874713D01*
X92118393Y-34874710D01*
X92118392Y-34874708D01*
X92096398Y-34764137D01*
X92087630Y-34720058D01*
X92082148Y-34706824D01*
X92027290Y-34574382D01*
X92027283Y-34574369D01*
X91939682Y-34443266D01*
X91939679Y-34443262D01*
X91828185Y-34331768D01*
X91828181Y-34331765D01*
X91697078Y-34244164D01*
X91697065Y-34244157D01*
X91551394Y-34183819D01*
X91551382Y-34183816D01*
X91396738Y-34153055D01*
X91396735Y-34153055D01*
X91239051Y-34153055D01*
X91239048Y-34153055D01*
X91084403Y-34183816D01*
X91084391Y-34183819D01*
X90938720Y-34244157D01*
X90938707Y-34244164D01*
X90807604Y-34331765D01*
X90807600Y-34331768D01*
X90696106Y-34443262D01*
X90696103Y-34443266D01*
X90608502Y-34574369D01*
X90608495Y-34574382D01*
X90548157Y-34720053D01*
X90548154Y-34720065D01*
X90517393Y-34874708D01*
X84235251Y-34874708D01*
X84199185Y-34850609D01*
X84199172Y-34850602D01*
X84053501Y-34790264D01*
X84053489Y-34790261D01*
X83898845Y-34759500D01*
X83898842Y-34759500D01*
X83741158Y-34759500D01*
X83741155Y-34759500D01*
X83586510Y-34790261D01*
X83586498Y-34790264D01*
X83440827Y-34850602D01*
X83440814Y-34850609D01*
X83309711Y-34938210D01*
X83309707Y-34938213D01*
X83198213Y-35049707D01*
X83198210Y-35049711D01*
X83110609Y-35180814D01*
X83110602Y-35180827D01*
X83050264Y-35326498D01*
X83050261Y-35326510D01*
X83019500Y-35481153D01*
X71904152Y-35481153D01*
X71889738Y-35408693D01*
X71889737Y-35408686D01*
X71889735Y-35408681D01*
X71829397Y-35263010D01*
X71829390Y-35262997D01*
X71741789Y-35131894D01*
X71741786Y-35131890D01*
X71627108Y-35017212D01*
X71593623Y-34955889D01*
X71598607Y-34886197D01*
X71640479Y-34830264D01*
X71690598Y-34807914D01*
X71733884Y-34799303D01*
X71779307Y-34790268D01*
X71924989Y-34729925D01*
X72056099Y-34642320D01*
X72167599Y-34530820D01*
X72255204Y-34399710D01*
X72262121Y-34383012D01*
X72283347Y-34331766D01*
X72315547Y-34254028D01*
X72346310Y-34099373D01*
X72346310Y-33941689D01*
X72346310Y-33941686D01*
X72346309Y-33941684D01*
X72322395Y-33821462D01*
X72315547Y-33787034D01*
X72291672Y-33729394D01*
X72255207Y-33641358D01*
X72255200Y-33641345D01*
X72167599Y-33510242D01*
X72167596Y-33510238D01*
X72056102Y-33398744D01*
X72056098Y-33398741D01*
X71924995Y-33311140D01*
X71924982Y-33311133D01*
X71779311Y-33250795D01*
X71779299Y-33250792D01*
X71624655Y-33220031D01*
X71624652Y-33220031D01*
X71466968Y-33220031D01*
X71466965Y-33220031D01*
X71312320Y-33250792D01*
X71312308Y-33250795D01*
X71166637Y-33311133D01*
X71166624Y-33311140D01*
X71035521Y-33398741D01*
X71035517Y-33398744D01*
X70924023Y-33510238D01*
X70924020Y-33510242D01*
X70836419Y-33641345D01*
X70836412Y-33641358D01*
X70776074Y-33787029D01*
X70776071Y-33787041D01*
X70745310Y-33941684D01*
X70745310Y-34099377D01*
X70776071Y-34254020D01*
X70776074Y-34254032D01*
X70836412Y-34399703D01*
X70836419Y-34399716D01*
X70924020Y-34530819D01*
X70924023Y-34530823D01*
X71038701Y-34645501D01*
X71072186Y-34706824D01*
X71067202Y-34776516D01*
X71025330Y-34832449D01*
X70975213Y-34854799D01*
X70886507Y-34872444D01*
X70886498Y-34872447D01*
X70740827Y-34932785D01*
X70740814Y-34932792D01*
X70609711Y-35020393D01*
X70609707Y-35020396D01*
X70498213Y-35131890D01*
X70498210Y-35131894D01*
X70410609Y-35262997D01*
X70410602Y-35263010D01*
X70350264Y-35408681D01*
X70350261Y-35408693D01*
X70319500Y-35563336D01*
X56486817Y-35563336D01*
X56499563Y-35499257D01*
X56506424Y-35464768D01*
X56506424Y-35307079D01*
X56506423Y-35307077D01*
X56482548Y-35187052D01*
X56475661Y-35152427D01*
X56455879Y-35104668D01*
X56415321Y-35006751D01*
X56415314Y-35006738D01*
X56327713Y-34875635D01*
X56327710Y-34875631D01*
X56216216Y-34764137D01*
X56216212Y-34764134D01*
X56085109Y-34676533D01*
X56085096Y-34676526D01*
X55939425Y-34616188D01*
X55939413Y-34616185D01*
X55784769Y-34585424D01*
X55784766Y-34585424D01*
X55627082Y-34585424D01*
X55627079Y-34585424D01*
X55472434Y-34616185D01*
X55472422Y-34616188D01*
X55326751Y-34676526D01*
X55326738Y-34676533D01*
X55195635Y-34764134D01*
X55195631Y-34764137D01*
X55084137Y-34875631D01*
X55084134Y-34875635D01*
X54996533Y-35006738D01*
X54996526Y-35006751D01*
X54936188Y-35152422D01*
X54936185Y-35152434D01*
X54905424Y-35307077D01*
X54101691Y-35307077D01*
X54049397Y-35180827D01*
X54049390Y-35180814D01*
X53961789Y-35049711D01*
X53961786Y-35049707D01*
X53850292Y-34938213D01*
X53850288Y-34938210D01*
X53719185Y-34850609D01*
X53719172Y-34850602D01*
X53573501Y-34790264D01*
X53573489Y-34790261D01*
X53418845Y-34759500D01*
X53418842Y-34759500D01*
X53261158Y-34759500D01*
X53261155Y-34759500D01*
X53106510Y-34790261D01*
X53106498Y-34790264D01*
X52960827Y-34850602D01*
X52960814Y-34850609D01*
X52829711Y-34938210D01*
X52829707Y-34938213D01*
X52718213Y-35049707D01*
X52718210Y-35049711D01*
X52630609Y-35180814D01*
X52630602Y-35180827D01*
X52570264Y-35326498D01*
X52570261Y-35326510D01*
X52539500Y-35481153D01*
X44109336Y-35481153D01*
X44109336Y-34225321D01*
X61415332Y-34225321D01*
X61415332Y-34383014D01*
X61446093Y-34537657D01*
X61446096Y-34537669D01*
X61506434Y-34683340D01*
X61506441Y-34683353D01*
X61594042Y-34814456D01*
X61594045Y-34814460D01*
X61705539Y-34925954D01*
X61705543Y-34925957D01*
X61836646Y-35013558D01*
X61836659Y-35013565D01*
X61982330Y-35073903D01*
X61982335Y-35073905D01*
X62136985Y-35104667D01*
X62136988Y-35104668D01*
X62136990Y-35104668D01*
X62294676Y-35104668D01*
X62294677Y-35104667D01*
X62449329Y-35073905D01*
X62578517Y-35020394D01*
X62595004Y-35013565D01*
X62595004Y-35013564D01*
X62595011Y-35013562D01*
X62726121Y-34925957D01*
X62837621Y-34814457D01*
X62925226Y-34683347D01*
X62928049Y-34676533D01*
X62985567Y-34537669D01*
X62985569Y-34537665D01*
X63016332Y-34383010D01*
X63016332Y-34225326D01*
X63016332Y-34225323D01*
X63016331Y-34225321D01*
X62985569Y-34070671D01*
X62942687Y-33967144D01*
X62925229Y-33924995D01*
X62925222Y-33924982D01*
X62837621Y-33793879D01*
X62837618Y-33793875D01*
X62726124Y-33682381D01*
X62726120Y-33682378D01*
X62595017Y-33594777D01*
X62595004Y-33594770D01*
X62449333Y-33534432D01*
X62449321Y-33534429D01*
X62294677Y-33503668D01*
X62294674Y-33503668D01*
X62136990Y-33503668D01*
X62136987Y-33503668D01*
X61982342Y-33534429D01*
X61982330Y-33534432D01*
X61836659Y-33594770D01*
X61836646Y-33594777D01*
X61705543Y-33682378D01*
X61705539Y-33682381D01*
X61594045Y-33793875D01*
X61594042Y-33793879D01*
X61506441Y-33924982D01*
X61506434Y-33924995D01*
X61446096Y-34070666D01*
X61446093Y-34070678D01*
X61415332Y-34225321D01*
X44109336Y-34225321D01*
X44109336Y-32941153D01*
X57619500Y-32941153D01*
X57619500Y-33098846D01*
X57650261Y-33253489D01*
X57650264Y-33253501D01*
X57710602Y-33399172D01*
X57710609Y-33399185D01*
X57798210Y-33530288D01*
X57798213Y-33530292D01*
X57909707Y-33641786D01*
X57909711Y-33641789D01*
X58040814Y-33729390D01*
X58040827Y-33729397D01*
X58179965Y-33787029D01*
X58186503Y-33789737D01*
X58341153Y-33820499D01*
X58341156Y-33820500D01*
X58341158Y-33820500D01*
X58498844Y-33820500D01*
X58498845Y-33820499D01*
X58653497Y-33789737D01*
X58799179Y-33729394D01*
X58930289Y-33641789D01*
X59041789Y-33530289D01*
X59129394Y-33399179D01*
X59129576Y-33398741D01*
X59165862Y-33311137D01*
X59189737Y-33253497D01*
X59220500Y-33098842D01*
X59220500Y-32941158D01*
X59220500Y-32941155D01*
X59220499Y-32941153D01*
X59208051Y-32878574D01*
X59189737Y-32786503D01*
X59189735Y-32786498D01*
X59129397Y-32640827D01*
X59129390Y-32640814D01*
X59041789Y-32509711D01*
X59041786Y-32509707D01*
X58930292Y-32398213D01*
X58930288Y-32398210D01*
X58799185Y-32310609D01*
X58799172Y-32310602D01*
X58740338Y-32286233D01*
X58653501Y-32250264D01*
X58653489Y-32250261D01*
X58498845Y-32219500D01*
X58498842Y-32219500D01*
X58341158Y-32219500D01*
X58341155Y-32219500D01*
X58186510Y-32250261D01*
X58186498Y-32250264D01*
X58040827Y-32310602D01*
X58040814Y-32310609D01*
X57909711Y-32398210D01*
X57909707Y-32398213D01*
X57798213Y-32509707D01*
X57798210Y-32509711D01*
X57710609Y-32640814D01*
X57710602Y-32640827D01*
X57650264Y-32786498D01*
X57650261Y-32786510D01*
X57619500Y-32941153D01*
X44109336Y-32941153D01*
X44109336Y-32177759D01*
X66745390Y-32177759D01*
X66745390Y-32335452D01*
X66776151Y-32490095D01*
X66776154Y-32490107D01*
X66836492Y-32635778D01*
X66836499Y-32635791D01*
X66924100Y-32766894D01*
X66924103Y-32766898D01*
X67035597Y-32878392D01*
X67035601Y-32878395D01*
X67166704Y-32965996D01*
X67166717Y-32966003D01*
X67308028Y-33024535D01*
X67312393Y-33026343D01*
X67422969Y-33048338D01*
X67467043Y-33057105D01*
X67467046Y-33057106D01*
X67467048Y-33057106D01*
X67624734Y-33057106D01*
X67624735Y-33057105D01*
X67779387Y-33026343D01*
X67783752Y-33024534D01*
X67853219Y-33017065D01*
X67915699Y-33048338D01*
X67951353Y-33108425D01*
X67948862Y-33178251D01*
X67936569Y-33203368D01*
X67936648Y-33203411D01*
X67935469Y-33205615D01*
X67934315Y-33207975D01*
X67933782Y-33208771D01*
X67933771Y-33208792D01*
X67873433Y-33354463D01*
X67873430Y-33354475D01*
X67842669Y-33509118D01*
X67842669Y-33666811D01*
X67873430Y-33821454D01*
X67873433Y-33821466D01*
X67933771Y-33967137D01*
X67933778Y-33967150D01*
X68021379Y-34098253D01*
X68021382Y-34098257D01*
X68132876Y-34209751D01*
X68132880Y-34209754D01*
X68263983Y-34297355D01*
X68263996Y-34297362D01*
X68347056Y-34331766D01*
X68409672Y-34357702D01*
X68564322Y-34388464D01*
X68564325Y-34388465D01*
X68564327Y-34388465D01*
X68722013Y-34388465D01*
X68722014Y-34388464D01*
X68876666Y-34357702D01*
X69022348Y-34297359D01*
X69153458Y-34209754D01*
X69264958Y-34098254D01*
X69352563Y-33967144D01*
X69412906Y-33821462D01*
X69443669Y-33666807D01*
X69443669Y-33509123D01*
X69443669Y-33509120D01*
X69439277Y-33487041D01*
X69445504Y-33417449D01*
X69488367Y-33362272D01*
X69554256Y-33339027D01*
X69622254Y-33355095D01*
X69629785Y-33359747D01*
X69682721Y-33395118D01*
X69682734Y-33395125D01*
X69828405Y-33455463D01*
X69828410Y-33455465D01*
X69983060Y-33486227D01*
X69983063Y-33486228D01*
X69983065Y-33486228D01*
X70140751Y-33486228D01*
X70140752Y-33486227D01*
X70295404Y-33455465D01*
X70431277Y-33399185D01*
X70441079Y-33395125D01*
X70441079Y-33395124D01*
X70441086Y-33395122D01*
X70572196Y-33307517D01*
X70683696Y-33196017D01*
X70771301Y-33064907D01*
X70831644Y-32919225D01*
X70862407Y-32764570D01*
X70862407Y-32606886D01*
X70862407Y-32606883D01*
X70862406Y-32606881D01*
X70831644Y-32452231D01*
X70809269Y-32398213D01*
X70771304Y-32306555D01*
X70771297Y-32306542D01*
X70683696Y-32175439D01*
X70683693Y-32175435D01*
X70572199Y-32063941D01*
X70572195Y-32063938D01*
X70441092Y-31976337D01*
X70441079Y-31976330D01*
X70295408Y-31915992D01*
X70295396Y-31915989D01*
X70140752Y-31885228D01*
X70140749Y-31885228D01*
X69983065Y-31885228D01*
X69983062Y-31885228D01*
X69828417Y-31915989D01*
X69828405Y-31915992D01*
X69682734Y-31976330D01*
X69682721Y-31976337D01*
X69551618Y-32063938D01*
X69551614Y-32063941D01*
X69440120Y-32175435D01*
X69440117Y-32175439D01*
X69352516Y-32306542D01*
X69352509Y-32306555D01*
X69292171Y-32452226D01*
X69292168Y-32452238D01*
X69261407Y-32606881D01*
X69261407Y-32764572D01*
X69265799Y-32786655D01*
X69259570Y-32856246D01*
X69216705Y-32911422D01*
X69150815Y-32934665D01*
X69082819Y-32918596D01*
X69075290Y-32913945D01*
X69022354Y-32878574D01*
X69022341Y-32878567D01*
X68876670Y-32818229D01*
X68876658Y-32818226D01*
X68722014Y-32787465D01*
X68722011Y-32787465D01*
X68564327Y-32787465D01*
X68564324Y-32787465D01*
X68409679Y-32818226D01*
X68409660Y-32818231D01*
X68405294Y-32820040D01*
X68335824Y-32827503D01*
X68273348Y-32796222D01*
X68237701Y-32736130D01*
X68240201Y-32666305D01*
X68252490Y-32641202D01*
X68252411Y-32641160D01*
X68253604Y-32638926D01*
X68254756Y-32636575D01*
X68255284Y-32635785D01*
X68315627Y-32490103D01*
X68346390Y-32335448D01*
X68346390Y-32177764D01*
X68346390Y-32177761D01*
X68346389Y-32177759D01*
X68323749Y-32063941D01*
X68315627Y-32023109D01*
X68296254Y-31976337D01*
X68255287Y-31877433D01*
X68255280Y-31877420D01*
X68167679Y-31746317D01*
X68167676Y-31746313D01*
X68056182Y-31634819D01*
X68056178Y-31634816D01*
X67925075Y-31547215D01*
X67925062Y-31547208D01*
X67779391Y-31486870D01*
X67779379Y-31486867D01*
X67624735Y-31456106D01*
X67624732Y-31456106D01*
X67467048Y-31456106D01*
X67467045Y-31456106D01*
X67312400Y-31486867D01*
X67312388Y-31486870D01*
X67166717Y-31547208D01*
X67166704Y-31547215D01*
X67035601Y-31634816D01*
X67035597Y-31634819D01*
X66924103Y-31746313D01*
X66924100Y-31746317D01*
X66836499Y-31877420D01*
X66836492Y-31877433D01*
X66776154Y-32023104D01*
X66776151Y-32023116D01*
X66745390Y-32177759D01*
X44109336Y-32177759D01*
X44109336Y-29835516D01*
X53412163Y-29835516D01*
X53428962Y-29846741D01*
X53428968Y-29846744D01*
X53597295Y-29916467D01*
X53597307Y-29916470D01*
X53776003Y-29952015D01*
X53776007Y-29952016D01*
X53958219Y-29952016D01*
X53958222Y-29952015D01*
X54136918Y-29916470D01*
X54136926Y-29916468D01*
X54305264Y-29846740D01*
X54305267Y-29846739D01*
X54322061Y-29835516D01*
X62602163Y-29835516D01*
X62618962Y-29846741D01*
X62618968Y-29846744D01*
X62787295Y-29916467D01*
X62787307Y-29916470D01*
X62966003Y-29952015D01*
X62966007Y-29952016D01*
X63148219Y-29952016D01*
X63148222Y-29952015D01*
X63326918Y-29916470D01*
X63326926Y-29916468D01*
X63495264Y-29846740D01*
X63495267Y-29846739D01*
X63512060Y-29835516D01*
X63512061Y-29835516D01*
X63057114Y-29380569D01*
X63057113Y-29380569D01*
X62602163Y-29835516D01*
X54322061Y-29835516D01*
X53867114Y-29380569D01*
X53867113Y-29380569D01*
X53412163Y-29835516D01*
X44109336Y-29835516D01*
X44109336Y-29322677D01*
X44129021Y-29255638D01*
X44181825Y-29209883D01*
X44233336Y-29198677D01*
X52856372Y-29198677D01*
X52923411Y-29218362D01*
G37*
%TD.AperFunction*%
%TD*%
M02*
