%TF.GenerationSoftware,KiCad,Pcbnew,9.0.3*%
%TF.CreationDate,2026-01-07T23:24:55+00:00*%
%TF.ProjectId,lego_gameboy_main,6c65676f-5f67-4616-9d65-626f795f6d61,rev?*%
%TF.SameCoordinates,Original*%
%TF.FileFunction,Legend,Top*%
%TF.FilePolarity,Positive*%
%FSLAX46Y46*%
G04 Gerber Fmt 4.6, Leading zero omitted, Abs format (unit mm)*
G04 Created by KiCad (PCBNEW 9.0.3) date 2026-01-07 23:24:55*
%MOMM*%
%LPD*%
G01*
G04 APERTURE LIST*
G04 Aperture macros list*
%AMRoundRect*
0 Rectangle with rounded corners*
0 $1 Rounding radius*
0 $2 $3 $4 $5 $6 $7 $8 $9 X,Y pos of 4 corners*
0 Add a 4 corners polygon primitive as box body*
4,1,4,$2,$3,$4,$5,$6,$7,$8,$9,$2,$3,0*
0 Add four circle primitives for the rounded corners*
1,1,$1+$1,$2,$3*
1,1,$1+$1,$4,$5*
1,1,$1+$1,$6,$7*
1,1,$1+$1,$8,$9*
0 Add four rect primitives between the rounded corners*
20,1,$1+$1,$2,$3,$4,$5,0*
20,1,$1+$1,$4,$5,$6,$7,0*
20,1,$1+$1,$6,$7,$8,$9,0*
20,1,$1+$1,$8,$9,$2,$3,0*%
G04 Aperture macros list end*
%ADD10C,0.100000*%
%ADD11C,0.150000*%
%ADD12C,0.127000*%
%ADD13C,0.200000*%
%ADD14C,0.152400*%
%ADD15C,0.120000*%
%ADD16C,0.254000*%
%ADD17RoundRect,0.070000X0.070000X0.345000X-0.070000X0.345000X-0.070000X-0.345000X0.070000X-0.345000X0*%
%ADD18RoundRect,0.112500X0.112500X0.302500X-0.112500X0.302500X-0.112500X-0.302500X0.112500X-0.302500X0*%
%ADD19C,0.850000*%
%ADD20O,0.600000X2.050000*%
%ADD21RoundRect,0.102000X-0.500000X-0.400000X0.500000X-0.400000X0.500000X0.400000X-0.500000X0.400000X0*%
%ADD22RoundRect,0.102000X-0.350000X-0.550000X0.350000X-0.550000X0.350000X0.550000X-0.350000X0.550000X0*%
%ADD23C,0.900000*%
%ADD24RoundRect,0.225000X0.250000X-0.225000X0.250000X0.225000X-0.250000X0.225000X-0.250000X-0.225000X0*%
%ADD25C,1.000000*%
%ADD26RoundRect,0.312700X0.938100X0.938100X-0.938100X0.938100X-0.938100X-0.938100X0.938100X-0.938100X0*%
%ADD27RoundRect,0.200000X-0.275000X0.200000X-0.275000X-0.200000X0.275000X-0.200000X0.275000X0.200000X0*%
%ADD28RoundRect,0.076200X-0.350000X-0.550000X0.350000X-0.550000X0.350000X0.550000X-0.350000X0.550000X0*%
%ADD29RoundRect,0.076200X-0.450000X-0.465000X0.450000X-0.465000X0.450000X0.465000X-0.450000X0.465000X0*%
%ADD30RoundRect,0.076200X-0.525000X-0.390000X0.525000X-0.390000X0.525000X0.390000X-0.525000X0.390000X0*%
%ADD31RoundRect,0.076200X-0.570000X-0.915000X0.570000X-0.915000X0.570000X0.915000X-0.570000X0.915000X0*%
%ADD32RoundRect,0.076200X-0.430000X-1.400000X0.430000X-1.400000X0.430000X1.400000X-0.430000X1.400000X0*%
%ADD33RoundRect,0.076200X-0.350000X-1.665000X0.350000X-1.665000X0.350000X1.665000X-0.350000X1.665000X0*%
%ADD34R,0.711200X0.203200*%
%ADD35R,0.711200X0.406400*%
%ADD36RoundRect,0.225000X-0.250000X0.225000X-0.250000X-0.225000X0.250000X-0.225000X0.250000X0.225000X0*%
%ADD37RoundRect,0.200000X0.275000X-0.200000X0.275000X0.200000X-0.275000X0.200000X-0.275000X-0.200000X0*%
%ADD38RoundRect,0.225000X0.225000X0.250000X-0.225000X0.250000X-0.225000X-0.250000X0.225000X-0.250000X0*%
%ADD39RoundRect,0.125000X0.125000X0.425000X-0.125000X0.425000X-0.125000X-0.425000X0.125000X-0.425000X0*%
%ADD40RoundRect,0.250000X0.350000X0.600000X-0.350000X0.600000X-0.350000X-0.600000X0.350000X-0.600000X0*%
%ADD41R,2.200000X1.100000*%
%ADD42R,1.800000X1.450000*%
%ADD43C,1.800000*%
%ADD44RoundRect,0.218750X-0.256250X0.218750X-0.256250X-0.218750X0.256250X-0.218750X0.256250X0.218750X0*%
%ADD45RoundRect,0.093750X0.106250X-0.093750X0.106250X0.093750X-0.106250X0.093750X-0.106250X-0.093750X0*%
%ADD46R,1.600000X1.000000*%
%ADD47RoundRect,0.102000X-0.750000X-0.450000X0.750000X-0.450000X0.750000X0.450000X-0.750000X0.450000X0*%
%ADD48RoundRect,0.102000X-0.450000X-0.750000X0.450000X-0.750000X0.450000X0.750000X-0.450000X0.750000X0*%
%ADD49RoundRect,0.102000X-0.450000X-0.450000X0.450000X-0.450000X0.450000X0.450000X-0.450000X0.450000X0*%
%ADD50RoundRect,0.225000X-0.225000X-0.250000X0.225000X-0.250000X0.225000X0.250000X-0.225000X0.250000X0*%
%ADD51R,2.000000X1.500000*%
%ADD52RoundRect,0.200000X-0.200000X-0.275000X0.200000X-0.275000X0.200000X0.275000X-0.200000X0.275000X0*%
%ADD53RoundRect,0.200000X0.200000X0.275000X-0.200000X0.275000X-0.200000X-0.275000X0.200000X-0.275000X0*%
%ADD54RoundRect,0.102000X-0.675000X-0.900000X0.675000X-0.900000X0.675000X0.900000X-0.675000X0.900000X0*%
%ADD55RoundRect,0.102000X-0.380000X-0.110000X0.380000X-0.110000X0.380000X0.110000X-0.380000X0.110000X0*%
%ADD56RoundRect,0.062500X0.062500X-0.350000X0.062500X0.350000X-0.062500X0.350000X-0.062500X-0.350000X0*%
%ADD57RoundRect,0.062500X0.350000X-0.062500X0.350000X0.062500X-0.350000X0.062500X-0.350000X-0.062500X0*%
%ADD58R,1.230000X1.230000*%
%ADD59RoundRect,0.218750X0.218750X0.256250X-0.218750X0.256250X-0.218750X-0.256250X0.218750X-0.256250X0*%
%ADD60RoundRect,0.250000X0.350000X0.625000X-0.350000X0.625000X-0.350000X-0.625000X0.350000X-0.625000X0*%
%ADD61O,1.200000X1.750000*%
G04 APERTURE END LIST*
D10*
X58128779Y-30394435D02*
X58128779Y-31108720D01*
X58128779Y-31108720D02*
X58081160Y-31251577D01*
X58081160Y-31251577D02*
X57985922Y-31346816D01*
X57985922Y-31346816D02*
X57843065Y-31394435D01*
X57843065Y-31394435D02*
X57747827Y-31394435D01*
X59128779Y-31394435D02*
X58557351Y-31394435D01*
X58843065Y-31394435D02*
X58843065Y-30394435D01*
X58843065Y-30394435D02*
X58747827Y-30537292D01*
X58747827Y-30537292D02*
X58652589Y-30632530D01*
X58652589Y-30632530D02*
X58557351Y-30680149D01*
X83869735Y-24617928D02*
X84012592Y-24665547D01*
X84012592Y-24665547D02*
X84250687Y-24665547D01*
X84250687Y-24665547D02*
X84345925Y-24617928D01*
X84345925Y-24617928D02*
X84393544Y-24570308D01*
X84393544Y-24570308D02*
X84441163Y-24475070D01*
X84441163Y-24475070D02*
X84441163Y-24379832D01*
X84441163Y-24379832D02*
X84393544Y-24284594D01*
X84393544Y-24284594D02*
X84345925Y-24236975D01*
X84345925Y-24236975D02*
X84250687Y-24189356D01*
X84250687Y-24189356D02*
X84060211Y-24141737D01*
X84060211Y-24141737D02*
X83964973Y-24094118D01*
X83964973Y-24094118D02*
X83917354Y-24046499D01*
X83917354Y-24046499D02*
X83869735Y-23951261D01*
X83869735Y-23951261D02*
X83869735Y-23856023D01*
X83869735Y-23856023D02*
X83917354Y-23760785D01*
X83917354Y-23760785D02*
X83964973Y-23713166D01*
X83964973Y-23713166D02*
X84060211Y-23665547D01*
X84060211Y-23665547D02*
X84298306Y-23665547D01*
X84298306Y-23665547D02*
X84441163Y-23713166D01*
X85393544Y-24665547D02*
X84822116Y-24665547D01*
X85107830Y-24665547D02*
X85107830Y-23665547D01*
X85107830Y-23665547D02*
X85012592Y-23808404D01*
X85012592Y-23808404D02*
X84917354Y-23903642D01*
X84917354Y-23903642D02*
X84822116Y-23951261D01*
X68151305Y-50986874D02*
X68198925Y-51034493D01*
X68198925Y-51034493D02*
X68246544Y-51177350D01*
X68246544Y-51177350D02*
X68246544Y-51272588D01*
X68246544Y-51272588D02*
X68198925Y-51415445D01*
X68198925Y-51415445D02*
X68103686Y-51510683D01*
X68103686Y-51510683D02*
X68008448Y-51558302D01*
X68008448Y-51558302D02*
X67817972Y-51605921D01*
X67817972Y-51605921D02*
X67675115Y-51605921D01*
X67675115Y-51605921D02*
X67484639Y-51558302D01*
X67484639Y-51558302D02*
X67389401Y-51510683D01*
X67389401Y-51510683D02*
X67294163Y-51415445D01*
X67294163Y-51415445D02*
X67246544Y-51272588D01*
X67246544Y-51272588D02*
X67246544Y-51177350D01*
X67246544Y-51177350D02*
X67294163Y-51034493D01*
X67294163Y-51034493D02*
X67341782Y-50986874D01*
X68246544Y-50510683D02*
X68246544Y-50320207D01*
X68246544Y-50320207D02*
X68198925Y-50224969D01*
X68198925Y-50224969D02*
X68151305Y-50177350D01*
X68151305Y-50177350D02*
X68008448Y-50082112D01*
X68008448Y-50082112D02*
X67817972Y-50034493D01*
X67817972Y-50034493D02*
X67437020Y-50034493D01*
X67437020Y-50034493D02*
X67341782Y-50082112D01*
X67341782Y-50082112D02*
X67294163Y-50129731D01*
X67294163Y-50129731D02*
X67246544Y-50224969D01*
X67246544Y-50224969D02*
X67246544Y-50415445D01*
X67246544Y-50415445D02*
X67294163Y-50510683D01*
X67294163Y-50510683D02*
X67341782Y-50558302D01*
X67341782Y-50558302D02*
X67437020Y-50605921D01*
X67437020Y-50605921D02*
X67675115Y-50605921D01*
X67675115Y-50605921D02*
X67770353Y-50558302D01*
X67770353Y-50558302D02*
X67817972Y-50510683D01*
X67817972Y-50510683D02*
X67865591Y-50415445D01*
X67865591Y-50415445D02*
X67865591Y-50224969D01*
X67865591Y-50224969D02*
X67817972Y-50129731D01*
X67817972Y-50129731D02*
X67770353Y-50082112D01*
X67770353Y-50082112D02*
X67675115Y-50034493D01*
X82378874Y-69289886D02*
X82950302Y-69289886D01*
X82664588Y-70289886D02*
X82664588Y-69289886D01*
X83283636Y-70289886D02*
X83283636Y-69289886D01*
X83283636Y-69289886D02*
X83664588Y-69289886D01*
X83664588Y-69289886D02*
X83759826Y-69337505D01*
X83759826Y-69337505D02*
X83807445Y-69385124D01*
X83807445Y-69385124D02*
X83855064Y-69480362D01*
X83855064Y-69480362D02*
X83855064Y-69623219D01*
X83855064Y-69623219D02*
X83807445Y-69718457D01*
X83807445Y-69718457D02*
X83759826Y-69766076D01*
X83759826Y-69766076D02*
X83664588Y-69813695D01*
X83664588Y-69813695D02*
X83283636Y-69813695D01*
X84426493Y-69718457D02*
X84331255Y-69670838D01*
X84331255Y-69670838D02*
X84283636Y-69623219D01*
X84283636Y-69623219D02*
X84236017Y-69527981D01*
X84236017Y-69527981D02*
X84236017Y-69480362D01*
X84236017Y-69480362D02*
X84283636Y-69385124D01*
X84283636Y-69385124D02*
X84331255Y-69337505D01*
X84331255Y-69337505D02*
X84426493Y-69289886D01*
X84426493Y-69289886D02*
X84616969Y-69289886D01*
X84616969Y-69289886D02*
X84712207Y-69337505D01*
X84712207Y-69337505D02*
X84759826Y-69385124D01*
X84759826Y-69385124D02*
X84807445Y-69480362D01*
X84807445Y-69480362D02*
X84807445Y-69527981D01*
X84807445Y-69527981D02*
X84759826Y-69623219D01*
X84759826Y-69623219D02*
X84712207Y-69670838D01*
X84712207Y-69670838D02*
X84616969Y-69718457D01*
X84616969Y-69718457D02*
X84426493Y-69718457D01*
X84426493Y-69718457D02*
X84331255Y-69766076D01*
X84331255Y-69766076D02*
X84283636Y-69813695D01*
X84283636Y-69813695D02*
X84236017Y-69908933D01*
X84236017Y-69908933D02*
X84236017Y-70099409D01*
X84236017Y-70099409D02*
X84283636Y-70194647D01*
X84283636Y-70194647D02*
X84331255Y-70242267D01*
X84331255Y-70242267D02*
X84426493Y-70289886D01*
X84426493Y-70289886D02*
X84616969Y-70289886D01*
X84616969Y-70289886D02*
X84712207Y-70242267D01*
X84712207Y-70242267D02*
X84759826Y-70194647D01*
X84759826Y-70194647D02*
X84807445Y-70099409D01*
X84807445Y-70099409D02*
X84807445Y-69908933D01*
X84807445Y-69908933D02*
X84759826Y-69813695D01*
X84759826Y-69813695D02*
X84712207Y-69766076D01*
X84712207Y-69766076D02*
X84616969Y-69718457D01*
X81506518Y-67189078D02*
X82077946Y-67189078D01*
X81792232Y-68189078D02*
X81792232Y-67189078D01*
X82411280Y-68189078D02*
X82411280Y-67189078D01*
X82411280Y-67189078D02*
X82792232Y-67189078D01*
X82792232Y-67189078D02*
X82887470Y-67236697D01*
X82887470Y-67236697D02*
X82935089Y-67284316D01*
X82935089Y-67284316D02*
X82982708Y-67379554D01*
X82982708Y-67379554D02*
X82982708Y-67522411D01*
X82982708Y-67522411D02*
X82935089Y-67617649D01*
X82935089Y-67617649D02*
X82887470Y-67665268D01*
X82887470Y-67665268D02*
X82792232Y-67712887D01*
X82792232Y-67712887D02*
X82411280Y-67712887D01*
X83458899Y-68189078D02*
X83649375Y-68189078D01*
X83649375Y-68189078D02*
X83744613Y-68141459D01*
X83744613Y-68141459D02*
X83792232Y-68093839D01*
X83792232Y-68093839D02*
X83887470Y-67950982D01*
X83887470Y-67950982D02*
X83935089Y-67760506D01*
X83935089Y-67760506D02*
X83935089Y-67379554D01*
X83935089Y-67379554D02*
X83887470Y-67284316D01*
X83887470Y-67284316D02*
X83839851Y-67236697D01*
X83839851Y-67236697D02*
X83744613Y-67189078D01*
X83744613Y-67189078D02*
X83554137Y-67189078D01*
X83554137Y-67189078D02*
X83458899Y-67236697D01*
X83458899Y-67236697D02*
X83411280Y-67284316D01*
X83411280Y-67284316D02*
X83363661Y-67379554D01*
X83363661Y-67379554D02*
X83363661Y-67617649D01*
X83363661Y-67617649D02*
X83411280Y-67712887D01*
X83411280Y-67712887D02*
X83458899Y-67760506D01*
X83458899Y-67760506D02*
X83554137Y-67808125D01*
X83554137Y-67808125D02*
X83744613Y-67808125D01*
X83744613Y-67808125D02*
X83839851Y-67760506D01*
X83839851Y-67760506D02*
X83887470Y-67712887D01*
X83887470Y-67712887D02*
X83935089Y-67617649D01*
X92067454Y-83692638D02*
X91591263Y-84025971D01*
X92067454Y-84264066D02*
X91067454Y-84264066D01*
X91067454Y-84264066D02*
X91067454Y-83883114D01*
X91067454Y-83883114D02*
X91115073Y-83787876D01*
X91115073Y-83787876D02*
X91162692Y-83740257D01*
X91162692Y-83740257D02*
X91257930Y-83692638D01*
X91257930Y-83692638D02*
X91400787Y-83692638D01*
X91400787Y-83692638D02*
X91496025Y-83740257D01*
X91496025Y-83740257D02*
X91543644Y-83787876D01*
X91543644Y-83787876D02*
X91591263Y-83883114D01*
X91591263Y-83883114D02*
X91591263Y-84264066D01*
X92067454Y-82740257D02*
X92067454Y-83311685D01*
X92067454Y-83025971D02*
X91067454Y-83025971D01*
X91067454Y-83025971D02*
X91210311Y-83121209D01*
X91210311Y-83121209D02*
X91305549Y-83216447D01*
X91305549Y-83216447D02*
X91353168Y-83311685D01*
X91067454Y-81835495D02*
X91067454Y-82311685D01*
X91067454Y-82311685D02*
X91543644Y-82359304D01*
X91543644Y-82359304D02*
X91496025Y-82311685D01*
X91496025Y-82311685D02*
X91448406Y-82216447D01*
X91448406Y-82216447D02*
X91448406Y-81978352D01*
X91448406Y-81978352D02*
X91496025Y-81883114D01*
X91496025Y-81883114D02*
X91543644Y-81835495D01*
X91543644Y-81835495D02*
X91638882Y-81787876D01*
X91638882Y-81787876D02*
X91876977Y-81787876D01*
X91876977Y-81787876D02*
X91972215Y-81835495D01*
X91972215Y-81835495D02*
X92019835Y-81883114D01*
X92019835Y-81883114D02*
X92067454Y-81978352D01*
X92067454Y-81978352D02*
X92067454Y-82216447D01*
X92067454Y-82216447D02*
X92019835Y-82311685D01*
X92019835Y-82311685D02*
X91972215Y-82359304D01*
D11*
X71556066Y-22505889D02*
X71556066Y-23220664D01*
X71556066Y-23220664D02*
X71508414Y-23363619D01*
X71508414Y-23363619D02*
X71413111Y-23458923D01*
X71413111Y-23458923D02*
X71270156Y-23506574D01*
X71270156Y-23506574D02*
X71174853Y-23506574D01*
X72461448Y-22839451D02*
X72461448Y-23506574D01*
X72223190Y-22458238D02*
X71984931Y-23173013D01*
X71984931Y-23173013D02*
X72604403Y-23173013D01*
D10*
X81096294Y-65051652D02*
X81667722Y-65051652D01*
X81382008Y-66051652D02*
X81382008Y-65051652D01*
X82001056Y-66051652D02*
X82001056Y-65051652D01*
X82001056Y-65051652D02*
X82382008Y-65051652D01*
X82382008Y-65051652D02*
X82477246Y-65099271D01*
X82477246Y-65099271D02*
X82524865Y-65146890D01*
X82524865Y-65146890D02*
X82572484Y-65242128D01*
X82572484Y-65242128D02*
X82572484Y-65384985D01*
X82572484Y-65384985D02*
X82524865Y-65480223D01*
X82524865Y-65480223D02*
X82477246Y-65527842D01*
X82477246Y-65527842D02*
X82382008Y-65575461D01*
X82382008Y-65575461D02*
X82001056Y-65575461D01*
X83524865Y-66051652D02*
X82953437Y-66051652D01*
X83239151Y-66051652D02*
X83239151Y-65051652D01*
X83239151Y-65051652D02*
X83143913Y-65194509D01*
X83143913Y-65194509D02*
X83048675Y-65289747D01*
X83048675Y-65289747D02*
X82953437Y-65337366D01*
X84143913Y-65051652D02*
X84239151Y-65051652D01*
X84239151Y-65051652D02*
X84334389Y-65099271D01*
X84334389Y-65099271D02*
X84382008Y-65146890D01*
X84382008Y-65146890D02*
X84429627Y-65242128D01*
X84429627Y-65242128D02*
X84477246Y-65432604D01*
X84477246Y-65432604D02*
X84477246Y-65670699D01*
X84477246Y-65670699D02*
X84429627Y-65861175D01*
X84429627Y-65861175D02*
X84382008Y-65956413D01*
X84382008Y-65956413D02*
X84334389Y-66004033D01*
X84334389Y-66004033D02*
X84239151Y-66051652D01*
X84239151Y-66051652D02*
X84143913Y-66051652D01*
X84143913Y-66051652D02*
X84048675Y-66004033D01*
X84048675Y-66004033D02*
X84001056Y-65956413D01*
X84001056Y-65956413D02*
X83953437Y-65861175D01*
X83953437Y-65861175D02*
X83905818Y-65670699D01*
X83905818Y-65670699D02*
X83905818Y-65432604D01*
X83905818Y-65432604D02*
X83953437Y-65242128D01*
X83953437Y-65242128D02*
X84001056Y-65146890D01*
X84001056Y-65146890D02*
X84048675Y-65099271D01*
X84048675Y-65099271D02*
X84143913Y-65051652D01*
X87505238Y-77972363D02*
X87029047Y-78305696D01*
X87505238Y-78543791D02*
X86505238Y-78543791D01*
X86505238Y-78543791D02*
X86505238Y-78162839D01*
X86505238Y-78162839D02*
X86552857Y-78067601D01*
X86552857Y-78067601D02*
X86600476Y-78019982D01*
X86600476Y-78019982D02*
X86695714Y-77972363D01*
X86695714Y-77972363D02*
X86838571Y-77972363D01*
X86838571Y-77972363D02*
X86933809Y-78019982D01*
X86933809Y-78019982D02*
X86981428Y-78067601D01*
X86981428Y-78067601D02*
X87029047Y-78162839D01*
X87029047Y-78162839D02*
X87029047Y-78543791D01*
X87505238Y-77019982D02*
X87505238Y-77591410D01*
X87505238Y-77305696D02*
X86505238Y-77305696D01*
X86505238Y-77305696D02*
X86648095Y-77400934D01*
X86648095Y-77400934D02*
X86743333Y-77496172D01*
X86743333Y-77496172D02*
X86790952Y-77591410D01*
X86505238Y-76686648D02*
X86505238Y-76067601D01*
X86505238Y-76067601D02*
X86886190Y-76400934D01*
X86886190Y-76400934D02*
X86886190Y-76258077D01*
X86886190Y-76258077D02*
X86933809Y-76162839D01*
X86933809Y-76162839D02*
X86981428Y-76115220D01*
X86981428Y-76115220D02*
X87076666Y-76067601D01*
X87076666Y-76067601D02*
X87314761Y-76067601D01*
X87314761Y-76067601D02*
X87409999Y-76115220D01*
X87409999Y-76115220D02*
X87457619Y-76162839D01*
X87457619Y-76162839D02*
X87505238Y-76258077D01*
X87505238Y-76258077D02*
X87505238Y-76543791D01*
X87505238Y-76543791D02*
X87457619Y-76639029D01*
X87457619Y-76639029D02*
X87409999Y-76686648D01*
D11*
X72453595Y-48214818D02*
X72453595Y-49024341D01*
X72453595Y-49024341D02*
X72501214Y-49119579D01*
X72501214Y-49119579D02*
X72548833Y-49167199D01*
X72548833Y-49167199D02*
X72644071Y-49214818D01*
X72644071Y-49214818D02*
X72834547Y-49214818D01*
X72834547Y-49214818D02*
X72929785Y-49167199D01*
X72929785Y-49167199D02*
X72977404Y-49119579D01*
X72977404Y-49119579D02*
X73025023Y-49024341D01*
X73025023Y-49024341D02*
X73025023Y-48214818D01*
X73405976Y-48214818D02*
X74025023Y-48214818D01*
X74025023Y-48214818D02*
X73691690Y-48595770D01*
X73691690Y-48595770D02*
X73834547Y-48595770D01*
X73834547Y-48595770D02*
X73929785Y-48643389D01*
X73929785Y-48643389D02*
X73977404Y-48691008D01*
X73977404Y-48691008D02*
X74025023Y-48786246D01*
X74025023Y-48786246D02*
X74025023Y-49024341D01*
X74025023Y-49024341D02*
X73977404Y-49119579D01*
X73977404Y-49119579D02*
X73929785Y-49167199D01*
X73929785Y-49167199D02*
X73834547Y-49214818D01*
X73834547Y-49214818D02*
X73548833Y-49214818D01*
X73548833Y-49214818D02*
X73453595Y-49167199D01*
X73453595Y-49167199D02*
X73405976Y-49119579D01*
D10*
X87560425Y-47371624D02*
X87608045Y-47419243D01*
X87608045Y-47419243D02*
X87655664Y-47562100D01*
X87655664Y-47562100D02*
X87655664Y-47657338D01*
X87655664Y-47657338D02*
X87608045Y-47800195D01*
X87608045Y-47800195D02*
X87512806Y-47895433D01*
X87512806Y-47895433D02*
X87417568Y-47943052D01*
X87417568Y-47943052D02*
X87227092Y-47990671D01*
X87227092Y-47990671D02*
X87084235Y-47990671D01*
X87084235Y-47990671D02*
X86893759Y-47943052D01*
X86893759Y-47943052D02*
X86798521Y-47895433D01*
X86798521Y-47895433D02*
X86703283Y-47800195D01*
X86703283Y-47800195D02*
X86655664Y-47657338D01*
X86655664Y-47657338D02*
X86655664Y-47562100D01*
X86655664Y-47562100D02*
X86703283Y-47419243D01*
X86703283Y-47419243D02*
X86750902Y-47371624D01*
X86655664Y-47038290D02*
X86655664Y-46419243D01*
X86655664Y-46419243D02*
X87036616Y-46752576D01*
X87036616Y-46752576D02*
X87036616Y-46609719D01*
X87036616Y-46609719D02*
X87084235Y-46514481D01*
X87084235Y-46514481D02*
X87131854Y-46466862D01*
X87131854Y-46466862D02*
X87227092Y-46419243D01*
X87227092Y-46419243D02*
X87465187Y-46419243D01*
X87465187Y-46419243D02*
X87560425Y-46466862D01*
X87560425Y-46466862D02*
X87608045Y-46514481D01*
X87608045Y-46514481D02*
X87655664Y-46609719D01*
X87655664Y-46609719D02*
X87655664Y-46895433D01*
X87655664Y-46895433D02*
X87608045Y-46990671D01*
X87608045Y-46990671D02*
X87560425Y-47038290D01*
X81671641Y-71741254D02*
X82243069Y-71741254D01*
X81957355Y-72741254D02*
X81957355Y-71741254D01*
X82576403Y-72741254D02*
X82576403Y-71741254D01*
X82576403Y-71741254D02*
X82957355Y-71741254D01*
X82957355Y-71741254D02*
X83052593Y-71788873D01*
X83052593Y-71788873D02*
X83100212Y-71836492D01*
X83100212Y-71836492D02*
X83147831Y-71931730D01*
X83147831Y-71931730D02*
X83147831Y-72074587D01*
X83147831Y-72074587D02*
X83100212Y-72169825D01*
X83100212Y-72169825D02*
X83052593Y-72217444D01*
X83052593Y-72217444D02*
X82957355Y-72265063D01*
X82957355Y-72265063D02*
X82576403Y-72265063D01*
X83481165Y-71741254D02*
X84100212Y-71741254D01*
X84100212Y-71741254D02*
X83766879Y-72122206D01*
X83766879Y-72122206D02*
X83909736Y-72122206D01*
X83909736Y-72122206D02*
X84004974Y-72169825D01*
X84004974Y-72169825D02*
X84052593Y-72217444D01*
X84052593Y-72217444D02*
X84100212Y-72312682D01*
X84100212Y-72312682D02*
X84100212Y-72550777D01*
X84100212Y-72550777D02*
X84052593Y-72646015D01*
X84052593Y-72646015D02*
X84004974Y-72693635D01*
X84004974Y-72693635D02*
X83909736Y-72741254D01*
X83909736Y-72741254D02*
X83624022Y-72741254D01*
X83624022Y-72741254D02*
X83528784Y-72693635D01*
X83528784Y-72693635D02*
X83481165Y-72646015D01*
X83499002Y-80523501D02*
X84070430Y-80523501D01*
X83784716Y-81523501D02*
X83784716Y-80523501D01*
X84403764Y-81523501D02*
X84403764Y-80523501D01*
X84403764Y-80523501D02*
X84784716Y-80523501D01*
X84784716Y-80523501D02*
X84879954Y-80571120D01*
X84879954Y-80571120D02*
X84927573Y-80618739D01*
X84927573Y-80618739D02*
X84975192Y-80713977D01*
X84975192Y-80713977D02*
X84975192Y-80856834D01*
X84975192Y-80856834D02*
X84927573Y-80952072D01*
X84927573Y-80952072D02*
X84879954Y-80999691D01*
X84879954Y-80999691D02*
X84784716Y-81047310D01*
X84784716Y-81047310D02*
X84403764Y-81047310D01*
X85879954Y-80523501D02*
X85403764Y-80523501D01*
X85403764Y-80523501D02*
X85356145Y-80999691D01*
X85356145Y-80999691D02*
X85403764Y-80952072D01*
X85403764Y-80952072D02*
X85499002Y-80904453D01*
X85499002Y-80904453D02*
X85737097Y-80904453D01*
X85737097Y-80904453D02*
X85832335Y-80952072D01*
X85832335Y-80952072D02*
X85879954Y-80999691D01*
X85879954Y-80999691D02*
X85927573Y-81094929D01*
X85927573Y-81094929D02*
X85927573Y-81333024D01*
X85927573Y-81333024D02*
X85879954Y-81428262D01*
X85879954Y-81428262D02*
X85832335Y-81475882D01*
X85832335Y-81475882D02*
X85737097Y-81523501D01*
X85737097Y-81523501D02*
X85499002Y-81523501D01*
X85499002Y-81523501D02*
X85403764Y-81475882D01*
X85403764Y-81475882D02*
X85356145Y-81428262D01*
X90467419Y-62841666D02*
X89991228Y-63174999D01*
X90467419Y-63413094D02*
X89467419Y-63413094D01*
X89467419Y-63413094D02*
X89467419Y-63032142D01*
X89467419Y-63032142D02*
X89515038Y-62936904D01*
X89515038Y-62936904D02*
X89562657Y-62889285D01*
X89562657Y-62889285D02*
X89657895Y-62841666D01*
X89657895Y-62841666D02*
X89800752Y-62841666D01*
X89800752Y-62841666D02*
X89895990Y-62889285D01*
X89895990Y-62889285D02*
X89943609Y-62936904D01*
X89943609Y-62936904D02*
X89991228Y-63032142D01*
X89991228Y-63032142D02*
X89991228Y-63413094D01*
X90467419Y-61889285D02*
X90467419Y-62460713D01*
X90467419Y-62174999D02*
X89467419Y-62174999D01*
X89467419Y-62174999D02*
X89610276Y-62270237D01*
X89610276Y-62270237D02*
X89705514Y-62365475D01*
X89705514Y-62365475D02*
X89753133Y-62460713D01*
X44757544Y-35572346D02*
X44805164Y-35619965D01*
X44805164Y-35619965D02*
X44852783Y-35762822D01*
X44852783Y-35762822D02*
X44852783Y-35858060D01*
X44852783Y-35858060D02*
X44805164Y-36000917D01*
X44805164Y-36000917D02*
X44709925Y-36096155D01*
X44709925Y-36096155D02*
X44614687Y-36143774D01*
X44614687Y-36143774D02*
X44424211Y-36191393D01*
X44424211Y-36191393D02*
X44281354Y-36191393D01*
X44281354Y-36191393D02*
X44090878Y-36143774D01*
X44090878Y-36143774D02*
X43995640Y-36096155D01*
X43995640Y-36096155D02*
X43900402Y-36000917D01*
X43900402Y-36000917D02*
X43852783Y-35858060D01*
X43852783Y-35858060D02*
X43852783Y-35762822D01*
X43852783Y-35762822D02*
X43900402Y-35619965D01*
X43900402Y-35619965D02*
X43948021Y-35572346D01*
X43852783Y-35239012D02*
X43852783Y-34572346D01*
X43852783Y-34572346D02*
X44852783Y-35000917D01*
D11*
X65824708Y-31266708D02*
X65777089Y-31314328D01*
X65777089Y-31314328D02*
X65634232Y-31361947D01*
X65634232Y-31361947D02*
X65538994Y-31361947D01*
X65538994Y-31361947D02*
X65396137Y-31314328D01*
X65396137Y-31314328D02*
X65300899Y-31219089D01*
X65300899Y-31219089D02*
X65253280Y-31123851D01*
X65253280Y-31123851D02*
X65205661Y-30933375D01*
X65205661Y-30933375D02*
X65205661Y-30790518D01*
X65205661Y-30790518D02*
X65253280Y-30600042D01*
X65253280Y-30600042D02*
X65300899Y-30504804D01*
X65300899Y-30504804D02*
X65396137Y-30409566D01*
X65396137Y-30409566D02*
X65538994Y-30361947D01*
X65538994Y-30361947D02*
X65634232Y-30361947D01*
X65634232Y-30361947D02*
X65777089Y-30409566D01*
X65777089Y-30409566D02*
X65824708Y-30457185D01*
X66777089Y-31361947D02*
X66205661Y-31361947D01*
X66491375Y-31361947D02*
X66491375Y-30361947D01*
X66491375Y-30361947D02*
X66396137Y-30504804D01*
X66396137Y-30504804D02*
X66300899Y-30600042D01*
X66300899Y-30600042D02*
X66205661Y-30647661D01*
X67396137Y-30361947D02*
X67491375Y-30361947D01*
X67491375Y-30361947D02*
X67586613Y-30409566D01*
X67586613Y-30409566D02*
X67634232Y-30457185D01*
X67634232Y-30457185D02*
X67681851Y-30552423D01*
X67681851Y-30552423D02*
X67729470Y-30742899D01*
X67729470Y-30742899D02*
X67729470Y-30980994D01*
X67729470Y-30980994D02*
X67681851Y-31171470D01*
X67681851Y-31171470D02*
X67634232Y-31266708D01*
X67634232Y-31266708D02*
X67586613Y-31314328D01*
X67586613Y-31314328D02*
X67491375Y-31361947D01*
X67491375Y-31361947D02*
X67396137Y-31361947D01*
X67396137Y-31361947D02*
X67300899Y-31314328D01*
X67300899Y-31314328D02*
X67253280Y-31266708D01*
X67253280Y-31266708D02*
X67205661Y-31171470D01*
X67205661Y-31171470D02*
X67158042Y-30980994D01*
X67158042Y-30980994D02*
X67158042Y-30742899D01*
X67158042Y-30742899D02*
X67205661Y-30552423D01*
X67205661Y-30552423D02*
X67253280Y-30457185D01*
X67253280Y-30457185D02*
X67300899Y-30409566D01*
X67300899Y-30409566D02*
X67396137Y-30361947D01*
X85926490Y-86903857D02*
X85926490Y-87618142D01*
X85926490Y-87618142D02*
X85878871Y-87760999D01*
X85878871Y-87760999D02*
X85783633Y-87856238D01*
X85783633Y-87856238D02*
X85640776Y-87903857D01*
X85640776Y-87903857D02*
X85545538Y-87903857D01*
X86831252Y-86903857D02*
X86640776Y-86903857D01*
X86640776Y-86903857D02*
X86545538Y-86951476D01*
X86545538Y-86951476D02*
X86497919Y-86999095D01*
X86497919Y-86999095D02*
X86402681Y-87141952D01*
X86402681Y-87141952D02*
X86355062Y-87332428D01*
X86355062Y-87332428D02*
X86355062Y-87713380D01*
X86355062Y-87713380D02*
X86402681Y-87808618D01*
X86402681Y-87808618D02*
X86450300Y-87856238D01*
X86450300Y-87856238D02*
X86545538Y-87903857D01*
X86545538Y-87903857D02*
X86736014Y-87903857D01*
X86736014Y-87903857D02*
X86831252Y-87856238D01*
X86831252Y-87856238D02*
X86878871Y-87808618D01*
X86878871Y-87808618D02*
X86926490Y-87713380D01*
X86926490Y-87713380D02*
X86926490Y-87475285D01*
X86926490Y-87475285D02*
X86878871Y-87380047D01*
X86878871Y-87380047D02*
X86831252Y-87332428D01*
X86831252Y-87332428D02*
X86736014Y-87284809D01*
X86736014Y-87284809D02*
X86545538Y-87284809D01*
X86545538Y-87284809D02*
X86450300Y-87332428D01*
X86450300Y-87332428D02*
X86402681Y-87380047D01*
X86402681Y-87380047D02*
X86355062Y-87475285D01*
X93758379Y-41976997D02*
X93805998Y-41834140D01*
X93805998Y-41834140D02*
X93805998Y-41596045D01*
X93805998Y-41596045D02*
X93758379Y-41500807D01*
X93758379Y-41500807D02*
X93710759Y-41453188D01*
X93710759Y-41453188D02*
X93615521Y-41405569D01*
X93615521Y-41405569D02*
X93520283Y-41405569D01*
X93520283Y-41405569D02*
X93425045Y-41453188D01*
X93425045Y-41453188D02*
X93377426Y-41500807D01*
X93377426Y-41500807D02*
X93329807Y-41596045D01*
X93329807Y-41596045D02*
X93282188Y-41786521D01*
X93282188Y-41786521D02*
X93234569Y-41881759D01*
X93234569Y-41881759D02*
X93186950Y-41929378D01*
X93186950Y-41929378D02*
X93091712Y-41976997D01*
X93091712Y-41976997D02*
X92996474Y-41976997D01*
X92996474Y-41976997D02*
X92901236Y-41929378D01*
X92901236Y-41929378D02*
X92853617Y-41881759D01*
X92853617Y-41881759D02*
X92805998Y-41786521D01*
X92805998Y-41786521D02*
X92805998Y-41548426D01*
X92805998Y-41548426D02*
X92853617Y-41405569D01*
X92805998Y-41072235D02*
X93805998Y-40834140D01*
X93805998Y-40834140D02*
X93091712Y-40643664D01*
X93091712Y-40643664D02*
X93805998Y-40453188D01*
X93805998Y-40453188D02*
X92805998Y-40215093D01*
X92901236Y-39881759D02*
X92853617Y-39834140D01*
X92853617Y-39834140D02*
X92805998Y-39738902D01*
X92805998Y-39738902D02*
X92805998Y-39500807D01*
X92805998Y-39500807D02*
X92853617Y-39405569D01*
X92853617Y-39405569D02*
X92901236Y-39357950D01*
X92901236Y-39357950D02*
X92996474Y-39310331D01*
X92996474Y-39310331D02*
X93091712Y-39310331D01*
X93091712Y-39310331D02*
X93234569Y-39357950D01*
X93234569Y-39357950D02*
X93805998Y-39929378D01*
X93805998Y-39929378D02*
X93805998Y-39310331D01*
D10*
X86486085Y-51325082D02*
X86438466Y-51372702D01*
X86438466Y-51372702D02*
X86295609Y-51420321D01*
X86295609Y-51420321D02*
X86200371Y-51420321D01*
X86200371Y-51420321D02*
X86057514Y-51372702D01*
X86057514Y-51372702D02*
X85962276Y-51277463D01*
X85962276Y-51277463D02*
X85914657Y-51182225D01*
X85914657Y-51182225D02*
X85867038Y-50991749D01*
X85867038Y-50991749D02*
X85867038Y-50848892D01*
X85867038Y-50848892D02*
X85914657Y-50658416D01*
X85914657Y-50658416D02*
X85962276Y-50563178D01*
X85962276Y-50563178D02*
X86057514Y-50467940D01*
X86057514Y-50467940D02*
X86200371Y-50420321D01*
X86200371Y-50420321D02*
X86295609Y-50420321D01*
X86295609Y-50420321D02*
X86438466Y-50467940D01*
X86438466Y-50467940D02*
X86486085Y-50515559D01*
X87343228Y-50753654D02*
X87343228Y-51420321D01*
X87105133Y-50372702D02*
X86867038Y-51086987D01*
X86867038Y-51086987D02*
X87486085Y-51086987D01*
D11*
X76655548Y-86435026D02*
X76655548Y-87149311D01*
X76655548Y-87149311D02*
X76607929Y-87292168D01*
X76607929Y-87292168D02*
X76512691Y-87387407D01*
X76512691Y-87387407D02*
X76369834Y-87435026D01*
X76369834Y-87435026D02*
X76274596Y-87435026D01*
X77084120Y-86530264D02*
X77131739Y-86482645D01*
X77131739Y-86482645D02*
X77226977Y-86435026D01*
X77226977Y-86435026D02*
X77465072Y-86435026D01*
X77465072Y-86435026D02*
X77560310Y-86482645D01*
X77560310Y-86482645D02*
X77607929Y-86530264D01*
X77607929Y-86530264D02*
X77655548Y-86625502D01*
X77655548Y-86625502D02*
X77655548Y-86720740D01*
X77655548Y-86720740D02*
X77607929Y-86863597D01*
X77607929Y-86863597D02*
X77036501Y-87435026D01*
X77036501Y-87435026D02*
X77655548Y-87435026D01*
D10*
X86213790Y-81071784D02*
X85737599Y-81405117D01*
X86213790Y-81643212D02*
X85213790Y-81643212D01*
X85213790Y-81643212D02*
X85213790Y-81262260D01*
X85213790Y-81262260D02*
X85261409Y-81167022D01*
X85261409Y-81167022D02*
X85309028Y-81119403D01*
X85309028Y-81119403D02*
X85404266Y-81071784D01*
X85404266Y-81071784D02*
X85547123Y-81071784D01*
X85547123Y-81071784D02*
X85642361Y-81119403D01*
X85642361Y-81119403D02*
X85689980Y-81167022D01*
X85689980Y-81167022D02*
X85737599Y-81262260D01*
X85737599Y-81262260D02*
X85737599Y-81643212D01*
X86213790Y-80119403D02*
X86213790Y-80690831D01*
X86213790Y-80405117D02*
X85213790Y-80405117D01*
X85213790Y-80405117D02*
X85356647Y-80500355D01*
X85356647Y-80500355D02*
X85451885Y-80595593D01*
X85451885Y-80595593D02*
X85499504Y-80690831D01*
X86213790Y-79167022D02*
X86213790Y-79738450D01*
X86213790Y-79452736D02*
X85213790Y-79452736D01*
X85213790Y-79452736D02*
X85356647Y-79547974D01*
X85356647Y-79547974D02*
X85451885Y-79643212D01*
X85451885Y-79643212D02*
X85499504Y-79738450D01*
X93627470Y-83854813D02*
X93151279Y-84188146D01*
X93627470Y-84426241D02*
X92627470Y-84426241D01*
X92627470Y-84426241D02*
X92627470Y-84045289D01*
X92627470Y-84045289D02*
X92675089Y-83950051D01*
X92675089Y-83950051D02*
X92722708Y-83902432D01*
X92722708Y-83902432D02*
X92817946Y-83854813D01*
X92817946Y-83854813D02*
X92960803Y-83854813D01*
X92960803Y-83854813D02*
X93056041Y-83902432D01*
X93056041Y-83902432D02*
X93103660Y-83950051D01*
X93103660Y-83950051D02*
X93151279Y-84045289D01*
X93151279Y-84045289D02*
X93151279Y-84426241D01*
X93627470Y-82902432D02*
X93627470Y-83473860D01*
X93627470Y-83188146D02*
X92627470Y-83188146D01*
X92627470Y-83188146D02*
X92770327Y-83283384D01*
X92770327Y-83283384D02*
X92865565Y-83378622D01*
X92865565Y-83378622D02*
X92913184Y-83473860D01*
X92627470Y-82045289D02*
X92627470Y-82235765D01*
X92627470Y-82235765D02*
X92675089Y-82331003D01*
X92675089Y-82331003D02*
X92722708Y-82378622D01*
X92722708Y-82378622D02*
X92865565Y-82473860D01*
X92865565Y-82473860D02*
X93056041Y-82521479D01*
X93056041Y-82521479D02*
X93436993Y-82521479D01*
X93436993Y-82521479D02*
X93532231Y-82473860D01*
X93532231Y-82473860D02*
X93579851Y-82426241D01*
X93579851Y-82426241D02*
X93627470Y-82331003D01*
X93627470Y-82331003D02*
X93627470Y-82140527D01*
X93627470Y-82140527D02*
X93579851Y-82045289D01*
X93579851Y-82045289D02*
X93532231Y-81997670D01*
X93532231Y-81997670D02*
X93436993Y-81950051D01*
X93436993Y-81950051D02*
X93198898Y-81950051D01*
X93198898Y-81950051D02*
X93103660Y-81997670D01*
X93103660Y-81997670D02*
X93056041Y-82045289D01*
X93056041Y-82045289D02*
X93008422Y-82140527D01*
X93008422Y-82140527D02*
X93008422Y-82331003D01*
X93008422Y-82331003D02*
X93056041Y-82426241D01*
X93056041Y-82426241D02*
X93103660Y-82473860D01*
X93103660Y-82473860D02*
X93198898Y-82521479D01*
X89206544Y-63450594D02*
X88206544Y-63450594D01*
X88206544Y-63450594D02*
X88206544Y-63212499D01*
X88206544Y-63212499D02*
X88254163Y-63069642D01*
X88254163Y-63069642D02*
X88349401Y-62974404D01*
X88349401Y-62974404D02*
X88444639Y-62926785D01*
X88444639Y-62926785D02*
X88635115Y-62879166D01*
X88635115Y-62879166D02*
X88777972Y-62879166D01*
X88777972Y-62879166D02*
X88968448Y-62926785D01*
X88968448Y-62926785D02*
X89063686Y-62974404D01*
X89063686Y-62974404D02*
X89158925Y-63069642D01*
X89158925Y-63069642D02*
X89206544Y-63212499D01*
X89206544Y-63212499D02*
X89206544Y-63450594D01*
X89206544Y-61926785D02*
X89206544Y-62498213D01*
X89206544Y-62212499D02*
X88206544Y-62212499D01*
X88206544Y-62212499D02*
X88349401Y-62307737D01*
X88349401Y-62307737D02*
X88444639Y-62402975D01*
X88444639Y-62402975D02*
X88492258Y-62498213D01*
X90110011Y-54466901D02*
X89633820Y-54800234D01*
X90110011Y-55038329D02*
X89110011Y-55038329D01*
X89110011Y-55038329D02*
X89110011Y-54657377D01*
X89110011Y-54657377D02*
X89157630Y-54562139D01*
X89157630Y-54562139D02*
X89205249Y-54514520D01*
X89205249Y-54514520D02*
X89300487Y-54466901D01*
X89300487Y-54466901D02*
X89443344Y-54466901D01*
X89443344Y-54466901D02*
X89538582Y-54514520D01*
X89538582Y-54514520D02*
X89586201Y-54562139D01*
X89586201Y-54562139D02*
X89633820Y-54657377D01*
X89633820Y-54657377D02*
X89633820Y-55038329D01*
X89110011Y-54133567D02*
X89110011Y-53514520D01*
X89110011Y-53514520D02*
X89490963Y-53847853D01*
X89490963Y-53847853D02*
X89490963Y-53704996D01*
X89490963Y-53704996D02*
X89538582Y-53609758D01*
X89538582Y-53609758D02*
X89586201Y-53562139D01*
X89586201Y-53562139D02*
X89681439Y-53514520D01*
X89681439Y-53514520D02*
X89919534Y-53514520D01*
X89919534Y-53514520D02*
X90014772Y-53562139D01*
X90014772Y-53562139D02*
X90062392Y-53609758D01*
X90062392Y-53609758D02*
X90110011Y-53704996D01*
X90110011Y-53704996D02*
X90110011Y-53990710D01*
X90110011Y-53990710D02*
X90062392Y-54085948D01*
X90062392Y-54085948D02*
X90014772Y-54133567D01*
X90787419Y-67096666D02*
X90311228Y-67429999D01*
X90787419Y-67668094D02*
X89787419Y-67668094D01*
X89787419Y-67668094D02*
X89787419Y-67287142D01*
X89787419Y-67287142D02*
X89835038Y-67191904D01*
X89835038Y-67191904D02*
X89882657Y-67144285D01*
X89882657Y-67144285D02*
X89977895Y-67096666D01*
X89977895Y-67096666D02*
X90120752Y-67096666D01*
X90120752Y-67096666D02*
X90215990Y-67144285D01*
X90215990Y-67144285D02*
X90263609Y-67191904D01*
X90263609Y-67191904D02*
X90311228Y-67287142D01*
X90311228Y-67287142D02*
X90311228Y-67668094D01*
X89787419Y-66239523D02*
X89787419Y-66429999D01*
X89787419Y-66429999D02*
X89835038Y-66525237D01*
X89835038Y-66525237D02*
X89882657Y-66572856D01*
X89882657Y-66572856D02*
X90025514Y-66668094D01*
X90025514Y-66668094D02*
X90215990Y-66715713D01*
X90215990Y-66715713D02*
X90596942Y-66715713D01*
X90596942Y-66715713D02*
X90692180Y-66668094D01*
X90692180Y-66668094D02*
X90739800Y-66620475D01*
X90739800Y-66620475D02*
X90787419Y-66525237D01*
X90787419Y-66525237D02*
X90787419Y-66334761D01*
X90787419Y-66334761D02*
X90739800Y-66239523D01*
X90739800Y-66239523D02*
X90692180Y-66191904D01*
X90692180Y-66191904D02*
X90596942Y-66144285D01*
X90596942Y-66144285D02*
X90358847Y-66144285D01*
X90358847Y-66144285D02*
X90263609Y-66191904D01*
X90263609Y-66191904D02*
X90215990Y-66239523D01*
X90215990Y-66239523D02*
X90168371Y-66334761D01*
X90168371Y-66334761D02*
X90168371Y-66525237D01*
X90168371Y-66525237D02*
X90215990Y-66620475D01*
X90215990Y-66620475D02*
X90263609Y-66668094D01*
X90263609Y-66668094D02*
X90358847Y-66715713D01*
X80652696Y-50708673D02*
X81462219Y-50708673D01*
X81462219Y-50708673D02*
X81557457Y-50661054D01*
X81557457Y-50661054D02*
X81605077Y-50613435D01*
X81605077Y-50613435D02*
X81652696Y-50518197D01*
X81652696Y-50518197D02*
X81652696Y-50327721D01*
X81652696Y-50327721D02*
X81605077Y-50232483D01*
X81605077Y-50232483D02*
X81557457Y-50184864D01*
X81557457Y-50184864D02*
X81462219Y-50137245D01*
X81462219Y-50137245D02*
X80652696Y-50137245D01*
X80747934Y-49708673D02*
X80700315Y-49661054D01*
X80700315Y-49661054D02*
X80652696Y-49565816D01*
X80652696Y-49565816D02*
X80652696Y-49327721D01*
X80652696Y-49327721D02*
X80700315Y-49232483D01*
X80700315Y-49232483D02*
X80747934Y-49184864D01*
X80747934Y-49184864D02*
X80843172Y-49137245D01*
X80843172Y-49137245D02*
X80938410Y-49137245D01*
X80938410Y-49137245D02*
X81081267Y-49184864D01*
X81081267Y-49184864D02*
X81652696Y-49756292D01*
X81652696Y-49756292D02*
X81652696Y-49137245D01*
X82306064Y-74904676D02*
X82877492Y-74904676D01*
X82591778Y-75904676D02*
X82591778Y-74904676D01*
X83210826Y-75904676D02*
X83210826Y-74904676D01*
X83210826Y-74904676D02*
X83591778Y-74904676D01*
X83591778Y-74904676D02*
X83687016Y-74952295D01*
X83687016Y-74952295D02*
X83734635Y-74999914D01*
X83734635Y-74999914D02*
X83782254Y-75095152D01*
X83782254Y-75095152D02*
X83782254Y-75238009D01*
X83782254Y-75238009D02*
X83734635Y-75333247D01*
X83734635Y-75333247D02*
X83687016Y-75380866D01*
X83687016Y-75380866D02*
X83591778Y-75428485D01*
X83591778Y-75428485D02*
X83210826Y-75428485D01*
X84163207Y-74999914D02*
X84210826Y-74952295D01*
X84210826Y-74952295D02*
X84306064Y-74904676D01*
X84306064Y-74904676D02*
X84544159Y-74904676D01*
X84544159Y-74904676D02*
X84639397Y-74952295D01*
X84639397Y-74952295D02*
X84687016Y-74999914D01*
X84687016Y-74999914D02*
X84734635Y-75095152D01*
X84734635Y-75095152D02*
X84734635Y-75190390D01*
X84734635Y-75190390D02*
X84687016Y-75333247D01*
X84687016Y-75333247D02*
X84115588Y-75904676D01*
X84115588Y-75904676D02*
X84734635Y-75904676D01*
X55730885Y-42887454D02*
X56397551Y-43887454D01*
X56397551Y-42887454D02*
X55730885Y-43887454D01*
X57302313Y-43887454D02*
X56730885Y-43887454D01*
X57016599Y-43887454D02*
X57016599Y-42887454D01*
X57016599Y-42887454D02*
X56921361Y-43030311D01*
X56921361Y-43030311D02*
X56826123Y-43125549D01*
X56826123Y-43125549D02*
X56730885Y-43173168D01*
X83280577Y-50733177D02*
X83232958Y-50780797D01*
X83232958Y-50780797D02*
X83090101Y-50828416D01*
X83090101Y-50828416D02*
X82994863Y-50828416D01*
X82994863Y-50828416D02*
X82852006Y-50780797D01*
X82852006Y-50780797D02*
X82756768Y-50685558D01*
X82756768Y-50685558D02*
X82709149Y-50590320D01*
X82709149Y-50590320D02*
X82661530Y-50399844D01*
X82661530Y-50399844D02*
X82661530Y-50256987D01*
X82661530Y-50256987D02*
X82709149Y-50066511D01*
X82709149Y-50066511D02*
X82756768Y-49971273D01*
X82756768Y-49971273D02*
X82852006Y-49876035D01*
X82852006Y-49876035D02*
X82994863Y-49828416D01*
X82994863Y-49828416D02*
X83090101Y-49828416D01*
X83090101Y-49828416D02*
X83232958Y-49876035D01*
X83232958Y-49876035D02*
X83280577Y-49923654D01*
X83661530Y-49923654D02*
X83709149Y-49876035D01*
X83709149Y-49876035D02*
X83804387Y-49828416D01*
X83804387Y-49828416D02*
X84042482Y-49828416D01*
X84042482Y-49828416D02*
X84137720Y-49876035D01*
X84137720Y-49876035D02*
X84185339Y-49923654D01*
X84185339Y-49923654D02*
X84232958Y-50018892D01*
X84232958Y-50018892D02*
X84232958Y-50114130D01*
X84232958Y-50114130D02*
X84185339Y-50256987D01*
X84185339Y-50256987D02*
X83613911Y-50828416D01*
X83613911Y-50828416D02*
X84232958Y-50828416D01*
X44727440Y-41796193D02*
X44775060Y-41843812D01*
X44775060Y-41843812D02*
X44822679Y-41986669D01*
X44822679Y-41986669D02*
X44822679Y-42081907D01*
X44822679Y-42081907D02*
X44775060Y-42224764D01*
X44775060Y-42224764D02*
X44679821Y-42320002D01*
X44679821Y-42320002D02*
X44584583Y-42367621D01*
X44584583Y-42367621D02*
X44394107Y-42415240D01*
X44394107Y-42415240D02*
X44251250Y-42415240D01*
X44251250Y-42415240D02*
X44060774Y-42367621D01*
X44060774Y-42367621D02*
X43965536Y-42320002D01*
X43965536Y-42320002D02*
X43870298Y-42224764D01*
X43870298Y-42224764D02*
X43822679Y-42081907D01*
X43822679Y-42081907D02*
X43822679Y-41986669D01*
X43822679Y-41986669D02*
X43870298Y-41843812D01*
X43870298Y-41843812D02*
X43917917Y-41796193D01*
X44251250Y-41224764D02*
X44203631Y-41320002D01*
X44203631Y-41320002D02*
X44156012Y-41367621D01*
X44156012Y-41367621D02*
X44060774Y-41415240D01*
X44060774Y-41415240D02*
X44013155Y-41415240D01*
X44013155Y-41415240D02*
X43917917Y-41367621D01*
X43917917Y-41367621D02*
X43870298Y-41320002D01*
X43870298Y-41320002D02*
X43822679Y-41224764D01*
X43822679Y-41224764D02*
X43822679Y-41034288D01*
X43822679Y-41034288D02*
X43870298Y-40939050D01*
X43870298Y-40939050D02*
X43917917Y-40891431D01*
X43917917Y-40891431D02*
X44013155Y-40843812D01*
X44013155Y-40843812D02*
X44060774Y-40843812D01*
X44060774Y-40843812D02*
X44156012Y-40891431D01*
X44156012Y-40891431D02*
X44203631Y-40939050D01*
X44203631Y-40939050D02*
X44251250Y-41034288D01*
X44251250Y-41034288D02*
X44251250Y-41224764D01*
X44251250Y-41224764D02*
X44298869Y-41320002D01*
X44298869Y-41320002D02*
X44346488Y-41367621D01*
X44346488Y-41367621D02*
X44441726Y-41415240D01*
X44441726Y-41415240D02*
X44632202Y-41415240D01*
X44632202Y-41415240D02*
X44727440Y-41367621D01*
X44727440Y-41367621D02*
X44775060Y-41320002D01*
X44775060Y-41320002D02*
X44822679Y-41224764D01*
X44822679Y-41224764D02*
X44822679Y-41034288D01*
X44822679Y-41034288D02*
X44775060Y-40939050D01*
X44775060Y-40939050D02*
X44727440Y-40891431D01*
X44727440Y-40891431D02*
X44632202Y-40843812D01*
X44632202Y-40843812D02*
X44441726Y-40843812D01*
X44441726Y-40843812D02*
X44346488Y-40891431D01*
X44346488Y-40891431D02*
X44298869Y-40939050D01*
X44298869Y-40939050D02*
X44251250Y-41034288D01*
X45236858Y-80896709D02*
X45236858Y-81372899D01*
X45236858Y-81372899D02*
X44236858Y-81372899D01*
X45189239Y-80610994D02*
X45236858Y-80468137D01*
X45236858Y-80468137D02*
X45236858Y-80230042D01*
X45236858Y-80230042D02*
X45189239Y-80134804D01*
X45189239Y-80134804D02*
X45141619Y-80087185D01*
X45141619Y-80087185D02*
X45046381Y-80039566D01*
X45046381Y-80039566D02*
X44951143Y-80039566D01*
X44951143Y-80039566D02*
X44855905Y-80087185D01*
X44855905Y-80087185D02*
X44808286Y-80134804D01*
X44808286Y-80134804D02*
X44760667Y-80230042D01*
X44760667Y-80230042D02*
X44713048Y-80420518D01*
X44713048Y-80420518D02*
X44665429Y-80515756D01*
X44665429Y-80515756D02*
X44617810Y-80563375D01*
X44617810Y-80563375D02*
X44522572Y-80610994D01*
X44522572Y-80610994D02*
X44427334Y-80610994D01*
X44427334Y-80610994D02*
X44332096Y-80563375D01*
X44332096Y-80563375D02*
X44284477Y-80515756D01*
X44284477Y-80515756D02*
X44236858Y-80420518D01*
X44236858Y-80420518D02*
X44236858Y-80182423D01*
X44236858Y-80182423D02*
X44284477Y-80039566D01*
X45236858Y-79087185D02*
X45236858Y-79658613D01*
X45236858Y-79372899D02*
X44236858Y-79372899D01*
X44236858Y-79372899D02*
X44379715Y-79468137D01*
X44379715Y-79468137D02*
X44474953Y-79563375D01*
X44474953Y-79563375D02*
X44522572Y-79658613D01*
X90872955Y-69020384D02*
X90396764Y-69353717D01*
X90872955Y-69591812D02*
X89872955Y-69591812D01*
X89872955Y-69591812D02*
X89872955Y-69210860D01*
X89872955Y-69210860D02*
X89920574Y-69115622D01*
X89920574Y-69115622D02*
X89968193Y-69068003D01*
X89968193Y-69068003D02*
X90063431Y-69020384D01*
X90063431Y-69020384D02*
X90206288Y-69020384D01*
X90206288Y-69020384D02*
X90301526Y-69068003D01*
X90301526Y-69068003D02*
X90349145Y-69115622D01*
X90349145Y-69115622D02*
X90396764Y-69210860D01*
X90396764Y-69210860D02*
X90396764Y-69591812D01*
X89872955Y-68687050D02*
X89872955Y-68020384D01*
X89872955Y-68020384D02*
X90872955Y-68448955D01*
X70953333Y-54907419D02*
X70620000Y-54431228D01*
X70381905Y-54907419D02*
X70381905Y-53907419D01*
X70381905Y-53907419D02*
X70762857Y-53907419D01*
X70762857Y-53907419D02*
X70858095Y-53955038D01*
X70858095Y-53955038D02*
X70905714Y-54002657D01*
X70905714Y-54002657D02*
X70953333Y-54097895D01*
X70953333Y-54097895D02*
X70953333Y-54240752D01*
X70953333Y-54240752D02*
X70905714Y-54335990D01*
X70905714Y-54335990D02*
X70858095Y-54383609D01*
X70858095Y-54383609D02*
X70762857Y-54431228D01*
X70762857Y-54431228D02*
X70381905Y-54431228D01*
X71524762Y-54335990D02*
X71429524Y-54288371D01*
X71429524Y-54288371D02*
X71381905Y-54240752D01*
X71381905Y-54240752D02*
X71334286Y-54145514D01*
X71334286Y-54145514D02*
X71334286Y-54097895D01*
X71334286Y-54097895D02*
X71381905Y-54002657D01*
X71381905Y-54002657D02*
X71429524Y-53955038D01*
X71429524Y-53955038D02*
X71524762Y-53907419D01*
X71524762Y-53907419D02*
X71715238Y-53907419D01*
X71715238Y-53907419D02*
X71810476Y-53955038D01*
X71810476Y-53955038D02*
X71858095Y-54002657D01*
X71858095Y-54002657D02*
X71905714Y-54097895D01*
X71905714Y-54097895D02*
X71905714Y-54145514D01*
X71905714Y-54145514D02*
X71858095Y-54240752D01*
X71858095Y-54240752D02*
X71810476Y-54288371D01*
X71810476Y-54288371D02*
X71715238Y-54335990D01*
X71715238Y-54335990D02*
X71524762Y-54335990D01*
X71524762Y-54335990D02*
X71429524Y-54383609D01*
X71429524Y-54383609D02*
X71381905Y-54431228D01*
X71381905Y-54431228D02*
X71334286Y-54526466D01*
X71334286Y-54526466D02*
X71334286Y-54716942D01*
X71334286Y-54716942D02*
X71381905Y-54812180D01*
X71381905Y-54812180D02*
X71429524Y-54859800D01*
X71429524Y-54859800D02*
X71524762Y-54907419D01*
X71524762Y-54907419D02*
X71715238Y-54907419D01*
X71715238Y-54907419D02*
X71810476Y-54859800D01*
X71810476Y-54859800D02*
X71858095Y-54812180D01*
X71858095Y-54812180D02*
X71905714Y-54716942D01*
X71905714Y-54716942D02*
X71905714Y-54526466D01*
X71905714Y-54526466D02*
X71858095Y-54431228D01*
X71858095Y-54431228D02*
X71810476Y-54383609D01*
X71810476Y-54383609D02*
X71715238Y-54335990D01*
X88247419Y-66206666D02*
X87771228Y-66539999D01*
X88247419Y-66778094D02*
X87247419Y-66778094D01*
X87247419Y-66778094D02*
X87247419Y-66397142D01*
X87247419Y-66397142D02*
X87295038Y-66301904D01*
X87295038Y-66301904D02*
X87342657Y-66254285D01*
X87342657Y-66254285D02*
X87437895Y-66206666D01*
X87437895Y-66206666D02*
X87580752Y-66206666D01*
X87580752Y-66206666D02*
X87675990Y-66254285D01*
X87675990Y-66254285D02*
X87723609Y-66301904D01*
X87723609Y-66301904D02*
X87771228Y-66397142D01*
X87771228Y-66397142D02*
X87771228Y-66778094D01*
X88247419Y-65730475D02*
X88247419Y-65539999D01*
X88247419Y-65539999D02*
X88199800Y-65444761D01*
X88199800Y-65444761D02*
X88152180Y-65397142D01*
X88152180Y-65397142D02*
X88009323Y-65301904D01*
X88009323Y-65301904D02*
X87818847Y-65254285D01*
X87818847Y-65254285D02*
X87437895Y-65254285D01*
X87437895Y-65254285D02*
X87342657Y-65301904D01*
X87342657Y-65301904D02*
X87295038Y-65349523D01*
X87295038Y-65349523D02*
X87247419Y-65444761D01*
X87247419Y-65444761D02*
X87247419Y-65635237D01*
X87247419Y-65635237D02*
X87295038Y-65730475D01*
X87295038Y-65730475D02*
X87342657Y-65778094D01*
X87342657Y-65778094D02*
X87437895Y-65825713D01*
X87437895Y-65825713D02*
X87675990Y-65825713D01*
X87675990Y-65825713D02*
X87771228Y-65778094D01*
X87771228Y-65778094D02*
X87818847Y-65730475D01*
X87818847Y-65730475D02*
X87866466Y-65635237D01*
X87866466Y-65635237D02*
X87866466Y-65444761D01*
X87866466Y-65444761D02*
X87818847Y-65349523D01*
X87818847Y-65349523D02*
X87771228Y-65301904D01*
X87771228Y-65301904D02*
X87675990Y-65254285D01*
X44712388Y-38756039D02*
X44760008Y-38803658D01*
X44760008Y-38803658D02*
X44807627Y-38946515D01*
X44807627Y-38946515D02*
X44807627Y-39041753D01*
X44807627Y-39041753D02*
X44760008Y-39184610D01*
X44760008Y-39184610D02*
X44664769Y-39279848D01*
X44664769Y-39279848D02*
X44569531Y-39327467D01*
X44569531Y-39327467D02*
X44379055Y-39375086D01*
X44379055Y-39375086D02*
X44236198Y-39375086D01*
X44236198Y-39375086D02*
X44045722Y-39327467D01*
X44045722Y-39327467D02*
X43950484Y-39279848D01*
X43950484Y-39279848D02*
X43855246Y-39184610D01*
X43855246Y-39184610D02*
X43807627Y-39041753D01*
X43807627Y-39041753D02*
X43807627Y-38946515D01*
X43807627Y-38946515D02*
X43855246Y-38803658D01*
X43855246Y-38803658D02*
X43902865Y-38756039D01*
X43807627Y-37898896D02*
X43807627Y-38089372D01*
X43807627Y-38089372D02*
X43855246Y-38184610D01*
X43855246Y-38184610D02*
X43902865Y-38232229D01*
X43902865Y-38232229D02*
X44045722Y-38327467D01*
X44045722Y-38327467D02*
X44236198Y-38375086D01*
X44236198Y-38375086D02*
X44617150Y-38375086D01*
X44617150Y-38375086D02*
X44712388Y-38327467D01*
X44712388Y-38327467D02*
X44760008Y-38279848D01*
X44760008Y-38279848D02*
X44807627Y-38184610D01*
X44807627Y-38184610D02*
X44807627Y-37994134D01*
X44807627Y-37994134D02*
X44760008Y-37898896D01*
X44760008Y-37898896D02*
X44712388Y-37851277D01*
X44712388Y-37851277D02*
X44617150Y-37803658D01*
X44617150Y-37803658D02*
X44379055Y-37803658D01*
X44379055Y-37803658D02*
X44283817Y-37851277D01*
X44283817Y-37851277D02*
X44236198Y-37898896D01*
X44236198Y-37898896D02*
X44188579Y-37994134D01*
X44188579Y-37994134D02*
X44188579Y-38184610D01*
X44188579Y-38184610D02*
X44236198Y-38279848D01*
X44236198Y-38279848D02*
X44283817Y-38327467D01*
X44283817Y-38327467D02*
X44379055Y-38375086D01*
X72684549Y-50804394D02*
X72732169Y-50852013D01*
X72732169Y-50852013D02*
X72779788Y-50994870D01*
X72779788Y-50994870D02*
X72779788Y-51090108D01*
X72779788Y-51090108D02*
X72732169Y-51232965D01*
X72732169Y-51232965D02*
X72636930Y-51328203D01*
X72636930Y-51328203D02*
X72541692Y-51375822D01*
X72541692Y-51375822D02*
X72351216Y-51423441D01*
X72351216Y-51423441D02*
X72208359Y-51423441D01*
X72208359Y-51423441D02*
X72017883Y-51375822D01*
X72017883Y-51375822D02*
X71922645Y-51328203D01*
X71922645Y-51328203D02*
X71827407Y-51232965D01*
X71827407Y-51232965D02*
X71779788Y-51090108D01*
X71779788Y-51090108D02*
X71779788Y-50994870D01*
X71779788Y-50994870D02*
X71827407Y-50852013D01*
X71827407Y-50852013D02*
X71875026Y-50804394D01*
X71779788Y-49899632D02*
X71779788Y-50375822D01*
X71779788Y-50375822D02*
X72255978Y-50423441D01*
X72255978Y-50423441D02*
X72208359Y-50375822D01*
X72208359Y-50375822D02*
X72160740Y-50280584D01*
X72160740Y-50280584D02*
X72160740Y-50042489D01*
X72160740Y-50042489D02*
X72208359Y-49947251D01*
X72208359Y-49947251D02*
X72255978Y-49899632D01*
X72255978Y-49899632D02*
X72351216Y-49852013D01*
X72351216Y-49852013D02*
X72589311Y-49852013D01*
X72589311Y-49852013D02*
X72684549Y-49899632D01*
X72684549Y-49899632D02*
X72732169Y-49947251D01*
X72732169Y-49947251D02*
X72779788Y-50042489D01*
X72779788Y-50042489D02*
X72779788Y-50280584D01*
X72779788Y-50280584D02*
X72732169Y-50375822D01*
X72732169Y-50375822D02*
X72684549Y-50423441D01*
X89159125Y-73776804D02*
X88825792Y-73300613D01*
X88587697Y-73776804D02*
X88587697Y-72776804D01*
X88587697Y-72776804D02*
X88968649Y-72776804D01*
X88968649Y-72776804D02*
X89063887Y-72824423D01*
X89063887Y-72824423D02*
X89111506Y-72872042D01*
X89111506Y-72872042D02*
X89159125Y-72967280D01*
X89159125Y-72967280D02*
X89159125Y-73110137D01*
X89159125Y-73110137D02*
X89111506Y-73205375D01*
X89111506Y-73205375D02*
X89063887Y-73252994D01*
X89063887Y-73252994D02*
X88968649Y-73300613D01*
X88968649Y-73300613D02*
X88587697Y-73300613D01*
X90111506Y-73776804D02*
X89540078Y-73776804D01*
X89825792Y-73776804D02*
X89825792Y-72776804D01*
X89825792Y-72776804D02*
X89730554Y-72919661D01*
X89730554Y-72919661D02*
X89635316Y-73014899D01*
X89635316Y-73014899D02*
X89540078Y-73062518D01*
X90492459Y-72872042D02*
X90540078Y-72824423D01*
X90540078Y-72824423D02*
X90635316Y-72776804D01*
X90635316Y-72776804D02*
X90873411Y-72776804D01*
X90873411Y-72776804D02*
X90968649Y-72824423D01*
X90968649Y-72824423D02*
X91016268Y-72872042D01*
X91016268Y-72872042D02*
X91063887Y-72967280D01*
X91063887Y-72967280D02*
X91063887Y-73062518D01*
X91063887Y-73062518D02*
X91016268Y-73205375D01*
X91016268Y-73205375D02*
X90444840Y-73776804D01*
X90444840Y-73776804D02*
X91063887Y-73776804D01*
X80347648Y-49578184D02*
X80395268Y-49625803D01*
X80395268Y-49625803D02*
X80442887Y-49768660D01*
X80442887Y-49768660D02*
X80442887Y-49863898D01*
X80442887Y-49863898D02*
X80395268Y-50006755D01*
X80395268Y-50006755D02*
X80300029Y-50101993D01*
X80300029Y-50101993D02*
X80204791Y-50149612D01*
X80204791Y-50149612D02*
X80014315Y-50197231D01*
X80014315Y-50197231D02*
X79871458Y-50197231D01*
X79871458Y-50197231D02*
X79680982Y-50149612D01*
X79680982Y-50149612D02*
X79585744Y-50101993D01*
X79585744Y-50101993D02*
X79490506Y-50006755D01*
X79490506Y-50006755D02*
X79442887Y-49863898D01*
X79442887Y-49863898D02*
X79442887Y-49768660D01*
X79442887Y-49768660D02*
X79490506Y-49625803D01*
X79490506Y-49625803D02*
X79538125Y-49578184D01*
X80442887Y-48625803D02*
X80442887Y-49197231D01*
X80442887Y-48911517D02*
X79442887Y-48911517D01*
X79442887Y-48911517D02*
X79585744Y-49006755D01*
X79585744Y-49006755D02*
X79680982Y-49101993D01*
X79680982Y-49101993D02*
X79728601Y-49197231D01*
X87668023Y-81051703D02*
X87191832Y-81385036D01*
X87668023Y-81623131D02*
X86668023Y-81623131D01*
X86668023Y-81623131D02*
X86668023Y-81242179D01*
X86668023Y-81242179D02*
X86715642Y-81146941D01*
X86715642Y-81146941D02*
X86763261Y-81099322D01*
X86763261Y-81099322D02*
X86858499Y-81051703D01*
X86858499Y-81051703D02*
X87001356Y-81051703D01*
X87001356Y-81051703D02*
X87096594Y-81099322D01*
X87096594Y-81099322D02*
X87144213Y-81146941D01*
X87144213Y-81146941D02*
X87191832Y-81242179D01*
X87191832Y-81242179D02*
X87191832Y-81623131D01*
X87668023Y-80099322D02*
X87668023Y-80670750D01*
X87668023Y-80385036D02*
X86668023Y-80385036D01*
X86668023Y-80385036D02*
X86810880Y-80480274D01*
X86810880Y-80480274D02*
X86906118Y-80575512D01*
X86906118Y-80575512D02*
X86953737Y-80670750D01*
X87001356Y-79242179D02*
X87668023Y-79242179D01*
X86620404Y-79480274D02*
X87334689Y-79718369D01*
X87334689Y-79718369D02*
X87334689Y-79099322D01*
X83287968Y-72622722D02*
X83859396Y-72622722D01*
X83573682Y-73622722D02*
X83573682Y-72622722D01*
X84192730Y-73622722D02*
X84192730Y-72622722D01*
X84192730Y-72622722D02*
X84573682Y-72622722D01*
X84573682Y-72622722D02*
X84668920Y-72670341D01*
X84668920Y-72670341D02*
X84716539Y-72717960D01*
X84716539Y-72717960D02*
X84764158Y-72813198D01*
X84764158Y-72813198D02*
X84764158Y-72956055D01*
X84764158Y-72956055D02*
X84716539Y-73051293D01*
X84716539Y-73051293D02*
X84668920Y-73098912D01*
X84668920Y-73098912D02*
X84573682Y-73146531D01*
X84573682Y-73146531D02*
X84192730Y-73146531D01*
X85621301Y-72956055D02*
X85621301Y-73622722D01*
X85383206Y-72575103D02*
X85145111Y-73289388D01*
X85145111Y-73289388D02*
X85764158Y-73289388D01*
X85355688Y-80488496D02*
X85927116Y-80488496D01*
X85641402Y-81488496D02*
X85641402Y-80488496D01*
X86260450Y-81488496D02*
X86260450Y-80488496D01*
X86260450Y-80488496D02*
X86641402Y-80488496D01*
X86641402Y-80488496D02*
X86736640Y-80536115D01*
X86736640Y-80536115D02*
X86784259Y-80583734D01*
X86784259Y-80583734D02*
X86831878Y-80678972D01*
X86831878Y-80678972D02*
X86831878Y-80821829D01*
X86831878Y-80821829D02*
X86784259Y-80917067D01*
X86784259Y-80917067D02*
X86736640Y-80964686D01*
X86736640Y-80964686D02*
X86641402Y-81012305D01*
X86641402Y-81012305D02*
X86260450Y-81012305D01*
X87689021Y-80488496D02*
X87498545Y-80488496D01*
X87498545Y-80488496D02*
X87403307Y-80536115D01*
X87403307Y-80536115D02*
X87355688Y-80583734D01*
X87355688Y-80583734D02*
X87260450Y-80726591D01*
X87260450Y-80726591D02*
X87212831Y-80917067D01*
X87212831Y-80917067D02*
X87212831Y-81298019D01*
X87212831Y-81298019D02*
X87260450Y-81393257D01*
X87260450Y-81393257D02*
X87308069Y-81440877D01*
X87308069Y-81440877D02*
X87403307Y-81488496D01*
X87403307Y-81488496D02*
X87593783Y-81488496D01*
X87593783Y-81488496D02*
X87689021Y-81440877D01*
X87689021Y-81440877D02*
X87736640Y-81393257D01*
X87736640Y-81393257D02*
X87784259Y-81298019D01*
X87784259Y-81298019D02*
X87784259Y-81059924D01*
X87784259Y-81059924D02*
X87736640Y-80964686D01*
X87736640Y-80964686D02*
X87689021Y-80917067D01*
X87689021Y-80917067D02*
X87593783Y-80869448D01*
X87593783Y-80869448D02*
X87403307Y-80869448D01*
X87403307Y-80869448D02*
X87308069Y-80917067D01*
X87308069Y-80917067D02*
X87260450Y-80964686D01*
X87260450Y-80964686D02*
X87212831Y-81059924D01*
D11*
X76584228Y-44242082D02*
X76727085Y-44289701D01*
X76727085Y-44289701D02*
X76965180Y-44289701D01*
X76965180Y-44289701D02*
X77060418Y-44242082D01*
X77060418Y-44242082D02*
X77108037Y-44194462D01*
X77108037Y-44194462D02*
X77155656Y-44099224D01*
X77155656Y-44099224D02*
X77155656Y-44003986D01*
X77155656Y-44003986D02*
X77108037Y-43908748D01*
X77108037Y-43908748D02*
X77060418Y-43861129D01*
X77060418Y-43861129D02*
X76965180Y-43813510D01*
X76965180Y-43813510D02*
X76774704Y-43765891D01*
X76774704Y-43765891D02*
X76679466Y-43718272D01*
X76679466Y-43718272D02*
X76631847Y-43670653D01*
X76631847Y-43670653D02*
X76584228Y-43575415D01*
X76584228Y-43575415D02*
X76584228Y-43480177D01*
X76584228Y-43480177D02*
X76631847Y-43384939D01*
X76631847Y-43384939D02*
X76679466Y-43337320D01*
X76679466Y-43337320D02*
X76774704Y-43289701D01*
X76774704Y-43289701D02*
X77012799Y-43289701D01*
X77012799Y-43289701D02*
X77155656Y-43337320D01*
X77488990Y-43289701D02*
X77727085Y-44289701D01*
X77727085Y-44289701D02*
X77917561Y-43575415D01*
X77917561Y-43575415D02*
X78108037Y-44289701D01*
X78108037Y-44289701D02*
X78346133Y-43289701D01*
X79250894Y-44289701D02*
X78679466Y-44289701D01*
X78965180Y-44289701D02*
X78965180Y-43289701D01*
X78965180Y-43289701D02*
X78869942Y-43432558D01*
X78869942Y-43432558D02*
X78774704Y-43527796D01*
X78774704Y-43527796D02*
X78679466Y-43575415D01*
D10*
X86990146Y-80317199D02*
X87561574Y-80317199D01*
X87275860Y-81317199D02*
X87275860Y-80317199D01*
X87894908Y-81317199D02*
X87894908Y-80317199D01*
X87894908Y-80317199D02*
X88275860Y-80317199D01*
X88275860Y-80317199D02*
X88371098Y-80364818D01*
X88371098Y-80364818D02*
X88418717Y-80412437D01*
X88418717Y-80412437D02*
X88466336Y-80507675D01*
X88466336Y-80507675D02*
X88466336Y-80650532D01*
X88466336Y-80650532D02*
X88418717Y-80745770D01*
X88418717Y-80745770D02*
X88371098Y-80793389D01*
X88371098Y-80793389D02*
X88275860Y-80841008D01*
X88275860Y-80841008D02*
X87894908Y-80841008D01*
X88799670Y-80317199D02*
X89466336Y-80317199D01*
X89466336Y-80317199D02*
X89037765Y-81317199D01*
X66625900Y-47531856D02*
X67435423Y-47531856D01*
X67435423Y-47531856D02*
X67530661Y-47484237D01*
X67530661Y-47484237D02*
X67578281Y-47436618D01*
X67578281Y-47436618D02*
X67625900Y-47341380D01*
X67625900Y-47341380D02*
X67625900Y-47150904D01*
X67625900Y-47150904D02*
X67578281Y-47055666D01*
X67578281Y-47055666D02*
X67530661Y-47008047D01*
X67530661Y-47008047D02*
X67435423Y-46960428D01*
X67435423Y-46960428D02*
X66625900Y-46960428D01*
X66959233Y-46055666D02*
X67625900Y-46055666D01*
X66578281Y-46293761D02*
X67292566Y-46531856D01*
X67292566Y-46531856D02*
X67292566Y-45912809D01*
D11*
X65848449Y-29759580D02*
X65800830Y-29807200D01*
X65800830Y-29807200D02*
X65657973Y-29854819D01*
X65657973Y-29854819D02*
X65562735Y-29854819D01*
X65562735Y-29854819D02*
X65419878Y-29807200D01*
X65419878Y-29807200D02*
X65324640Y-29711961D01*
X65324640Y-29711961D02*
X65277021Y-29616723D01*
X65277021Y-29616723D02*
X65229402Y-29426247D01*
X65229402Y-29426247D02*
X65229402Y-29283390D01*
X65229402Y-29283390D02*
X65277021Y-29092914D01*
X65277021Y-29092914D02*
X65324640Y-28997676D01*
X65324640Y-28997676D02*
X65419878Y-28902438D01*
X65419878Y-28902438D02*
X65562735Y-28854819D01*
X65562735Y-28854819D02*
X65657973Y-28854819D01*
X65657973Y-28854819D02*
X65800830Y-28902438D01*
X65800830Y-28902438D02*
X65848449Y-28950057D01*
X66800830Y-29854819D02*
X66229402Y-29854819D01*
X66515116Y-29854819D02*
X66515116Y-28854819D01*
X66515116Y-28854819D02*
X66419878Y-28997676D01*
X66419878Y-28997676D02*
X66324640Y-29092914D01*
X66324640Y-29092914D02*
X66229402Y-29140533D01*
X67753211Y-29854819D02*
X67181783Y-29854819D01*
X67467497Y-29854819D02*
X67467497Y-28854819D01*
X67467497Y-28854819D02*
X67372259Y-28997676D01*
X67372259Y-28997676D02*
X67277021Y-29092914D01*
X67277021Y-29092914D02*
X67181783Y-29140533D01*
X84767618Y-42704045D02*
X84291427Y-43037378D01*
X84767618Y-43275473D02*
X83767618Y-43275473D01*
X83767618Y-43275473D02*
X83767618Y-42894521D01*
X83767618Y-42894521D02*
X83815237Y-42799283D01*
X83815237Y-42799283D02*
X83862856Y-42751664D01*
X83862856Y-42751664D02*
X83958094Y-42704045D01*
X83958094Y-42704045D02*
X84100951Y-42704045D01*
X84100951Y-42704045D02*
X84196189Y-42751664D01*
X84196189Y-42751664D02*
X84243808Y-42799283D01*
X84243808Y-42799283D02*
X84291427Y-42894521D01*
X84291427Y-42894521D02*
X84291427Y-43275473D01*
X83767618Y-41799283D02*
X83767618Y-42275473D01*
X83767618Y-42275473D02*
X84243808Y-42323092D01*
X84243808Y-42323092D02*
X84196189Y-42275473D01*
X84196189Y-42275473D02*
X84148570Y-42180235D01*
X84148570Y-42180235D02*
X84148570Y-41942140D01*
X84148570Y-41942140D02*
X84196189Y-41846902D01*
X84196189Y-41846902D02*
X84243808Y-41799283D01*
X84243808Y-41799283D02*
X84339046Y-41751664D01*
X84339046Y-41751664D02*
X84577141Y-41751664D01*
X84577141Y-41751664D02*
X84672379Y-41799283D01*
X84672379Y-41799283D02*
X84719999Y-41846902D01*
X84719999Y-41846902D02*
X84767618Y-41942140D01*
X84767618Y-41942140D02*
X84767618Y-42180235D01*
X84767618Y-42180235D02*
X84719999Y-42275473D01*
X84719999Y-42275473D02*
X84672379Y-42323092D01*
X84395079Y-52657291D02*
X84537936Y-52704910D01*
X84537936Y-52704910D02*
X84776031Y-52704910D01*
X84776031Y-52704910D02*
X84871269Y-52657291D01*
X84871269Y-52657291D02*
X84918888Y-52609671D01*
X84918888Y-52609671D02*
X84966507Y-52514433D01*
X84966507Y-52514433D02*
X84966507Y-52419195D01*
X84966507Y-52419195D02*
X84918888Y-52323957D01*
X84918888Y-52323957D02*
X84871269Y-52276338D01*
X84871269Y-52276338D02*
X84776031Y-52228719D01*
X84776031Y-52228719D02*
X84585555Y-52181100D01*
X84585555Y-52181100D02*
X84490317Y-52133481D01*
X84490317Y-52133481D02*
X84442698Y-52085862D01*
X84442698Y-52085862D02*
X84395079Y-51990624D01*
X84395079Y-51990624D02*
X84395079Y-51895386D01*
X84395079Y-51895386D02*
X84442698Y-51800148D01*
X84442698Y-51800148D02*
X84490317Y-51752529D01*
X84490317Y-51752529D02*
X84585555Y-51704910D01*
X84585555Y-51704910D02*
X84823650Y-51704910D01*
X84823650Y-51704910D02*
X84966507Y-51752529D01*
X85299841Y-51704910D02*
X85537936Y-52704910D01*
X85537936Y-52704910D02*
X85728412Y-51990624D01*
X85728412Y-51990624D02*
X85918888Y-52704910D01*
X85918888Y-52704910D02*
X86156984Y-51704910D01*
X86442698Y-51704910D02*
X87061745Y-51704910D01*
X87061745Y-51704910D02*
X86728412Y-52085862D01*
X86728412Y-52085862D02*
X86871269Y-52085862D01*
X86871269Y-52085862D02*
X86966507Y-52133481D01*
X86966507Y-52133481D02*
X87014126Y-52181100D01*
X87014126Y-52181100D02*
X87061745Y-52276338D01*
X87061745Y-52276338D02*
X87061745Y-52514433D01*
X87061745Y-52514433D02*
X87014126Y-52609671D01*
X87014126Y-52609671D02*
X86966507Y-52657291D01*
X86966507Y-52657291D02*
X86871269Y-52704910D01*
X86871269Y-52704910D02*
X86585555Y-52704910D01*
X86585555Y-52704910D02*
X86490317Y-52657291D01*
X86490317Y-52657291D02*
X86442698Y-52609671D01*
D10*
X90218928Y-59163175D02*
X89742737Y-59496508D01*
X90218928Y-59734603D02*
X89218928Y-59734603D01*
X89218928Y-59734603D02*
X89218928Y-59353651D01*
X89218928Y-59353651D02*
X89266547Y-59258413D01*
X89266547Y-59258413D02*
X89314166Y-59210794D01*
X89314166Y-59210794D02*
X89409404Y-59163175D01*
X89409404Y-59163175D02*
X89552261Y-59163175D01*
X89552261Y-59163175D02*
X89647499Y-59210794D01*
X89647499Y-59210794D02*
X89695118Y-59258413D01*
X89695118Y-59258413D02*
X89742737Y-59353651D01*
X89742737Y-59353651D02*
X89742737Y-59734603D01*
X89314166Y-58782222D02*
X89266547Y-58734603D01*
X89266547Y-58734603D02*
X89218928Y-58639365D01*
X89218928Y-58639365D02*
X89218928Y-58401270D01*
X89218928Y-58401270D02*
X89266547Y-58306032D01*
X89266547Y-58306032D02*
X89314166Y-58258413D01*
X89314166Y-58258413D02*
X89409404Y-58210794D01*
X89409404Y-58210794D02*
X89504642Y-58210794D01*
X89504642Y-58210794D02*
X89647499Y-58258413D01*
X89647499Y-58258413D02*
X90218928Y-58829841D01*
X90218928Y-58829841D02*
X90218928Y-58210794D01*
X82720357Y-45162507D02*
X82244166Y-45495840D01*
X82720357Y-45733935D02*
X81720357Y-45733935D01*
X81720357Y-45733935D02*
X81720357Y-45352983D01*
X81720357Y-45352983D02*
X81767976Y-45257745D01*
X81767976Y-45257745D02*
X81815595Y-45210126D01*
X81815595Y-45210126D02*
X81910833Y-45162507D01*
X81910833Y-45162507D02*
X82053690Y-45162507D01*
X82053690Y-45162507D02*
X82148928Y-45210126D01*
X82148928Y-45210126D02*
X82196547Y-45257745D01*
X82196547Y-45257745D02*
X82244166Y-45352983D01*
X82244166Y-45352983D02*
X82244166Y-45733935D01*
X82053690Y-44305364D02*
X82720357Y-44305364D01*
X81672738Y-44543459D02*
X82387023Y-44781554D01*
X82387023Y-44781554D02*
X82387023Y-44162507D01*
D11*
X82986666Y-38054816D02*
X82510475Y-38388149D01*
X82986666Y-38626244D02*
X81986666Y-38626244D01*
X81986666Y-38626244D02*
X81986666Y-38245292D01*
X81986666Y-38245292D02*
X82034285Y-38150054D01*
X82034285Y-38150054D02*
X82081904Y-38102435D01*
X82081904Y-38102435D02*
X82177142Y-38054816D01*
X82177142Y-38054816D02*
X82319999Y-38054816D01*
X82319999Y-38054816D02*
X82415237Y-38102435D01*
X82415237Y-38102435D02*
X82462856Y-38150054D01*
X82462856Y-38150054D02*
X82510475Y-38245292D01*
X82510475Y-38245292D02*
X82510475Y-38626244D01*
X82986666Y-37102435D02*
X82986666Y-37673863D01*
X82986666Y-37388149D02*
X81986666Y-37388149D01*
X81986666Y-37388149D02*
X82129523Y-37483387D01*
X82129523Y-37483387D02*
X82224761Y-37578625D01*
X82224761Y-37578625D02*
X82272380Y-37673863D01*
X81986666Y-36769101D02*
X81986666Y-36102435D01*
X81986666Y-36102435D02*
X82986666Y-36531006D01*
D10*
X88488228Y-67992255D02*
X88488228Y-66992255D01*
X88488228Y-66992255D02*
X88726323Y-66992255D01*
X88726323Y-66992255D02*
X88869180Y-67039874D01*
X88869180Y-67039874D02*
X88964418Y-67135112D01*
X88964418Y-67135112D02*
X89012037Y-67230350D01*
X89012037Y-67230350D02*
X89059656Y-67420826D01*
X89059656Y-67420826D02*
X89059656Y-67563683D01*
X89059656Y-67563683D02*
X89012037Y-67754159D01*
X89012037Y-67754159D02*
X88964418Y-67849397D01*
X88964418Y-67849397D02*
X88869180Y-67944636D01*
X88869180Y-67944636D02*
X88726323Y-67992255D01*
X88726323Y-67992255D02*
X88488228Y-67992255D01*
X89440609Y-67087493D02*
X89488228Y-67039874D01*
X89488228Y-67039874D02*
X89583466Y-66992255D01*
X89583466Y-66992255D02*
X89821561Y-66992255D01*
X89821561Y-66992255D02*
X89916799Y-67039874D01*
X89916799Y-67039874D02*
X89964418Y-67087493D01*
X89964418Y-67087493D02*
X90012037Y-67182731D01*
X90012037Y-67182731D02*
X90012037Y-67277969D01*
X90012037Y-67277969D02*
X89964418Y-67420826D01*
X89964418Y-67420826D02*
X89392990Y-67992255D01*
X89392990Y-67992255D02*
X90012037Y-67992255D01*
X88247419Y-69938102D02*
X87771228Y-70271435D01*
X88247419Y-70509530D02*
X87247419Y-70509530D01*
X87247419Y-70509530D02*
X87247419Y-70128578D01*
X87247419Y-70128578D02*
X87295038Y-70033340D01*
X87295038Y-70033340D02*
X87342657Y-69985721D01*
X87342657Y-69985721D02*
X87437895Y-69938102D01*
X87437895Y-69938102D02*
X87580752Y-69938102D01*
X87580752Y-69938102D02*
X87675990Y-69985721D01*
X87675990Y-69985721D02*
X87723609Y-70033340D01*
X87723609Y-70033340D02*
X87771228Y-70128578D01*
X87771228Y-70128578D02*
X87771228Y-70509530D01*
X88247419Y-68985721D02*
X88247419Y-69557149D01*
X88247419Y-69271435D02*
X87247419Y-69271435D01*
X87247419Y-69271435D02*
X87390276Y-69366673D01*
X87390276Y-69366673D02*
X87485514Y-69461911D01*
X87485514Y-69461911D02*
X87533133Y-69557149D01*
X87247419Y-68366673D02*
X87247419Y-68271435D01*
X87247419Y-68271435D02*
X87295038Y-68176197D01*
X87295038Y-68176197D02*
X87342657Y-68128578D01*
X87342657Y-68128578D02*
X87437895Y-68080959D01*
X87437895Y-68080959D02*
X87628371Y-68033340D01*
X87628371Y-68033340D02*
X87866466Y-68033340D01*
X87866466Y-68033340D02*
X88056942Y-68080959D01*
X88056942Y-68080959D02*
X88152180Y-68128578D01*
X88152180Y-68128578D02*
X88199800Y-68176197D01*
X88199800Y-68176197D02*
X88247419Y-68271435D01*
X88247419Y-68271435D02*
X88247419Y-68366673D01*
X88247419Y-68366673D02*
X88199800Y-68461911D01*
X88199800Y-68461911D02*
X88152180Y-68509530D01*
X88152180Y-68509530D02*
X88056942Y-68557149D01*
X88056942Y-68557149D02*
X87866466Y-68604768D01*
X87866466Y-68604768D02*
X87628371Y-68604768D01*
X87628371Y-68604768D02*
X87437895Y-68557149D01*
X87437895Y-68557149D02*
X87342657Y-68509530D01*
X87342657Y-68509530D02*
X87295038Y-68461911D01*
X87295038Y-68461911D02*
X87247419Y-68366673D01*
D11*
X89675966Y-81385785D02*
X89675966Y-82100070D01*
X89675966Y-82100070D02*
X89628347Y-82242927D01*
X89628347Y-82242927D02*
X89533109Y-82338166D01*
X89533109Y-82338166D02*
X89390252Y-82385785D01*
X89390252Y-82385785D02*
X89295014Y-82385785D01*
X90056919Y-81385785D02*
X90675966Y-81385785D01*
X90675966Y-81385785D02*
X90342633Y-81766737D01*
X90342633Y-81766737D02*
X90485490Y-81766737D01*
X90485490Y-81766737D02*
X90580728Y-81814356D01*
X90580728Y-81814356D02*
X90628347Y-81861975D01*
X90628347Y-81861975D02*
X90675966Y-81957213D01*
X90675966Y-81957213D02*
X90675966Y-82195308D01*
X90675966Y-82195308D02*
X90628347Y-82290546D01*
X90628347Y-82290546D02*
X90580728Y-82338166D01*
X90580728Y-82338166D02*
X90485490Y-82385785D01*
X90485490Y-82385785D02*
X90199776Y-82385785D01*
X90199776Y-82385785D02*
X90104538Y-82338166D01*
X90104538Y-82338166D02*
X90056919Y-82290546D01*
D10*
X84137343Y-71032641D02*
X84708771Y-71032641D01*
X84423057Y-72032641D02*
X84423057Y-71032641D01*
X85042105Y-72032641D02*
X85042105Y-71032641D01*
X85042105Y-71032641D02*
X85423057Y-71032641D01*
X85423057Y-71032641D02*
X85518295Y-71080260D01*
X85518295Y-71080260D02*
X85565914Y-71127879D01*
X85565914Y-71127879D02*
X85613533Y-71223117D01*
X85613533Y-71223117D02*
X85613533Y-71365974D01*
X85613533Y-71365974D02*
X85565914Y-71461212D01*
X85565914Y-71461212D02*
X85518295Y-71508831D01*
X85518295Y-71508831D02*
X85423057Y-71556450D01*
X85423057Y-71556450D02*
X85042105Y-71556450D01*
X86565914Y-72032641D02*
X85994486Y-72032641D01*
X86280200Y-72032641D02*
X86280200Y-71032641D01*
X86280200Y-71032641D02*
X86184962Y-71175498D01*
X86184962Y-71175498D02*
X86089724Y-71270736D01*
X86089724Y-71270736D02*
X85994486Y-71318355D01*
%TO.C,J1*%
X53682113Y-27307016D02*
X53682113Y-28367016D01*
X61672113Y-30467016D02*
X62472113Y-30467016D01*
X62472113Y-30467016D02*
X62472113Y-30317016D01*
X63242113Y-28367016D02*
X63242113Y-27307016D01*
%TO.C,S1*%
X89531640Y-28116128D02*
G75*
G02*
X89331640Y-28116128I-100000J0D01*
G01*
X89331640Y-28116128D02*
G75*
G02*
X89531640Y-28116128I100000J0D01*
G01*
X91181640Y-27616128D02*
X91181640Y-26816128D01*
X89221640Y-25766128D02*
X90631640Y-25766128D01*
X89221640Y-24266128D02*
X89221640Y-25766128D01*
X87721640Y-25766128D02*
X87721640Y-24266128D01*
X87721640Y-24266128D02*
X89221640Y-24266128D01*
X87631640Y-28666128D02*
X89331640Y-28666128D01*
X84831640Y-25766128D02*
X87721640Y-25766128D01*
X84281640Y-26816128D02*
X84281640Y-27616128D01*
%TO.C,C9*%
X68709125Y-50960788D02*
X68709125Y-50679628D01*
X69729125Y-50960788D02*
X69729125Y-50679628D01*
%TO.C,TP8*%
X84340779Y-71280467D02*
G75*
G02*
X82940779Y-71280467I-700000J0D01*
G01*
X82940779Y-71280467D02*
G75*
G02*
X84340779Y-71280467I700000J0D01*
G01*
%TO.C,TP9*%
X83468423Y-69179659D02*
G75*
G02*
X82068423Y-69179659I-700000J0D01*
G01*
X82068423Y-69179659D02*
G75*
G02*
X83468423Y-69179659I700000J0D01*
G01*
%TO.C,U$10*%
X46530000Y-28971000D02*
X89130000Y-28971000D01*
X46530000Y-88971000D02*
X46530000Y-28971000D01*
X89130000Y-28971000D02*
X89130000Y-88971000D01*
X89130000Y-88971000D02*
X46530000Y-88971000D01*
%TO.C,R15*%
X89657535Y-82812523D02*
X89657535Y-83287039D01*
X90702535Y-82812523D02*
X90702535Y-83287039D01*
D12*
%TO.C,J4*%
X69247293Y-24442183D02*
X82347293Y-24442183D01*
X69247293Y-27142183D02*
X69247293Y-30042183D01*
X69247293Y-33042183D02*
X69247293Y-35142183D01*
X69921293Y-38492183D02*
X70923293Y-38492183D01*
X76671293Y-38492183D02*
X81673293Y-38492183D01*
D13*
X73517293Y-23992183D02*
G75*
G02*
X73317293Y-23992183I-100000J0D01*
G01*
X73317293Y-23992183D02*
G75*
G02*
X73517293Y-23992183I100000J0D01*
G01*
D10*
%TO.C,TP10*%
X83534389Y-67042233D02*
G75*
G02*
X82134389Y-67042233I-700000J0D01*
G01*
X82134389Y-67042233D02*
G75*
G02*
X83534389Y-67042233I700000J0D01*
G01*
%TO.C,R13*%
X85095319Y-77092248D02*
X85095319Y-77566764D01*
X86140319Y-77092248D02*
X86140319Y-77566764D01*
D14*
%TO.C,U3*%
X72082660Y-47833828D02*
G75*
G02*
X72082660Y-47686170I-18860J73829D01*
G01*
D10*
%TO.C,C3*%
X85258245Y-47064378D02*
X85258245Y-47345538D01*
X86278245Y-47064378D02*
X86278245Y-47345538D01*
%TO.C,TP3*%
X83633546Y-73731835D02*
G75*
G02*
X82233546Y-73731835I-700000J0D01*
G01*
X82233546Y-73731835D02*
G75*
G02*
X83633546Y-73731835I700000J0D01*
G01*
%TO.C,TP5*%
X85460907Y-82514082D02*
G75*
G02*
X84060907Y-82514082I-700000J0D01*
G01*
X84060907Y-82514082D02*
G75*
G02*
X85460907Y-82514082I700000J0D01*
G01*
%TO.C,R1*%
X90917500Y-62912258D02*
X90917500Y-62437742D01*
X91962500Y-62912258D02*
X91962500Y-62437742D01*
%TO.C,C7*%
X45315364Y-35546260D02*
X45315364Y-35265100D01*
X46335364Y-35546260D02*
X46335364Y-35265100D01*
D15*
%TO.C,C10*%
X66608146Y-28967128D02*
X66326986Y-28967128D01*
X66608146Y-29987128D02*
X66326986Y-29987128D01*
%TO.C,J6*%
X83849824Y-83839038D02*
X84949824Y-83839038D01*
X83849824Y-84289038D02*
X83849824Y-83839038D01*
X87499824Y-86059038D02*
X85019824Y-86059038D01*
X87569824Y-83839038D02*
X87569824Y-83449038D01*
X88669824Y-83839038D02*
X87569824Y-83839038D01*
X88669824Y-84289038D02*
X88669824Y-83839038D01*
D16*
%TO.C,SW2*%
X86843179Y-38952382D02*
X86843179Y-42389882D01*
X89086679Y-43973382D02*
X88846179Y-43973382D01*
X89284179Y-37369382D02*
X88846179Y-37369382D01*
X89284179Y-43973382D02*
X88846179Y-43973382D01*
X91415179Y-39539882D02*
X91415179Y-38929382D01*
X91415179Y-41802382D02*
X91415179Y-42413382D01*
X92524179Y-39671382D02*
X91941179Y-39671382D01*
X92524179Y-40458382D02*
X92524179Y-39671382D01*
X92524179Y-41671382D02*
X91941179Y-41671382D01*
X92524179Y-41671382D02*
X92524179Y-40883882D01*
D10*
%TO.C,C4*%
X86793332Y-49022902D02*
X86512172Y-49022902D01*
X86793332Y-50042902D02*
X86512172Y-50042902D01*
D15*
%TO.C,J2*%
X72578882Y-83370207D02*
X73678882Y-83370207D01*
X72578882Y-83820207D02*
X72578882Y-83370207D01*
X80228882Y-85590207D02*
X73748882Y-85590207D01*
X80298882Y-83370207D02*
X80298882Y-82980207D01*
X81398882Y-83370207D02*
X80298882Y-83370207D01*
X81398882Y-83820207D02*
X81398882Y-83370207D01*
D10*
%TO.C,R11*%
X83803871Y-80191669D02*
X83803871Y-80666185D01*
X84848871Y-80191669D02*
X84848871Y-80666185D01*
%TO.C,R16*%
X91217551Y-82974698D02*
X91217551Y-83449214D01*
X92262551Y-82974698D02*
X92262551Y-83449214D01*
%TO.C,D1*%
X86584125Y-61227500D02*
X86584125Y-63512500D01*
X88054125Y-61227500D02*
X86584125Y-61227500D01*
X88054125Y-63512500D02*
X88054125Y-61227500D01*
%TO.C,R3*%
X90560092Y-54537493D02*
X90560092Y-54062977D01*
X91605092Y-54537493D02*
X91605092Y-54062977D01*
%TO.C,R6*%
X88377500Y-63262742D02*
X88377500Y-63737258D01*
X89422500Y-63262742D02*
X89422500Y-63737258D01*
%TO.C,U2*%
X87170078Y-48458169D02*
X87170078Y-46458169D01*
X89390078Y-48458169D02*
X89390078Y-46458169D01*
X87270078Y-48978169D02*
X86990078Y-48698169D01*
X87270078Y-48698169D01*
X87270078Y-48978169D01*
G36*
X87270078Y-48978169D02*
G01*
X86990078Y-48698169D01*
X87270078Y-48698169D01*
X87270078Y-48978169D01*
G37*
%TO.C,TP2*%
X84267969Y-76895257D02*
G75*
G02*
X82867969Y-76895257I-700000J0D01*
G01*
X82867969Y-76895257D02*
G75*
G02*
X84267969Y-76895257I700000J0D01*
G01*
%TO.C,X1*%
X46440409Y-37780035D02*
X46440409Y-37780035D01*
X46540409Y-37780035D02*
X46540409Y-37780035D01*
X47540409Y-30430035D02*
X65540409Y-30430035D01*
X47540409Y-36180035D02*
X47540409Y-30430035D01*
X65540409Y-30430035D02*
X65540409Y-36180035D01*
X46440409Y-37780035D02*
G75*
G02*
X46540409Y-37780035I50000J0D01*
G01*
X46540409Y-37780035D02*
G75*
G02*
X46440409Y-37780035I-50000J0D01*
G01*
%TO.C,C2*%
X83306664Y-51290997D02*
X83587824Y-51290997D01*
X83306664Y-52310997D02*
X83587824Y-52310997D01*
%TO.C,C8*%
X45285260Y-41770107D02*
X45285260Y-41488947D01*
X46305260Y-41770107D02*
X46305260Y-41488947D01*
%TO.C,LS1*%
X45679439Y-74153852D02*
X49829439Y-74153852D01*
X45679439Y-86353852D02*
X45679439Y-74153852D01*
X49829439Y-86353852D02*
X45679439Y-86353852D01*
X51379439Y-86703852D02*
X52379439Y-86703852D01*
X51879439Y-75853852D02*
X51879439Y-84653852D01*
X52379439Y-86703852D02*
X52379439Y-85703852D01*
%TO.C,R7*%
X88463036Y-68616460D02*
X88463036Y-69090976D01*
X89508036Y-68616460D02*
X89508036Y-69090976D01*
%TO.C,R8*%
X70882742Y-55357500D02*
X71357258Y-55357500D01*
X70882742Y-56402500D02*
X71357258Y-56402500D01*
%TO.C,R9*%
X85837500Y-65802742D02*
X85837500Y-66277258D01*
X86882500Y-65802742D02*
X86882500Y-66277258D01*
%TO.C,C6*%
X45270208Y-38729953D02*
X45270208Y-38448793D01*
X46290208Y-38729953D02*
X46290208Y-38448793D01*
%TO.C,C5*%
X70382369Y-50497148D02*
X70382369Y-50778308D01*
X71402369Y-50497148D02*
X71402369Y-50778308D01*
%TO.C,R12*%
X90039241Y-71366885D02*
X89564725Y-71366885D01*
X90039241Y-72411885D02*
X89564725Y-72411885D01*
%TO.C,C1*%
X80905468Y-49552098D02*
X80905468Y-49270938D01*
X81925468Y-49552098D02*
X81925468Y-49270938D01*
%TO.C,R14*%
X85258104Y-80171588D02*
X85258104Y-80646104D01*
X86303104Y-80171588D02*
X86303104Y-80646104D01*
%TO.C,TP4*%
X85249873Y-74613303D02*
G75*
G02*
X83849873Y-74613303I-700000J0D01*
G01*
X83849873Y-74613303D02*
G75*
G02*
X85249873Y-74613303I700000J0D01*
G01*
%TO.C,TP6*%
X87317593Y-82479077D02*
G75*
G02*
X85917593Y-82479077I-700000J0D01*
G01*
X85917593Y-82479077D02*
G75*
G02*
X87317593Y-82479077I700000J0D01*
G01*
D12*
%TO.C,SW1*%
X75492561Y-45019882D02*
X79492561Y-45019882D01*
X75492561Y-45249882D02*
X75492561Y-45019882D01*
X75492561Y-47919882D02*
X75492561Y-47689882D01*
X79492561Y-45019882D02*
X79492561Y-45249882D01*
X79492561Y-47919882D02*
X75492561Y-47919882D01*
X79492561Y-47919882D02*
X79492561Y-47689882D01*
D10*
%TO.C,TP7*%
X88952051Y-82307780D02*
G75*
G02*
X87552051Y-82307780I-700000J0D01*
G01*
X87552051Y-82307780D02*
G75*
G02*
X88952051Y-82307780I700000J0D01*
G01*
%TO.C,U1*%
X79295000Y-52110000D02*
X81295000Y-52110000D01*
X79295000Y-54570000D02*
X81295000Y-54570000D01*
X78495000Y-52440000D02*
G75*
G02*
X78295000Y-52440000I-100000J0D01*
G01*
X78295000Y-52440000D02*
G75*
G02*
X78495000Y-52440000I100000J0D01*
G01*
%TO.C,U4*%
X68358481Y-45159952D02*
X68833481Y-45159952D01*
X68358481Y-45634952D02*
X68358481Y-45159952D01*
X68358481Y-47904952D02*
X68358481Y-48079952D01*
X68833481Y-48379952D02*
X68598481Y-48379952D01*
X71578481Y-45159952D02*
X71103481Y-45159952D01*
X71578481Y-45634952D02*
X71578481Y-45159952D01*
X71578481Y-47904952D02*
X71578481Y-48379952D01*
X71578481Y-48379952D02*
X71103481Y-48379952D01*
X68358481Y-48379952D02*
X68028481Y-48619952D01*
X68028481Y-48139952D01*
X68358481Y-48379952D01*
G36*
X68358481Y-48379952D02*
G01*
X68028481Y-48619952D01*
X68028481Y-48139952D01*
X68358481Y-48379952D01*
G37*
D15*
%TO.C,C11*%
X66631887Y-27460000D02*
X66350727Y-27460000D01*
X66631887Y-28480000D02*
X66350727Y-28480000D01*
%TO.C,R5*%
X85220299Y-42774637D02*
X85220299Y-42300121D01*
X86265299Y-42774637D02*
X86265299Y-42300121D01*
D12*
%TO.C,SW3*%
X83303412Y-53435091D02*
X87303412Y-53435091D01*
X83303412Y-53665091D02*
X83303412Y-53435091D01*
X83303412Y-56335091D02*
X83303412Y-56105091D01*
X87303412Y-53435091D02*
X87303412Y-53665091D01*
X87303412Y-56335091D02*
X83303412Y-56335091D01*
X87303412Y-56335091D02*
X87303412Y-56105091D01*
D10*
%TO.C,R2*%
X90669009Y-59233767D02*
X90669009Y-58759251D01*
X91714009Y-59233767D02*
X91714009Y-58759251D01*
%TO.C,R4*%
X83170438Y-45233099D02*
X83170438Y-44758583D01*
X84215438Y-45233099D02*
X84215438Y-44758583D01*
D15*
%TO.C,R17*%
X83439347Y-37649217D02*
X83439347Y-37174701D01*
X84484347Y-37649217D02*
X84484347Y-37174701D01*
D10*
%TO.C,D2*%
X88426323Y-66839836D02*
X90711323Y-66839836D01*
X90711323Y-65369836D02*
X88426323Y-65369836D01*
X90711323Y-66839836D02*
X90711323Y-65369836D01*
%TO.C,R10*%
X85837500Y-69057987D02*
X85837500Y-69532503D01*
X86882500Y-69057987D02*
X86882500Y-69532503D01*
D15*
%TO.C,J3*%
X86949300Y-73020966D02*
X86949300Y-80840966D01*
X86949300Y-79240966D02*
X87869300Y-79240966D01*
X86949300Y-80840966D02*
X87869300Y-80840966D01*
X87709300Y-75280966D02*
X88709300Y-75280966D01*
X87709300Y-76880966D02*
X87709300Y-75280966D01*
X87869300Y-79240966D02*
X88149300Y-79240966D01*
X87869300Y-80840966D02*
X87869300Y-79240966D01*
X88709300Y-75280966D02*
X88709300Y-76880966D01*
X88709300Y-76880966D02*
X87709300Y-76880966D01*
X89509300Y-77380966D02*
X89509300Y-73020966D01*
X90509300Y-73020966D02*
X90509300Y-77380966D01*
X90509300Y-77380966D02*
X89509300Y-77380966D01*
X91309300Y-75280966D02*
X91309300Y-73020966D01*
X91309300Y-75280966D02*
X91309300Y-76880966D01*
X91309300Y-76880966D02*
X92309300Y-76880966D01*
X91809300Y-75280966D02*
X91809300Y-73020966D01*
X91869300Y-79240966D02*
X91869300Y-80455966D01*
X91869300Y-79240966D02*
X92149300Y-79240966D01*
X92149300Y-79240966D02*
X92149300Y-80840966D01*
X92149300Y-80840966D02*
X93069300Y-80840966D01*
X92309300Y-75280966D02*
X91309300Y-75280966D01*
X92309300Y-76880966D02*
X92309300Y-75280966D01*
X93069300Y-73020966D02*
X86949300Y-73020966D01*
X93069300Y-79240966D02*
X92149300Y-79240966D01*
X93069300Y-80840966D02*
X93069300Y-73020966D01*
D10*
%TO.C,TP1*%
X86099248Y-73023222D02*
G75*
G02*
X84699248Y-73023222I-700000J0D01*
G01*
X84699248Y-73023222D02*
G75*
G02*
X86099248Y-73023222I700000J0D01*
G01*
%TD*%
%LPC*%
%TO.C,U$10*%
G36*
X55432746Y-57785314D02*
G01*
X55732746Y-57785314D01*
X55732746Y-59085314D01*
X55432746Y-59085314D01*
X55432746Y-57785314D01*
G37*
G36*
X55932746Y-57785314D02*
G01*
X56232746Y-57785314D01*
X56232746Y-59085314D01*
X55932746Y-59085314D01*
X55932746Y-57785314D01*
G37*
G36*
X56432746Y-57785314D02*
G01*
X56732746Y-57785314D01*
X56732746Y-59085314D01*
X56432746Y-59085314D01*
X56432746Y-57785314D01*
G37*
G36*
X56932746Y-57785314D02*
G01*
X57232746Y-57785314D01*
X57232746Y-59085314D01*
X56932746Y-59085314D01*
X56932746Y-57785314D01*
G37*
G36*
X57432746Y-57785314D02*
G01*
X57732746Y-57785314D01*
X57732746Y-59085314D01*
X57432746Y-59085314D01*
X57432746Y-57785314D01*
G37*
G36*
X57932746Y-57785314D02*
G01*
X58232746Y-57785314D01*
X58232746Y-59085314D01*
X57932746Y-59085314D01*
X57932746Y-57785314D01*
G37*
G36*
X58432746Y-57785314D02*
G01*
X58732746Y-57785314D01*
X58732746Y-59085314D01*
X58432746Y-59085314D01*
X58432746Y-57785314D01*
G37*
G36*
X58932746Y-57785314D02*
G01*
X59232746Y-57785314D01*
X59232746Y-59085314D01*
X58932746Y-59085314D01*
X58932746Y-57785314D01*
G37*
G36*
X59432746Y-57785314D02*
G01*
X59732746Y-57785314D01*
X59732746Y-59085314D01*
X59432746Y-59085314D01*
X59432746Y-57785314D01*
G37*
G36*
X59932746Y-57785314D02*
G01*
X60232746Y-57785314D01*
X60232746Y-59085314D01*
X59932746Y-59085314D01*
X59932746Y-57785314D01*
G37*
G36*
X60432746Y-57785314D02*
G01*
X60732746Y-57785314D01*
X60732746Y-59085314D01*
X60432746Y-59085314D01*
X60432746Y-57785314D01*
G37*
G36*
X60932746Y-57785314D02*
G01*
X61232746Y-57785314D01*
X61232746Y-59085314D01*
X60932746Y-59085314D01*
X60932746Y-57785314D01*
G37*
G36*
X61432746Y-57785314D02*
G01*
X61732746Y-57785314D01*
X61732746Y-59085314D01*
X61432746Y-59085314D01*
X61432746Y-57785314D01*
G37*
G36*
X61932746Y-57785314D02*
G01*
X62232746Y-57785314D01*
X62232746Y-59085314D01*
X61932746Y-59085314D01*
X61932746Y-57785314D01*
G37*
G36*
X62432746Y-57785314D02*
G01*
X62732746Y-57785314D01*
X62732746Y-59085314D01*
X62432746Y-59085314D01*
X62432746Y-57785314D01*
G37*
G36*
X62932746Y-57785314D02*
G01*
X63232746Y-57785314D01*
X63232746Y-59085314D01*
X62932746Y-59085314D01*
X62932746Y-57785314D01*
G37*
G36*
X63432746Y-57785314D02*
G01*
X63732746Y-57785314D01*
X63732746Y-59085314D01*
X63432746Y-59085314D01*
X63432746Y-57785314D01*
G37*
G36*
X63932746Y-57785314D02*
G01*
X64232746Y-57785314D01*
X64232746Y-59085314D01*
X63932746Y-59085314D01*
X63932746Y-57785314D01*
G37*
G36*
X64432746Y-57785314D02*
G01*
X64732746Y-57785314D01*
X64732746Y-59085314D01*
X64432746Y-59085314D01*
X64432746Y-57785314D01*
G37*
G36*
X64932746Y-57785314D02*
G01*
X65232746Y-57785314D01*
X65232746Y-59085314D01*
X64932746Y-59085314D01*
X64932746Y-57785314D01*
G37*
G36*
X65432746Y-57785314D02*
G01*
X65732746Y-57785314D01*
X65732746Y-59085314D01*
X65432746Y-59085314D01*
X65432746Y-57785314D01*
G37*
G36*
X65932746Y-57785314D02*
G01*
X66232746Y-57785314D01*
X66232746Y-59085314D01*
X65932746Y-59085314D01*
X65932746Y-57785314D01*
G37*
G36*
X66432746Y-57785314D02*
G01*
X66732746Y-57785314D01*
X66732746Y-59085314D01*
X66432746Y-59085314D01*
X66432746Y-57785314D01*
G37*
G36*
X66932746Y-57785314D02*
G01*
X67232746Y-57785314D01*
X67232746Y-59085314D01*
X66932746Y-59085314D01*
X66932746Y-57785314D01*
G37*
G36*
X67432746Y-57785314D02*
G01*
X67732746Y-57785314D01*
X67732746Y-59085314D01*
X67432746Y-59085314D01*
X67432746Y-57785314D01*
G37*
G36*
X67932746Y-57785314D02*
G01*
X68232746Y-57785314D01*
X68232746Y-59085314D01*
X67932746Y-59085314D01*
X67932746Y-57785314D01*
G37*
G36*
X68432746Y-57785314D02*
G01*
X68732746Y-57785314D01*
X68732746Y-59085314D01*
X68432746Y-59085314D01*
X68432746Y-57785314D01*
G37*
G36*
X68932746Y-57785314D02*
G01*
X69232746Y-57785314D01*
X69232746Y-59085314D01*
X68932746Y-59085314D01*
X68932746Y-57785314D01*
G37*
G36*
X69432746Y-57785314D02*
G01*
X69732746Y-57785314D01*
X69732746Y-59085314D01*
X69432746Y-59085314D01*
X69432746Y-57785314D01*
G37*
G36*
X69932746Y-57785314D02*
G01*
X70232746Y-57785314D01*
X70232746Y-59085314D01*
X69932746Y-59085314D01*
X69932746Y-57785314D01*
G37*
G36*
X70432746Y-57785314D02*
G01*
X70732746Y-57785314D01*
X70732746Y-59085314D01*
X70432746Y-59085314D01*
X70432746Y-57785314D01*
G37*
G36*
X70932746Y-57785314D02*
G01*
X71232746Y-57785314D01*
X71232746Y-59085314D01*
X70932746Y-59085314D01*
X70932746Y-57785314D01*
G37*
G36*
X71432746Y-57785314D02*
G01*
X71732746Y-57785314D01*
X71732746Y-59085314D01*
X71432746Y-59085314D01*
X71432746Y-57785314D01*
G37*
G36*
X71932746Y-57785314D02*
G01*
X72232746Y-57785314D01*
X72232746Y-59085314D01*
X71932746Y-59085314D01*
X71932746Y-57785314D01*
G37*
G36*
X72432746Y-57785314D02*
G01*
X72732746Y-57785314D01*
X72732746Y-59085314D01*
X72432746Y-59085314D01*
X72432746Y-57785314D01*
G37*
G36*
X72932746Y-57785314D02*
G01*
X73232746Y-57785314D01*
X73232746Y-59085314D01*
X72932746Y-59085314D01*
X72932746Y-57785314D01*
G37*
G36*
X73432746Y-57785314D02*
G01*
X73732746Y-57785314D01*
X73732746Y-59085314D01*
X73432746Y-59085314D01*
X73432746Y-57785314D01*
G37*
G36*
X73932746Y-57785314D02*
G01*
X74232746Y-57785314D01*
X74232746Y-59085314D01*
X73932746Y-59085314D01*
X73932746Y-57785314D01*
G37*
G36*
X74432746Y-57785314D02*
G01*
X74732746Y-57785314D01*
X74732746Y-59085314D01*
X74432746Y-59085314D01*
X74432746Y-57785314D01*
G37*
G36*
X74932746Y-57785314D02*
G01*
X75232746Y-57785314D01*
X75232746Y-59085314D01*
X74932746Y-59085314D01*
X74932746Y-57785314D01*
G37*
G36*
X75432746Y-57785314D02*
G01*
X75732746Y-57785314D01*
X75732746Y-59085314D01*
X75432746Y-59085314D01*
X75432746Y-57785314D01*
G37*
G36*
X75932746Y-57785314D02*
G01*
X76232746Y-57785314D01*
X76232746Y-59085314D01*
X75932746Y-59085314D01*
X75932746Y-57785314D01*
G37*
G36*
X76432746Y-57785314D02*
G01*
X76732746Y-57785314D01*
X76732746Y-59085314D01*
X76432746Y-59085314D01*
X76432746Y-57785314D01*
G37*
G36*
X76932746Y-57785314D02*
G01*
X77232746Y-57785314D01*
X77232746Y-59085314D01*
X76932746Y-59085314D01*
X76932746Y-57785314D01*
G37*
G36*
X77432746Y-57785314D02*
G01*
X77732746Y-57785314D01*
X77732746Y-59085314D01*
X77432746Y-59085314D01*
X77432746Y-57785314D01*
G37*
G36*
X77932746Y-57785314D02*
G01*
X78232746Y-57785314D01*
X78232746Y-59085314D01*
X77932746Y-59085314D01*
X77932746Y-57785314D01*
G37*
G36*
X78432746Y-57785314D02*
G01*
X78732746Y-57785314D01*
X78732746Y-59085314D01*
X78432746Y-59085314D01*
X78432746Y-57785314D01*
G37*
G36*
X78932746Y-57785314D02*
G01*
X79232746Y-57785314D01*
X79232746Y-59085314D01*
X78932746Y-59085314D01*
X78932746Y-57785314D01*
G37*
G36*
X79432746Y-57785314D02*
G01*
X79732746Y-57785314D01*
X79732746Y-59085314D01*
X79432746Y-59085314D01*
X79432746Y-57785314D01*
G37*
G36*
X79932746Y-57785314D02*
G01*
X80232746Y-57785314D01*
X80232746Y-59085314D01*
X79932746Y-59085314D01*
X79932746Y-57785314D01*
G37*
%TD*%
D17*
%TO.C,J1*%
X61462113Y-29787016D03*
X60662113Y-29787016D03*
X59862113Y-29787016D03*
X59062113Y-29787016D03*
X58662113Y-29787016D03*
X58262113Y-29787016D03*
X56662113Y-29787016D03*
X55862113Y-29787016D03*
X55462113Y-29787016D03*
X56262113Y-29787016D03*
X57062113Y-29787016D03*
X57462113Y-29787016D03*
X57862113Y-29787016D03*
X59462113Y-29787016D03*
X60262113Y-29787016D03*
X61062113Y-29787016D03*
D18*
X61977113Y-29787016D03*
X54947113Y-29787016D03*
D19*
X63057113Y-29027016D03*
D20*
X63057113Y-26047016D03*
D19*
X53867113Y-29027016D03*
D20*
X53867113Y-26047016D03*
%TD*%
D21*
%TO.C,S1*%
X83981640Y-28366128D03*
X91481640Y-28366128D03*
X91481640Y-26066128D03*
X83981640Y-26066128D03*
D22*
X85481640Y-29266128D03*
X86981640Y-29266128D03*
X89981640Y-29266128D03*
D23*
X89231640Y-27216128D03*
X86231640Y-27216128D03*
%TD*%
D24*
%TO.C,C9*%
X69219125Y-51595208D03*
X69219125Y-50045208D03*
%TD*%
D25*
%TO.C,TP8*%
X83640779Y-71280467D03*
%TD*%
%TO.C,TP9*%
X82768423Y-69179659D03*
%TD*%
D26*
%TO.C,U$10*%
X82180000Y-61120000D03*
X53480000Y-61120000D03*
%TD*%
D27*
%TO.C,R15*%
X90180035Y-82224781D03*
X90180035Y-83874781D03*
%TD*%
D28*
%TO.C,J4*%
X73417293Y-25842183D03*
X74517293Y-25842183D03*
X75617293Y-25842183D03*
X76717293Y-25842183D03*
X77817293Y-25842183D03*
X78917293Y-25842183D03*
X80017293Y-25842183D03*
X81117293Y-25842183D03*
D29*
X71627293Y-38307183D03*
D30*
X75892293Y-38382183D03*
D31*
X69537293Y-25857183D03*
D32*
X82197293Y-26342183D03*
D33*
X69317293Y-37107183D03*
X82277293Y-37107183D03*
%TD*%
D25*
%TO.C,TP10*%
X82834389Y-67042233D03*
%TD*%
D27*
%TO.C,R13*%
X85617819Y-76504506D03*
X85617819Y-78154506D03*
%TD*%
D34*
%TO.C,U3*%
X72771000Y-47759998D03*
X72771000Y-48260000D03*
D35*
X72771000Y-48759999D03*
D34*
X72771000Y-49259998D03*
X72771000Y-49760000D03*
X73660000Y-49760000D03*
X73660000Y-49259998D03*
D35*
X73660000Y-48759999D03*
D34*
X73660000Y-48260000D03*
X73660000Y-47759998D03*
%TD*%
D36*
%TO.C,C3*%
X85768245Y-46429958D03*
X85768245Y-47979958D03*
%TD*%
D25*
%TO.C,TP3*%
X82933546Y-73731835D03*
%TD*%
%TO.C,TP5*%
X84760907Y-82514082D03*
%TD*%
D37*
%TO.C,R1*%
X91440000Y-63500000D03*
X91440000Y-61850000D03*
%TD*%
D24*
%TO.C,C7*%
X45825364Y-36180680D03*
X45825364Y-34630680D03*
%TD*%
D38*
%TO.C,C10*%
X67242566Y-29477128D03*
X65692566Y-29477128D03*
%TD*%
D39*
%TO.C,J6*%
X87059824Y-83999038D03*
X86259824Y-83999038D03*
X85459824Y-83999038D03*
D40*
X88359824Y-85399038D03*
X84159824Y-85399038D03*
%TD*%
D41*
%TO.C,SW2*%
X88465179Y-39821382D03*
X88465179Y-41521382D03*
D42*
X87715179Y-37996382D03*
D43*
X91415179Y-40671382D03*
D42*
X87715179Y-43346382D03*
X90415179Y-37996382D03*
X90415179Y-43346382D03*
%TD*%
D38*
%TO.C,C4*%
X87427752Y-49532902D03*
X85877752Y-49532902D03*
%TD*%
D39*
%TO.C,J2*%
X79788882Y-83530207D03*
X78988882Y-83530207D03*
X78188882Y-83530207D03*
X77388882Y-83530207D03*
X76588882Y-83530207D03*
X75788882Y-83530207D03*
X74988882Y-83530207D03*
X74188882Y-83530207D03*
D40*
X81088882Y-84930207D03*
X72888882Y-84930207D03*
%TD*%
D27*
%TO.C,R11*%
X84326371Y-79603927D03*
X84326371Y-81253927D03*
%TD*%
%TO.C,R16*%
X91740051Y-82386956D03*
X91740051Y-84036956D03*
%TD*%
D44*
%TO.C,D1*%
X87319125Y-61925000D03*
X87319125Y-63500000D03*
%TD*%
D37*
%TO.C,R3*%
X91082592Y-55125235D03*
X91082592Y-53475235D03*
%TD*%
D27*
%TO.C,R6*%
X88900000Y-62675000D03*
X88900000Y-64325000D03*
%TD*%
D45*
%TO.C,U2*%
X87630078Y-48345669D03*
X88280078Y-48345669D03*
X88930078Y-48345669D03*
X88930078Y-46570669D03*
X88280078Y-46570669D03*
X87630078Y-46570669D03*
D46*
X88280078Y-47458169D03*
%TD*%
D25*
%TO.C,TP2*%
X83567969Y-76895257D03*
%TD*%
D47*
%TO.C,X1*%
X47790409Y-37920035D03*
X47790409Y-39190035D03*
X47790409Y-40460035D03*
X47790409Y-41730035D03*
X47790409Y-43000035D03*
X47790409Y-44270035D03*
X47790409Y-45540035D03*
X47790409Y-46810035D03*
X47790409Y-48080035D03*
X47790409Y-49350035D03*
X47790409Y-50620035D03*
X47790409Y-51890035D03*
X47790409Y-53160035D03*
X47790409Y-54430035D03*
D48*
X49555409Y-55680035D03*
X50825409Y-55680035D03*
X52095409Y-55680035D03*
X53365409Y-55680035D03*
X54635409Y-55680035D03*
X55905409Y-55680035D03*
X57175409Y-55680035D03*
X58445409Y-55680035D03*
X59715409Y-55680035D03*
X60985409Y-55680035D03*
X62255409Y-55680035D03*
X63525409Y-55680035D03*
D47*
X65290409Y-54430035D03*
X65290409Y-53160035D03*
X65290409Y-51890035D03*
X65290409Y-50620035D03*
X65290409Y-49350035D03*
X65290409Y-48080035D03*
X65290409Y-46810035D03*
X65290409Y-45540035D03*
X65290409Y-44270035D03*
X65290409Y-43000035D03*
X65290409Y-41730035D03*
X65290409Y-40460035D03*
X65290409Y-39190035D03*
X65290409Y-37920035D03*
D49*
X55040409Y-45640035D03*
X55040409Y-44240035D03*
X53640409Y-44240035D03*
X53640409Y-45640035D03*
X53640409Y-47040035D03*
X55040409Y-47040035D03*
X56440409Y-47040035D03*
X56440409Y-45640035D03*
X56440409Y-44240035D03*
%TD*%
D50*
%TO.C,C2*%
X82672244Y-51800997D03*
X84222244Y-51800997D03*
%TD*%
D24*
%TO.C,C8*%
X45795260Y-42404527D03*
X45795260Y-40854527D03*
%TD*%
D51*
%TO.C,LS1*%
X51079439Y-85653852D03*
X51079439Y-74853852D03*
%TD*%
D27*
%TO.C,R7*%
X88985536Y-68028718D03*
X88985536Y-69678718D03*
%TD*%
D52*
%TO.C,R8*%
X70295000Y-55880000D03*
X71945000Y-55880000D03*
%TD*%
D27*
%TO.C,R9*%
X86360000Y-65215000D03*
X86360000Y-66865000D03*
%TD*%
D24*
%TO.C,C6*%
X45780208Y-39364373D03*
X45780208Y-37814373D03*
%TD*%
D36*
%TO.C,C5*%
X70892369Y-49862728D03*
X70892369Y-51412728D03*
%TD*%
D53*
%TO.C,R12*%
X90626983Y-71889385D03*
X88976983Y-71889385D03*
%TD*%
D24*
%TO.C,C1*%
X81415468Y-50186518D03*
X81415468Y-48636518D03*
%TD*%
D27*
%TO.C,R14*%
X85780604Y-79583846D03*
X85780604Y-81233846D03*
%TD*%
D25*
%TO.C,TP4*%
X84549873Y-74613303D03*
%TD*%
%TO.C,TP6*%
X86617593Y-82479077D03*
%TD*%
D54*
%TO.C,SW1*%
X75417561Y-46469882D03*
X79567561Y-46469882D03*
%TD*%
D25*
%TO.C,TP7*%
X88252051Y-82307780D03*
%TD*%
D55*
%TO.C,U1*%
X79310000Y-52540000D03*
X79310000Y-52940000D03*
X79310000Y-53340000D03*
X79310000Y-53740000D03*
X79310000Y-54140000D03*
X81280000Y-54140000D03*
X81280000Y-53740000D03*
X81280000Y-53340000D03*
X81280000Y-52940000D03*
X81280000Y-52540000D03*
D48*
X80295000Y-53340000D03*
%TD*%
D56*
%TO.C,U4*%
X69218481Y-48207452D03*
X69718481Y-48207452D03*
X70218481Y-48207452D03*
X70718481Y-48207452D03*
D57*
X71405981Y-47519952D03*
X71405981Y-47019952D03*
X71405981Y-46519952D03*
X71405981Y-46019952D03*
D56*
X70718481Y-45332452D03*
X70218481Y-45332452D03*
X69718481Y-45332452D03*
X69218481Y-45332452D03*
D57*
X68530981Y-46019952D03*
X68530981Y-46519952D03*
X68530981Y-47019952D03*
X68530981Y-47519952D03*
D58*
X69968481Y-46769952D03*
%TD*%
D38*
%TO.C,C11*%
X67266307Y-27970000D03*
X65716307Y-27970000D03*
%TD*%
D37*
%TO.C,R5*%
X85742799Y-43362379D03*
X85742799Y-41712379D03*
%TD*%
D54*
%TO.C,SW3*%
X83228412Y-54885091D03*
X87378412Y-54885091D03*
%TD*%
D37*
%TO.C,R2*%
X91191509Y-59821509D03*
X91191509Y-58171509D03*
%TD*%
%TO.C,R4*%
X83692938Y-45820841D03*
X83692938Y-44170841D03*
%TD*%
%TO.C,R17*%
X83961847Y-38236959D03*
X83961847Y-36586959D03*
%TD*%
D59*
%TO.C,D2*%
X90013823Y-66104836D03*
X88438823Y-66104836D03*
%TD*%
D27*
%TO.C,R10*%
X86360000Y-68470245D03*
X86360000Y-70120245D03*
%TD*%
D60*
%TO.C,J3*%
X91009300Y-79380966D03*
D61*
X89009300Y-79380966D03*
%TD*%
D25*
%TO.C,TP1*%
X85399248Y-73023222D03*
%TD*%
%LPD*%
M02*
