M48
; DRILL file {KiCad 9.0.3} date 2026-01-07T23:25:02+0000
; FORMAT={-:-/ absolute / inch / decimal}
; #@! TF.CreationDate,2026-01-07T23:25:02+00:00
; #@! TF.GenerationSoftware,Kicad,Pcbnew,9.0.3
; #@! TF.FileFunction,Plated,1,4,PTH
FMAT,2
INCH
; #@! TA.AperFunction,Plated,PTH,ViaDrill
T1C0.0118
; #@! TA.AperFunction,Plated,PTH,ComponentDrill
T2C0.0157
; #@! TA.AperFunction,Plated,PTH,ComponentDrill
T3C0.0217
; #@! TA.AperFunction,Plated,PTH,ComponentDrill
T4C0.0295
; #@! TA.AperFunction,Plated,PTH,ComponentDrill
T5C0.0512
%
G90
G05
T1
X1.7Y-2.1
X1.7197Y-2.0805
X1.7779Y-1.5193
X1.8Y-1.2
X1.8Y-2.6
X1.8015Y-1.7255
X1.8202Y-2.2607
X1.8207Y-1.8345
X1.8216Y-1.9654
X1.8216Y-2.0
X1.8217Y-1.807
X1.832Y-1.5804
X1.8393Y-2.445
X1.8397Y-2.2802
X1.843Y-2.3751
X1.8504Y-1.3633
X1.8861Y-2.5139
X1.8965Y-2.5629
X1.9Y-2.4
X1.9Y-2.8
X1.9Y-3.0
X1.9Y-3.3
X1.9276Y-2.4
X1.9292Y-1.7804
X1.9412Y-2.4651
X1.9435Y-1.804
X1.949Y-1.7226
X1.9603Y-2.2675
X1.9723Y-2.0012
X1.9825Y-2.7375
X2.0249Y-2.006
X2.025Y-1.9784
X2.0255Y-1.884
X2.0319Y-2.8149
X2.0413Y-1.5238
X2.0476Y-2.0663
X2.0483Y-1.4971
X2.049Y-1.8143
X2.0608Y-1.8392
X2.0629Y-1.7343
X2.0669Y-1.6389
X2.0751Y-2.0656
X2.0863Y-1.5479
X2.1Y-1.3
X2.1Y-1.4
X2.1Y-2.0
X2.1Y-2.3
X2.1097Y-1.8978
X2.1223Y-1.9223
X2.126Y-2.0101
X2.1764Y-1.3712
X2.1802Y-1.9791
X2.1804Y-2.0724
X2.1931Y-1.3931
X2.1951Y-1.9
X2.2Y-2.0
X2.2Y-2.1
X2.2Y-2.5
X2.2Y-3.3
X2.2125Y-1.4885
X2.2183Y-2.0794
X2.2262Y-1.9093
X2.2315Y-1.4685
X2.2475Y-2.3807
X2.2688Y-2.3981
X2.2698Y-1.5651
X2.2743Y-1.3098
X2.2861Y-2.0045
X2.2931Y-2.1372
X2.295Y-1.8004
X2.3Y-1.3
X2.3Y-2.5
X2.3064Y-1.8257
X2.3178Y-2.125
X2.3238Y-1.4471
X2.3244Y-2.357
X2.3287Y-1.7663
X2.35Y-1.4386
X2.3504Y-1.9398
X2.3597Y-1.7682
X2.3724Y-1.6046
X2.3731Y-1.9553
X2.3791Y-2.2449
X2.3791Y-1.4215
X2.3843Y-2.068
X2.3955Y-1.9
X2.3967Y-1.9275
X2.3995Y-1.44
X2.4Y-1.5
X2.4Y-1.6
X2.4022Y-2.0143
X2.4034Y-1.2472
X2.4043Y-2.3646
X2.4066Y-2.2444
X2.4234Y-1.5146
X2.4281Y-1.1247
X2.4362Y-2.3487
X2.4401Y-2.0408
X2.4494Y-1.3506
X2.4679Y-2.026
X2.4704Y-1.3309
X2.4714Y-2.3617
X2.4742Y-2.2446
X2.4748Y-1.5111
X2.5Y-1.5
X2.5Y-3.3
X2.5013Y-1.8687
X2.5015Y-2.2482
X2.5074Y-1.8396
X2.5081Y-1.5941
X2.5476Y-1.127
X2.6192Y-2.3613
X2.6279Y-1.4929
X2.6593Y-1.2699
X2.6636Y-2.1907
X2.6668Y-1.849
X2.673Y-1.4974
X2.6758Y-1.6708
X2.6827Y-1.5232
X2.6873Y-1.1464
X2.6895Y-1.4345
X2.6988Y-1.7578
X2.7Y-1.6
X2.7Y-2.2
X2.7Y-3.3
X2.7025Y-1.3224
X2.7083Y-1.1279
X2.7312Y-1.3174
X2.7358Y-1.1321
X2.747Y-1.9317
X2.7583Y-1.2868
X2.76Y-2.3619
X2.7631Y-1.5038
X2.7646Y-1.4696
X2.7894Y-1.3778
X2.7923Y-1.0409
X2.8Y-1.1
X2.8Y-1.4032
X2.8Y-2.0654
X2.8131Y-1.6646
X2.8168Y-1.3394
X2.8193Y-1.9258
X2.8196Y-1.0458
X2.8273Y-1.1727
X2.8307Y-1.9
X2.8328Y-2.1434
X2.8441Y-1.8468
X2.8441Y-1.197
X2.8475Y-1.1538
X2.86Y-1.8221
X2.8618Y-1.6382
X2.9Y-2.2
X2.9083Y-1.8422
X2.9125Y-1.0561
X2.9236Y-2.0236
X2.9246Y-2.2251
X2.9378Y-1.9038
X2.9394Y-1.0618
X2.9497Y-3.3358
X2.9659Y-3.3581
X2.9684Y-2.4707
X2.9837Y-2.1837
X3.0Y-1.9
X3.0Y-2.4
X3.0166Y-2.347
X3.0193Y-1.7587
X3.0363Y-1.0572
X3.039Y-1.7337
X3.0425Y-3.3342
X3.0434Y-3.2434
X3.0506Y-2.1086
X3.0637Y-1.0602
X3.0682Y-2.3492
X3.0688Y-2.2072
X3.0729Y-3.3461
X3.0951Y-1.062
X3.1Y-2.4
X3.1023Y-3.3342
X3.1055Y-0.9776
X3.1247Y-1.0597
X3.1303Y-1.9134
X3.1344Y-1.768
X3.1518Y-1.0643
X3.1618Y-2.1466
X3.1618Y-1.7657
X3.1738Y-3.2732
X3.1868Y-2.037
X3.2Y-2.5
X3.218Y-2.5209
X3.2337Y-1.7683
X3.2568Y-2.0811
X3.2603Y-2.961
X3.2627Y-1.9
X3.263Y-3.3151
X3.2646Y-3.0665
X3.2756Y-2.8561
X3.2828Y-1.6828
X3.2861Y-3.3
X3.2864Y-3.2277
X3.2917Y-1.3688
X3.2986Y-2.73
X3.3Y-1.2867
X3.3Y-1.4
X3.3Y-1.6
X3.3Y-2.3
X3.3Y-2.5
X3.3Y-2.7
X3.3014Y-2.9665
X3.3064Y-1.5376
X3.3152Y-3.2848
X3.3154Y-2.4771
X3.3175Y-3.0929
X3.3211Y-2.6048
X3.324Y-1.889
X3.324Y-1.928
X3.3259Y-1.9663
X3.329Y-1.7784
X3.3324Y-1.6896
X3.3338Y-1.6621
X3.3344Y-1.5295
X3.3362Y-2.5818
X3.3474Y-1.4194
X3.3672Y-2.5364
X3.3744Y-2.3102
X3.3809Y-2.4098
X3.3906Y-1.5565
X3.3932Y-3.3625
X3.3942Y-2.9302
X3.3955Y-3.0445
X3.3969Y-2.8573
X3.4Y-2.3
X3.4153Y-3.1057
X3.421Y-3.374
X3.4247Y-2.8177
X3.4255Y-2.9336
X3.4273Y-2.5992
X3.439Y-2.361
X3.4412Y-2.6675
X3.4449Y-2.0627
X3.4458Y-2.7994
X3.4538Y-2.3265
X3.4604Y-2.0396
X3.4787Y-2.1062
X3.4799Y-1.9877
X3.4814Y-3.1822
X3.5Y-1.8
X3.5Y-2.1236
X3.5079Y-3.3065
X3.5148Y-3.1802
X3.5256Y-1.4205
X3.5326Y-2.9691
X3.533Y-3.013
X3.5384Y-2.2269
X3.5403Y-2.5139
X3.5485Y-2.4876
X3.5498Y-2.734
X3.5504Y-3.2043
X3.5505Y-1.9081
X3.5535Y-1.549
X3.5549Y-2.6574
X3.5588Y-2.6897
X3.5624Y-2.568
X3.5628Y-2.8677
X3.5639Y-2.0585
X3.5681Y-1.77
X3.5894Y-2.9717
X3.592Y-2.9148
X3.5952Y-1.3761
X3.6Y-3.2
X3.6002Y-3.375
X3.622Y-1.3698
X3.6281Y-3.1266
X3.6334Y-1.2357
T3
X2.1208Y-1.1428
X2.4826Y-1.1428
T4
X3.5043Y-3.1252
X3.583Y-3.1252
T5
X3.599Y-1.6012
T2
G00X2.1208Y-1.052
M15
G01X2.1208Y-0.9989
M16
G05
G00X2.4826Y-1.052
M15
G01X2.4826Y-0.9989
M16
G05
M30
