%TF.GenerationSoftware,KiCad,Pcbnew,9.0.3*%
%TF.CreationDate,2026-01-07T23:24:55+00:00*%
%TF.ProjectId,lego_gameboy_main,6c65676f-5f67-4616-9d65-626f795f6d61,rev?*%
%TF.SameCoordinates,Original*%
%TF.FileFunction,Soldermask,Top*%
%TF.FilePolarity,Negative*%
%FSLAX46Y46*%
G04 Gerber Fmt 4.6, Leading zero omitted, Abs format (unit mm)*
G04 Created by KiCad (PCBNEW 9.0.3) date 2026-01-07 23:24:55*
%MOMM*%
%LPD*%
G01*
G04 APERTURE LIST*
G04 Aperture macros list*
%AMRoundRect*
0 Rectangle with rounded corners*
0 $1 Rounding radius*
0 $2 $3 $4 $5 $6 $7 $8 $9 X,Y pos of 4 corners*
0 Add a 4 corners polygon primitive as box body*
4,1,4,$2,$3,$4,$5,$6,$7,$8,$9,$2,$3,0*
0 Add four circle primitives for the rounded corners*
1,1,$1+$1,$2,$3*
1,1,$1+$1,$4,$5*
1,1,$1+$1,$6,$7*
1,1,$1+$1,$8,$9*
0 Add four rect primitives between the rounded corners*
20,1,$1+$1,$2,$3,$4,$5,0*
20,1,$1+$1,$4,$5,$6,$7,0*
20,1,$1+$1,$6,$7,$8,$9,0*
20,1,$1+$1,$8,$9,$2,$3,0*%
G04 Aperture macros list end*
%ADD10RoundRect,0.070000X0.070000X0.345000X-0.070000X0.345000X-0.070000X-0.345000X0.070000X-0.345000X0*%
%ADD11RoundRect,0.112500X0.112500X0.302500X-0.112500X0.302500X-0.112500X-0.302500X0.112500X-0.302500X0*%
%ADD12C,0.850000*%
%ADD13O,0.600000X2.050000*%
%ADD14RoundRect,0.102000X-0.500000X-0.400000X0.500000X-0.400000X0.500000X0.400000X-0.500000X0.400000X0*%
%ADD15RoundRect,0.102000X-0.350000X-0.550000X0.350000X-0.550000X0.350000X0.550000X-0.350000X0.550000X0*%
%ADD16C,0.900000*%
%ADD17RoundRect,0.225000X0.250000X-0.225000X0.250000X0.225000X-0.250000X0.225000X-0.250000X-0.225000X0*%
%ADD18C,1.000000*%
%ADD19RoundRect,0.312700X0.938100X0.938100X-0.938100X0.938100X-0.938100X-0.938100X0.938100X-0.938100X0*%
%ADD20RoundRect,0.200000X-0.275000X0.200000X-0.275000X-0.200000X0.275000X-0.200000X0.275000X0.200000X0*%
%ADD21RoundRect,0.076200X-0.350000X-0.550000X0.350000X-0.550000X0.350000X0.550000X-0.350000X0.550000X0*%
%ADD22RoundRect,0.076200X-0.450000X-0.465000X0.450000X-0.465000X0.450000X0.465000X-0.450000X0.465000X0*%
%ADD23RoundRect,0.076200X-0.525000X-0.390000X0.525000X-0.390000X0.525000X0.390000X-0.525000X0.390000X0*%
%ADD24RoundRect,0.076200X-0.570000X-0.915000X0.570000X-0.915000X0.570000X0.915000X-0.570000X0.915000X0*%
%ADD25RoundRect,0.076200X-0.430000X-1.400000X0.430000X-1.400000X0.430000X1.400000X-0.430000X1.400000X0*%
%ADD26RoundRect,0.076200X-0.350000X-1.665000X0.350000X-1.665000X0.350000X1.665000X-0.350000X1.665000X0*%
%ADD27R,0.711200X0.203200*%
%ADD28R,0.711200X0.406400*%
%ADD29RoundRect,0.225000X-0.250000X0.225000X-0.250000X-0.225000X0.250000X-0.225000X0.250000X0.225000X0*%
%ADD30RoundRect,0.200000X0.275000X-0.200000X0.275000X0.200000X-0.275000X0.200000X-0.275000X-0.200000X0*%
%ADD31RoundRect,0.225000X0.225000X0.250000X-0.225000X0.250000X-0.225000X-0.250000X0.225000X-0.250000X0*%
%ADD32RoundRect,0.125000X0.125000X0.425000X-0.125000X0.425000X-0.125000X-0.425000X0.125000X-0.425000X0*%
%ADD33RoundRect,0.250000X0.350000X0.600000X-0.350000X0.600000X-0.350000X-0.600000X0.350000X-0.600000X0*%
%ADD34R,2.200000X1.100000*%
%ADD35R,1.800000X1.450000*%
%ADD36C,1.800000*%
%ADD37RoundRect,0.218750X-0.256250X0.218750X-0.256250X-0.218750X0.256250X-0.218750X0.256250X0.218750X0*%
%ADD38RoundRect,0.093750X0.106250X-0.093750X0.106250X0.093750X-0.106250X0.093750X-0.106250X-0.093750X0*%
%ADD39R,1.600000X1.000000*%
%ADD40RoundRect,0.102000X-0.750000X-0.450000X0.750000X-0.450000X0.750000X0.450000X-0.750000X0.450000X0*%
%ADD41RoundRect,0.102000X-0.450000X-0.750000X0.450000X-0.750000X0.450000X0.750000X-0.450000X0.750000X0*%
%ADD42RoundRect,0.102000X-0.450000X-0.450000X0.450000X-0.450000X0.450000X0.450000X-0.450000X0.450000X0*%
%ADD43RoundRect,0.225000X-0.225000X-0.250000X0.225000X-0.250000X0.225000X0.250000X-0.225000X0.250000X0*%
%ADD44R,2.000000X1.500000*%
%ADD45RoundRect,0.200000X-0.200000X-0.275000X0.200000X-0.275000X0.200000X0.275000X-0.200000X0.275000X0*%
%ADD46RoundRect,0.200000X0.200000X0.275000X-0.200000X0.275000X-0.200000X-0.275000X0.200000X-0.275000X0*%
%ADD47RoundRect,0.102000X-0.675000X-0.900000X0.675000X-0.900000X0.675000X0.900000X-0.675000X0.900000X0*%
%ADD48RoundRect,0.102000X-0.380000X-0.110000X0.380000X-0.110000X0.380000X0.110000X-0.380000X0.110000X0*%
%ADD49RoundRect,0.062500X0.062500X-0.350000X0.062500X0.350000X-0.062500X0.350000X-0.062500X-0.350000X0*%
%ADD50RoundRect,0.062500X0.350000X-0.062500X0.350000X0.062500X-0.350000X0.062500X-0.350000X-0.062500X0*%
%ADD51R,1.230000X1.230000*%
%ADD52RoundRect,0.218750X0.218750X0.256250X-0.218750X0.256250X-0.218750X-0.256250X0.218750X-0.256250X0*%
%ADD53RoundRect,0.250000X0.350000X0.625000X-0.350000X0.625000X-0.350000X-0.625000X0.350000X-0.625000X0*%
%ADD54O,1.200000X1.750000*%
G04 APERTURE END LIST*
%TO.C,U$10*%
G36*
X55432746Y-57785314D02*
G01*
X55732746Y-57785314D01*
X55732746Y-59085314D01*
X55432746Y-59085314D01*
X55432746Y-57785314D01*
G37*
G36*
X55932746Y-57785314D02*
G01*
X56232746Y-57785314D01*
X56232746Y-59085314D01*
X55932746Y-59085314D01*
X55932746Y-57785314D01*
G37*
G36*
X56432746Y-57785314D02*
G01*
X56732746Y-57785314D01*
X56732746Y-59085314D01*
X56432746Y-59085314D01*
X56432746Y-57785314D01*
G37*
G36*
X56932746Y-57785314D02*
G01*
X57232746Y-57785314D01*
X57232746Y-59085314D01*
X56932746Y-59085314D01*
X56932746Y-57785314D01*
G37*
G36*
X57432746Y-57785314D02*
G01*
X57732746Y-57785314D01*
X57732746Y-59085314D01*
X57432746Y-59085314D01*
X57432746Y-57785314D01*
G37*
G36*
X57932746Y-57785314D02*
G01*
X58232746Y-57785314D01*
X58232746Y-59085314D01*
X57932746Y-59085314D01*
X57932746Y-57785314D01*
G37*
G36*
X58432746Y-57785314D02*
G01*
X58732746Y-57785314D01*
X58732746Y-59085314D01*
X58432746Y-59085314D01*
X58432746Y-57785314D01*
G37*
G36*
X58932746Y-57785314D02*
G01*
X59232746Y-57785314D01*
X59232746Y-59085314D01*
X58932746Y-59085314D01*
X58932746Y-57785314D01*
G37*
G36*
X59432746Y-57785314D02*
G01*
X59732746Y-57785314D01*
X59732746Y-59085314D01*
X59432746Y-59085314D01*
X59432746Y-57785314D01*
G37*
G36*
X59932746Y-57785314D02*
G01*
X60232746Y-57785314D01*
X60232746Y-59085314D01*
X59932746Y-59085314D01*
X59932746Y-57785314D01*
G37*
G36*
X60432746Y-57785314D02*
G01*
X60732746Y-57785314D01*
X60732746Y-59085314D01*
X60432746Y-59085314D01*
X60432746Y-57785314D01*
G37*
G36*
X60932746Y-57785314D02*
G01*
X61232746Y-57785314D01*
X61232746Y-59085314D01*
X60932746Y-59085314D01*
X60932746Y-57785314D01*
G37*
G36*
X61432746Y-57785314D02*
G01*
X61732746Y-57785314D01*
X61732746Y-59085314D01*
X61432746Y-59085314D01*
X61432746Y-57785314D01*
G37*
G36*
X61932746Y-57785314D02*
G01*
X62232746Y-57785314D01*
X62232746Y-59085314D01*
X61932746Y-59085314D01*
X61932746Y-57785314D01*
G37*
G36*
X62432746Y-57785314D02*
G01*
X62732746Y-57785314D01*
X62732746Y-59085314D01*
X62432746Y-59085314D01*
X62432746Y-57785314D01*
G37*
G36*
X62932746Y-57785314D02*
G01*
X63232746Y-57785314D01*
X63232746Y-59085314D01*
X62932746Y-59085314D01*
X62932746Y-57785314D01*
G37*
G36*
X63432746Y-57785314D02*
G01*
X63732746Y-57785314D01*
X63732746Y-59085314D01*
X63432746Y-59085314D01*
X63432746Y-57785314D01*
G37*
G36*
X63932746Y-57785314D02*
G01*
X64232746Y-57785314D01*
X64232746Y-59085314D01*
X63932746Y-59085314D01*
X63932746Y-57785314D01*
G37*
G36*
X64432746Y-57785314D02*
G01*
X64732746Y-57785314D01*
X64732746Y-59085314D01*
X64432746Y-59085314D01*
X64432746Y-57785314D01*
G37*
G36*
X64932746Y-57785314D02*
G01*
X65232746Y-57785314D01*
X65232746Y-59085314D01*
X64932746Y-59085314D01*
X64932746Y-57785314D01*
G37*
G36*
X65432746Y-57785314D02*
G01*
X65732746Y-57785314D01*
X65732746Y-59085314D01*
X65432746Y-59085314D01*
X65432746Y-57785314D01*
G37*
G36*
X65932746Y-57785314D02*
G01*
X66232746Y-57785314D01*
X66232746Y-59085314D01*
X65932746Y-59085314D01*
X65932746Y-57785314D01*
G37*
G36*
X66432746Y-57785314D02*
G01*
X66732746Y-57785314D01*
X66732746Y-59085314D01*
X66432746Y-59085314D01*
X66432746Y-57785314D01*
G37*
G36*
X66932746Y-57785314D02*
G01*
X67232746Y-57785314D01*
X67232746Y-59085314D01*
X66932746Y-59085314D01*
X66932746Y-57785314D01*
G37*
G36*
X67432746Y-57785314D02*
G01*
X67732746Y-57785314D01*
X67732746Y-59085314D01*
X67432746Y-59085314D01*
X67432746Y-57785314D01*
G37*
G36*
X67932746Y-57785314D02*
G01*
X68232746Y-57785314D01*
X68232746Y-59085314D01*
X67932746Y-59085314D01*
X67932746Y-57785314D01*
G37*
G36*
X68432746Y-57785314D02*
G01*
X68732746Y-57785314D01*
X68732746Y-59085314D01*
X68432746Y-59085314D01*
X68432746Y-57785314D01*
G37*
G36*
X68932746Y-57785314D02*
G01*
X69232746Y-57785314D01*
X69232746Y-59085314D01*
X68932746Y-59085314D01*
X68932746Y-57785314D01*
G37*
G36*
X69432746Y-57785314D02*
G01*
X69732746Y-57785314D01*
X69732746Y-59085314D01*
X69432746Y-59085314D01*
X69432746Y-57785314D01*
G37*
G36*
X69932746Y-57785314D02*
G01*
X70232746Y-57785314D01*
X70232746Y-59085314D01*
X69932746Y-59085314D01*
X69932746Y-57785314D01*
G37*
G36*
X70432746Y-57785314D02*
G01*
X70732746Y-57785314D01*
X70732746Y-59085314D01*
X70432746Y-59085314D01*
X70432746Y-57785314D01*
G37*
G36*
X70932746Y-57785314D02*
G01*
X71232746Y-57785314D01*
X71232746Y-59085314D01*
X70932746Y-59085314D01*
X70932746Y-57785314D01*
G37*
G36*
X71432746Y-57785314D02*
G01*
X71732746Y-57785314D01*
X71732746Y-59085314D01*
X71432746Y-59085314D01*
X71432746Y-57785314D01*
G37*
G36*
X71932746Y-57785314D02*
G01*
X72232746Y-57785314D01*
X72232746Y-59085314D01*
X71932746Y-59085314D01*
X71932746Y-57785314D01*
G37*
G36*
X72432746Y-57785314D02*
G01*
X72732746Y-57785314D01*
X72732746Y-59085314D01*
X72432746Y-59085314D01*
X72432746Y-57785314D01*
G37*
G36*
X72932746Y-57785314D02*
G01*
X73232746Y-57785314D01*
X73232746Y-59085314D01*
X72932746Y-59085314D01*
X72932746Y-57785314D01*
G37*
G36*
X73432746Y-57785314D02*
G01*
X73732746Y-57785314D01*
X73732746Y-59085314D01*
X73432746Y-59085314D01*
X73432746Y-57785314D01*
G37*
G36*
X73932746Y-57785314D02*
G01*
X74232746Y-57785314D01*
X74232746Y-59085314D01*
X73932746Y-59085314D01*
X73932746Y-57785314D01*
G37*
G36*
X74432746Y-57785314D02*
G01*
X74732746Y-57785314D01*
X74732746Y-59085314D01*
X74432746Y-59085314D01*
X74432746Y-57785314D01*
G37*
G36*
X74932746Y-57785314D02*
G01*
X75232746Y-57785314D01*
X75232746Y-59085314D01*
X74932746Y-59085314D01*
X74932746Y-57785314D01*
G37*
G36*
X75432746Y-57785314D02*
G01*
X75732746Y-57785314D01*
X75732746Y-59085314D01*
X75432746Y-59085314D01*
X75432746Y-57785314D01*
G37*
G36*
X75932746Y-57785314D02*
G01*
X76232746Y-57785314D01*
X76232746Y-59085314D01*
X75932746Y-59085314D01*
X75932746Y-57785314D01*
G37*
G36*
X76432746Y-57785314D02*
G01*
X76732746Y-57785314D01*
X76732746Y-59085314D01*
X76432746Y-59085314D01*
X76432746Y-57785314D01*
G37*
G36*
X76932746Y-57785314D02*
G01*
X77232746Y-57785314D01*
X77232746Y-59085314D01*
X76932746Y-59085314D01*
X76932746Y-57785314D01*
G37*
G36*
X77432746Y-57785314D02*
G01*
X77732746Y-57785314D01*
X77732746Y-59085314D01*
X77432746Y-59085314D01*
X77432746Y-57785314D01*
G37*
G36*
X77932746Y-57785314D02*
G01*
X78232746Y-57785314D01*
X78232746Y-59085314D01*
X77932746Y-59085314D01*
X77932746Y-57785314D01*
G37*
G36*
X78432746Y-57785314D02*
G01*
X78732746Y-57785314D01*
X78732746Y-59085314D01*
X78432746Y-59085314D01*
X78432746Y-57785314D01*
G37*
G36*
X78932746Y-57785314D02*
G01*
X79232746Y-57785314D01*
X79232746Y-59085314D01*
X78932746Y-59085314D01*
X78932746Y-57785314D01*
G37*
G36*
X79432746Y-57785314D02*
G01*
X79732746Y-57785314D01*
X79732746Y-59085314D01*
X79432746Y-59085314D01*
X79432746Y-57785314D01*
G37*
G36*
X79932746Y-57785314D02*
G01*
X80232746Y-57785314D01*
X80232746Y-59085314D01*
X79932746Y-59085314D01*
X79932746Y-57785314D01*
G37*
%TD*%
D10*
%TO.C,J1*%
X61462113Y-29787016D03*
X60662113Y-29787016D03*
X59862113Y-29787016D03*
X59062113Y-29787016D03*
X58662113Y-29787016D03*
X58262113Y-29787016D03*
X56662113Y-29787016D03*
X55862113Y-29787016D03*
X55462113Y-29787016D03*
X56262113Y-29787016D03*
X57062113Y-29787016D03*
X57462113Y-29787016D03*
X57862113Y-29787016D03*
X59462113Y-29787016D03*
X60262113Y-29787016D03*
X61062113Y-29787016D03*
D11*
X61977113Y-29787016D03*
X54947113Y-29787016D03*
D12*
X63057113Y-29027016D03*
D13*
X63057113Y-26047016D03*
D12*
X53867113Y-29027016D03*
D13*
X53867113Y-26047016D03*
%TD*%
D14*
%TO.C,S1*%
X83981640Y-28366128D03*
X91481640Y-28366128D03*
X91481640Y-26066128D03*
X83981640Y-26066128D03*
D15*
X85481640Y-29266128D03*
X86981640Y-29266128D03*
X89981640Y-29266128D03*
D16*
X89231640Y-27216128D03*
X86231640Y-27216128D03*
%TD*%
D17*
%TO.C,C9*%
X69219125Y-51595208D03*
X69219125Y-50045208D03*
%TD*%
D18*
%TO.C,TP8*%
X83640779Y-71280467D03*
%TD*%
%TO.C,TP9*%
X82768423Y-69179659D03*
%TD*%
D19*
%TO.C,U$10*%
X82180000Y-61120000D03*
X53480000Y-61120000D03*
%TD*%
D20*
%TO.C,R15*%
X90180035Y-82224781D03*
X90180035Y-83874781D03*
%TD*%
D21*
%TO.C,J4*%
X73417293Y-25842183D03*
X74517293Y-25842183D03*
X75617293Y-25842183D03*
X76717293Y-25842183D03*
X77817293Y-25842183D03*
X78917293Y-25842183D03*
X80017293Y-25842183D03*
X81117293Y-25842183D03*
D22*
X71627293Y-38307183D03*
D23*
X75892293Y-38382183D03*
D24*
X69537293Y-25857183D03*
D25*
X82197293Y-26342183D03*
D26*
X69317293Y-37107183D03*
X82277293Y-37107183D03*
%TD*%
D18*
%TO.C,TP10*%
X82834389Y-67042233D03*
%TD*%
D20*
%TO.C,R13*%
X85617819Y-76504506D03*
X85617819Y-78154506D03*
%TD*%
D27*
%TO.C,U3*%
X72771000Y-47759998D03*
X72771000Y-48260000D03*
D28*
X72771000Y-48759999D03*
D27*
X72771000Y-49259998D03*
X72771000Y-49760000D03*
X73660000Y-49760000D03*
X73660000Y-49259998D03*
D28*
X73660000Y-48759999D03*
D27*
X73660000Y-48260000D03*
X73660000Y-47759998D03*
%TD*%
D29*
%TO.C,C3*%
X85768245Y-46429958D03*
X85768245Y-47979958D03*
%TD*%
D18*
%TO.C,TP3*%
X82933546Y-73731835D03*
%TD*%
%TO.C,TP5*%
X84760907Y-82514082D03*
%TD*%
D30*
%TO.C,R1*%
X91440000Y-63500000D03*
X91440000Y-61850000D03*
%TD*%
D17*
%TO.C,C7*%
X45825364Y-36180680D03*
X45825364Y-34630680D03*
%TD*%
D31*
%TO.C,C10*%
X67242566Y-29477128D03*
X65692566Y-29477128D03*
%TD*%
D32*
%TO.C,J6*%
X87059824Y-83999038D03*
X86259824Y-83999038D03*
X85459824Y-83999038D03*
D33*
X88359824Y-85399038D03*
X84159824Y-85399038D03*
%TD*%
D34*
%TO.C,SW2*%
X88465179Y-39821382D03*
X88465179Y-41521382D03*
D35*
X87715179Y-37996382D03*
D36*
X91415179Y-40671382D03*
D35*
X87715179Y-43346382D03*
X90415179Y-37996382D03*
X90415179Y-43346382D03*
%TD*%
D31*
%TO.C,C4*%
X87427752Y-49532902D03*
X85877752Y-49532902D03*
%TD*%
D32*
%TO.C,J2*%
X79788882Y-83530207D03*
X78988882Y-83530207D03*
X78188882Y-83530207D03*
X77388882Y-83530207D03*
X76588882Y-83530207D03*
X75788882Y-83530207D03*
X74988882Y-83530207D03*
X74188882Y-83530207D03*
D33*
X81088882Y-84930207D03*
X72888882Y-84930207D03*
%TD*%
D20*
%TO.C,R11*%
X84326371Y-79603927D03*
X84326371Y-81253927D03*
%TD*%
%TO.C,R16*%
X91740051Y-82386956D03*
X91740051Y-84036956D03*
%TD*%
D37*
%TO.C,D1*%
X87319125Y-61925000D03*
X87319125Y-63500000D03*
%TD*%
D30*
%TO.C,R3*%
X91082592Y-55125235D03*
X91082592Y-53475235D03*
%TD*%
D20*
%TO.C,R6*%
X88900000Y-62675000D03*
X88900000Y-64325000D03*
%TD*%
D38*
%TO.C,U2*%
X87630078Y-48345669D03*
X88280078Y-48345669D03*
X88930078Y-48345669D03*
X88930078Y-46570669D03*
X88280078Y-46570669D03*
X87630078Y-46570669D03*
D39*
X88280078Y-47458169D03*
%TD*%
D18*
%TO.C,TP2*%
X83567969Y-76895257D03*
%TD*%
D40*
%TO.C,X1*%
X47790409Y-37920035D03*
X47790409Y-39190035D03*
X47790409Y-40460035D03*
X47790409Y-41730035D03*
X47790409Y-43000035D03*
X47790409Y-44270035D03*
X47790409Y-45540035D03*
X47790409Y-46810035D03*
X47790409Y-48080035D03*
X47790409Y-49350035D03*
X47790409Y-50620035D03*
X47790409Y-51890035D03*
X47790409Y-53160035D03*
X47790409Y-54430035D03*
D41*
X49555409Y-55680035D03*
X50825409Y-55680035D03*
X52095409Y-55680035D03*
X53365409Y-55680035D03*
X54635409Y-55680035D03*
X55905409Y-55680035D03*
X57175409Y-55680035D03*
X58445409Y-55680035D03*
X59715409Y-55680035D03*
X60985409Y-55680035D03*
X62255409Y-55680035D03*
X63525409Y-55680035D03*
D40*
X65290409Y-54430035D03*
X65290409Y-53160035D03*
X65290409Y-51890035D03*
X65290409Y-50620035D03*
X65290409Y-49350035D03*
X65290409Y-48080035D03*
X65290409Y-46810035D03*
X65290409Y-45540035D03*
X65290409Y-44270035D03*
X65290409Y-43000035D03*
X65290409Y-41730035D03*
X65290409Y-40460035D03*
X65290409Y-39190035D03*
X65290409Y-37920035D03*
D42*
X55040409Y-45640035D03*
X55040409Y-44240035D03*
X53640409Y-44240035D03*
X53640409Y-45640035D03*
X53640409Y-47040035D03*
X55040409Y-47040035D03*
X56440409Y-47040035D03*
X56440409Y-45640035D03*
X56440409Y-44240035D03*
%TD*%
D43*
%TO.C,C2*%
X82672244Y-51800997D03*
X84222244Y-51800997D03*
%TD*%
D17*
%TO.C,C8*%
X45795260Y-42404527D03*
X45795260Y-40854527D03*
%TD*%
D44*
%TO.C,LS1*%
X51079439Y-85653852D03*
X51079439Y-74853852D03*
%TD*%
D20*
%TO.C,R7*%
X88985536Y-68028718D03*
X88985536Y-69678718D03*
%TD*%
D45*
%TO.C,R8*%
X70295000Y-55880000D03*
X71945000Y-55880000D03*
%TD*%
D20*
%TO.C,R9*%
X86360000Y-65215000D03*
X86360000Y-66865000D03*
%TD*%
D17*
%TO.C,C6*%
X45780208Y-39364373D03*
X45780208Y-37814373D03*
%TD*%
D29*
%TO.C,C5*%
X70892369Y-49862728D03*
X70892369Y-51412728D03*
%TD*%
D46*
%TO.C,R12*%
X90626983Y-71889385D03*
X88976983Y-71889385D03*
%TD*%
D17*
%TO.C,C1*%
X81415468Y-50186518D03*
X81415468Y-48636518D03*
%TD*%
D20*
%TO.C,R14*%
X85780604Y-79583846D03*
X85780604Y-81233846D03*
%TD*%
D18*
%TO.C,TP4*%
X84549873Y-74613303D03*
%TD*%
%TO.C,TP6*%
X86617593Y-82479077D03*
%TD*%
D47*
%TO.C,SW1*%
X75417561Y-46469882D03*
X79567561Y-46469882D03*
%TD*%
D18*
%TO.C,TP7*%
X88252051Y-82307780D03*
%TD*%
D48*
%TO.C,U1*%
X79310000Y-52540000D03*
X79310000Y-52940000D03*
X79310000Y-53340000D03*
X79310000Y-53740000D03*
X79310000Y-54140000D03*
X81280000Y-54140000D03*
X81280000Y-53740000D03*
X81280000Y-53340000D03*
X81280000Y-52940000D03*
X81280000Y-52540000D03*
D41*
X80295000Y-53340000D03*
%TD*%
D49*
%TO.C,U4*%
X69218481Y-48207452D03*
X69718481Y-48207452D03*
X70218481Y-48207452D03*
X70718481Y-48207452D03*
D50*
X71405981Y-47519952D03*
X71405981Y-47019952D03*
X71405981Y-46519952D03*
X71405981Y-46019952D03*
D49*
X70718481Y-45332452D03*
X70218481Y-45332452D03*
X69718481Y-45332452D03*
X69218481Y-45332452D03*
D50*
X68530981Y-46019952D03*
X68530981Y-46519952D03*
X68530981Y-47019952D03*
X68530981Y-47519952D03*
D51*
X69968481Y-46769952D03*
%TD*%
D31*
%TO.C,C11*%
X67266307Y-27970000D03*
X65716307Y-27970000D03*
%TD*%
D30*
%TO.C,R5*%
X85742799Y-43362379D03*
X85742799Y-41712379D03*
%TD*%
D47*
%TO.C,SW3*%
X83228412Y-54885091D03*
X87378412Y-54885091D03*
%TD*%
D30*
%TO.C,R2*%
X91191509Y-59821509D03*
X91191509Y-58171509D03*
%TD*%
%TO.C,R4*%
X83692938Y-45820841D03*
X83692938Y-44170841D03*
%TD*%
%TO.C,R17*%
X83961847Y-38236959D03*
X83961847Y-36586959D03*
%TD*%
D52*
%TO.C,D2*%
X90013823Y-66104836D03*
X88438823Y-66104836D03*
%TD*%
D20*
%TO.C,R10*%
X86360000Y-68470245D03*
X86360000Y-70120245D03*
%TD*%
D53*
%TO.C,J3*%
X91009300Y-79380966D03*
D54*
X89009300Y-79380966D03*
%TD*%
D18*
%TO.C,TP1*%
X85399248Y-73023222D03*
%TD*%
M02*
